<?xml version="1.0" encoding="UTF-8"?><svg xmlns="http://www.w3.org/2000/svg" viewBox="0 0 135.4 158.07"><defs><style>.d{fill:#a4a4a4;}</style></defs><g id="a"/><g id="b"><g id="c"><path class="d" d="M103.24,4.18c2.63,3.57,1.35,7.84,.22,12.09-2.05,7.73-4.09,15.43-7.46,22.73-.68,2.48-4.9,9.68,.1,9.73,10.87-.16,21.7-1,32.5-2.17,3.17-.48,9.62,2.26,5.41,5.67-2.06,1.68-4.2,3.3-6.42,4.75-6.18,4.04-12.45,7.94-18.62,11.99-2.91,1.91-5.67,4.04-8.52,6.03-1.59,1.11-1.95,2.53-1.27,4.29,3.48,9.87,7.7,19.44,12.88,28.54,2.04,3.63,3.17,7.55,4.48,11.42,1.19,5.49-7.98,4.71-11.26,3.69-6.88-2.14-13.55-4.72-19.38-9.1-2.57-1.73-8.37-7.3-7.99-.49,.22,9.63-.43,19.28,.68,28.89,.17,4.02,.95,8.34-.62,12.17-1.73,4.48-3.86,4.83-6.86,1.13-7.32-9.4-10.78-21.2-17.53-30.98-3.98-6.79-10.18,1.08-12.9,4.97-3.84,5.54-7.68,11.19-12.66,15.78-3.12,1.37-3.72-3.37-3.26-5.49,.42-3.72,1.77-7.15,3.38-10.49,3.57-7.38,7.15-14.77,10.72-22.15,7.4-13.13-13.02-4.82-18.24-2.67-5.84,2.44-11.95,4.53-18.3,5.04-4.25-.64-1.7-6.56,.35-8.43,7.18-8.75,16.05-15.81,24.93-22.76,6.7-5.42-4.72-18.51-7.05-24.72-3.7-7.78-8.72-16.09-6.76-24.99,1.49-5.14,5.72,.05,7.51,2.2,5.29,6,10.58,11.99,15.81,18.03,2.12,2.95,9.88,7.61,11.18,1.84,.95-16.34-1.34-32.93,1.29-49.13,2.64-5.79,8.69,5.78,9.36,8.27,1.65,6.19,10.33,33.95,16.76,25.08,6.44-8.89,15.61-21.03,23.07-28.36,.86-.84,3.04-2.43,4.48-2.41Z"/></g></g></svg>