<?xml version="1.0" encoding="UTF-8"?>
<svg id="_レイヤー_2" data-name="レイヤー 2" xmlns="http://www.w3.org/2000/svg" viewBox="0 0 171.2 173.89">
  <defs>
    <style>
      .cls-1 {
        fill: #a4a4a4;
      }
    </style>
  </defs>
  <g id="parts">
    <path class="cls-1" d="M170.03,41.68c-.7,19.44-1.56,38.87-2.01,58.32-.13,5.62-1.65,9.9-5.73,14.05-18.09,18.42-35.85,37.16-53.6,55.9-16.12,8.84-38.04,.03-55.96,.17-13.01-1.35-26.05-2.49-39.08-3.71-6.37-.6-6.63-.78-7.07-6.73C4.47,131.11,2.41,102.54,.33,73.96c-.7-10.91-1.06-12.12,7.13-19.43,11.6-10.87,23.37-21.55,34.96-32.42C52.77,15.03,59.56-2.01,73.83,.2c30.27,5.43,60.61,10.46,90.91,15.73,5.58,.97,6.52,2.14,6.46,7.75-.06,6.01-.48,12.02-.74,18.02-.14,0-.29-.01-.43-.02Z"/>
  </g>
</svg>