<?xml version="1.0" encoding="UTF-8"?>
<svg id="_レイヤー_2" data-name="レイヤー 2" xmlns="http://www.w3.org/2000/svg" viewBox="0 0 106.48 195.39">
  <defs>
    <style>
      .cls-1 {
        fill: #a4a4a4;
      }
    </style>
  </defs>
  <g id="parts">
    <path class="cls-1" d="M33.42,144.05c.14-.35-2.59-7.59-3.48-9.42-8.08-16.57-12.04-34.34-15.38-52.3-1.76-9.46-3.44-18.94-5.29-28.39C6.08,37.67,2.74,21.42,.13,5.04-.25,2.64,.09,2,2.38,1.67,6.63,1.05,10.89,.51,15.16,.08c2.74-.28,3.14,.09,3.57,2.89,1.13,7.48,2.32,14.97,3.25,22.48,1.21,9.75,2.34,19.51,3.24,29.3,1.06,11.47,3.37,22.7,6.28,33.8,1.24,4.72,3.55,9.15,5.18,13.77,2.82,7.98,7.03,15.22,11.51,22.34,4.59,7.29,9.14,14.6,13.53,22.01,1.63,2.74,3.77,4.71,6.42,6.39,11.57,7.37,23.07,14.85,34.59,22.29,.86,.55,1.71,1.13,2.53,1.74,1.13,.84,1.53,2.07,.91,3.26-2.34,4.5-3.55,9.53-6.82,13.62-1.12,1.4-2.13,1.55-3.63,1.38-4.78-.56-8.85-3.14-13.27-4.72-3.83-1.37-7.51-3.23-11.17-5.04-2.95-1.46-5.54-3.4-7.81-5.87-3.87-4.22-7.96-8.23-11.95-12.32,0,0-18.3-23.41-18.12-23.34Z"/>
  </g>
</svg>