<?xml version="1.0" encoding="UTF-8"?><svg xmlns="http://www.w3.org/2000/svg" viewBox="0 0 303.75 264.86"><defs><style>.d{fill:#a4a4a4;}</style></defs><g id="a"/><g id="b"><g id="c"><path class="d" d="M.09,157.61c1.43-14.45,18.4-28.07,29.7-35.77,12.74-8.87,28.3-11.56,42.96-15.89,1.57-.45,3.12-.99,4.64-1.61,3.07-1.24,3.38-2.29,1.75-5.05-2.4-4.05-4.79-8.1-7.08-12.21-8.97-16.61-14.03-35.82-13.73-54.71,.51-10.22,4.18-18.99,12.87-25.3C82.12-.86,79.07,.32,91.9,.14c9.94-.57,19.73,.61,28.95,4.14,7.28,2.52,13.2,7.42,16.71,14.55,8.19,17.4,15.77,35.13,21.51,53.5,.72,2.75,2.54,5.12,5.62,4.14,26.07-12.51,52.58-25.36,81.38-30.31,15.06-3.26,30.92-1.74,44.98,4.71,5.03,2.32,8.76,5.94,10.38,11.45,.59,2.05,2.24,4,2.32,6.18-1.83,22.57-15.67,40.75-35.41,51.1-5.89,3.69-11.97,7.13-17.67,11.1-6.13,4.27-12.86,7.26-19.8,9.65-11.79,4.07-23.45,8.59-35.68,11.29-2.26,.5-2.8,1.53-1.8,3.47,3,5.83,6.18,11.56,9.12,17.41,10.28,19.8,18.49,40.65,23.46,62.43,1.04,2.9-.19,5.53-.43,8.42-.26,6.08-3.55,10.8-7.02,15.36-3.05,4-7.52,5.77-12.37,5.92-7.78,.24-15.61,.39-23.36-.19-25.25-4.59-43.19-26.49-55.65-47.49-2.67-4.6-5.59-9.09-7.81-13.9-1.61-3.48-2.25-7.4-3.32-11.13-1.19-4.12-2.32-8.26-3.61-12.36-1.02-4.13-5.7-1.56-8.32-.56-25.71,11.33-56.63,17.64-83.28,6.03-6.96-2.73-22.15-12.98-20.71-27.43Z"/></g></g></svg>