<?xml version="1.0" encoding="UTF-8"?>
<svg id="_レイヤー_2" data-name="レイヤー 2" xmlns="http://www.w3.org/2000/svg" viewBox="0 0 208.49 290.89">
  <defs>
    <style>
      .cls-1 {
        fill: #a4a4a4;
      }
    </style>
  </defs>
  <g id="parts">
    <path class="cls-1" d="M155.69,200.04c-2.54,6.16-4.48,11.46-6.87,16.54-6.24,13.26-12.76,26.39-19.01,39.65-2.83,6.02-5.78,11.88-9.47,17.5-3.51,5.35-7.31,10.32-11.46,15.13-1.96,2.27-3.78,2.54-6.39,1.32-19.19-8.97-37.86-18.92-53.71-33.11-12.97-11.61-24.58-24.68-30.28-41.61-5.46-16.23-10.65-32.58-15.1-49.11-4.84-17.97-4.3-36.15,.14-54.25,4.58-18.65,11.42-36.41,22.28-52.24,4.84-7.06,11.44-12.95,17.48-19.14,2.88-2.95,6.32-5.36,9.53-7.98,18.73-15.28,40.52-23.7,63.97-28.25,7.21-1.4,14.56-2.14,21.74-3.67,7.61-1.61,14.99-.49,22.41,.87,4.82,.88,9.58,2.12,14.43,2.82,11.08,1.6,20.73,6.66,30.33,11.96,2.63,1.45,3.2,3.19,2.48,6.01-4.86,18.83-10.44,37.42-18.96,54.97-2.46,5.06-5.66,9.76-8.65,14.55-1.42,2.28-3.45,3.02-6.3,2.46-8.87-1.75-17.89-2.83-26.68-4.92-8.24-1.96-16.06-.48-23.98,1.2-10.89,2.31-18.11,9.53-24.15,18.27-4.39,6.35-8.79,12.69-13.14,19.07-.73,1.07-1.57,2.24-1.78,3.47-1.06,6.12-2.03,12.26-2.84,18.41-.74,5.62,.98,10.88,3.25,15.87,1.87,4.1,4.14,8.06,6.57,11.85,1.06,1.65,2.79,3.08,4.53,4.06,8.86,4.98,17.57,10.34,26.84,14.42,4.99,2.2,10.97,2.33,16.56,2.97,5.01,.58,10.09,.6,16.22,.92Z"/>
  </g>
</svg>