<?xml version="1.0" encoding="UTF-8"?><svg xmlns="http://www.w3.org/2000/svg" viewBox="0 0 202.87 127.43"><defs><style>.d{fill:#a4a4a4;}</style></defs><g id="a"/><g id="b"><g id="c"><path class="d" d="M184.9,57.27c11.6,8.98,23.96,36.23,14.77,50.63-1.89,2.88-3.11,6.09-5.41,8.84-4.6,5.5-10.95,7.75-17.12,10.43-1.55,.67-2.86-.01-3.41-1.59-1.24-4.49-3.93-9.55-3.75-14.12,.36-1.62,2.73-2.76,4.14-4.18,4.97-4.69,9.7-10.52,6.8-17.65-2.23-6.54-5.65-12.25-11.54-16.22-15.15-10.2-30.72-19.75-47.02-27.94-29.82-14.54-46.18-14.29-78.61-18.71C38.86,26.21-.53,25.99,0,23.06,.82,18.6,.7,5.3,1.87,.25c2.77-1.29,49.51,2.75,52.41,3.12,30.42,5.36,60.15,15.16,88.39,27.56,15.43,6.99,28.62,16.6,42.23,26.34Z"/></g></g></svg>