<?xml version="1.0" encoding="UTF-8"?>
<svg id="_レイヤー_2" data-name="レイヤー 2" xmlns="http://www.w3.org/2000/svg" viewBox="0 0 147.94 212.59">
  <defs>
    <style>
      .cls-1 {
        fill: #a4a4a4;
      }
    </style>
  </defs>
  <g id="parts">
    <path class="cls-1" d="M147.94,51.04c-.23,1.97-1.02,26.65-1.07,28.62-.51,18.45-1.64,128.58-1.8,131.03-.1,1.56-1.06,2.24-2.48,1.74-3.09-1.08-38.4-16.49-52.86-23.3-17.43-8.21-75.04-36.89-86.62-42.6-2.74-1.35-3.37-3.12-3.01-5.87,1.06-8.13,5.95-55.45,7.42-70.96C8.29,61.53,11.89,4.71,12.78,0c13.26,4.64,63.98,25.41,76.78,30.38,12.77,4.96,58.39,20.66,58.39,20.66Z"/>
  </g>
</svg>