<?xml version="1.0" encoding="UTF-8"?>
<svg id="_レイヤー_2" data-name="レイヤー 2" xmlns="http://www.w3.org/2000/svg" viewBox="0 0 200.21 178.72">
  <defs>
    <style>
      .cls-1 {
        fill: #a4a4a4;
      }
    </style>
  </defs>
  <g id="parts">
    <path class="cls-1" d="M0,96.86c13.24,3.93,26.76,1.89,40.27,1.44,9.88,.07,19.59-1.49,29.32-2.85,7.82-1.56,14.75-6.07,22-9.24,3.89-1.87,7.5-4.17,10.82-6.97,7.36-6.21,15.02-12.09,22.09-18.6,7.16-6.95,13.28-15.09,19.05-23.25,8.17-11.16,10.25-25.32,16.63-37.39,7.26,9.79,37.33,61.12,40.02,68.38-15.3,2.84-30.65,5.12-45.36,10.46-17.44,5.93-35.33,11.02-50.56,21.74-13.73,8.28-24.42,20.51-36.75,30.64-15.71,14.05-30.25,29.32-41.13,47.5C16.59,153.68,9.43,127.6,.62,102.14c-.54-1.67-.39-3.57-.56-5.36l-.07,.08Z"/>
  </g>
</svg>