<?xml version="1.0" encoding="UTF-8"?>
<svg id="_レイヤー_2" data-name="レイヤー 2" xmlns="http://www.w3.org/2000/svg" viewBox="0 0 193.18 170.31">
  <defs>
    <style>
      .cls-1 {
        fill: #a4a4a4;
      }
    </style>
  </defs>
  <g id="parts">
    <path class="cls-1" d="M0,29.62c1.15-6.6,2.14-13.24,3.57-19.78,.37-1.71,1.82-3.49,3.26-4.62C14.1-.48,22.11-1.78,30.4,2.65c21.49,10.95,40.44,26.17,61.47,37.95,4.79,2.77,10.28,4.47,15.61,6.14,13.89,4.34,27.72,8.9,42.1,11.57,12.37,2.29,23.21,8.45,33.14,15.77,7.59,5.6,11.78,13.72,10.09,23.52-2.23,12.92-7.86,23.92-19.8,30.65-19.66,11.4-42.08,14.92-64.16,18.59-4.04,.72-7.37,2.96-9.92,5.92-6.44,7.46-14.9,11.71-23.51,15.87-4.02,1.94-7.94,2.09-12.22,1-8.45-2.06-15.58-6.06-20.9-13.1-6.32-5.95-10.13-12.53-9.95-21.95,.23-12.3-2.46-24.43-5.88-36.34-2.81-9.77-6.48-19.05-11.79-27.74C7.11,58.02,.81,44.46,0,29.62Z"/>
  </g>
</svg>