<?xml version="1.0" encoding="UTF-8"?><svg xmlns="http://www.w3.org/2000/svg" viewBox="0 0 329.02 241.38"><defs><style>.d{fill:#a4a4a4;}</style></defs><g id="a"/><g id="b"><g id="c"><path class="d" d="M315.53,113.71c-4.72,3.95-13.03,8.41-23.05,11.41-7.45,2.23-18.71,4.22-26.25,6.12-33.36,5.63-67.61,2.18-101.21,5.36-5.49,.52-14.17,6.15-16.18,9.99-4.03,8.54,2.24,18.64,7.82,24.99,6.54,7.15,21.8,4.99,30.87,6.78,35.95-.2,66.76-3.85,102.79-2.57,5.74,.05,11.48,.29,17.22,.28,6.04,.25,11.59,4.23,16.24,7.86,1.85,1.76,3.24,3.65,3.59,6.24,.81,6.1,2.39,13.95,1.28,21.56s-5.96,13.05-12.35,18.25-30.82,8.93-37.28,9.43c-15.55,.96-31.08,2.33-46.68,1.86-28.69-.39-57.48,.65-85.77-4.92-27.68-3.92-26.4-5.39-47.7-22.51-19.11-15.05-13.17-51.19-13.08-73.05-.37-2.91,.92-9.77-2.78-10.47-15.49-3.17-65.01-6.54-72.89-11.22-4.14-2.26-7.74-5.36-9.57-10.03-2.13-4.54,2.33-8.46,5.86-10.74,21.55-13.22,46.82-13.81,71.22-16.3,12.9-.81,20.19-11.15,24.69-22,10.17-21.16,29.11-28.78,50.82-33.27,14.42-3.09,28.76-6.58,43.12-9.94,20.75-4.85,41.44-9.97,62.27-14.44,7.36-1.58,15.05-1.67,22.6-2.27,1.56-.12,10.28-1.39,20.3,8.06,1.76,1.66,3.95,5.86,4.6,8.18,1.51,5.34-11.61,15.34-19.21,17.61-39.12,14.14-82.18,15.41-119.89,33.46-2.36,1.2-2.4,2.35-4.94,6.05-3.61,5.24,3,21.23,12.46,19.67,35.29-4.98,71.12-4.89,106.39-10.56,8.74-1.13,17.51-2.05,26.25-3.11,5.43-.66,10.31,3.41,12.42,12.87s.73,17.41-3.99,21.37Z"/></g></g></svg>