<?xml version="1.0" encoding="UTF-8"?>
<svg id="_レイヤー_2" data-name="レイヤー 2" xmlns="http://www.w3.org/2000/svg" viewBox="0 0 190.7 256.85">
  <defs>
    <style>
      .cls-1 {
        fill: #a4a4a4;
      }
    </style>
  </defs>
  <g id="parts">
    <path class="cls-1" d="M101.83,0c2.08,9.98-1.36,17.98-2.56,26.11-3.4,31.03-4.34,62.88,4.11,93.18,2.19,8.03,4.15,16.16,5.61,24.35,1.13,6.32,3.62,11.99,6.69,17.44,10.85,19.33,23.21,37.52,38.11,54.12,10.89,12.13,22.17,23.82,33.72,35.29,1.73,1.57,5.26,5.12,1.57,6.37-13.78-.02-27.49-.78-41.15-2.45-45.31-3.66-95.98-8.63-126.28-46.83-13.99-12.57-19.28-28.66-19.41-47.01-.04-5.38-1.02-10.76-1.63-16.13-1.42-12.6-.35-25.03,2.87-37.24,4.29-16.24,11.16-31.45,19.32-46.08,1.6-2.86,3.93-5.4,6.23-7.78,16.63-17.18,35.32-31.84,55.28-44.91,5.18-3.39,10.65-6.42,17.5-8.43Z"/>
  </g>
</svg>