<?xml version="1.0" encoding="UTF-8"?><svg xmlns="http://www.w3.org/2000/svg" viewBox="0 0 198.32 190.38"><defs><style>.d{fill:#a4a4a4;}</style></defs><g id="a"/><g id="b"><g id="c"><path class="d" d="M4.24,.96C14.02,11.45,24.21,21.7,37.24,28.18c7.15,3.58,14.8,4.53,22.48,5.78,16.87,2.73,33.9,2.66,50.9,2.9,13.98,.19,27.8,1.84,41.54,4.13,6.51,1.09,12.52,4.05,17.75,7.99,9.44,6.94,15.43,17.58,21.46,27.41,4.49,8.18,6.96,16.99,6.95,26.43,0,10.09-1.82,19.97-3.3,29.89-.12,.79-.39,1.62-.82,2.3-7.93,14.8-20.38,24.76-34.4,33.44-4.11,2.67-8.92,2.94-13.5,3.81-5.42,1.03-10.93,1.67-16.43,2.23-1.98,.2-4.08-.11-6.04-.57-15.86-3.73-31.95-5.15-48.2-4.97-11.51,.13-21.76,3.41-29.98,11.93-3.12,3.24-6.5,6.23-9.77,9.32-.13,.12-.39,.11-.59,.17-.3-.27-.77-.48-.88-.81-2.27-6.48-3.31-13.05-1.3-19.83,6.74-26.65,16.01-38.8,33.67-59.02,2.84-2.97-1.82-4.51-3.69-6.1C35.62,87.33,9.59,62.08,4.5,28.66,3.01,19.77,1.55,10.88,.04,2-.39-.55,2.96-.39,4.24,.96Z"/></g></g></svg>