<?xml version="1.0" encoding="UTF-8"?>
<svg id="_レイヤー_2" data-name="レイヤー 2" xmlns="http://www.w3.org/2000/svg" viewBox="0 0 195.55 240.57">
  <defs>
    <style>
      .cls-1 {
        fill: #a4a4a4;
      }
    </style>
  </defs>
  <g id="parts">
    <path class="cls-1" d="M78.56,240.24c-1.64,0-3.29-.13-4.92,.03-4.22,.41-8.13-.5-11.84-2.48-3.43-1.83-7.28-3.16-10.2-5.6-6.09-5.08-10.71-11.1-10.51-19.84,.14-6.41,.7-12.61,3.04-18.64,4.45-11.45,8.67-22.98,13.08-34.45,.75-1.94,1.21-3.84,1.41-5.91,.44-4.56-1.34-8.01-4.85-10.65-8.08-6.09-16.79-10.92-26.76-13.22-3.39-.78-6.75-1.68-10.08-2.67-4.23-1.26-7.88-3.4-10.25-7.34-.95-1.58-1.95-3.14-3.04-4.62-5.36-7.26-4.38-14.45,.14-21.64,1.74-2.77,3.39-5.61,5.07-8.41,.42-.7,11.2-13.97,17.32-18.98,6.81-5.57,13.5-11.31,20.63-16.44,10.47-7.53,21.05-14.91,31.86-21.94,4.42-2.88,9.44-4.93,14.35-6.93,8.34-3.39,16.75-6.64,25.25-9.6,12.76-4.44,25.84-7.62,39.21-9.83C163.83,.04,170.12,.12,176.45,0c5.8-.11,10.13,2.45,13.15,7.5,3.72,6.23,5.1,12.43,.96,19.02-1.63,2.6-3.18,5.27-4.7,7.91-6.19,10.81-20,23.13-24.28,25.55-4.28,2.42-8.64,4.69-12.9,7.15-4.97,2.86-9.85,5.87-14.78,8.79-2.47,1.46-5,2.81-7.45,4.3-3.74,2.29-3.66,6.6,.21,8.75,5.07,2.82,10.45,4.68,16.35,4.71,3.49,.01,6.98-.07,10.46,.15,11.87,.75,22.17,5.27,30.93,13.28,.9,.82,1.6,1.86,2.33,2.84,4.1,5.54,6.52,11.94,8.09,18.46,1.03,4.26,.84,9.06,.14,13.45-1.62,10.1-3.7,20.18-8.99,29.16-2.8,4.76-5.68,9.53-9.06,13.87-6.67,8.56-13.66,16.86-21.55,24.38-4.01,3.82-8.13,7.38-12.78,10.47-9.47,6.29-19.63,10.97-30.42,14.36-6.44,2.02-12.75,4.53-19.54,5.2-4.67,.46-9.35,.85-14.03,1.27,0-.11-.02-.22-.03-.33Z"/>
  </g>
</svg>