<?xml version="1.0" encoding="UTF-8"?><svg xmlns="http://www.w3.org/2000/svg" viewBox="0 0 197.45 209.05"><defs><style>.d{fill:#a4a4a4;}</style></defs><g id="a"/><g id="b"><g id="c"><path class="d" d="M162.76,0c4.56-.06,8.94,.54,13.25,2.06,4.43,1.57,12.73,4.34,17.75,8.16,5.02,3.82,3.77,15.16,2.8,22.92-1.37,11-12.06,19.3-20.37,18.77-7.56-.48-15.19,.16-22.74-.43-9.76-.75-21.58-2.48-29.13-3.96-7.55-1.48-54.38-1.77-57.03-1.92-5.95-.32-10.72,2.13-14.97,5.97-1.22,1.1-6.8,8.44-6.99,11.68-.4,7.04,.4,13.76,2.9,20.47,4.72,12.66,26.24,63.55,31.58,76.62,2.24,5.48,2.02,12.96-1.51,23.33-3.53,10.38-16.43,19.12-19.42,20.06-6.67,2.1-14.11,5.31-21.11,5.31s-18.75-8.27-20.87-12.64c-2.13-4.36-7.27-15.14-10.57-22.85-2.34-5.47-3.08-13.89-4.32-19.7S-.44,136.8,.16,128.25c.61-8.74,3.59-30.62,3.98-32.83,2.02-11.37,6.27-22.02,10.7-32.58,3.64-8.68,7.74-17.17,11.63-25.75,3.38-7.44,8.74-13.31,14.85-18.54,1.52-1.3,22.4-9.92,31-13.21,6.55-2.51,13.52-3.38,20.43-3.77C108.27,.69,154.97,.11,162.76,0Z"/></g></g></svg>