<?xml version="1.0" encoding="UTF-8"?><svg xmlns="http://www.w3.org/2000/svg" viewBox="0 0 188.42 78.04"><defs><style>.d{fill:#a4a4a4;}</style></defs><g id="a"/><g id="b"><g id="c"><path class="d" d="M188.17,0c.09,8.13,.2,15.82,.25,23.52,.02,3.56-.12,7.13-.13,10.69-.03,10.26-.01,20.51-.06,30.77-.02,4.03-.08,4.09-4.21,4.3-28.54,1.43-126.44,6.47-146.86,7.46-4.78,.23-9.6-.27-14.39-.06-4.47,.19-8.9,.98-13.37,1.27-4.27,.28-4.43,.16-4.78-3.79C3.07,56.13,1.65,38.09,.03,20.06c-.26-2.89,1.12-3.37,3.38-3.57,9.01-.77,18.02-1.6,27.02-2.42C64.48,11,183.32,.25,188.17,0Z"/></g></g></svg>