<?xml version="1.0" encoding="UTF-8"?><svg xmlns="http://www.w3.org/2000/svg" viewBox="0 0 149.71 152.83"><defs><style>.d{fill:#a4a4a4;}</style></defs><g id="a"/><g id="b"><g id="c"><path class="d" d="M149.71,63.19c-3.87,4.09-7.24,7.7-10.66,11.25-4.91,5.09-9.91,10.09-14.78,15.21-2.75,2.9-2.33,3.88,.83,6.43,7.09,5.71,13.99,11.66,20.95,17.54,.22,.18,.23,.62,.46,1.3-3.94,2.31-8.28,3.9-12.76,4.66-6.45,1.08-12.98,1.68-19.5,2.29-4.97,.46-19.13,1.04-21.13,1.49-2.25,.51-4.16,1.26-5.77,3.56-6.63,9.48-15.19,17.24-23.89,25.91-.63-1.88-1.23-3.05-1.41-4.28-1.23-8.7-2.07-17.48-3.63-26.12-1.47-8.13,.21-8.08-8.96-6.51-9.16,1.56-18.19,3.92-27.29,5.87-.9,.19-1.89-.04-2.84-.07,.12-.96,.03-2.01,.39-2.86,3.45-8.08,6.98-16.13,10.47-24.2,.55-1.26,.93-2.6,1.49-3.86,.95-2.14,.07-3.16-1.98-3.75-4.47-1.29-23.58-6.73-29.69-8.35,1.99-1.9,3.17-3.33,4.62-4.38,8.37-6.06,16.75-12.12,25.26-17.99,1.99-1.37,2.25-2.65,1.53-4.72-2.53-7.32-5.04-14.65-7.38-22.04-.59-1.86-.53-3.92-.77-5.89,1.96,.38,3.95,.63,5.86,1.18,2.98,.85,5.94,1.8,8.84,2.91,1.71,.65,3.35,1.58,4.9,2.57,2.96,1.91,7.18,1.42,8.88-1.6,2.35-4.19,4.47-8.54,6.29-12.99,2.01-4.92,3.57-10.02,5.57-15.76,1.32,1.13,2.62,1.89,3.45,3,4,5.4,16.67,23.46,18.94,27.12,1.32,2.14,2.66,2.29,4.59,.88,4.18-3.04,8.43-6,12.64-9,1.4-1,2.76-2.07,4.18-3.04,4.33-2.95,5.62-2.51,7.24,2.61,.46,1.46,.7,3.03,.75,4.56,.22,7.07,.38,14.14,.47,21.21,.07,5.27-.02,5.34,4.83,6.85,7.73,2.41,15.5,4.72,23.25,7.08,1.62,.5,3.22,1.06,5.78,1.91Z"/></g></g></svg>