<?xml version="1.0" encoding="UTF-8"?><svg xmlns="http://www.w3.org/2000/svg" viewBox="0 0 361.15 109.34"><defs><style>.d{fill:#a4a4a4;}</style></defs><g id="a"/><g id="b"><g id="c"><path class="d" d="M361.15,107.24c-9.09,1.43-17.7,1.37-26.77,2.08-1.61,.1-2.73-.41-3.51-1.88-10.51-19.92-24.03-39.85-44.89-49.85-14.4-8.13-30.4-12.13-46.3-16.16-13.12-3.4-26.87-2.81-40.3-4.12-30.82-2.83-61.26-8.83-92.08-11.69-9.69-.98-90.16-7.24-105.25-8.73C.41,16.64-.19,16,.05,14.46,.78,9.81,1.56,5.16,2.4,.53c.73-3.05,197.81,8.03,228.43,9.17,15.28,1.53,30.36,4.95,45.65,6.36,8.74,.88,16.13,4.4,23.21,8.92,10.01,6.41,19.82,13.14,29.69,19.76,3.23,2.17,6.53,4.26,9.57,6.67,1.36,1.08,2.43,2.76,3.16,4.37,3.22,7.09,6.58,14.15,9.31,21.43,3.49,10.04,7.11,19.63,9.72,30.02Z"/></g></g></svg>