<?xml version="1.0" encoding="UTF-8"?><svg xmlns="http://www.w3.org/2000/svg" viewBox="0 0 180.48 34.12"><defs><style>.d{fill:#a4a4a4;}</style></defs><g id="a"/><g id="b"><g id="c"><path class="d" d="M109.5,29.62c-29.43,.28-71.47,2.09-103.43,4.25-1.95-.17-5.8,1.36-6.07-1.57C.09,24.19,.89,16.09,1.29,7.98c.21-3.38,.58-3.85,3.8-3.97,4.94-.19,9.88-.26,14.82-.35,42.52-.63,85.03-1.63,127.53-2.78,8.9-.25,17.8-.59,26.71-.88,2.99,.07,7.02-.5,6.24,3.79-.51,7.7-1.17,15.4-1.85,23.09-.16,1.85-.85,2.48-2.65,2.53-22.88,.45-38.95,.12-66.38,.21Z"/></g></g></svg>