<?xml version="1.0" encoding="UTF-8"?><svg xmlns="http://www.w3.org/2000/svg" viewBox="0 0 244.54 105.18"><defs><style>.d{fill:#a4a4a4;}</style></defs><g id="a"/><g id="b"><g id="c"><path class="d" d="M2.43,91.14c1.58-2.45,4.27-5.7,5.95-9.41,5.6-12.35,13.37-23.57,18.33-36.29,2.31-5.94,6.31-11.27,9.84-16.68,4.35-6.67,9.59-12.64,14.98-18.51C56.85,4.45,63.73,2.15,70.92,.39c4.26-1.04,8.45,.03,11.53,3.08,4.38,4.35,9.19,8.65,12.21,13.9,4.9,8.52,23.92,32.56,27.88,36.5,3.68,3.66,7.34,7.57,13.09,8.46,4.73,.73,8.78-.27,12.53-2.97,5.05-3.63,21.63-22.02,25.64-26.73,5.09-5.98,11.82-7.43,19.19-6.92,1.34,.09,2.95,.76,3.88,1.71,5.77,5.89,11.43,11.9,16.99,17.98,1.16,1.27,1.94,2.98,2.56,4.61,3.74,10,9.28,19.08,14.47,28.32,4.19,7.45,8.62,14.75,12.92,22.14,1.45,2.5,.77,4.09-1.96,4.25-4.71,.27-9.44,.52-14.16,.46-20.04-.25-91.95-1.54-107.87-1.71-15.92-.17-31.85-.09-47.77-.3-11.79-.16-56.56-1.97-67.15-2.49-.88-.04-1.77-.04-2.64-.16-1.45-.2-2.6-1.87-2.15-3.24,.55-1.68,1.25-3.31,2.33-6.11Z"/></g></g></svg>