<?xml version="1.0" encoding="UTF-8"?><svg xmlns="http://www.w3.org/2000/svg" viewBox="0 0 283.55 244.76"><defs><style>.d{fill:#a4a4a4;}</style></defs><g id="a"/><g id="b"><g id="c"><path class="d" d="M26.95,48.71c4.11-6,9.04-11.33,13.82-16.79,4.54-5.19,9.99-8.68,16.21-11.41,12.62-5.54,25.34-10.77,38.7-14.27C105.41,3.68,135.98-.47,139.7,.04c12.34,1.72,24.68,3.45,37.02,5.19,1.83,.26,31.72,12,35.74,15.09,5.44,4.2,24.29,18.3,33.88,26.84,5.99,5.34,20.64,23.86,23.89,31.04,5.01,11.07,11.85,37.34,12.2,38.78,1.48,6.05,1.59,6.09-.26,11.84-3.93,10.16-12.39,31.22-15.4,39.6-2.1,5.85-5.75,10.24-10.1,14.39-16.45,15.7-33.68,30.45-52.2,43.68-2.33,1.66-4.86,2.69-7.57,3.4-10.25,2.71-20.6,4.99-31.07,6.75-15.41,2.59-30.83,5.17-46.22,7.87-2.3,.4-4.45,.24-6.6-.33-18.63-4.97-36.38-11.98-52.5-22.75-5.88-3.93-11.8-7.77-17.68-11.7-.92-.61-7.22-7.26-9.24-10.08-2.16-3.03-10.52-14.91-12.24-17.99-4.91-8.77-9.61-17.65-14.49-26.43-1.3-2.35-1.82-4.86-2.29-7.41C2.43,136.32,1.06,124.68,0,113.01c-.13-1.48,3.5-21.57,5.27-26.26,0,0,14.83-28.06,21.67-38.04Z"/></g></g></svg>