<?xml version="1.0" encoding="UTF-8"?>
<svg id="_レイヤー_2" data-name="レイヤー 2" xmlns="http://www.w3.org/2000/svg" viewBox="0 0 105.99 203.24">
  <defs>
    <style>
      .cls-1 {
        fill: #a4a4a4;
      }
    </style>
  </defs>
  <g id="parts">
    <path class="cls-1" d="M55.17,0c2.69,.12,4.51,1.6,6.35,2.74,9.59,5.92,19.11,11.96,28.64,17.98,3.29,2.08,6.51,4.28,9.83,6.32,1.85,1.14,2.87,2.5,3.29,4.78,2.21,11.96,3.09,23.98,2.56,36.12-.29,6.45-2.13,12.38-4.83,18.26-5.57,12.11-14.34,21.44-24.75,29.28-4.64,3.49-7.76,7.65-9.95,12.87-2.87,6.83-5.14,13.82-6.51,21.1-.65,3.42-1.29,6.85-2.12,10.23-1.86,7.59-2.97,15.23-2.95,23.08,.02,6.14-.5,12.29-.83,18.43-.11,2.06-1.09,2.57-2.66,1.46-4.51-3.2-9.02-6.41-13.5-9.66-11.1-8.07-22.19-16.16-33.28-24.25-1.16-.85-2.42-1.6-3.39-2.64-.61-.66-1.13-1.78-1.06-2.64,.83-10.21,1.81-20.4,4.28-30.4,2.87-11.6,8.21-21.8,16.47-30.47,5.67-5.95,10.71-12.38,15.39-19.15,7.13-10.32,11.48-21.72,13.75-33.93,1.65-8.86,2.99-17.79,4.08-26.74,.67-5.47,.59-11.04,.85-16.56,.1-2.01,.21-4.01,.33-6.24Z"/>
  </g>
</svg>