<?xml version="1.0" encoding="UTF-8"?>
<svg id="_レイヤー_2" data-name="レイヤー 2" xmlns="http://www.w3.org/2000/svg" viewBox="0 0 110.17 337.84">
  <defs>
    <style>
      .cls-1 {
        fill: #a4a4a4;
      }
    </style>
  </defs>
  <g id="parts">
    <path class="cls-1" d="M110.17,0c-5.39,7.84-9.3,16.19-14.26,24.21-16.27,27.35-32.65,54.64-48.49,82.24-2.25,4-4.23,8.16-6.43,12.19-1.18,2.16-1.05,4.12-.01,6.32,7.46,15.78,40.02,88.83,48.98,109.51,.5,1.13,.54,2.05,.06,3.15-5.18,12.27-10.13,24.7-14.41,37.29-4.33,13.33-10.44,25.91-15.54,38.9-3.21,7.99-5.85,16.12-9.3,24.02-1.33-.42-.82-1.51-.74-2.25,1.2-11.83,3.03-23.59,4.24-35.41,2.12-21.63,6.43-42.94,10.04-64.33,.41-2.03,.17-3.76-.83-5.47-9.27-15.89-41.56-71.22-48.07-83.2-1.67-4.82-18.54-30.35-14.89-31.99C22.46,93.62,91.89,19.23,105.15,4.06c1.45-1.66,2.97-3.23,5.03-4.06Z"/>
  </g>
</svg>