<?xml version="1.0" encoding="UTF-8"?><svg xmlns="http://www.w3.org/2000/svg" viewBox="0 0 217.49 167.71"><defs><style>.d{fill:#a4a4a4;}</style></defs><g id="a"/><g id="b"><g id="c"><path class="d" d="M217.49,80.78c-43.83,29.06-87.65,57.88-131.64,86.68-1.85,1.18-3.2-2.15-4.41-3.11-17.36-21.31-35.03-42.35-52.77-63.34C19.17,89.62,9.55,78.3,.44,66.59c-.64-.9-.59-1.44,.25-2.06,2.24-1.65,4.48-3.3,6.77-4.89C35.36,40.67,62.5,20.49,91.38,2.99c6.82-4.04,4.51-4.04,10.77,.3,8.86,6.14,17.69,12.34,26.6,18.42,19.14,12.67,38.61,24.87,57.6,37.77,10.35,7.2,21.25,13.47,31.15,21.3Z"/></g></g></svg>