<?xml version="1.0" encoding="UTF-8"?>
<svg id="_レイヤー_2" data-name="レイヤー 2" xmlns="http://www.w3.org/2000/svg" viewBox="0 0 130.7 159.88">
  <defs>
    <style>
      .cls-1 {
        fill: #a4a4a4;
      }
    </style>
  </defs>
  <g id="parts">
    <path class="cls-1" d="M40.72,0c25.67,44.52,51.73,88.9,75.9,134.31,3.66,6.57,7.56,13.01,11.35,19.51,.64,1.66,4.84,6.06,1.38,6.06-16.72-.51-33.48-1.76-50.02-3.39-2.14-.54-4.16,.32-6.26,.12-2.04-.2-3.93-1.29-6.06-.84-14.88-.68-29.84-1.25-44.77-2-1.56-.06-2.43-.67-2.7-2.21-2.58-13.99-4.79-28.06-7.07-42.1C8.62,83.55,3.67,57.82,.07,31.9c-.32-1.91,.41-3.1,1.87-4.12,2.41-1.68,4.8-3.41,7.18-5.13C19.73,15.13,29.89,7.22,40.72,0Z"/>
  </g>
</svg>