<?xml version="1.0" encoding="UTF-8"?>
<svg id="_レイヤー_2" data-name="レイヤー 2" xmlns="http://www.w3.org/2000/svg" viewBox="0 0 104.6 177.09">
  <defs>
    <style>
      .cls-1 {
        fill: #a4a4a4;
      }
    </style>
  </defs>
  <g id="parts">
    <path class="cls-1" d="M82.83,16.31c5.77,.55,19.39,9.3,20.25,15.33,2.16,18.17,1.67,36.6,.67,54.87-1.02,16.11-.12,32.41-3.69,48.28-4.56,17.04-17.63,29.97-31.04,40.54-1.46,1.2-3.01,1.84-4.98,1.75-5.11-.22-10.25-.05-15.34-.48-8.08-1.36-19.72-8.89-24.85-15.28-4.49-6.23-10.07-12.04-13.18-19.11-3.31-9.86-6.54-19.76-9.82-29.63-.91-2.73-.99-5.52-.66-8.32,2.03-18.19,4.68-36.39,9.92-53.97,4.79-14.86,13.8-27.8,23.08-40.17C36.23,6.37,44.69-1.96,49.75,.42c3.11,1.6,12.14,2.35,10.68,7.37-4.46,10.49-9.23,20.83-12.66,31.73-2.16,6.24-4.62,12.38-6.9,18.58-4.32,11.77-5.82,24-6.03,36.46,.07,21.87,1.85,20.35,14.74,36.62,1.16,1.31,3.73,5,5.06,2.06,.52-2.27,.77-4.55-.04-6.83-2-5.26-3.64-10.6-4.69-16.12-2.61-10.47-1.02-21.02-.53-31.54,3.24-15.83,10.02-30.78,16.06-45.72,2.5-6.11,5-12.22,7.5-18.32,.4-.88,1.19-1.19,2.04-.93,2.53,.76,5.04,1.6,7.86,2.52Z"/>
  </g>
</svg>