<?xml version="1.0" encoding="UTF-8"?><svg xmlns="http://www.w3.org/2000/svg" viewBox="0 0 172.04 133.99"><defs><style>.d{fill:#a4a4a4;}</style></defs><g id="a"/><g id="b"><g id="c"><path class="d" d="M118.78,132.65c-2.29,.83-3.67-.71-5.19-1.58-7.63-4.23-14.96-9.09-22.73-13.05-3.45-1.42-6.9-2.04-10.71-.91-18.06,5.36-36.19,10.53-54.28,15.81-1.95,.57-3.81,1.63-5.95,.71-.09-2.67,1.65-4.36,2.78-6.29,6.51-11.11,13.1-22.17,19.59-33.29,3.14-5.38,4.32-6.81-3.89-9.66-12.95-4.57-25.44-8.48-38.41-13.26,1.43-1.25,2.29-2.26,3.37-2.9,10.5-6.17,21.04-12.29,31.57-18.41,3.45-1.82,6.17-2.79,5.85-7.35-.09-12.17-.59-24.39-.08-36.55,.13-1.1,1.11-1.59,2.02-1.18,11.08,5.05,21.52,11.44,33.27,14.94,2.73,.8,4.87,.51,7.06-1.12,10.07-7.46,21.64-12.1,32.85-17.39,2.01-1.07,5.92-2.45,5.7,1.16-.62,14.46-1.69,28.91-2.56,43.36-.29,4.73-.15,5.1,4.44,6.04,15.78,3.1,31.6,5.95,47.28,9.56,.51,.11,.98,.83,1.25,1.37,.1,.19-.38,.83-.73,1.06-15.83,10.23-31.38,20.9-46.96,31.51-2.49,1.89-5.92,3.56-5.62,7.2-.25,10.05,.73,20.21,.05,30.21Z"/></g></g></svg>