<?xml version="1.0" encoding="UTF-8"?><svg xmlns="http://www.w3.org/2000/svg" viewBox="0 0 289.48 119.04"><defs><style>.d{fill:#a4a4a4;}</style></defs><g id="a"/><g id="b"><g id="c"><path class="d" d="M208.04,118.96c-1.6,0-2.72-.08-3.82,.01-10.31,.76-19.24-5.37-28.83-8.12-3.59-1.17-6.68-3.02-9.62-5.28-4.96-3.82-10.03-7.48-14.89-11.42-3.65-3.07-6.77-6.8-9.9-10.39-4.71-5.02-9.38-10.08-14.22-14.97-6.28-6.21-13.34-11.59-20.15-17.2-2.95-2.58-6.37-4.61-9.29-7.23-5.1-4.48-10.82-8.07-16.42-11.84-1.12-.75-2.31-1.48-3.57-1.9-5.12-1.72-10.25-3.42-15.44-4.92-4-1.05-8.22-1.34-12.28-2.22-5.73-1.29-11.47-.44-17.21,.04-5.93-.1-11.71,1.01-17.5,2.05-1.69,.3-3.39,.53-5.1,.64-.52,.03-1.25-.3-1.56-.71-2.7-3.94-4.87-8.25-7.3-12.36-.56-1.07-1.71-2.8-.24-3.55C10.88,5.12,21.7,2.74,32.68,1.42c6.27-.96,12.68-2.02,19-1,4.61,.64,9.18,1.47,13.83,1.89,4.4,.4,8.64,1.66,12.7,3.55,9.73,4.53,18.75,10.24,27.65,16.19,4.43,2.95,8.55,6.18,12.18,10.06,10.55,10.46,19.71,22.25,30.44,32.53,5.83,5.22,11.35,11.01,18.36,14.67,11.55,6.77,23.39,13.26,36.57,16.22,2.99,.74,6.1,.53,9.15,.56,1.74,.04,3.36-.32,5.02-.91,3-1.07,6.07-1.97,9.18-2.66,12.24-3.24,22.1-12.4,31.97-19.9,3.25-2.62,6.64-5.06,9.5-8.14,1.59-1.7,2.95-3.62,4.6-5.26,1.22-1.16,2.11-1.11,3.05,.18,4.48,6.75,8.5,13.8,12.8,20.66,.78,.92,1.27,2.43,.1,3.24-8.29,5.72-17.04,10.74-25.52,16.16-5.97,3.66-11.63,7.87-18.28,10.23-14.63,6.21-20.63,9.54-36.94,9.27Z"/></g></g></svg>