<?xml version="1.0" encoding="UTF-8"?>
<svg id="_レイヤー_2" data-name="レイヤー 2" xmlns="http://www.w3.org/2000/svg" viewBox="0 0 200.5 219.54">
  <defs>
    <style>
      .cls-1 {
        fill: #a4a4a4;
      }
    </style>
  </defs>
  <g id="parts">
    <path class="cls-1" d="M81.62,72.34c.21-5.45,.56-9.72,.5-13.99-.12-8.81,2.03-17.03,5.82-24.9,2.67-5.53,5.15-11.17,8.09-16.56,2.96-5.42,6.98-10.09,11.93-13.86,1.09-.83,2.32-1.51,3.57-2.06,3.88-1.7,4.34-1.28,7.14,2.16,6.07,7.45,8.35,16.32,9.91,25.45,1.99,11.67,3.83,23.37,4.01,35.26,.02,1.38,.27,2.75,.49,4.12,.22,1.37,1.13,1.82,2.35,1.33,1.85-.75,3.67-1.58,5.46-2.46,6.76-3.32,13.46-6.75,20.27-9.96,2.34-1.1,4.92-1.66,7.4-2.46,2.1-.68,3.72,0,4.55,1.98,1.87,4.42,3.72,8.86,.44,13.5-.7,.99-1.13,2.18-1.62,3.31-4.17,9.45-23.23,40.25-27.1,47.07-.43,.75-.58,1.66-1.07,3.13,3.31-.02,6.19,.06,9.06-.07,6.6-.3,13.19-.7,19.79-1.07,7.22-.42,14,1.71,20.77,3.74,3.68,1.1,5.29,4.55,7.04,7.58,.33,.56-.49,2.3-1.25,2.89-4.35,3.41-8.62,7.01-13.33,9.87-13.27,8.06-52.15,31.06-58.21,34.7-2.27,1.36-3.4,3.16-3.84,5.86-1.41,8.65-3.26,17.23-4.69,25.87-.43,2.62-1.56,4.02-4.01,4.92-7.2,2.65-5.53,3.16-8.74-3.1-3.79-7.38-7.61-14.75-11.36-22.16-.81-1.6-1.86-2.64-3.63-3.2-6.88-2.2-13.69-4.6-20.56-6.83-22.7-7.4-44.61-16.73-66.2-26.86-.56-.26-1.11-.53-1.64-.83C.67,153.39-.03,151.06,0,148.8c.03-2.13,2.41-1.97,3.9-2.54,15.16-5.84,30.96-7.34,47.05-6.85,1.54,.05,3.08,.03,4.61,.06,6.91,.09,7.52-.71,4.85-7.38-2.62-6.55-5.28-13.1-8.28-19.48-4.14-8.8-5.14-18.24-6.45-27.67-1.23-8.9,.63-17.46,2.39-26.04,.76-3.71,4.88-6.02,8.64-4.65,3.12,1.14,6.16,2.8,8.83,4.78,4.06,3.02,7.76,6.52,11.64,9.79,1.15,.97,2.37,1.87,4.44,3.5Z"/>
  </g>
</svg>