<?xml version="1.0" encoding="UTF-8"?><svg xmlns="http://www.w3.org/2000/svg" viewBox="0 0 193.6 167.05"><defs><style>.d{fill:#a4a4a4;}</style></defs><g id="a"/><g id="b"><g id="c"><path class="d" d="M151.24,4.18c5.09,.1,8.96,1.42,12.02,5.62,9.43,12.93,18.96,25.78,28.62,38.54,2.13,2.81,2.22,5.2,.57,8.2-11.45,20.71-51.09,89.39-59.57,102.95-2.33,3.39-4.62,8.38-9.54,7.45-14.42-2.6-28.55-6.73-42.93-9.6-4.75-1.01-7.6-3.51-9.5-7.83C50.17,102.14,26.43,56.22,2.98,10.17-2.33-.27-.73,.03,9.33,0c8.34-.02,102.92,3.98,141.91,4.18Z"/></g></g></svg>