<?xml version="1.0" encoding="UTF-8"?><svg xmlns="http://www.w3.org/2000/svg" viewBox="0 0 98.08 115.4"><defs><style>.d{fill:#a4a4a4;}</style></defs><g id="a"/><g id="b"><g id="c"><path class="d" d="M0,.92C.68,.62,1.5-.1,2.18,.01c1.38,.23,2.75,.79,4.02,1.43,11.12,5.63,58.54,30.75,71.11,37.74,5.65,3.15,11.17,6.56,16.73,9.87,1.03,.61,2.03,1.28,2.98,2.02,1.27,1,1.46,2.7,.24,3.74-2.93,2.48-78.08,56.82-82.64,59.9-2.05,1.39-3.64,.6-3.94-1.96-.53-4.5-.85-9.02-1.29-13.53-.98-10-4.56-50.49-5.52-60.72C3.2,31.37,.49,6.67,0,.92Z"/></g></g></svg>