<?xml version="1.0" encoding="UTF-8"?><svg xmlns="http://www.w3.org/2000/svg" viewBox="0 0 367.19 249.23"><defs><style>.d{fill:#a4a4a4;}</style></defs><g id="a"/><g id="b"><g id="c"><path class="d" d="M223.28,1.71c-14.4,4.91-28.84,12.24-38.47,24.23-5.86,7.89-20.8,32.85-21.47,34.6l-.06,.84c.32,2.85-1.64,4.75-3.49,6.02-1.92,1.32-3.72-.91-5.49-1.8-13.33-8.03-26.24-16.85-39.92-24.28-14.21-5.89-27.81-15.72-43.81-14.35-8.49-.23-9.45,9.82-7.07,16.04,6.01,23.3,21.72,46.64,37.36,64.75,4.2,4.55-3.07,8.95-7.15,9.49-30.24,10.37-64.85,11.98-91.77,29.89-4.06,2.36-1,7.79,2.26,9.29,25.31,9.67,54.84,17.76,81.35,8.6,5.21-1.83,10.61-3.13,15.96-4.51,.8-.2,1.64,.64,1.41,1.43-.46,1.57-.89,3.16-1.54,4.66-8.54,21.88-18.75,44.42-18.88,68.27-.31,7.66,7.43,10.77,13.14,13.8,1.02,.51,2.46,.68,3.57,.43,18.57-4.1,33.63-18.34,40.66-36.02,2.55-6.71,4.37-13.65,5.88-20.65,1.03-4.11,1.66-4.53,5.44-3.13,5.19,1.92,10.36,3.91,15.46,6.05,16.12,6.11,32.43,13.76,49.75,15.28,5.12-.12,10.24-.45,15.36-.4,12.36,.12,23.69-4.03,35.05-8.15,1.68-.24,2.8-1.11,3.16-2.83,.52-1.21,1.04-2.42,1.56-3.64,1.1-1.03,1.18-2.26,.75-3.61,.02-.85-7.93-16.52-8.19-16.78-.06-.25-6.88-6.42-8.53-6.38l-.35-.23c-.92-1.99-5.12-3.63-5.12-3.63-.46-1.61-18.04-12.99-20.39-13.4l-.34-.22c.07-1.32,.15-2.63,.22-3.95,2.06-.3,4.11-.6,6.17-.89,22.78-2.12,65.76-6.02,91.57-8.81,9.95-1.22,19.51-4.65,29.3-6.78,7.01-1.45,9.05-8.45,10.42-14.53,1.6-4.94-9.85-12.72-13.71-15.19-12.53-4.49-24.89-9.53-38.25-11.25-5.69-.74-11.34-1.72-17.01-2.62-23.68-3.52-47.56-6.72-71.51-6.87-1.93-.05-4.34,1.19-5.58-1.12-1.03-1.91,.76-3.45,1.67-4.96,11.83-20.07,26.49-39.08,30.18-62.63,.15-.59,.17-1.22,.17-1.83-.98-12.8-20.69-10.34-29.72-8.23Z"/></g></g></svg>