<?xml version="1.0" encoding="UTF-8"?><svg xmlns="http://www.w3.org/2000/svg" viewBox="0 0 152.83 79.72"><defs><style>.d{fill:#a4a4a4;}</style></defs><g id="a"/><g id="b"><g id="c"><path class="d" d="M152.83,53.01c-.36,.34-.71,.89-1.21,1.11-2.43,1.07-4.88,2.11-7.36,3.06-8.01,3.06-44.86,17.65-55.33,21.75-3.19,1.25-5.64,1.07-8.54-.87C55.71,61.6,30.83,45.45,5.8,29.53c-1.38-.88-2.77-1.74-4.14-2.64-2.07-1.03-2.48-2.63,.35-3.38C26.62,16.66,50.76,8.21,75.09,.42c2.3-.81,4.34-.46,6.36,.99,4.99,3.57,50.35,35.05,67.9,47.41,1.16,.82,2.15,1.88,3.15,2.9,.23,.24,.2,.74,.33,1.29Z"/></g></g></svg>