<?xml version="1.0" encoding="UTF-8"?><svg xmlns="http://www.w3.org/2000/svg" viewBox="0 0 442.3 193.26"><defs><style>.d{fill:#a4a4a4;}</style></defs><g id="a"/><g id="b"><g id="c"><path class="d" d="M1.43,13.5c6.16,14.98,13.36,29.44,22.26,42.99,10.03,17.41,26.05,29.75,38.92,44.86,15.41,16.27,29.23,34.42,47.57,47.6,19.77,14.69,39.88,28.87,62.28,39.32,8.29,4.18,17.28,4.69,26.3,4.99,4.32,.15,8.75-.95,11.74-4.26,4.79-5.1,7.1-7.09,6.04-14.47,.51-11.64-2.02-22.81-5.27-33.85-2.27-7.7-3.7-15.51-4.25-23.53-.31-4.44,1.3-8.07,3.9-11.32,4.66-6.33,12.47-3.6,18.19-.35,10.43,5.77,20.29,12.48,29.33,20.2,16.47,13.42,32.9,27.37,50.87,38.64,8.41,3.78,17.02,7.12,25.57,10.59,6,2.59,12.79-3.88,11.59-9.95-1.98-13.19-9.56-42.16-10.96-43.41,0,0-2.56-8.69-3.84-13.04,.14-3.43,3.3-4.01,5.83-5.32,.53-.06,1.06-.11,1.58-.17,.74,.67,7.89,1.05,10.57,2.43,2.69,1.38,8.51,3.2,12.05,5.94,3.54,2.74,57.74,44.74,59.78,46.57,2.04,1.83,7.47,6.58,10.24,8.31,3.88,2.83,11.49-.47,10.46-5.42-1.57-7.45-5.36-15.74-6.67-18.57-1.3-2.83-3.32-7.58-5.39-10.67-2.06-3.08-20.39-30.51-25.3-37.09-21.81-28.48-50.55-50.4-80.6-69.51-6.17-4.09-12.84-7.24-19.66-10.12-8.41-3.55-16.93-2.6-25.35-.57-3.74,.9-6.28,3.88-7.14,7.79-1.24,5.67-1.61,11.35,.47,16.97,3.63,9.34,5.95,19.27,10.81,28.09,5.07,10.04,9.49,20.55,12.63,31.31,1.52,11.38-12.71,10.27-19.08,5.43-28.14-18.58-51.38-43.46-79.76-61.57-9.77-5.64-19.5-11.31-29.82-15.93-4.53-2.03-8.72-1.72-12.98,.44-4.55,2.31-5.97,4.91-5,9.98,3.73,18.9,9.26,37.4,11.29,56.63,1.28,15.92-5.65,16.44-17.39,8.4-24.19-19.33-45.76-41.66-68.49-62.65-11.81-11.17-24.4-21.28-38.58-29.33C27.72,5.78,15.22-3.52,6.05,1.4,3.29,2.74,1.67,5.05,.39,7.66c-1.05,2.15,.26,4.03,1.04,5.84Z"/></g></g></svg>