<?xml version="1.0" encoding="UTF-8"?><svg xmlns="http://www.w3.org/2000/svg" viewBox="0 0 188.82 114.14"><defs><style>.d{fill:#a4a4a4;}</style></defs><g id="a"/><g id="b"><g id="c"><path class="d" d="M178.97,77.11c-6.65,12.72-21.1,13.99-32.07,20.81-27.59,14.43-71.25,16.16-102.27,16.21-15.93,.34-24.57-7.4-36.36-16.64-14.13-13.08-7.34-35.58-.33-50.6,4-7.08,6.42-15.58,12.9-20.87C58.65-2.03,106.74-4.3,151.48,4.72c8.51,2.13,17.23,3.63,25.29,7.2,4.99,1.58,6.28,6.38,8.04,10.7,6.07,10.29,4.14,20.95,1.44,31.61-.99,3.91-2,4.57-6.11,3.86-26.94-4.08-54.22-2.25-81.25-.61-1.5,.11-3.18,.4-4.38,1.2-1.69,1.4-2.46,5.68,.82,5.77,28.1,2.81,56.12,6.34,83.65,12.65Z"/></g></g></svg>