<?xml version="1.0" encoding="UTF-8"?>
<svg id="_レイヤー_2" data-name="レイヤー 2" xmlns="http://www.w3.org/2000/svg" viewBox="0 0 165 208.57">
  <defs>
    <style>
      .cls-1 {
        fill: #a4a4a4;
      }
    </style>
  </defs>
  <g id="parts">
    <path class="cls-1" d="M137.83,207.21c-3.33-4.65-6.76-9.23-9.97-13.96-6.24-9.22-12.36-18.52-18.54-27.79-.53-.79-1.08-1.57-1.67-2.32-.4-.51-1.23-.25-1.46,.44-.15,.45-.26,.91-.38,1.38-2.82,11.43-5.63,22.86-8.44,34.29-.69,2.78-1.38,5.56-2.12,8.32-.1,.38-.51,.67-.77,1.01-.3-.3-.77-.54-.87-.89-1.4-5.22-2.74-10.46-4.11-15.69-1.5-5.69-3.01-11.37-4.54-17.05-.32-1.2-.8-2.36-1.33-3.89-.94,.89-1.69,1.46-2.26,2.17-7.17,9.13-14.31,18.3-21.48,27.44-1.27,1.62-2.62,3.17-3.94,4.75-.26-.89-.53-1.78-.79-2.67,.69-2.94,1.34-5.88,2.07-8.81,2.48-9.88,4.99-19.75,7.49-29.62,.12-.46,.2-.94,.29-1.4,.28-1.34,1.5-2.89,.07-3.98-1.29-.99-2.74,.25-4.02,.74-8.78,3.33-17.53,6.75-26.31,10.09-.98,.37-1.89,1.25-3.42,.59,.91-1.47,1.76-2.92,2.68-4.33,6.16-9.48,12.34-18.95,18.5-28.43,.34-.53,.64-1.11,.82-1.7,.2-.71-.18-1.24-.9-1.34-.78-.11-1.59-.11-2.38-.09-9.55,.25-19.11,.52-28.66,.78-.56,.01-1.12-.04-2.49-.09,1.69-1.59,2.75-2.7,3.93-3.67,7.15-5.84,14.34-11.65,21.51-17.47,.25-.2,.59-.35,.73-.6,.28-.51,.6-1.08,.6-1.62,0-.27-.67-.68-1.09-.76-4.07-.78-8.13-1.54-12.22-2.22-6.44-1.06-12.9-2.04-19.34-3.08-.76-.12-1.5-.4-2.64-.71,.79-1.18,1.74-1.53,2.69-1.88,7.31-2.72,14.61-5.43,21.92-8.15,.6-.22,1.21-.39,1.8-.63,2.06-.83,2.61-2.84,1.17-4.53-.61-.72-1.4-1.29-2.18-1.85-11.03-7.85-21.92-15.91-33.96-22.21-.48-.25-.85-.71-1.82-1.54,3.04-.35,5.37-.39,7.7-.35,12.1,.19,24.22-.33,36.31,.62,.54,.04,1.47,.33,1.51-.6,.02-.49-.52-1.04-.89-1.49-.3-.36-.73-.61-1.11-.91-8.3-6.45-16.61-12.89-24.91-19.34-1.09-.85-2.12-1.77-4.06-3.4,2.33,.36,3.56,.4,4.7,.74,7.16,2.14,14.33,4.29,21.45,6.56,5.61,1.79,11.16,3.75,16.73,5.64,.6,.2,1.2,.44,1.81,.6,.96,.25,1.59-.36,1.29-1.3-1.81-5.61-3.57-11.23-5.5-16.79-2.87-8.27-5.87-16.49-8.78-24.74-.11-.31,.15-.75,.24-1.13,.41,.17,.95,.23,1.21,.54,2.6,3.02,5.22,6.02,7.7,9.13,3.65,4.58,7.48,9,11.26,13.47,4.01,4.74,7.84,9.64,11.75,14.47,.6,.74,1.22,1.47,1.88,2.15,.17,.18,.6,.24,.85,.16,.24-.08,.51-.39,.55-.64,.1-.62,.09-1.27,.12-1.9,.57-13.85,1.13-27.69,1.71-41.54,.05-1.09,.18-2.17,.34-4.18,1.68,3.35,2.09,6.12,2.76,8.78,2.69,10.65,5.27,21.32,7.9,31.98,.08,.31,.15,.62,.24,.92,.44,1.37,1.13,1.6,2.53,.78,.69-.4,1.33-.87,2.01-1.29,10.07-6.11,20.15-12.22,30.23-18.32,.49-.29,1.03-.5,2.28-1.11-.9,2.13-1.39,3.59-2.12,4.93-5.13,9.53-10.3,19.05-15.48,28.55-1.37,2.52-2.9,4.95-4.22,7.49-1.02,1.95-.52,2.99,1.64,3.41,4.69,.9,9.4,1.66,14.1,2.51,7.2,1.31,14.4,2.64,21.6,3.99,1.19,.22,2.35,.64,4.09,1.12-1.22,.85-1.97,1.39-2.74,1.91-7.94,5.32-15.88,10.63-23.81,15.95-1.05,.71-2.12,1.41-3.08,2.24-.59,.51-.32,1.28,.26,1.6,.82,.44,1.75,.73,2.66,.94,10.56,2.36,21.13,4.69,31.69,7.06,.41,.09,.76,.47,1.61,1.03-11.6,3.44-22.77,6.75-34.08,10.11,2.5,2.87,6.53,5.61,20.19,13.9,6.76,4.1,13.93,7.51,20.87,12.27-1.44,.71-2.51,.5-3.51,.4-10.94-1.02-21.88-2.09-32.82-3.11-2.38-.22-4.76-.35-7.15-.43-1.04-.04-1.71,1.06-1.26,2,.33,.7,.76,1.39,1.27,1.97,6.68,7.49,13.4,14.95,20.06,22.46,2.21,2.49,4.2,5.19,6.45,7.64,2.36,2.57,4.85,5.01,7.4,7.39,2.42,2.26,4.32,5.07,7.42,6.65,.76,.39,1.04,1.73,1.64,2.81-2.18,.06-3.64-.96-5.07-1.85-7-4.33-13.96-8.72-20.91-13.13-4.71-2.98-9.38-6.01-14.09-9-.51-.32-1.1-.51-1.64-.75-.75,1.13,.02,1.95,.34,2.77,3.32,8.62,6.71,17.21,10.03,25.83,1.77,4.6,3.43,9.24,5.14,13.85-.16,.32-.32,.64-.48,.96Z"/>
  </g>
</svg>