<?xml version="1.0" encoding="UTF-8"?><svg xmlns="http://www.w3.org/2000/svg" viewBox="0 0 115.23 83.99"><defs><style>.d{fill:#a4a4a4;}</style></defs><g id="a"/><g id="b"><g id="c"><path class="d" d="M13.77,16.66c2.22-2.2,4.27-4.86,7.22-6.07,6.64-2.5,13.11-5.43,20-7.3,12.9-3.16,27.19-5.67,39.54,.55,6.22,3.04,12.31,6.33,18.46,9.5,3.43,1.77,6.01,4.21,7.47,7.96,1.97,5.05,4.49,9.88,6.48,14.92,3.21,8.74,3.47,19.64-2.08,27.5-1.6,2.07-3.22,4.14-4.75,6.27-3.81,4.88-9.17,8.53-14.96,10.45-24.67,6.17-50.81,4.36-74.28-5.62-5.91-2.4-10.05-7.09-13.75-12.02C-3.64,46.31,.86,28.67,13.77,16.66Z"/></g></g></svg>