<?xml version="1.0" encoding="UTF-8"?><svg xmlns="http://www.w3.org/2000/svg" viewBox="0 0 116.24 46.6"><defs><style>.d{fill:#a4a4a4;}</style></defs><g id="a"/><g id="b"><g id="c"><path class="d" d="M80.89,29.45c-6.63,3.65-12.03,8.67-16.93,14.27-3.75,4.13-4.69,3.59-8.07-.19-3.96-4.42-8.06-8.71-12.09-13.08q-4.24-4.59-9.34-.6c-4.69,3.64-9.42,7.21-14.11,10.85-2.56,2.08-4.68-2.87-6.24-4.37C9.93,30.77,5.81,25.16,1.68,19.56c-1.2-1.51-2.32-2.79-1.23-4.78C7.35,9.83,15,5.63,22.2,1.01c2.45-1.5,3.4-1.38,5.39,.7,2.97,3.11,5.8,6.35,8.69,9.53,.96,1.06,1.89,2.16,2.88,3.19,2.68,2.81,3.35,2.92,6.8,.69,2.75-1.77,5.34-3.8,8.13-5.51,6.19-3.8,4.59-4.72,11.61,.38,3.81,2.77,7.57,5.6,11.43,8.3,3.59,2.51,3.76,2.48,6.85-.19,4.65-4.02,9.24-8.09,13.86-12.14,1.82-1.68,3.47-3.73,5.47-1.2,3.72,3.8,7.34,7.7,11.39,11.16,1.68,1.51,1.98,2.2,.97,4.24-3.28,6.6-6.65,13.15-10.02,19.71-.68,1.33-1.8,1.56-3.09,.88-3.25-1.73-6.5-3.46-9.74-5.23-4-1.95-7.63-4.87-11.92-6.07Z"/></g></g></svg>