<?xml version="1.0" encoding="UTF-8"?><svg xmlns="http://www.w3.org/2000/svg" viewBox="0 0 193.02 91.85"><defs><style>.d{fill:#a4a4a4;}</style></defs><g id="a"/><g id="b"><g id="c"><path class="d" d="M90.54,89.03c-14.01,1.1-78.82,2.61-89.6,2.83-.71,.01-1.16-.74-.82-1.37,3.5-6.31,18.5-29.81,23.95-38.57C33.34,37.02,54.03,3.17,55.26,1.24c.98-1.53,1.23-1.57,2.86-.51,1.51,.98,65.69,40.24,79.38,49.17,6.74,4.4,45.81,29.2,54.35,34.8,.27,.18,.53,.38,.8,.6,.72,.59,.31,1.77-.62,1.77h-.02c-11.54-.09-88.05,.9-101.47,1.96Z"/></g></g></svg>