<?xml version="1.0" encoding="UTF-8"?>
<svg id="_レイヤー_2" data-name="レイヤー 2" xmlns="http://www.w3.org/2000/svg" viewBox="0 0 110.37 230.56">
  <defs>
    <style>
      .cls-1 {
        fill: #a4a4a4;
      }
    </style>
  </defs>
  <g id="parts">
    <path class="cls-1" d="M16.3,183.17c-5.57-7.62-9.39-16.26-10.81-26.03-1.13-7.77-3.04-15.42-4.35-23.16-2.49-14.74-.75-29.14,3.75-43.3,4.1-12.91,7.92-25.95,14.92-37.67C31.44,33.54,45.47,16.12,63.89,2.56c4.74-3.49,4.98-3.65,8.84,.97,10.21,12.22,20.21,24.62,30.27,36.95,1.93,2.37,3.67,4.9,5.73,7.15,2.15,2.35,2.12,4.38,.26,6.94-3.84,5.3-7.6,10.68-11.1,16.21-10.43,16.47-19.73,33.49-24.43,52.64-4.19,17.08-3.12,33.46,4.11,49.84,4.99,11.32,7.95,23.53,11.9,35.32,.86,2.58-.91,3.56-2.47,4.69-6.19,4.48-12.48,8.82-18.6,13.4-6.97,5.22-6.86,5.24-13.98-.28-15.37-11.91-27.91-26.32-38.12-43.22Z"/>
  </g>
</svg>