<?xml version="1.0" encoding="UTF-8"?><svg xmlns="http://www.w3.org/2000/svg" viewBox="0 0 220.01 93.4"><defs><style>.d{fill:#a4a4a4;}</style></defs><g id="a"/><g id="b"><g id="c"><path class="d" d="M161.03,43.36c-16.39,.26-35.78,.2-53.28,.86-1.52-.14-2.22,1.71-.34,1.82,35.89,5.3,71.93,9.53,107.97,13.7,1.66,.2,4.23-.39,4.6,1.71,.29,1.62-2.19,2.13-3.52,2.97-16.33,10.36-33.66,18.72-51.73,25.56-33.87,7.49-68.96,1.65-102.04-7.18-5.43-1.4-10.22-3.95-14.63-7.52-15.63-12.66-30.64-26-45.04-40.02-4.24-4.13-4.2-4.21,1.24-6.84,14.23-6.88,29.02-12.39,43.76-18.06,3.19-1.23,6.77-1.69,9.39-4.26C73.23,2.05,89.61,.43,105.96,.06c22.23-.4,60.08,.7,78.16,13.91,11.36,8.39,23.23,16.24,33.06,26.51,1.19,1.08,.25,2.17-1.18,2.28-18.69,.39-36.11-.38-54.97,.59Z"/></g></g></svg>