<?xml version="1.0" encoding="UTF-8"?><svg xmlns="http://www.w3.org/2000/svg" viewBox="0 0 105.66 106.25"><defs><style>.d{fill:#a4a4a4;}</style></defs><g id="a"/><g id="b"><g id="c"><path class="d" d="M50.64,6.09c3.42-.61,6.8-1.42,10.23-1.94C69.76,2.79,90.03-.06,91.24,0c.46,.02,1.14,.57,1.28,1.02,.32,.96,1.7,14.84,2.43,20.73,2.5,20.11,5.04,40.21,7.63,60.31,.91,7.1,2.06,14.16,3,21.26,.31,2.35-.3,3.02-2.68,2.93-3.88-.15-20.92-2.3-25.55-3.15-14.29-2.62-72.26-13.2-73.06-13.38-4.73-1.07-5.44-2.61-2.72-6.75,4.94-7.5,9.39-15.28,13.86-23.06,5.38-9.36,11.33-18.4,16.95-27.63,4.24-6.96,10.68-17.76,12.5-21.02,2.01-3.6,4-4.84,5.74-5.15Z"/></g></g></svg>