<?xml version="1.0" encoding="UTF-8"?><svg xmlns="http://www.w3.org/2000/svg" viewBox="0 0 275.22 173.81"><defs><style>.d{fill:#a4a4a4;}</style></defs><g id="a"/><g id="b"><g id="c"><path class="d" d="M207.88,55.69c12.09,10.66,22.23,22.62,32.57,34.88,7.04,7.81,12.92,16.34,18.29,25.28,7.02,11.69,11.69,24.26,14.07,37.74,1.04,5.86,2.05,11.69,2.39,17.63,.04,.77-.19,1.58-.44,2.32-.57,.61-1.53,.09-1.82-.68-1.97-3.1-4.05-6.14-5.85-9.33-3.54-6.28-8.15-11.75-12.71-17.25-4.97-6-10.36-11.68-16.84-16.02-6.59-4.42-13.19-8.99-20.61-11.98-10.05-4.16-20.92-5.63-31.65-6.95-8.32-.99-16.64-2.23-24.99-2.76-21.63-.51-43.4,.85-64.92-2.34-7.29-1-14.56-2.19-21.82-3.45-7.49-1.89-14.68-5.1-21.92-7.81-7.16-2.9-13.03-7.53-17.91-13.52-1.8-2.21-4.02-4.06-5.98-6.15-4.82-5.14-7.95-11.38-11.24-17.49C8.55,44.14,2.88,29.37,.16,13.75c-.51-3.14,.05-3.96,3.19-4.85,3.93-1.11,7.88-2.18,11.86-3.12C23.17,3.9,31.11,1.94,39.13,.4c3.15-.61,6.51-.38,9.75-.2,12.46,.68,24.88,1.8,37.29,3.19,16.33,1.72,31.6,8.35,47.22,13.03,11.23,3.82,22.29,8.12,32.39,14.41,14.16,8.09,29.07,14.97,42.1,24.86Z"/></g></g></svg>