<?xml version="1.0" encoding="UTF-8"?>
<svg id="_レイヤー_2" data-name="レイヤー 2" xmlns="http://www.w3.org/2000/svg" viewBox="0 0 208.8 45.35">
  <defs>
    <style>
      .cls-1 {
        fill: #a4a4a4;
      }
    </style>
  </defs>
  <g id="parts">
    <path class="cls-1" d="M23.19,4.2C48.16,.84,73.25-.71,98.44,.31c32.49,.23,64.98,.83,97.43,2.28,3.57,.09,6.09,1.53,8.08,4.18,3.8,4.63,6.88,11.07,3.17,16.72-3.64,5.58-8.15,10.47-13.46,14.39-10.57,7.67-24.9,4.28-37.08,4.22-36.08-.52-72.34-4.84-108.27,.01-8.71,1.15-17.46,2.03-26.18,3.07-7.17,.85-12.79-1.53-17.29-7.3C-1.98,29.14-1.76,23.16,6.56,13.09c4.16-5.04,10.16-7.52,16.62-8.89Z"/>
  </g>
</svg>