<?xml version="1.0" encoding="UTF-8"?><svg xmlns="http://www.w3.org/2000/svg" viewBox="0 0 263.06 86.59"><defs><style>.d{fill:#a4a4a4;}</style></defs><g id="a"/><g id="b"><g id="c"><path class="d" d="M261.93,54.35c1.01,.62,1.41,1.88,.94,2.97-2.29,5.26-8.91,20.09-12.34,27.57-.88,1.92-1.45,2.1-3.32,1.06-4.12-2.29-8.16-4.72-12.28-7-13.27-7.33-26.4-14.94-39.89-21.84-15.06-7.71-28.55-14.99-45.25-17.67-6.16-1.41-22.89-2.33-30.25-1.09-11.72,1.97-22.99,4.81-34.36,8.35-6.04,1.88-68.99,31.62-70.08,32.19-1.37,.71-2.35,.2-3.1-.97-1.21-1.9-2.39-3.82-3.58-5.73-2.6-4.17-5.23-8.32-7.78-12.53-1.01-1.66-.83-2.5,.74-3.65,2.31-1.69,31.29-20.07,44.25-26.31,20.32-9.78,40.9-18.87,62.2-26.31,1.54-.54,3.1-1.2,4.69-1.36,14.07-1.39,28.16-2.72,42.33-1.61,9.83,.77,30.57,11,38.8,14.7,7.47,3.36,58.22,33.04,68.28,39.24Z"/></g></g></svg>