<?xml version="1.0" encoding="UTF-8"?>
<svg id="_レイヤー_2" data-name="レイヤー 2" xmlns="http://www.w3.org/2000/svg" viewBox="0 0 187.36 161.69">
  <defs>
    <style>
      .cls-1 {
        fill: #a4a4a4;
      }
    </style>
  </defs>
  <g id="parts">
    <path class="cls-1" d="M111.35,161.66c-23.71-.81-57.02-3.18-75.15-19.85-15.76-11.87-30.75-32.98-33.77-52.64-.81-6.68-2.36-13.4-2.43-20.11,1.27-8.84,.74-18.23,4.64-26.45C12.88,23.08,27.7,11.1,48.23,6.49c1.58-.49,2.71,.2,3.44,1.75,3.34,7.03,6.72,14.05,10.13,21.04,.84,1.72,.58,3.08-.77,4.42-2.18,2.16-4.2,4.5-6.44,6.6-13.42,12.68-11.45,32.35-12.64,49.2-.06,1.41-.26,3.02,.29,4.23,2.18,4.84,3.79,10.1,7.52,14.01,7.94,8.32,16.44,15.95,26.59,21.65,13.22,7.32,29.16,8.15,43.63,4.89,9.8-2.42,22.52-9.24,26.96-18.69,1.68-5.05,3.14-10.18,4.68-15.28,2.36-8.25-.63-16.69-1.26-24.99-.31-2.73-1.16-5.2-2.71-7.42-3.52-5.03-7.08-10.04-10.68-15.01-1.6-2.2-3.79-3.72-6.27-4.81-10.15-4.38-20.16-9.12-30.44-13.19-2.29-.83-3.08-2.39-3.07-4.7,.02-3.48-.05-6.97-.18-10.45-.17-4.5-.36-9.01-.67-13.51-.41-5.88-.46-5.8,5.15-6.13,6.84-.41,13.49,.47,20.01,2.5,7.04,2.19,14.06,4.46,21.15,6.5,13.65,4.18,24.58,14.47,32,26.43,18.97,31.59,16.16,73.68-5.12,103.39-10.41,11.89-25.52,17.95-40.42,21.98-5.78,1.15-11.89,.67-17.78,.76Z"/>
  </g>
</svg>