<?xml version="1.0" encoding="UTF-8"?>
<svg id="_レイヤー_2" data-name="レイヤー 2" xmlns="http://www.w3.org/2000/svg" viewBox="0 0 190.11 274.06">
  <g id="parts">
    <path class="cls-1" d="M.06,147.09c1.96-26.02,6.8-45.37,12.37-64.61,2.6-9,7.12-16.96,11.78-24.91,4.51-7.7,8.99-15.41,13.81-22.91,3.69-5.74,8.33-10.55,14.94-13.2,11.27-4.53,22.32-9.62,33.71-13.83,5.26-1.94,11.04-2.65,16.65-3.38,12.19-1.59,24.41-3.08,36.67-4.11,5.31-.45,10.73,.32,16.1,.58,10.12,.5,20.25,.97,30.37,1.61,3.74,.24,3.75,.45,3.64,4.12-.13,4.46-.23,8.92-.5,13.37-.19,3.17-.45,3.22-3.62,3.37-12.74,.6-25.5,1-38.21,1.93-13.18,.97-26.32,2.42-39.1,6.16-4.41,1.29-9.12,1.59-13.5,2.98-4.8,1.52-9.48,3.54-13.99,5.77-9.37,4.64-18.62,9.52-27.85,14.43-1.71,.91-12.8,12.32-13.22,13.13-5.14,9.98-16.34,32.56-16.56,33.91-1.21,7.74-2.28,15.51-3.52,23.25-1.32,8.32-.5,16.55,.64,24.8,.67,4.82,2.38,9.28,5.23,13.16,8.62,11.79,17.38,23.48,26.16,35.15,.99,1.32,2.41,2.37,3.76,3.37,9.29,6.92,19.14,12.87,29.95,17.12,10.02,3.94,20.07,7.79,30.13,11.6,8.96,3.4,18.33,5.19,27.76,6.66,10.03,1.57,20.09,2.91,30.13,4.37,1.22,.18,2.41,.48,3.63,.66,1.7,.24,2.27,1.18,2.19,2.86-.44,8.91-.76,17.82-1.24,26.73-.17,3.06-.32,3.08-3.34,2.55-22.25-3.93-44.58-7.42-66.59-12.7-8.3-1.99-15.97-5.5-23.81-8.61-19.51-7.74-37.89-17.65-55.26-29.44-3.04-2.06-5.71-4.26-7.63-7.6-3.06-5.32-6.67-10.33-10.13-15.42-3.07-4.53-4.95-9.53-6.18-14.81-.66-2.84-6.07-32.06-5.36-38.13Z"/>
  </g>
</svg>