<?xml version="1.0" encoding="UTF-8"?><svg xmlns="http://www.w3.org/2000/svg" viewBox="0 0 274.41 142.1"><defs><style>.d{fill:#a4a4a4;}</style></defs><g id="a"/><g id="b"><g id="c"><path class="d" d="M53.98,111.93c-2.61-7.5-2.68-15.28-2.83-23.08-.07-3.57-.15-3.71-3.85-4.13-15.08-1.64-30.16-3.36-45.25-4.78-4.55-.33-.42-12.11,1.99-12.31,5.83-.48,33.35,1.27,48.14,1.34,6.1,.06,6.18,.11,6.8-5.81,.83-7.95,1.46-15.92,2.25-23.88,.87-8.51,1.45-17.43,6.53-24.68,2.04-2.2,3.63-8.28,6.55-8.54,2.4-.07,8.41,1.88,8.83,2.55,5.2,8.1,7.69,17.22,7.49,26.85,1.33,7.74-.3,9.67-5.16,15.37-4.67,6.64-10.05,12.49-13.91,19.7,12,.22,24.13-2.42,36.18-3.31,3.91-.44,4.32-.95,4.5-5.09,.39-8.81,.8-17.61,.98-26.43,.08-4.02,1.01-7.64,3.02-11.11C120.39,18.61,127.68,.21,135.21,.25c6.67-.57,6.72-.73,7.87,5.98,5.51,27.8,2.96,29.83-3.61,56.09-2.2,6.29,26.01-.93,29.21-1.61,7.96-1.38,6.26-7.36,7.43-13.53,1.47-9.88,3.71-20.92,11.88-27.53,2.3-1.09,8.53-9.42,9.96-4.71,6.07,17.41,7.94,23.98-1.53,40.97-2.14,3.74-6.74,10.23,1,10.27,9,.64,18,1.27,26.99,1.9,3.35-.06,6.8,1.17,7.62-2.87,5.12-15.64,7.53-31.73,24.04-39.55,2.66-1.73,11.69-2.84,11.73,1.46-1.2,7.07-3.86,13.82-5.83,20.7-2.96,8.44-10.62,13.96-16.14,20.69-1.37,1.51-1.12,2.41,.86,3.1,8.37,2.76,16.76,5.49,24.95,8.77,3.03,1.21,3.14,1.65,2.4,4.6q-1.68,6.76-8.3,4.61c-6.17-1.9-10.78-3.78-17.39-4.98,2.8,12.14,9.59,25.39,.64,36.02-.35,.45-1.47,.47-2.2,.4-4.16-2.36-7.8-6.08-11.4-9.26-4.37-4.34-6.16-10.08-7.64-15.88-.81-3.18-1.59-6.36-2.21-9.58-.35-1.81-1.12-2.93-2.99-3.39-9.39-2.33-18.94-3.49-28.57-4.17-1.94-.14-2.64,.91-1.76,2.62,2.62,5.11,5.16,10.27,8.02,15.24,2.67,4.65,3.65,9.46,2.89,14.75-1.39,5.83,.41,12.88-3.66,17.74-2.75,2.58-4.8,9.02-8.84,4.22-14.01-12.4-17.14-30.42-17-48.27,.02-3.37-5.26-2.9-7.6-3.44-7.58-.19-15.17-.25-22.75-.28-2.01,0-2.48,.84-1.58,2.76,13.01,23.01,10.08,33.34-.79,56.2-.96,2.19-2.63,2.37-4.41,.69-7.87-6.82-12.26-16.33-17.58-25.05-1.33-2.17-1.98-4.43-2.17-6.94-.51-6.95-1.1-13.9-1.73-20.84-.25-2.81-.7-3.25-3.36-3.21-4.51,.07-27.84,1.17-35,1.55-3.14-.22-5.4,.93-3.73,4.39,2.32,7.43,5.14,14.72,6.63,22.37,1.63,6.72-1.49,11.9-5.4,16.83-.79,.99-1.91,.9-2.78,.38-4.23-2.56-7.29-4.83-11.53-7.91l-5.89-10.62Z"/></g></g></svg>