<?xml version="1.0" encoding="UTF-8"?><svg xmlns="http://www.w3.org/2000/svg" viewBox="0 0 154.95 63.22"><defs><style>.d{fill:#a4a4a4;}</style></defs><g id="a"/><g id="b"><g id="c"><path class="d" d="M42.02,0c36.24,1.15,66.21,16.93,96.61,34.19,4.19,2.52,8.73,4.49,13.23,6.46,2.5,1.09,3.35,2.69,3.01,5.27-.4,3.04-.66,6.1-.96,9.15-1.09,4.46-10.53,3.02-14.36,4.5-14.3,2.61-28.81,3.91-43.36,3.59-11.46-.28-22.91-.82-34.36-1.33-6.17-.27-12.17-1.51-17.98-3.63-10.53-4.31-22.3-6.44-31.45-13.53C7.25,40.34,3.93,34.66,1.31,28.66c-1.83-4.19-1.72-8.82,.13-13.17,1.15-2.71,2.85-4.99,5.69-6.14C17.67,4.69,30.71,.06,42.02,0Z"/></g></g></svg>