<?xml version="1.0" encoding="UTF-8"?><svg xmlns="http://www.w3.org/2000/svg" viewBox="0 0 196.22 159.82"><defs><style>.d{fill:#a4a4a4;}</style></defs><g id="a"/><g id="b"><g id="c"><path class="d" d="M73.77,126.95c8.4,2.89,16.01,4.71,23.8,5.78,2.36,.44,5.25,.68,5.57,3.61,1.35,6.74,3.27,13.3,5.96,19.63,1.75,3.83-.75,3.89-3.97,3.84-17.27-.26-34.55-2.36-50.96-7.91-5.89-1.01-10.88-4.01-16.02-6.76-4.24-2.5-9.23-4.27-12.39-8.2-10.56-12.84-18.14-27.86-22.07-44.03-1.13-4.42-2.28-8.83-3.47-13.23-.27-1-.28-1.96-.1-2.96,1.49-7.68,1.99-15.74,6.38-22.45,4.65-9.1,11.7-17.02,19.21-23.87,4.39-3.18,8.75-6.41,13.27-9.4,6.91-4.29,14.6-7.21,21.82-10.92C75.71,3.56,92.32,1.9,108.36,.15c2.29-.18,4.58-.23,6.84,.04,12.58,1.37,25.43,1.9,37.49,6.09,1.51,.49,2.83,1.31,4.11,2.25,9.77,7.67,20.58,14.83,28.37,24.56,6.54,12.74,11.04,26.49,10.96,40.93,.45,7.08-.75,13.9-2.59,20.69-3.22,15.77-11.37,30.3-24.18,40.21-11.83,11-18.6,13.79-33.72,18.54-1.9,.61-3.86,1.02-5.81,1.46-.81,.18-1.41-.25-1.62-1.03-1.54-5.8-2.12-11.8-3.43-17.64-.43-1.99,.13-3.27,1.65-4.43,13.46-10.56,28.11-20.72,37.19-35.56,3.52-9.02,2.38-19.3,1.66-28.78-3.39-12.41-12.03-22.8-20.95-31.8-15.21-15.32-50.39-11.95-70.31-9-3.79,.59-6.97,2.51-10.2,4.31-6.98,3.89-13.78,8.1-20.18,12.9-9.67,7.1-17.76,16.57-17.58,29.21-.14,2.15,.24,4.21,1.04,6.27,8.24,20.78,25.11,40.69,46.66,47.58Z"/></g></g></svg>