<?xml version="1.0" encoding="UTF-8"?><svg xmlns="http://www.w3.org/2000/svg" viewBox="0 0 163.61 95.34"><defs><style>.d{fill:#a4a4a4;}</style></defs><g id="a"/><g id="b"><g id="c"><path class="d" d="M123.56,94.31c-14.28-9.09-28.31-18.73-42.28-28.3-3.18-2.18-3.65-2.22-6.46,.3-9.61,8.63-19.14,17.36-28.62,26.12-4.21,3.85-4.27,3.88-8.13,.07-6.93-6.85-13.83-13.73-20.69-20.65-5.43-5.47-10.8-10.99-16.16-16.53-1.6-1.65-1.58-2.43-.17-4.05C13.03,39.23,25.42,27.58,37.56,15.69c1.83-1.39,4.09-5.24,6.6-3.12,8.28,7.41,16.09,15.3,24.14,22.95,5.45,5.14,4.25,5.5,10.3,.69,13.33-10.58,25.28-22.71,37.6-34.41,2.46-2.35,3.07-2.38,5.71-.16,12.13,10.21,24.21,20.5,36.46,30.57,2.42,2.41,7.56,4.32,4.07,8.24-12.38,16.21-23.61,33.25-35.07,50.11-1.18,1.4-1.81,3.36-3.8,3.76Z"/></g></g></svg>