<?xml version="1.0" encoding="UTF-8"?><svg xmlns="http://www.w3.org/2000/svg" viewBox="0 0 138.22 141.43"><defs><style>.d{fill:#a4a4a4;}</style></defs><g id="a"/><g id="b"><g id="c"><path class="d" d="M61.08,141.12c-5.68,1.41-9.82-2.14-13.58-6.72-4.7-5.73-7.17-12.46-8.19-19.58-.74-5.17-3.08-8.35-7.76-10.36-5.87-2.53-11.49-5.67-17.43-7.99-10.01-3.9-17.01-20.85-12.96-31.42,3.95-10.28,10-19.1,18.7-25.7,3.05-2.32,7.45-3.24,11.38-3.92,5.78-1.01,11.69-1.26,17.55-1.8,6.34-.58,9.1-2.17,10.06-8.42,.9-5.89,4.24-9.58,8.15-13.28,2.42-2.28,4.64-4.78,7.06-7.05,7.1-6.67,15.52-6.47,22.36,.47,.9,.91,1.68,1.93,2.58,2.84,7.03,7.14,11.94,15.31,12,25.65,.02,4.43,2.03,7.04,5.95,8.86,4.17,1.93,8.08,4.41,12.17,6.53,4.66,2.41,7.6,6.24,8.45,11.26,1.93,11.35-.04,24.61-12.75,29.83-7.07,2.91-14.16,5.93-21.52,7.88-5.45,1.45-9.12,3.2-10.15,9.42-.87,5.25-2.91,10.34-4.77,15.37-4.42,11.92-13.75,18.19-27.32,18.13Z"/></g></g></svg>