<?xml version="1.0" encoding="UTF-8"?>
<svg id="_レイヤー_2" data-name="レイヤー 2" xmlns="http://www.w3.org/2000/svg" viewBox="0 0 127.43 202.87">
  <defs>
    <style>
      .cls-1 {
        fill: #a4a4a4;
      }
    </style>
  </defs>
  <g id="parts">
    <path class="cls-1" d="M57.27,17.97C66.26,6.38,93.5-5.99,107.9,3.2c2.88,1.89,6.09,3.11,8.84,5.41,5.5,4.6,7.75,10.95,10.43,17.12,.67,1.55-.01,2.86-1.59,3.41-4.49,1.24-9.55,3.93-14.12,3.75-1.62-.36-2.76-2.73-4.18-4.14-4.69-4.97-10.52-9.7-17.65-6.8-6.54,2.23-12.25,5.65-16.22,11.54-10.2,15.15-19.75,30.72-27.94,47.02-14.54,29.82-14.29,46.18-18.71,78.61-.55,4.89-.77,44.28-3.7,43.75-4.47-.81-17.76-.7-22.81-1.87-1.29-2.77,2.75-49.51,3.12-52.41,5.36-30.42,15.16-60.15,27.56-88.39,6.99-15.43,16.6-28.62,26.34-42.23Z"/>
  </g>
</svg>