<?xml version="1.0" encoding="UTF-8"?><svg xmlns="http://www.w3.org/2000/svg" viewBox="0 0 304.89 191.42"><defs><style>.d{fill:#a4a4a4;}</style></defs><g id="a"/><g id="b"><g id="c"><path class="d" d="M8.48,101.74c6.37-15.64,13.39-30.88,23.03-44.86,4.85-7.03,24.09-25.56,40.39-36.06,16.3-10.5,32.23-13.86,38.5-15.86C122.83,1.01,135.58-.65,148.58,.23c8.67,.59,17.34,1.37,25.94,2.54,16.62,2.26,32.08,8.08,46.53,16.48,3.31,1.92,6.11,4.74,9.88,7.73,0,0,24.06,25.58,24.75,26.7,13.65,21.92,26.71,44.17,36.45,68.18,3.07,7.56,12.22,41.47,12.76,50.93,.04,.68-1.02,1.71-1.8,2.08-.9,.42-32.55,2.08-47.27,2.89-5.76,.31-5.8,.24-6.98-5.76-2.09-10.58-3.89-21.23-7.4-31.48-4.27-12.47-9.02-24.7-16.31-35.83-7.22-11.02-16.45-19.87-27.91-26.22-10.37-5.75-21.25-10.46-32.53-14.21-3.81-1.27-24.26-.58-30.45,.61-7.31,1.4-13.65,5.45-20.29,8.62-8.29,3.95-14.57,10.26-20.18,17.34-9.53,12.03-17.4,25.09-23.76,39.03-1.51,3.3-2.38,6.97-3.03,10.57-2.46,13.74-7.43,44.41-7.73,45.97-.27,1.43-1.08,2.29-2.67,2.33-1.58,.04-52.6,2.92-54.39,2.68-.76-.1-1.41-1.22-2.06-1.92-.15-.16-.11-.51-.12-.77-.15-41.85,2.16-64.6,8.47-86.97Z"/></g></g></svg>