<?xml version="1.0" encoding="UTF-8"?><svg xmlns="http://www.w3.org/2000/svg" viewBox="0 0 235.42 141.76"><defs><style>.d{fill:#a4a4a4;}</style></defs><g id="a"/><g id="b"><g id="c"><path class="d" d="M0,111.85c1.52-8.93,2.08-17.16,9.4-23.07,8.99-7.26,15.36-16.7,19.89-27.26,1.45-3.39,2.14-7.19,2.69-10.88,.89-5.96,1.45-11.98,2.03-17.98,.64-6.71,3.52-12.51,8.2-17.03,5.14-4.97,10.91-9.34,16.62-13.67,3.18-2.41,6.66-2.41,10.69-.98,12.6,4.49,22.17,12.65,30.33,22.95,5.63,7.1,11.65,13.9,17.52,20.81,.73,.86,1.52,1.73,2.44,2.37,11.47,8.01,22.85,16.15,37.28,18.22,4.08,.59,8.12,1.75,12.05,3.04,17.95,5.89,35.84,11.97,53.79,17.85,5,1.64,8.74,4.02,9.84,9.71,1.27,6.6,4.15,13.02,1.68,19.89-4.12,11.45-11.67,19.28-23.87,21.88-5.16,1.1-10.61,1.21-15.56,2.87-6.59,2.22-12.48,1-18.73-1.05-20.19-6.65-40.87-10.78-62.23-10.85-.76,0-1.54,.1-2.27-.04-12.87-2.42-25.43,.02-38.05,2.14-7.05,1.18-14.26,1.44-21.34,2.48-7.08,1.04-14.21,2.12-21.12,3.95-9.44,2.5-17.08-.9-24.3-6.22-1.44-1.06-2.82-2.77-3.33-4.45-1.51-5.04-2.58-10.21-3.66-14.68Z"/></g></g></svg>