<?xml version="1.0" encoding="UTF-8"?><svg xmlns="http://www.w3.org/2000/svg" viewBox="0 0 174.47 95"><defs><style>.d{fill:#a4a4a4;}</style></defs><g id="a"/><g id="b"><g id="c"><path class="d" d="M114.28,.42c.74-.12,1.76-.6,2.57-.36,3.73,1.09,7.42,2.31,11.09,3.61,3.49,1.23,3.72,1.64,3.18,5.44-1.78,12.98-4.27,25.88-4.86,38.99-.15,2.81,.31,3.31,3,3.56,13.26,1.15,26.53,2.12,39.76,3.59,2.66,.29,3.51,1.17,3.88,3.93,1.45,10.99,2.11,22.01,1.08,33.07-.21,2.27-.91,2.9-3.17,2.71-40.61-3.39-152.79-13.36-168.28-14.81-2.05-.21-2.62-.79-2.5-2.69,.15-2.45,1.41-14.68,1.86-18.34,.06-3.82,3.37-3.78,6.43-3.78,21.47-1.25,42.93-2.57,64.41-3.68,3.62-.24,7.86,.35,9.95-3.31,3.08-4.59,23.72-36.73,31.62-47.94Z"/></g></g></svg>