<?xml version="1.0" encoding="UTF-8"?><svg xmlns="http://www.w3.org/2000/svg" viewBox="0 0 308.97 138"><defs><style>.d{fill:#a4a4a4;}</style></defs><g id="a"/><g id="b"><g id="c"><path class="d" d="M56.98,138c-4.52-4.6-51.81-62.62-55.79-67.63-1.66-2.1-1.61-3.38,.27-5.37,7.4-7.83,15.27-15.19,24.12-21.32,10.5-7.28,21.13-14.41,32.07-20.99C75.34,12.09,94.5,5.94,115.08,3.42,127.22,1.93,139.33,.25,151.53,.09c13.92-.19,27.9-.17,41.75,.95,8.04,.65,16.09,1.98,24.17,2.83,3.71,.39,7.43,1.6,10.92,2.99,12.93,5.11,25.9,10.14,38.54,15.95,13.45,6.19,26.38,13.37,38.97,21.15,3.34,2.06,3.67,2.93,2.38,6.44-2.49,6.8-5.15,13.55-7.87,20.26-2.94,7.25-15.61,37.12-18.74,44.91-1.41,3.5-2.33,7.2-3.72,10.71-1.36,3.44-3.91,4.07-6.91,1.8-6.71-5.09-13.24-10.34-20.62-14.55-21.19-10.12-56.44-15.33-91.45-15.33-15.96,1.23-31.66,4.33-46.93,9.45-6.1,2.05-12.02,4.36-17.6,7.54-12.12,6.91-24.71,13.07-35.42,22.23-.38,.33-1.05,.32-2.03,.59Z"/></g></g></svg>