<?xml version="1.0" encoding="UTF-8"?><svg xmlns="http://www.w3.org/2000/svg" viewBox="0 0 238.52 65.38"><defs><style>.d{fill:#a4a4a4;}</style></defs><g id="a"/><g id="b"><g id="c"><path class="d" d="M37.97,65.18c-7.52,.65-15.25-.06-22.17-4.83-2.48-1.71-5.03-3.33-7.49-5.07-3.62-2.55-5.67-6.34-6.88-10.36C.1,40.48-.21,35.79,.13,31.1c.2-2.72,.96-5.24,2.42-7.54,.18-.29,.42-.57,.53-.88,1.24-3.67,4.14-5.51,7.49-6.92,1.9-.8,3.78-1.68,5.64-2.56,4.77-2.27,9.72-2.17,14.62-.79,4.19,1.18,8.35,2.57,12.36,4.26,2.85,1.2,5.37,3.19,8.14,4.6,2.32,1.18,4.17,2.89,6.12,4.51,1.29,1.08,1.69,1.05,2.76-.25,2.53-3.05,4.8-6.34,7.55-9.17,3.72-3.84,7.77-7.35,13.51-7.87,3.16-.29,6.31-1,9.46-1.04,7.14-.09,13.35,2.3,18.1,7.82,2.36,2.74,4.55,5.62,6.86,8.4,1.58,1.9,2.02,1.93,3.58,.06,3.26-3.89,6.45-7.84,10.3-11.2,2.15-1.88,4.3-3.71,7.03-4.7,.8-.29,1.58-.69,2.31-1.15,4.43-2.81,9.36-3.23,14.41-2.96,1.02,.05,2.06,.17,3.05,.44,8.65,2.3,16.73,5.82,23.96,11.19,3.14,2.33,2.72,2.64,5-.79,4.18-6.3,10.06-10.32,16.96-12.91,5.74-2.15,11.66-2.19,17.46-.08,3.15,1.15,6.22,2.53,9.21,4.03,1.16,.58,2.18,1.66,2.96,2.74,3.37,4.66,5.86,9.7,6.47,15.55,.42,4-.16,7.83-2.24,11.19-2.17,3.5-4.61,6.87-7.29,9.99-1.88,2.19-4.71,3.24-7.58,3.49-8.48,.72-16.68-.31-24.14-4.75-3.92-2.33-7.74-4.83-11.58-7.29-1.76-1.12-1.82-1.14-2.98,.64-.19,.29-.4,.57-.55,.87-3.47,7.14-9.6,11.52-16.11,15.5-.58,.35-1.23,.64-1.89,.81-8.67,2.2-17.43,3.17-26.36,1.99-2.45-.32-4.67-1.03-6.59-2.64-3.42-2.88-6.9-5.69-10.31-8.58-1.89-1.61-2.76-1.55-4.03,.57-1.37,2.29-2.64,4.64-4.05,6.9-1.86,2.96-4.15,5.49-7.47,6.9-1.11,.47-2.17,1.05-3.22,1.65-4.59,2.59-9.44,2.95-14.49,1.75-1.84-.44-3.69-.91-5.56-1.15-4.59-.6-8.93-2.04-12.95-4.21-2.93-1.58-5.57-3.72-8.29-5.66-2.03-1.45-2.03-1.52-3.71,.3-2.28,2.47-4.58,4.92-6.73,7.5-1.68,2.02-3.84,3.15-6.25,3.9-1.8,.57-3.65,1.01-6.04,1.66Z"/></g></g></svg>