<?xml version="1.0" encoding="UTF-8"?><svg xmlns="http://www.w3.org/2000/svg" viewBox="0 0 312.72 191.55"><defs><style>.d{fill:#a4a4a4;}</style></defs><g id="a"/><g id="b"><g id="c"><path class="d" d="M141.14,.3c7.99,.07,16-.41,23.88,1.27,14.23,2.99,28.61,5.59,41.79,11.98,27.77,13.17,52.77,31.55,76.65,50.75,1.73,1.39,3.25,3.14,4.53,4.97,8.25,11.77,15.48,24.14,21.74,37.08,4.6,8.77,2.35,18.9,2.97,28.41,.1,10.64-2.72,20.74-6.6,30.42-2.9,7.26-8.11,13.26-14.04,18.44-4.59,3.47-10.79,3.81-15.97,6.09-8.43,3.22-16.94,1.36-25.44,.7-9.71-.78-18.96-3.98-26.5-10.22-3.72-2.89-7.44-5.77-11.08-8.75-1.25-1.03-2.39-2.25-3.36-3.56-4.75-6.41-9.47-12.85-14.12-19.34-6.76-8.04-22.86-12.46-32.73-15.97-12.93-2.66-25.96,2.74-38.64,4.95-18.38,4.89-36.56,10.61-54.76,16.14-12.03,3.81-24.39,.62-36.51-.79-13.57-2.74-22.82-15.87-29.1-27.2-2.56-6.02-2.57-13.29-3.46-19.8-.79-7.21-.51-14.27,2.31-21.14,2.34-5.7,4.87-11.27,8.21-16.47,11.41-22.51,24.28-31.51,45.7-43.78,13.73-7.72,27.25-16.1,42.44-20.7,3.28-1.04,6.78-1.73,10.21-1.89,10.63-.49,21.17-2.71,31.88-1.62Z"/></g></g></svg>