<?xml version="1.0" encoding="UTF-8"?>
<svg id="_レイヤー_2" data-name="レイヤー 2" xmlns="http://www.w3.org/2000/svg" viewBox="0 0 173.39 131.66">
  <defs>
    <style>
      .cls-1 {
        fill: #a4a4a4;
      }
    </style>
  </defs>
  <g id="parts">
    <path class="cls-1" d="M21.81,10.11c.61-.01,1.23-.06,1.84-.11,9.78-.85,19.55-1.83,29.34-2.51,6.92-.48,25.27-1.25,27.52-1.48,3.86-.39,7.7-1.27,11.62-.58,.39,.07,.82,0,1.23-.04,8.35-.68,16.7-1.82,25.06-1.92,8.19-.11,16.26-1.88,24.47-1.34,1.01,.07,2.04-.18,3.06-.26,7.95-.62,15.89-1.26,23.84-1.84,2.76-.2,3.63,.49,3.61,3.56-.03,5.51-.24,11.02-.52,16.52-.67,13.08-2.19,26.08-4.6,38.94-2.68,14.35-6.92,28.23-14.25,40.99-2.75,4.79-5.51,9.57-8.5,14.21-1.07,1.66-2.63,3.24-4.32,4.24-5.45,3.22-10.84,6.62-16.95,8.53-2.14,.67-4.27,1.48-6.46,1.81-6.28,.96-12.57,2.12-18.9,2.47-11.86,.65-23.75,.86-35.07-3.76-7.48-3.05-14.21-7.09-19.56-13.36-11.7-13.71-20.61-29.03-26.65-45.96-2.81-7.88-11.45-35.55-13.44-41.34C2.84,23.02,.02,14.08,0,13.47c-.03-1.26,1-2.4,2.25-2.44,2.85-.09,15.89-.86,19.56-.92Z"/>
  </g>
</svg>