<?xml version="1.0" encoding="UTF-8"?>
<svg id="_レイヤー_2" data-name="レイヤー 2" xmlns="http://www.w3.org/2000/svg" viewBox="0 0 150.77 194.25">
  <defs>
    <style>
      .cls-1 {
        fill: #a4a4a4;
      }
    </style>
  </defs>
  <g id="parts">
    <path class="cls-1" d="M136.34,191.79c-.42,2.21-.94,2.64-3.14,2.4-14.16-1.52-118.17-12.98-129.13-14.11-3.71-.38-4.27,.11-4.03-4.32,.31-5.69,.73-11.37,1.18-17.05,1.05-13.44,5.27-90.42,6.4-115.46,.61-13.48,1.62-26.92,3.13-40.32,.06-.57-.08-1.26,.2-1.67C11.34,.7,12.02,.04,12.61,0c1.7-.1,38.81,.92,67.28,1.55,14.42,.32,52.06,2.72,66.47,3.46,.95,.05,1.9,.16,2.82,.38,1.01,.24,1.61,.91,1.58,2.03-.07,2.28-1.26,41.38-2.17,58.63-.65,12.13-1.85,24.23-3.01,36.33-1.84,19.28-3.83,38.55-5.79,57.82-1.02,10.01-3.39,31.15-3.45,31.58Z"/>
  </g>
</svg>