<?xml version="1.0" encoding="UTF-8"?>
<svg id="_レイヤー_2" data-name="レイヤー 2" xmlns="http://www.w3.org/2000/svg" viewBox="0 0 201.32 289.09">
  <defs>
    <style>
      .cls-1 {
        fill: #a4a4a4;
      }
    </style>
  </defs>
  <g id="parts">
    <path class="cls-1" d="M3.19,166.75C11.74,93.77,20.25,58.14,47.42,7.08c1.2-2.34,2.79-4.5,4.37-6.62,.73-.97,2.69-.28,2.89,.96,.48,12.4-9.36,72.83-10.41,90.84-2.64,33.31-7.27,66.38-9.46,99.73-.03,.41,.55,1.16,.94,1.23,.48,.09,1.11-.3,1.6-.61,11.59-25.11,22.06-51.24,35.47-75.58,10.09-17.82,18.76-36.51,30.1-53.58,4.56-6.81,23.59-34.22,17.7-8.48-4.87,14.14-9.47,28.38-14.54,42.45-8.86,25.14-15.15,51.04-21.95,76.78-.48,1.85-1.65,3.84,.19,5.67,3.39-1.49,6.48-3.25,8.67-6.32,11.73-13.16,23.53-26.26,35.14-39.52,9.2-11.97,21.28-20.9,33.23-29.92,1.13-.87,2.39-1.6,3.65-2.26,2.38-1.51,5.21,1.52,3.93,3.91-.61,1.3-1.29,2.57-2.01,3.81-11.36,19.23-22.08,38.91-34.19,57.67-10.62,15.72-17.87,33.15-24.46,50.81-1.37,3.09-1.29,7.89,3.38,5.82,4.48-2.49,8.94-5.02,13.29-7.72,22.95-13.58,44.28-29.64,66.89-43.71,2.55-1.02,7-3.26,8.87-.09,.9,1.72,.84,2.85-.69,4.42-13.74,13.79-82.57,81.81-102.94,102.23-3.73,4.41-8.45,6.35-13.93,6.8-12.65,1.04-25.3,2.11-37.97,2.88-8.13,.26-16.46,.73-24.55,.16-5.32-2.09-18.64-2.08-19.18-13.13-3.32-41.99-.27-67.65,1.71-108.93Z"/>
  </g>
</svg>