<?xml version="1.0" encoding="UTF-8"?><svg xmlns="http://www.w3.org/2000/svg" viewBox="0 0 218.65 153.33"><defs><style>.d{fill:#a4a4a4;}</style></defs><g id="a"/><g id="b"><g id="c"><path class="d" d="M201.9,106.01c-14.24,13.25-28.59,26.39-42.66,39.81-4.07,3.88-8.16,5.83-13.99,5.89-25.81,.24-51.62,.92-77.43,1.62-17.65-5.15-26.92-26.88-39.69-39.45-8.24-10.16-16.66-20.18-25.01-30.26-4.08-4.93-4.14-5.24-.24-9.76C21.59,52.18,40.34,30.52,59.07,8.84,66.29,.64,66.89-.48,77.85,.15c15.88,.52,31.76,1.29,47.64,1.8,12.33,2.3,29.18-4.95,37.71,6.7,17.57,25.24,35.46,50.26,53.16,75.41,3.26,4.63,3.1,6.12-.91,10.04-4.3,4.2-8.84,8.16-13.27,12.22l-.29-.31Z"/></g></g></svg>