<?xml version="1.0" encoding="UTF-8"?><svg xmlns="http://www.w3.org/2000/svg" viewBox="0 0 202.2 106.03"><defs><style>.d{fill:#a4a4a4;}</style></defs><g id="a"/><g id="b"><g id="c"><path class="d" d="M.04,88.93c-.23-1.35,.49-2.2,1.03-3.05,9.86-14.71,20.24-29.07,30.49-43.5,4.97-6.82,9.77-13.8,14.77-20.59,5.85-7.05,12.5-13.4,18.62-20.21,1.24-1.37,2.51-1.73,4.27-1.52,6.91,.81,64.12,6.61,85.86,8.17,2.12-.06,2.37,2.45,3.32,3.96,7.69,16.37,41.61,87.81,43.22,91.15,.25,.52,.53,1.07,.57,1.63,.02,.32-.37,.94-.63,.97-1.03,.12-2.09,.13-3.12,.04C132.34,100.03,66.09,95.31,.04,88.93Z"/></g></g></svg>