<?xml version="1.0" encoding="UTF-8"?><svg xmlns="http://www.w3.org/2000/svg" viewBox="0 0 160.59 144.62"><defs><style>.d{fill:#a4a4a4;}</style></defs><g id="a"/><g id="b"><g id="c"><path class="d" d="M160.23,69.11c.45,.22,.48,.87,.06,1.14-5.26,3.4-8.65,5.69-12.14,7.81-8.63,5.23-17.1,10.77-26.04,15.4-5.67,2.94-7.19,6.97-6.69,12.76,.45,5.24,.97,11.01,1.3,15.05,.54,6.42,1.35,8.78-2.05,10.16-2.35,.95-6.36-1.74-9.45-3.18-3.57-1.67-6.84-3.98-10.42-5.61-23.5-10.67-14.5-12.81-40.21,10.87-3.74,3.44-8.1,6.6-10.98,9.14s-5.92,3.11-5.95-1.12c-.06-10.09-1.19-41.67-1.29-47.38-.07-3.59-1.91-5.68-5.13-6.7-6.27-1.99-12.55-3.92-18.84-5.85-3.76-1.16-11.59-1.97-12.28-3.71s1.45-3.87,24.14-21.71c7.24-4.79,8.64-7.1,8.32-18.99-.29-10.97-.88-30.58-.73-36.41,.01-.57,.61-.93,1.13-.72,3.95,1.6,7.27,2.78,10.39,4.35,9.4,4.73,18.86,9.39,27.99,14.61,5.19,2.97,9.75,2.88,15.31,.22,7.54-3.61,15.44-6.38,23.44-8.79,2.34-.7,4.67-1.88,7.11-2.31,1.83-.32,3.41,1.07,3.48,2.92,.32,7.93-.58,22.12-.41,28.84s3.54,11.56,9.67,14.23c9.71,4.23,19.05,9.32,30.28,14.96Z"/></g></g></svg>