<?xml version="1.0" encoding="UTF-8"?>
<svg id="_レイヤー_2" data-name="レイヤー 2" xmlns="http://www.w3.org/2000/svg" viewBox="0 0 414.62 66.28">
  <defs>
    <style>
      .cls-1 {
        fill: #a4a4a4;
      }
    </style>
  </defs>
  <g id="parts">
    <path class="cls-1" d="M411.26,7.4c-11.01-1.05-22.04-2.21-33.07-2.92-4.01-.01-2.7,5.41-3.35,8.1-.58,5.5-1.15,11.01-1.75,16.51-.37,1.94-.1,5.4-2.87,5.3-10.15-1.3-20.31-2.73-30.54-3.36-2.02-.18-5.4,0-5.02-2.93,.38-6.95,2.06-13.81,1.85-20.78,.87-6.2,.74-6.34-5.46-5.62,0,0-.3-.01-.3-.01-9.09-1.91-18.48-2.03-27.7-1.19-3.28-.02-3.75,3.33-2.63,5.88-.2,6.96-.08,13.92-.2,20.88,.18,3.26-3.53,2.6-5.77,2.5-12.29-1.14-24.58,.23-36.87-.25-4.53-.28-4.9-.7-4.98-5.1-.08-4.71-.03-9.43-.14-14.14-.04-1.59,.37-3.31-1.19-5.04-11.92,.76-24.44,1.64-36.45,2.76-2.81,.26-2.9,.48-2.73,3.52,.28,5.12,.61,10.23,.8,15.35,.24,6.28-.17,6.71-6.39,6.66-12.08-.45-24.2,.07-36.26-.3-3.95-.04-2.95-4.66-3.23-7.42-.19-4.3-.3-8.61-.58-12.9-.2-3.1-.51-3.34-3.79-3.35-9.84,0-19.68,.02-29.52,.13-4.72,.08-4.98,.34-4.85,4.82,.13,4.3,.43,8.6,.53,12.9,.05,2.21,.55,4.5-.51,6.57-10.08,.4-20.52-.81-30.72-.99-1.54-.07-2.03-1.27-2.16-2.54-.7-6.52-1.16-13.07-1.85-19.58-.13-.81-.65-1.54-1.61-1.58-6.35-.32-12.69-.64-19.04-.89-1.53-.06-2.17,.66-2.15,2.31,.09,6.96,.41,13.93,.37,20.9-.09,2.26-3.06,1.6-4.6,1.6-8.79-.72-17.57-1.47-26.35-2.22-6.21,.02-6.88-2.41-7.57-8.07-.62-4.26-1.11-8.54-1.77-12.79-.42-2.7-.79-3.02-3.61-3.08-8.6-.11-17.22-.45-25.81-.34-2.42,.52-.92,4.93-1.43,6.72,0,11.68,0,23.37,.06,35.05,.03,5.12,.14,10.24,.3,15.36-.25,3.29,3.57,2.33,5.78,2.45,130.57-.45,261.14-1.13,391.71-1.33,3.07,0,6.14-.1,9.21-.18,2.8,.17,2.74-3.06,2.97-5.13,1.52-16.12,3.62-32.19,4.55-48.35,.16-3.12-.07-3.34-3.32-3.85Z"/>
  </g>
</svg>