<?xml version="1.0" encoding="UTF-8"?>
<svg id="_レイヤー_2" data-name="レイヤー 2" xmlns="http://www.w3.org/2000/svg" viewBox="0 0 244.76 283.55">
  <defs>
    <style>
      .cls-1 {
        fill: #a4a4a4;
      }
    </style>
  </defs>
  <g id="parts">
    <path class="cls-1" d="M48.71,256.6c-6-4.11-11.33-9.04-16.79-13.82-5.19-4.54-8.68-9.99-11.41-16.21-5.54-12.62-10.77-25.34-14.27-38.7C3.68,178.13-.47,147.56,.04,143.85c1.72-12.34,3.45-24.68,5.19-37.02,.26-1.83,12-31.72,15.09-35.74,4.2-5.44,18.3-24.29,26.84-33.88,5.34-5.99,23.86-20.64,31.04-23.89C89.29,8.31,115.55,1.47,117,1.12c6.05-1.48,6.09-1.59,11.84,.26,10.16,3.93,31.22,12.39,39.6,15.4,5.85,2.1,10.24,5.75,14.39,10.1,15.7,16.45,30.45,33.68,43.68,52.2,1.66,2.33,2.69,4.86,3.4,7.57,2.71,10.25,4.99,20.6,6.75,31.07,2.59,15.41,5.17,30.83,7.87,46.22,.4,2.3,.24,4.45-.33,6.6-4.97,18.63-11.98,36.38-22.75,52.5-3.93,5.88-7.77,11.8-11.7,17.68-.61,.92-7.26,7.22-10.08,9.24-3.03,2.16-14.91,10.52-17.99,12.24-8.77,4.91-17.65,9.61-26.43,14.49-2.35,1.3-4.86,1.82-7.41,2.29-11.53,2.13-23.17,3.51-34.84,4.56-1.48,.13-21.57-3.5-26.26-5.27,0,0-28.06-14.83-38.04-21.67Z"/>
  </g>
</svg>