<?xml version="1.0" encoding="UTF-8"?><svg xmlns="http://www.w3.org/2000/svg" viewBox="0 0 362.38 108.22"><defs><style>.d{fill:#a4a4a4;}</style></defs><g id="a"/><g id="b"><g id="c"><path class="d" d="M362.38,107.74c-6.03,1.16-11.69-.08-17.36-.74-1.19-.14-2.41-.53-3.49-1.06-9.72-4.81-19.34-9.82-29.13-14.49-7.67-3.67-14.24-8.86-20.77-14.14-6.05-4.89-11.96-9.95-18.07-14.77-2.23-1.76-4.76-3.2-7.3-4.48-5.3-2.66-10.75-5.04-16.51-6.51-2.53-.64-5.26-.92-7.87-.77-9.88,.58-19.34,3.3-28.76,6.13-5.88,1.77-11.79,3.47-17.65,5.3-6.35,1.98-12.56,1.12-18.75-.66-10.24-2.95-20.54-5.65-31.21-6.36-15.21-1.02-30.17,.51-44.95,4.44-11.69,3.11-23.19,6.78-34.7,10.48-9.16,2.94-18.52,5.27-27.68,8.2-6.63,2.12-13.08,4.78-19.61,7.2-.57,.21-1.23,.36-1.68,.74-4.92,4.14-10.43,2.61-15.87,1.72-1.05-.17-1.37-1.54-.57-2.42,1.24-1.36,2.43-2.8,3.86-3.95,7.66-6.17,15.26-12.4,23.11-18.33,7.68-5.8,15.49-11.46,23.49-16.81,9.35-6.25,18.69-12.62,28.56-17.98,10.47-5.7,21.84-9.41,33.93-9.85,5.29-.19,10.62,.28,15.91,.66,7.96,.57,15.9,1.72,23.85,1.81,4.4,.05,8.98-1.07,13.18-2.53,8.11-2.82,16.09-6.08,23.98-9.5,6.8-2.94,13.79-5.3,20.94-6.98,6.75-1.59,13.68-2.4,20.69-1.97,2.65,.16,5.32-.05,7.96,.16,7.23,.57,14.06,2.58,20.45,6.07,2.51,1.37,5.02,2.84,7.7,3.82,6.37,2.34,10.73,7.38,15.87,11.38,.32,.25,.6,.57,.83,.9,8.03,11.64,18.04,21.68,26.45,33.03,5.48,7.38,11.77,14.16,17.82,21.11,1.73,1.99,3.88,3.63,5.85,5.41,9.1,8.23,18.21,16.46,27.31,24.7,.11,.1,.08,.37,.2,1.05Z"/></g></g></svg>