<?xml version="1.0" encoding="UTF-8"?><svg xmlns="http://www.w3.org/2000/svg" viewBox="0 0 177.99 74.56"><defs><style>.d{fill:#a4a4a4;}</style></defs><g id="a"/><g id="b"><g id="c"><path class="d" d="M105.61,12.63c18.66,7.96,64.8,34.9,70.11,38.63,1.32,.93,2.63,2,2.19,3.94-.34,1.51-2.01,2.26-4.78,1.98-12.69-1.26-58.97,2.21-69.42,3.42-13.4,1.56-26.77,3.33-39.57,8.06-5.31,1.96-10.9,3.19-16.4,4.6-8.9,2.29-17.71,1.3-26.4-1.2-8.33-2.39-13.6-8.4-17.67-15.62C.82,51.38-.19,45.79,.03,40.04,.42,30.07,3.52,20.9,9.3,12.81c3.71-5.19,8.69-8.6,15.29-9.8C37.64,.63,50.65-1.31,65.36,1.12c0,0,39.42,11.16,40.25,11.51Z"/></g></g></svg>