<?xml version="1.0" encoding="UTF-8"?>
<svg id="_レイヤー_2" data-name="レイヤー 2" xmlns="http://www.w3.org/2000/svg" viewBox="0 0 115.4 98.08">
  <defs>
    <style>
      .cls-1 {
        fill: #a4a4a4;
      }
    </style>
  </defs>
  <g id="parts">
    <path class="cls-1" d="M.92,98.08c-.31-.68-1.03-1.5-.91-2.18,.23-1.38,.79-2.75,1.43-4.02,5.63-11.12,30.75-58.54,37.74-71.11,3.15-5.65,6.56-11.17,9.87-16.73,.61-1.03,1.28-2.03,2.02-2.98,1-1.27,2.7-1.46,3.74-.24,2.48,2.93,56.82,78.08,59.9,82.64,1.39,2.05,.6,3.64-1.96,3.94-4.5,.53-9.02,.85-13.53,1.29-10,.98-50.49,4.56-60.72,5.52-7.14,.67-31.84,3.37-37.59,3.87Z"/>
  </g>
</svg>