<?xml version="1.0" encoding="UTF-8"?>
<svg id="_レイヤー_2" data-name="レイヤー 2" xmlns="http://www.w3.org/2000/svg" viewBox="0 0 101.57 135.34">
  <defs>
    <style>
      .cls-1 {
        fill: #a4a4a4;
      }
    </style>
  </defs>
  <g id="parts">
    <path class="cls-1" d="M94.88,94.58c-11.64,11.52-20.99,24.04-30.12,36.75-.5,.69-1,1.38-1.54,2.03-2.18,2.59-2.36,2.6-5.26,.23-5.12-4.19-10.2-8.42-15.34-12.59-11.86-9.62-23.75-19.21-35.61-28.84-1.84-1.49-3.47-3.28-5.4-4.64-2.35-1.66-1.85-2.99-.27-4.91,9.81-11.97,19.27-24.22,29.3-36,12.68-14.88,25.78-29.4,38.75-44.04,2.93-3.3,3.01-3.18,7.22-1.16,8.03,3.85,15.31,8.82,22.12,14.52,3.65,3.05,3.67,3.11,.77,6.79-9.07,11.47-18.21,22.89-27.25,34.38-2.29,2.91-4.36,6-6.41,9.09-1,1.51-.83,2.9,.72,4.23,7.37,6.27,14.66,12.64,21.99,18.95,1.92,1.65,3.91,3.21,6.33,5.19Z"/>
  </g>
</svg>