<?xml version="1.0" encoding="UTF-8"?><svg xmlns="http://www.w3.org/2000/svg" viewBox="0 0 222.72 239.62"><defs><style>.d{fill:#a4a4a4;}</style></defs><g id="a"/><g id="b"><g id="c"><path class="d" d="M83.89,119.05c-4.16-1.86-8.55-2.47-12.88-3.33-13.22-2.64-26.51-5.12-39.22-9.77C14.59,100.74,7.13,82.5,.74,67.27c-1.52-9.16-1.01-23.11,4.47-30.9,4.31-3.78,8.73-7.46,14.82-8.04,11.87-1.95,21.25-1.78,32.34,3.37,22.09,9.48,34.09,31.43,46.9,50.46,.2,.3,.83,.69,.93,.61,.41-.31,.96-.79,.97-1.21,.07-3.89,.13-7.8,0-11.69-.36-11.09,2.91-21.84,5.17-32.58,3.76-13.33,13.7-24,24.67-31.97,6.43-4.53,13.93-6.16,21.63-4.91,13.32,1.96,26.45,6.27,37.3,14.56,8.96,6.59,16.8,14.34,23.51,23.21,3.03,4.01,4.23,8.87,5.57,13.57,3.11,10.05,.21,20.74-2,30.77-4.14,14.27-25.26,27.61-38.24,33.66-5.96,2.66-11.72,5.84-18.24,7.17-2.17,.44-4.21,1.57-6.28,2.45-.7,.42-.35,1.6,.35,1.82,1.95,.59,3.91,1.21,5.9,1.62,5,1.03,10.05,1.82,15.02,2.95,21.47,5.3,45.07,21.32,47.13,44.94,.9,15.46-8.53,31.26-22.84,37.62-11.05,6.46-23.25,7.64-35.63,6.69-3.63-.22-6.95-1.88-10.1-4.06-14.65-10.63-23.49-26.82-30.3-43.12-2.28-4.85-4.9-9.43-8.05-13.71-.88-1.19-.98-3.29-3.15-3.28-.52,1.31-1.26,2.57-1.53,3.93-2.04,10-3.92,20.03-4.96,30.18-1.41,10.27-4.73,19.95-10.02,28.8-2.68,4.49-5.95,8.84-10.73,11.59-1.24,.71-2.43,1.53-3.54,2.43-14.68,12.81-39.09,.33-51.68-10.41-3.68-3.24-7.33-6.52-11-9.78-4.43-3.92-6.69-9.27-9.11-14.42-2.63-5.57-3.7-11.67-4.79-17.71-5.19-23.26,9.92-42.83,30.04-52.6,14.81-7.56,32.07-9.7,48.62-10.23Z"/></g></g></svg>