<?xml version="1.0" encoding="UTF-8"?>
<svg id="_レイヤー_2" data-name="レイヤー 2" xmlns="http://www.w3.org/2000/svg" viewBox="0 0 322.98 333.74">
  <defs>
    <style>
      .cls-1 {
        fill: #a4a4a4;
      }
    </style>
  </defs>
  <g id="parts">
    <path class="cls-1" d="M179.6,11.97c1.8,7.15,3.51,14.33,4.96,21.56,2.95,14.67,5.39,29.42,7.18,44.28,.34,2.85,.4,5.73,.72,8.58,.33,2.91,1.53,3.62,4.08,2.39,3.14-1.51,6.26-3.06,9.3-4.76,7.36-4.12,15.18-7.23,23.07-10.1,8.85-3.21,17.85-6.04,26.87-8.78,5.09-1.55,10.36-2.52,15.74-2.33,4.16,.14,6.57,2.15,6.97,6.22,.21,2.19-.04,4.51-.53,6.67-.45,1.97-1.35,3.88-2.29,5.68-9.71,18.55-20.26,36.58-33.15,53.14-1.89,2.43-3.7,4.91-5.55,7.37-2.99,3.99-2.57,5.28,2.46,6.56,8.73,2.22,17.49,4.34,26.25,6.44,10.16,2.43,20.41,4.53,30.48,7.3,6.09,1.67,11.95,4.24,17.82,6.63,1.86,.75,3.53,2.09,5.11,3.38,4.41,3.58,5.21,8.62,1.56,12.99-3.79,4.55-8.02,8.59-13.91,10.77-10.82,4.01-21.91,6.62-33.32,8.25-11.39,1.63-22.78,2.78-34.29,2.82-2.42,0-2.83,.92-1.56,3.04,.11,.18,.2,.36,.31,.53,10.33,15.84,18.61,32.78,26.69,49.83,1.22,2.58,2.26,5.29,3.08,8.02,1.07,3.58,1.29,7.25,.13,10.9-1.64,5.15-5.12,7.7-10.52,7.61-3.73-.06-7.27-1-10.78-2.25-12.58-4.49-23.34-11.85-33.1-20.8-5.89-5.41-11.69-10.92-17.53-16.38-.9-.84-1.79-1.7-2.73-2.48-.82-.67-2.07-.17-2.3,.95-.38,1.8-.79,3.62-.95,5.45-1.94,21.67-5.93,43.02-10.29,64.3-.74,3.6-1.88,7.13-2.99,10.64-.88,2.81-2.44,5.2-5.16,6.6-2.24,1.16-3.79,1.07-5.52-.82-2.06-2.26-4.13-4.6-5.66-7.22-2.27-3.88-4.28-7.95-6.01-12.1-3.62-8.7-6.98-17.51-10.43-26.27-3.41-8.67-4.76-17.78-5.79-26.97-.5-4.48-.98-8.97-1.56-13.44-.34-2.67-1.91-3.58-4.3-2.21-5.33,3.06-10.54,6.34-15.79,9.53-1.93,1.17-3.88,2.3-5.75,3.55-5.67,3.8-11.88,6.41-18.32,8.54-11.88,3.93-23.93,7.21-36.33,9-1.6,.23-3.29,.51-4.85,.23-7.17-1.29-9.77-4.61-9.21-11.97,.54-6.98,2.14-13.79,4.49-20.36,5.73-16,11.03-32.18,18.45-47.53,.9-1.87,.63-2.7-1.21-3.29-3.31-1.06-6.73-1.82-9.99-3.01-8.66-3.15-17.3-6.39-25.88-9.74-5.91-2.31-11.82-4.65-17.53-7.39-2.9-1.39-5.53-3.51-7.98-5.65-2.77-2.42-2.93-4.59-.88-7.58,3.28-4.76,7.08-9.01,12.1-12.07,7.01-4.26,13.91-8.69,20.94-12.9,12.29-7.36,25.7-11.62,39.76-13.99,5.86-.99,11.73-1.91,17.59-2.88,1.01-.17,2.02-.38,3-.67,1.5-.44,2.32-1.94,1.66-3.35-.59-1.27-1.41-2.48-2.3-3.57-3.63-4.45-7.31-8.85-11-13.26-7.54-9.01-13.38-19.14-19.28-29.23-2.64-4.52-3.1-9.76-3.61-14.82-.46-4.56,4.28-9.13,8.93-8.83,3.45,.22,7,.61,10.27,1.64,17.79,5.6,35.37,11.8,52.08,20.22,4.76,2.4,9.62,4.59,13.69,8.16,1.47,1.28,2.47,.82,2.82-1.31,.8-4.85,1.42-9.73,2.2-14.59,.65-4.04,1.21-8.12,2.19-12.08,2.46-9.94,5.12-19.83,7.72-29.73,.31-1.19,.69-2.37,1.16-3.5,2.56-6.18,2.63-7.56,10.34-11.55,0,0,7.54,10.41,7.93,11.97Z"/>
  </g>
</svg>