<?xml version="1.0" encoding="UTF-8"?><svg xmlns="http://www.w3.org/2000/svg" viewBox="0 0 184.95 167.51"><defs><style>.d{fill:#a4a4a4;}</style></defs><g id="a"/><g id="b"><g id="c"><path class="d" d="M3.73,167.38c-.17-2.81-.36-5.63-.52-8.44-.6-10.64-1.36-21.27-1.75-31.92C.82,109.62,.08,92.21,0,74.81-.06,58.02,.47,41.22,1.13,24.44c.27-6.94,1.5-13.84,2.35-20.75,.14-1.17,.54-2.32,.78-3.32,.36-.67,.96-.34,1.37,.19,.5,.64,.97,1.5,1.83,3.07,24.49,31.96,49.2,42.73,53.79,45,10.85,5.36,25.07,10.42,33.51,13.79s27.09,6.21,41.05,6.96c13.4,.72,26.61-.5,39.67-3.5,2.59-.6,5.23-.98,7.87-1.37,.93-.14,1.6,.48,1.61,1.4,.04,2.87-.34,25.8-.52,34.4-.07,3.07-.41,3.33-3.12,2.77-5.61-1.17-11.2-2.5-16.84-3.52-4.02-.73-8.1-1.3-12.18-1.55-7.36-.46-13.64-1.59-22.1-.92s-34.98,5.07-50.37,10.62c-7.01,2.52-11.62,3.84-17.05,6.83-9.19,5.06-18.13,10.58-26,17.42-8.48,7.37-16.62,15.25-23.41,24.33-2.8,3.75-5.63,7.49-8.45,11.24-.4-.04-.79-.09-1.19-.13Z"/></g></g></svg>