<?xml version="1.0" encoding="UTF-8"?><svg xmlns="http://www.w3.org/2000/svg" viewBox="0 0 291.97 284.19"><defs><style>.d{fill:#a4a4a4;}</style></defs><g id="a"/><g id="b"><g id="c"><path class="d" d="M277.3,82.28c-.19,1.53-.11,2.84-.54,3.94-3.59,9.14-6.79,18.48-13.76,25.83-5.72,6.14-11.54,12.21-17.06,18.52-.82,1.04-.31,2.58,1,2.94,3.75,1.03,7.51,2,11.28,2.93,8.24,2.04,16.03,5.32,22.86,10.24,6.69,4.81,11.75,11.21,10.75,20.14-.64,5.73-2.89,11.2-7.05,15.38-4.98,4.82-10.39,9.27-15.91,13.49-7.17,5.72-15.49,9.11-24.1,11.9-9.39,3.05-19.09,4.38-28.89,5.26-4.26,.38-8.48,1.29-12.68,2.17-2.18,.45-2.53,1.29-2.24,3.6,.08,.61,.11,1.24,.31,1.81,2.1,5.85,2.2,12.06,3.05,18.11,.99,7.03-.78,13.85-2.84,20.52-.52,1.69-1.66,3.32-2.87,4.66-9.94,11.36-23.69,20.08-39.15,20.44-4.5,.25-8.35-1.89-12.11-3.92-7.16-3.86-12.51-9.88-17.87-15.8-1.05-1.16-1.61-2.83-2.21-4.34-2.12-5.32-4.16-10.69-6.25-16.02-.61-1.56-1.69-1.93-2.75-.84-7.07,7.29-15.65,12.52-24.22,17.74-10.12,6.16-21.07,9.85-32.92,10.93-3.84,.35-6.81-.66-9.22-3.62-2.71-3.33-5.57-6.54-8.26-9.89-1.55-1.93-2.66-4.09-2.73-6.71-.03-1.2-.48-2.4-.82-3.58-3.19-14.09,3.91-33.32,10.86-45.61,1.75-3,3.21-6.19,4.64-9.36,.87-1.93,.3-3.04-1.76-3.74-11.99-4.1-24.37-7.53-35.43-13.83-4.44-2.48-8.58-5.58-12.59-8.74-11.72-11.67-3.68-31.86,6.07-42.62,8.78-9.5,19.22-16.46,30.58-22.35,5.03-2.61,10.46-3.4,15.83-4.62,11.69-2.65,9.63-.96,9.63-11.44,.22-8.15,1.08-16.45,3.8-24.12,4.11-7.41,8.44-15.34,15.27-20.56,9.23-5.12,19.91-8.3,30.53-7.64,4.05,.51,8.08,1.17,12.12,1.77,1.64,.24,2.77-.48,3.5-1.9,1.49-2.92,3.07-5.81,4.4-8.8,1.79-4.02,4.39-7.35,7.63-10.28,8.61-7.47,19.6-15.44,31.58-14.14,9.45,2.21,22.9,4.09,27.56,13.74,1.36,3.51,3.74,7.07,3.58,10.93-.9,7.09-1.89,14.17-2.83,21.26-.14,1.81-1.07,5.8,2.04,5.03,9.29-1.93,18.7-2.01,28.13-1.92,13.41,.22,26.52,5.38,35.72,15.24,4.97,4.54,5.29,11.77,6.34,17.85Z"/></g></g></svg>