<?xml version="1.0" encoding="UTF-8"?><svg xmlns="http://www.w3.org/2000/svg" viewBox="0 0 198.69 121.86"><defs><style>.d{fill:#a4a4a4;}</style></defs><g id="a"/><g id="b"><g id="c"><path class="d" d="M141.71,13.3c13.13,7.64,26.06,16.25,34.89,28.89,4.11,5.98,8.15,12.05,10.48,18.95,1.7,4.62,3.63,9.19,4.88,13.93,1.25,4.75,1.79,9.68,2.66,14.53,1.94,9.23,3.77,18.49,3.98,27.96,.11,1.71,.52,5.38-2.26,4.01-1.65-.9-3.21-1.9-4.47-3.4-10.49-11.48-21.73-22.8-35.17-30.77-1.99-1.18-3.71-2.86-5.79-3.83-4.04-1.89-7.62-4.68-12.13-5.68-7.18-1.6-14.3-2-21.57-.66-8.56,1.5-17.24,2.27-25.78,3.98-12.67,2.39-25.37,5.01-38.29,5.4-5.01,.02-10.12-1.08-15.11-1.8-2.3-.42-4.48-1.08-6.52-2.32-2.18-1.38-4.82-2.04-6.97-3.48C12.2,69.27-.7,56.51,.03,39.58c-.04-.82,.22-1.78,.66-2.47,2.02-3.17,4.15-6.3,6.45-9.26,2.52-4.14,6.02-7.39,9.49-10.69,3.03-2.88,6.91-4.29,10.65-5.79C39.59,6.06,52.79,3.56,65.98,1.55c6.86-1.17,13.81-1.96,20.77-1.32,11.32,.61,22.59,1.63,33.79,3.4,8.03,.65,14.42,5.76,21.18,9.65v.02Z"/></g></g></svg>