<?xml version="1.0" encoding="UTF-8"?><svg xmlns="http://www.w3.org/2000/svg" viewBox="0 0 283.88 107.35"><defs><style>.d{fill:#a4a4a4;}</style></defs><g id="a"/><g id="b"><g id="c"><path class="d" d="M98.03,10.44c2.54,2.23,6.87,5.68,10.77,9.56,8.68,8.63,17.14,17.48,25.69,26.24,1.33,1.36,2.21,1.46,3.64,.11,4.6-4.35,9.1-8.79,13.7-13.13,3.12-2.94,6.26-5.88,9.58-8.59,2.04-1.67,4.31-3.2,6.71-4.28,9.52-4.29,19.09-8.5,29.68-9.45,4.27-.38,8.56-.68,12.84-.87,4.23-.18,8.04,1.08,11.45,3.66,3.1,2.35,6.02,4.85,8.91,7.46,4.4,3.97,8.66,8.05,12.78,12.31,7.02,7.25,12.91,15.37,17.73,24.18,6.09,11.13,11.74,22.51,17.44,33.86,1.83,3.65,3.23,7.52,4.77,11.31,.53,1.29-.28,2.59-1.66,2.63-5.32,.14-273.19,1.94-278.51,1.92-.41,0-.81-.09-1.22-.14-2.04-.23-2.61-.88-2.2-2.76,.48-2.2,1.05-4.37,1.6-6.55,3.82-15.07,7.42-30.19,11.53-45.18,2.7-9.86,6.29-19.45,11.94-28.11,.11-.17,11.7-14.6,19.83-18.99,2.12-1.14,4.58-1.7,6.93-2.37,2.95-.83,5.97-1.41,8.92-2.25,5.27-1.49,10.6-1.17,15.82-.17,7.08,1.37,13.72,4,21.33,9.58Z"/></g></g></svg>