<?xml version="1.0" encoding="UTF-8"?>
<svg id="_レイヤー_2" data-name="レイヤー 2" xmlns="http://www.w3.org/2000/svg" viewBox="0 0 338.14 346.35">
  <defs>
    <style>
      .cls-1 {
        fill: #a4a4a4;
      }
    </style>
  </defs>
  <g id="parts">
    <path class="cls-1" d="M284.51,141.09c-13.11,3.34-25.08,10.58-37.39,16.15-13.28,8.46-26.87,17.3-36.33,30.16-9.6,13.62-17.1,30.17-19.75,46.73-.98,23.97-4.27,48.25,1.53,71.89,3.01,13.1,6.59,25.97,8.8,39.25-4.76,1.69-9.33,.93-13.83,.8-2.17-.07-3-1.9-3.64-3.63-3.53-9.09-6.45-18.43-9.74-27.59-11.19-26.65-8.9-55.64-9.24-83.83-.08-15.21,.25-30.46-3-45.47-.31-1.45,.06-3.03,.02-4.55-1.14-23.22-5.47-42.81-19.18-61.76-9.29-14.37-20.17-27.5-31.09-40.64-11.34-14.08-27.08-22.4-42.75-30.58C46.63,36.7,24.61,24.81,2.02,14.13,.12,13.18-.49,11.45,.4,9.51,5.35-1.24,5.46-1.59,15.69,2.16c31.26,12.49,65.51,19.01,93.75,38.01,11.11,7.73,20.35,17.08,27.12,29.15,14.22,23.39,32.33,50.94,60.95,56.92,22.88,5.91,45.16-2.6,67.05-8.51,13.3-3.29,26.66-6.35,40.06-9.2,14.11-2.12,20.5-1.35,29.38,10.83,5.1,8,6.96,7.51-3.2,10.2-8.72,2.47-15.53,2.97-24.19,6.83l-22.1,4.69Z"/>
  </g>
</svg>