<?xml version="1.0" encoding="UTF-8"?><svg xmlns="http://www.w3.org/2000/svg" viewBox="0 0 242.28 209.64"><defs><style>.d{fill:#a4a4a4;}</style></defs><g id="a"/><g id="b"><g id="c"><path class="d" d="M102.91,53.13c2.58-7.04,4.19-12.88,6.8-18.23,4.71-9.67,10.99-18.39,19.04-25.59C139.03,.12,151.34-1.54,164.33,1.2c8.33,1.76,16.13,4.69,23.12,10.16,10.52,8.24,21.42,16.21,29.21,27.04,7.03,9.78,14.23,19.8,16.38,32.33,2.36,13.75,5.58,27.36,7.72,41.14,1.2,7.72,.99,15.67,1.39,23.51,.06,1.09,.33,2.37-.12,3.24-2.87,5.57-1.62,11.69-2.57,17.51-.21,1.28-.52,2.58-1.01,3.78-9.08,22.04-23.13,38.95-47.23,45.3-7.51,1.98-14.68,5.09-22.91,4.31-11.94-1.14-22.49-4.99-32.38-11.81-10.64-7.33-18.91-16.4-24.75-27.86-1.71-3.35-2.78-3.42-5.16-.4-2.56,3.25-4.67,6.84-7.14,10.17-2.47,3.32-5.06,6.55-7.72,9.73-11.57,13.86-27.81,14.57-42.86,7.77-8.69-3.92-15.81-9.95-21.32-17.86-5.26-7.55-9.77-15.48-13.19-24.03-2.43-6.08-5.15-12.05-7.42-18.19-1.36-3.66-2.24-7.51-3.08-11.33-1.08-4.89-2.15-9.81-2.74-14.77-.51-4.28-.7-8.68-.37-12.97,.49-6.3,1.56-12.56,2.4-18.84,3.39-25.45,16.21-45.23,36.51-60.46,1.2-.9,2.6-1.77,4.03-2.09,14.82-3.3,28.98-2.42,40,9.32,5.77,6.14,10.16,13.58,15.15,20.45,1.36,1.87,2.62,3.81,4.65,6.79Z"/></g></g></svg>