<?xml version="1.0" encoding="UTF-8"?><svg xmlns="http://www.w3.org/2000/svg" viewBox="0 0 187.22 137.17"><defs><style>.d{fill:#a4a4a4;}</style></defs><g id="a"/><g id="b"><g id="c"><path class="d" d="M141.14,9.33c2.57,5.15,4.31,10.6,5.72,16.16,.55,2.16,1.06,4.4,1.13,6.61,.17,5.52,2.36,10.2,5.74,14.35,3.31,4.08,6.96,7.88,10.22,12,9.05,11.41,17.18,23.36,21.94,37.33,1.51,4.44,1.62,8.9,.88,13.34-.66,3.92-1.91,7.77-3.19,11.55-3.36,9.89-11.23,14.25-20.74,16.41-.92,.21-1.96,0-2.93-.13-5.2-.71-10.46-1.13-15.56-2.27-4.36-.98-8.73-2.37-12.74-4.31-13.54-6.53-27.26-12.58-41.39-17.7-6.83-2.47-13.82-4.17-21.07-5.06-10.17-1.26-20.31-2.57-30.56-2.96-2.97-.11-5.92-.89-8.87-1.39-5.16-.87-10.31-1.89-15.49-2.61-5.58-.78-8.7-4.64-11.47-8.85-1.21-1.84-1.86-4.11-2.48-6.26-.32-1.1-.4-2.57,.07-3.56,3.75-7.9,6.93-16.2,14.18-21.83,2.57-1.99,5.03-4.23,7.86-5.75,6.17-3.32,12.3-7,18.89-9.18,11.65-3.86,21.5-10.54,31.35-17.45,5.37-3.77,10.11-8.17,14.47-13.04,1.17-1.31,2.51-2.46,3.62-3.82,5.15-6.35,11.75-7.72,19.94-10.05,8.19-2.33,25.31,.12,30.52,8.5Z"/></g></g></svg>