<?xml version="1.0" encoding="UTF-8"?><svg xmlns="http://www.w3.org/2000/svg" viewBox="0 0 292.31 165.74"><defs><style>.d{fill:#a4a4a4;}</style></defs><g id="a"/><g id="b"><g id="c"><path class="d" d="M14.07,121.84c-.65-.95-9.53-17.29-11.31-25.34-.81-3.68-2.7-13.02-2.73-14-.34-11.92,1.44-23.57,5.07-34.89,.98-3.07,2.85-5.94,4.71-8.61,3.28-4.7,6.5-9.54,10.91-13.28,5.73-4.85,11.19-10,18.12-13.4,4.69-2.31,9.21-4.96,14.12-6.84C60.37,2.66,68,.73,75.88,.08c3.58-.3,16.7,.34,19.65,.44,7.44,.24,14.68,1.79,21.6,4.32,5.83,2.13,11.51,4.87,16.9,7.95,4.38,2.51,8.31,5.85,12.31,8.98,1.12,.88,6.15,8.7,7.96,11.24,1.07,1.5,2.3,1.69,3.83,.69,17.41-12.99,34.05-23.31,42.31-25.98,5.9-1.9,12.09-3.21,18.25-3.89,8.87-.98,17.67,.06,26.15,3.14,5.04,1.83,9.23,4.98,13.2,8.42,3.71,3.22,7.27,6.62,10.81,10.02,1.53,1.47,10.42,12.39,11.45,14.06,1.63,2.65,3.02,5.44,4.68,8.07,4.22,6.66,6.27,14.01,7.03,21.77,.21,2.12,.69,15.24-.37,19.58-.97,3.98-1.99,7.96-3.07,11.91-1.49,5.46-4.52,10.17-7.36,14.97-2.45,4.14-12.91,13.58-14.76,14.91-9.99,7.22-21.1,12-33.19,14.14-4.29,.76-8.84,.34-13.25,.08-4.25-.25-8.47-.99-12.7-1.52-4.43-.56-8.62-1.93-12.74-3.62-6.22-2.55-22.22-10.79-24.21-11.94-2.26-1.31-2.39-1.22-4.12,.61-5.08,5.33-10.07,10.77-15.31,15.95-5.16,5.11-10.98,9.4-17.92,11.84-9.76,3.43-19.67,6.21-29.88,8.11-6.86,1.28-13.7,1.59-20.57,1.29-6.39-.27-12.77-1.32-18.69-3.94-8.25-3.65-16.48-7.42-23.91-12.6-5.51-3.84-10.56-8.23-15.18-13.18-4.06-4.36-7.32-9.26-10.73-14.07Z"/></g></g></svg>