<?xml version="1.0" encoding="UTF-8"?><svg xmlns="http://www.w3.org/2000/svg" viewBox="0 0 180.06 107.99"><defs><style>.d{fill:#a4a4a4;}</style></defs><g id="a"/><g id="b"><g id="c"><path class="d" d="M0,28.7C43.27,16.97,87.2,9.72,131.14,1.22c10.94-1.72,22.92-1.53,33.1,.03,4.86,.74,8.24,2.22,10.87,5.8,3.94,5.34,5.14,11.57,4.76,18.06,.49,10.87-27.78,16.94-18.94,27.4,6.01,4.65,11.64,9.91,15.11,16.76,3.74,7.12,5.49,14.62,2.5,22.51-3.41,9-10.14,14.2-19.39,16.14-1.43,.3-3.23-.34-4.65-1.01C102.72,80.95,51.57,55.27,0,28.7Z"/></g></g></svg>