<?xml version="1.0" encoding="UTF-8"?><svg xmlns="http://www.w3.org/2000/svg" viewBox="0 0 271.89 217.72"><defs><style>.d{fill:#a4a4a4;}</style></defs><g id="a"/><g id="b"><g id="c"><path class="d" d="M147.45,217.69c-26.08-.67-55.18-2.44-77.93-16.3-10.6-6.28-21.1-12.61-31.54-19.14-3.6-1.98-6.86-4.79-9.84-7.68-8.29-8.05-16.35-16.32-24.5-24.51-2.53-2.23-4.84-4.65-2.95-8.11,11.74-30.01,26.62-58.84,44.87-85.42,12.78-16.29,29.31-28.64,46.74-39.48,6.25-3.89,12.68-7.5,19.03-11.22,2.96-1.74,6.12-2.72,9.56-3.14C129.19,1.67,137.4-.11,145.8,0c5.57,.07,11.16,.1,16.71,.52,7.41,.56,14.46,2.79,21.27,5.64,23.93,9.58,45.87,23.07,66.79,38.01,6.81,4.8,14.09,9.07,20.66,14.16,1.39,1.63,.24,3.81-.36,5.56-10.27,27.14-18.69,55.19-33.32,80.41-5.32,9.55-10.95,18.93-16.2,28.53-2.14,3.91-4.82,7.35-7.92,10.41-14.56,13.34-33.56,35.13-54.63,34.46-3.78-.11-7.57-.02-11.35-.02Z"/></g></g></svg>