<?xml version="1.0" encoding="UTF-8"?><svg xmlns="http://www.w3.org/2000/svg" viewBox="0 0 295.17 172.08"><defs><style>.d{fill:#a4a4a4;}</style></defs><g id="a"/><g id="b"><g id="c"><path class="d" d="M102.08,172.08c-6.64-.56-12.28-.81-17.85-1.55-14.53-1.94-29.01-4.19-43.54-6.13-6.6-.88-13.07-1.92-19.54-3.73-6.16-1.73-12.05-3.85-17.88-6.35-2.76-1.18-3.56-2.84-3.19-5.7,2.75-21,6.59-41.81,15.33-61.2,7.15-15.87,16.09-30.89,30.51-41.44,13.82-10.11,27.84-20,42.25-29.24C103.85,6.69,121.34,1.7,139.94,.47c19.17-1.27,38.16-.12,56.53,5.45,8.19,2.48,15.8,6.99,23.53,10.88,3.68,1.86,7.02,4.4,10.49,6.67,20.23,13.24,34.84,31.46,46.27,52.44,3.51,6.45,6.44,13.23,10.06,19.61,3.84,6.77,5,14.14,5.95,21.62,.61,4.86,.87,9.78,1.67,14.6,1.82,11.04-.08,21.77-2.23,32.52-.59,2.94-2.07,4.02-4.98,4.18-19.42,1.06-38.83,1.36-58.13-1.45-5.57-.81-11.02-2.45-16.49-3.85-2.6-.67-3.92-2.37-4.25-5.26-1.01-8.99-2.71-17.91-3.38-26.92-.63-8.44-4.4-15.46-8.39-22.5-5.49-9.68-14.55-14.38-24.71-17.5-7.38-2.26-14.76-4.54-22.15-6.76-1.24-.37-2.61-.82-3.85-.65-6.15,.84-12.3,1.77-18.41,2.86-5.58,.99-10.08,4.22-14.15,7.89-3.35,3.02-6.43,6.38-9.31,9.85-1.26,1.51-2.09,3.59-2.5,5.54-2.07,9.95-4.55,19.87-5.64,29.94-.59,5.43,1.1,11.16,2.17,16.68,.96,4.95,2.48,9.8,4.03,15.74Z"/></g></g></svg>