<?xml version="1.0" encoding="UTF-8"?><svg xmlns="http://www.w3.org/2000/svg" viewBox="0 0 280.46 50.47"><defs><style>.d{fill:#a4a4a4;}</style></defs><g id="a"/><g id="b"><g id="c"><path class="d" d="M84.26,24.4c8-9.01,9.67-10.3,21.83-10.99,9.55-.78,13.81,5.63,18.95,12.37,2.16,1.47,3.7-1.59,4.76-3.07,4.25-9.97,6.43-9.89,15.72-14.15,9.59-5.49,17.2,2.99,23.75,9.82,.13,.12,.39,.1,.83,.2,1.07-1.33,2.49-2.59,3.29-4.17,4.35-8.57,13.78-11.14,22.02-14.4,14.32,.38,16.65,4.56,26.77,13.15,6.78-7.03,13.51-11.4,23.41-12.15,4.76-.48,9.42-.57,13.69,2.07,6.85,4.42,12.35,10.9,15.31,18.63,1.96,5.59,4.69,10.91,5.58,16.87,.8,5.36,.32,6.07-5.11,6.51-11.02,.55-22.06,.71-33.09,1.15-68.09,2.22-136.26,.79-204.33,3.72-10.22,.29-20.45,.39-30.68,.53-2.7-.23-7.56,.66-6.88-3.52,1.2-11.07,.48-25.57,13.28-29.89,4.21-1.57,8.26-3.39,12.99-3.29,4.69,.1,8.28,1.51,10.74,5.65,1.04,1.74,2.45,3.27,3.79,4.82,.81,.93,1.74,.81,2.59-.12,5.21-6.73,9.19-11.03,17.65-13.47,1.97-.65,4.02-.7,6.02,.11,4.99,2.02,9.56,4.51,12.62,9.24,1.07,1.65,2.12,3.54,4.51,4.41Z"/></g></g></svg>