<?xml version="1.0" encoding="UTF-8"?><svg xmlns="http://www.w3.org/2000/svg" viewBox="0 0 370.93 152.63"><defs><style>.d{fill:#a4a4a4;}</style></defs><g id="a"/><g id="b"><g id="c"><path class="d" d="M301.71,20.17c14.3,6.18,28.4,12.62,41.66,20.89,3.53,2,23.37,14.04,25.81,15.55,1.28,.64,2.58,4.22,1.07,5.72-7.3,7.21-35.3,28.46-43.55,33.1-4.47,2.51-8.9,5.09-13.35,7.62-2.9,1.65-2.97,1.7-5.28-.51-7.75-7.42-17.42-11.37-27.19-15.12-2.04-.78-2.86,.04-2.75,2.51,.42,8.59,.87,17.21,1.09,25.79,.32,3.05-.63,4.83-3.7,6.05-11.81,4.7-23.46,9.79-35.27,14.5-16.44,5.68-33.57,9.35-50.32,14.07-5.98,1.59-12.11,2-18.27,2.29-1.86,.09-3.09-.54-4.19-1.96-6.73-8.53-10.66-18.89-16.24-28.18-1.31-2.37-2.2-2.51-4.28-.64-7.04,6.55-14.35,12.92-20.95,19.9-6.14,6.73-14.41-2.36-20.57-4.97-17.77-11.43-34.41-24.58-48.57-40.3-1.95-2.25-4.19-2.96-7.12-2.4-14.29,2.73-28.68,4.98-42.88,8.19,0,0-3.95,.59-4.1-3.59-.15-4.18-2.13-17.25-2.68-21.23-.34-2.5,.44-3.3,3.05-3.34,13.94,.18,27.85-.9,41.78-1.29,3.6-.11,5.63-1.76,6.8-5.07,6.38-17.01,14.69-33.81,28.31-46.19,6.27-5.24,14.18-8.19,21.17-12.39,2.25-1.23,4.17-.9,6.19,.75,7.61,6.23,15.32,12.34,23,18.48,4.69,3.75,6.38,3.53,9.68-1.71,4.15-6.58,8.16-13.25,12.12-19.95,4.09-6.92,3.66-6.54,11.6-6.73,14.91,.59,29.8,2.62,44.7,3.69,15.43,1.16,29.99,6.43,44.75,10.64,8.32,4.42,6.09,17.94,9.71,25.94,.24,1.53,2.79,7.53,4.69,7.42,4.67-2.04,7.45-7.16,11.01-11.25,4.71-5.39,12.57-13.09,17.35-18.44l5.73,2.17Z"/></g></g></svg>