<?xml version="1.0" encoding="UTF-8"?><svg xmlns="http://www.w3.org/2000/svg" viewBox="0 0 227.38 139.32"><defs><style>.d{fill:#a4a4a4;}</style></defs><g id="a"/><g id="b"><g id="c"><path class="d" d="M0,93.06c2.44-2.66,4.75-3.92,7.07-5.12,4-2.07,7.94-4.32,12.1-6,3.96-1.59,8.15-2.6,12.28-3.75,1.57-.44,3.23-.54,4.86-.78,9.93-1.47,45.69-10.25,53.97-11.59,8.68-1.41,39.32-2.59,45.86-2.14,1.88,.13,2.56-.61,3.21-2.99,1.4-5.13,11.69-34.45,16.87-43.31,3.3-5.65,6.82-11.17,10.3-16.7,.65-1.03,1.94-.81,2.4,.26,.08,.19,.17,.39,.19,.58,.22,2.65,1.93,4.46,3.59,6.28,8.15,8.93,16.68,17.45,25.88,25.33,5.58,4.78,11.37,9.36,16.13,15.07,3.73,4.47,6.39,9.37,8.4,14.84,2.74,7.43,3.37,15.17,4.29,22.88-.33,7.65-7.25,24.49-12.6,32.13-2.19,3.12-4.97,5.39-8.18,7.27-9.05,5.29-18.7,9.07-28.64,12.38-5.27,1.76-23.86,2.93-38.18-1.02-8.94-1.34-17.51-3.95-25.7-7.98-11.02-5.42-22.19-10.56-33.45-15.48-9.38-4.1-18.9-7.89-28.49-11.47-9.43-3.52-19.27-5.48-29.31-6.37-7.32-.65-14.62-1.47-22.82-2.3Z"/></g></g></svg>