<?xml version="1.0" encoding="UTF-8"?><svg xmlns="http://www.w3.org/2000/svg" viewBox="0 0 249.73 174.36"><defs><style>.d{fill:#a4a4a4;}</style></defs><g id="a"/><g id="b"><g id="c"><path class="d" d="M112.77,0c1.58,1.2,22.41,14.45,24.08,15.5,15.62,9.84,109.81,66.91,111.84,68.3,1.29,.88,1.38,2.05,.24,3.02-2.51,2.11-33.75,24.64-46.98,33.62-15.94,10.82-69.97,45.78-80.78,52.84-2.56,1.67-4.4,1.31-6.59-.4-6.46-5.05-44.68-33.37-57.28-42.54C50.66,125.52,3.61,93.47,0,90.31c10.75-9.04,54.46-42.11,65.25-50.59C76.02,31.25,112.77,0,112.77,0Z"/></g></g></svg>