<?xml version="1.0" encoding="UTF-8"?><svg xmlns="http://www.w3.org/2000/svg" viewBox="0 0 360.49 314.85"><defs><style>.d{fill:#a4a4a4;}</style></defs><g id="a"/><g id="b"><g id="c"><path class="d" d="M207.93,177.19c-.07,2.29,1.7,3.69,2.78,5.35,11.12,17,19.23,35.96,21.72,56.2,.38,2.4,.33,4.96-.04,7.36-2.47,17.92-7.1,36.11-17.92,51-4.34,5.02-6.09,11.52-9.47,17.13-.89,1.22-2.91,.52-3.65-.64-6.95-10.14-13.62-20.42-17.09-32.41-2.05-7.08-3.3-14.3-4.57-21.54-2.14-12.22-.89-24.52-1.29-36.78-.17-5.3,.36-10.6-.9-15.9-.65-2.73-.15-5.72-.32-8.58-.72-4.55-2.32-3.26-3.87,.03-5.99,12.94-15.2,23.71-24.29,34.52-13.69,13.97-29.85,26.04-47.84,33.77-6.75,2.89-13.84,5.06-20.86,7.26-3.49,1.1-6.92,.35-9.73-2.23-3.59-4.55,2.2-15.35,2.48-21.19,.27-1.19,.61-2.41,1.14-3.5,3.6-7.37,6.85-14.95,11.04-21.97,5.63-8.96,13.23-16.71,20.79-24.11,7.6-7.8,16.09-14.5,25.17-20.49,3.05-2.01,6.33-3.83,8.26-7.1-.16-1.16-1-1.23-1.8-1.16-3.45,.3-6.91,.66-10.34,1.14-16.97,.98-33.94,1.6-50.94,1.36-8.43,.09-16.69-1.08-24.85-3.14-3.95-1-7.91-2.04-11.92-2.74-9-1.58-16.26-6.56-23.31-11.84-3.76-2.81-7.16-6.09-11.39-8.25-2.33-1.19-3.69-3.21-4.54-5.59-1.63-3.81,2.33-6.32,5.44-7.46,11.46-3.7,22.84-7.91,34.39-11.23,6.14-.05,12.14-1.75,18.33-1.46,4.07,.19,8.16,.17,12.21-.87,1.92-.49,4.18-.5,6.1,0,4.25,1.09,8.55,.99,12.83,.93,5.37-.07,10.54,.94,15.73,2.15,12.15,2.83,24.18,6.04,36.14,9.59,.9,.27,1.87,.25,3.93,.51-4.31-4.89-8.69-7.07-13.22-11.32-7.41-6.91-13.17-15.1-17.61-24.18-3.68-7.53-8.05-14.75-10.37-22.92-4.09-15.1-6.43-30.93-5.62-46.59,2.39-9.73,14.1,4.93,17.5,7.69,3.75,3.44,7.96,6.5,11.32,10.34,11.11,13.52,23.38,26.74,28.59,43.85,1.01,3.11,2.08,6.21,3.16,9.29,.12,.33,.73,.81,.82,.76,.87-.48,1.35-1.26,1.14-2.28,.12-22.42,5.86-45.06,17.45-64.29,4.35-7.39,9.48-14.31,14.18-21.5,3.45-5.27,8.53-8.76,13.32-12.57,2.18-1.55,6.25-2.85,7.18,.63,3.61,11.07,5.5,22.61,7.63,34.03,.9,5.22,2.01,10.42,1.89,15.8,1.01,10.94,1.98,22.07-.36,32.97-2.09,9.36-3.83,18.82-6.27,28.09-3.47,11.06-9.03,21.55-13.31,32.33-.09,.55-.28,1.33,0,1.63,.31,.33,1.16,.46,1.64,.28,15.8-5.56,31.23-12.43,47.51-16.49,7.33-1.73,14.85-2.68,22.3-3.93,7.71-.06,15.43,1.69,23.1,2.52,21.73,4.07,44.17,9.43,61.93,23.29,3.17,2.54-1.04,4.85-3.4,5.81-12.92,6.22-25.73,12.7-38.81,18.56-9.14,4.09-18.64,7.37-28.01,10.93-4.64,1.76-9.63,2.09-14.45,2.39-7.93,.49-15.95,.76-23.84-1.06-8.96-2.06-18.01-3.77-26.62-7.12-3.43-1.33-6.91-2.57-10.28-4.05-1.94-.85-3.85-1.34-5.95-1.08-.1-.31-.18-.55-.56-.52,.17,.2,.33,.39,.5,.59Z"/></g></g></svg>