<?xml version="1.0" encoding="UTF-8"?><svg xmlns="http://www.w3.org/2000/svg" viewBox="0 0 185.83 195.03"><defs><style>.d{fill:#a4a4a4;}</style></defs><g id="a"/><g id="b"><g id="c"><path class="d" d="M152.47,44.35c.41,11.65-2.42,24.22-4.34,36.88-.67,4.4-1.58,8.76-2.37,13.15-.53,2.95,.23,5.39,2.44,7.59,4.55,4.53,8.8,9.37,13.4,13.85,9.54,9.28,16.12,20.63,22.55,32.06,3.43,6.1,1.1,12.34-2.43,17.24-5.28,7.33-12.77,11.45-22.34,10.86-16.07-1.02-31.91-7.6-43.48-19.04-1.71-1.8-4.03-3-5.89-4.68-3.94-3.57-5.02-3.24-6.72,1.62-3.06,8.71-7.69,16.67-12.59,24.5-5.72,9.14-14.41,13.7-24.29,16.53-7.2,1.12-14.69-5.35-17.61-11.66-9.17-20.87-.18-43.76,5.42-64.38,2.27-7.76,.16-8.68-6.68-11.33-13.37-4.62-24.98-12.4-36.28-20.6C2.28,80.42-.12,70.64,0,60.26c.07-6.14,4.27-10.49,9.38-12.99,9.27-4.53,18.85-8.41,29.41-9,4.44-.25,8.86-.91,13.29-1.35,6.56-.66,12.75,1.16,18.84,3.15,12.54,4.11,11.16,.99,15.44-7.55,1.5-2.99,2.74-6.1,4.02-9.19,5.08-11.56,17.7-16.89,28.55-21.72,8.1-3.46,14.9-1.14,20.43,4.92,8.31,9.09,14.28,19.32,13.12,32.35-.12,1.39-.02,2.79-.02,5.46Z"/></g></g></svg>