<?xml version="1.0" encoding="UTF-8"?>
<svg id="_レイヤー_2" data-name="レイヤー 2" xmlns="http://www.w3.org/2000/svg" viewBox="0 0 156.8 159.05">
  <defs>
    <style>
      .cls-1 {
        fill: #a4a4a4;
      }
    </style>
  </defs>
  <g id="parts">
    <path class="cls-1" d="M156.8,159.05c-51.91-8.39-103.66-16.95-155.51-25.63-2.16-.39-.89-3.75-1.13-5.28,1.7-27.43,2.99-54.88,4.2-82.34,.75-14.82,1.37-29.66,2.62-44.44C7.11,.27,7.52-.1,8.55,.02c2.77,.31,5.53,.61,8.29,1,33.37,5,67,8.58,100.09,15.32,7.75,1.66,6.05,.09,7.71,7.53,2.35,10.53,4.63,21.07,7.04,31.57,5.47,22.29,11.49,44.46,16.69,66.82,2.71,12.31,6.47,24.32,8.43,36.78Z"/>
  </g>
</svg>