<?xml version="1.0" encoding="UTF-8"?><svg xmlns="http://www.w3.org/2000/svg" viewBox="0 0 181.21 119.35"><defs><style>.d{fill:#a4a4a4;}</style></defs><g id="a"/><g id="b"><g id="c"><path class="d" d="M181.21,35.94c-28.16,27.45-55.29,56.05-84.14,82.74-2.32,2.08-4.31-1.18-5.96-2.59C60.81,85.4,30.06,55.08,0,24.18c2.49-2.85,10.62,2.67,14.41,3.04,12.27,3.99,29.89,11.31,36.72,12.26S61.99,12.7,63.4,5.76q1.41-6.95,4-3.48c5.47,10.11,12.65,19.08,18.91,28.67,1.72,2.17,3.05,4.44,5.88,2.52,16.21-8.33,31.93-18.07,48.53-25.51,1.34,1.05,.47,1.7,.16,2.35-6.57,14.74-14.81,28.02-19.94,43.47,7.42-1.4,14.74-3.82,21.29-5.86,13.55-3.61,23.2-7.49,38.98-11.97Z"/></g></g></svg>