<?xml version="1.0" encoding="UTF-8"?>
<svg id="_レイヤー_2" data-name="レイヤー 2" xmlns="http://www.w3.org/2000/svg" viewBox="0 0 86.59 263.06">
  <defs>
    <style>
      .cls-1 {
        fill: #a4a4a4;
      }
    </style>
  </defs>
  <g id="parts">
    <path class="cls-1" d="M54.35,1.13c.62-1.01,1.88-1.41,2.97-.94,5.26,2.29,20.09,8.91,27.57,12.34,1.92,.88,2.1,1.45,1.06,3.32-2.29,4.12-4.72,8.16-7,12.28-7.33,13.27-14.94,26.4-21.84,39.89-7.71,15.06-14.99,28.55-17.67,45.25-1.41,6.16-2.33,22.89-1.09,30.25,1.97,11.72,4.81,22.99,8.35,34.36,1.88,6.04,31.62,68.99,32.19,70.08,.71,1.37,.2,2.35-.97,3.1-1.9,1.21-3.82,2.39-5.73,3.58-4.17,2.6-8.32,5.23-12.53,7.78-1.66,1.01-2.5,.83-3.65-.74-1.69-2.31-20.07-31.29-26.31-44.25-9.78-20.32-18.87-40.9-26.31-62.2-.54-1.54-1.2-3.1-1.36-4.69-1.39-14.07-2.72-28.16-1.61-42.33,.77-9.83,11-30.57,14.7-38.8C18.47,61.94,48.15,11.2,54.35,1.13Z"/>
  </g>
</svg>