<?xml version="1.0" encoding="UTF-8"?>
<svg id="_レイヤー_2" data-name="レイヤー 2" xmlns="http://www.w3.org/2000/svg" viewBox="0 0 46.43 185.75">
  <defs>
    <style>
      .cls-1 {
        fill: #a4a4a4;
      }
    </style>
  </defs>
  <g id="parts">
    <path class="cls-1" d="M44.66,92.29c-.66,29.28-1.05,58.57-2,87.84-.2,2.13,.37,4.77-2.19,5.62-11.76-.99-23.61-2.56-35.4-3.75-3.29-.51-5.35-.85-5.05-4.62-.16-37.91,1.45-75.81,1.34-113.72,.31-19.67,.49-39.34,.9-59.01-.09-3.35,2.2-3.09,4.69-3.14C18.21,1.07,29.47,.61,40.73,.15c2.25-.02,5.93-1.02,5.69,2.42-.17,29.91-1.15,59.81-1.83,89.71,.02,0,.05,0,.07,0Z"/>
  </g>
</svg>