<?xml version="1.0" encoding="UTF-8"?><svg xmlns="http://www.w3.org/2000/svg" viewBox="0 0 208.31 206.09"><defs><style>.d{fill:#a4a4a4;}</style></defs><g id="a"/><g id="b"><g id="c"><path class="d" d="M208.31,88.95c-3.33,4.09-6.64,6.14-10.04,8-5.42,2.97-9.92,7.08-14.51,11.12-2.82,2.49-4.51,5.56-5.5,9.13-2.16,7.8-3.5,15.69-3.54,23.82-.06,10.45-5.5,19.09-14.57,24.37-19.02,11.98-39.98,4.7-46.28,32.11-.79,2.88-.27,6.2-2.29,8.59-.8-.61-1.93-1.06-2.33-1.87-2.43-4.94-4.56-10.02-7.03-14.93-9.11-18.98-23.24-15.73-40.87-13.53-11.09,.6-19.51-4.51-23.5-14.89-6.64-14.82-7.55-40.29-23.5-48.05-4.56-1.89-9.08-3.87-14.36-6.13,5.63-4.19,11.19-6.23,16.92-9.85,7.02-4.54,11.83-10.67,13.58-19.15,5.78-25.72,7.54-41.27,37.24-45.83,10.35-2.28,18.51-7.45,22.86-17.51,1.76-4.07,3.23-8.26,4.87-12.39,.96-2.42,2.68-2.65,4.22-.39,9,12.89,14.56,31.2,32.67,32.76,12.61,2.22,24.81-1.68,34.09,9.42,4.51,5,8.55,9.99,9.68,17.07,.91,5.74,2.68,12.02,6.99,15.75,4.91,4.25,11.36,6.78,17.26,9.82,2.13,1.1,4.62,1.52,7.93,2.56Z"/></g></g></svg>