<?xml version="1.0" encoding="UTF-8"?><svg xmlns="http://www.w3.org/2000/svg" viewBox="0 0 158.23 48.12"><defs><style>.d{fill:#a4a4a4;}</style></defs><g id="a"/><g id="b"><g id="c"><path class="d" d="M158.23,47.63c-1.32,.24-2.06,.5-2.79,.49-4.5-.02-9.01-.28-13.51-.11-3.09,.12-5.51-.82-7.79-2.85-3.37-2.99-23.17-18.41-38.17-23.82-10.55-3.81-21.27-3.72-32.14-2.78-1.38,.12-11.6,4.51-15.29,6.29-2.01,.97-18.35,13.31-24.48,18.43-2.36,1.97-4.71,2.92-7.8,2.75-5.3-.3-10.63-.27-15.81-.38-.99-1.3-.18-2.12,.45-2.83C12.06,30.43,37.75,12.09,45.61,8.06c7.86-4.04,16.01-5.09,24.09-7.39,10.68-3.03,32.59,5.02,42.96,8.77,10.37,3.75,40.36,32.14,43.43,35.45,.65,.7,1.18,1.5,2.14,2.74Z"/></g></g></svg>