<?xml version="1.0" encoding="UTF-8"?><svg xmlns="http://www.w3.org/2000/svg" viewBox="0 0 205.03 96.02"><defs><style>.d{fill:#a4a4a4;}</style></defs><g id="a"/><g id="b"><g id="c"><path class="d" d="M129.76,16.31c6.06,4.09,12.07,8.34,18.28,12.27,9.49,6.78,19.09,13.36,28.81,19.78,1.44,.94,2.87,.13,2.98-1.64,.21-3.28-.36-6.54-.54-9.81-.3-5.54,.12-6.04,5.78-7.17,3.21-.64,6.41-1.38,9.64-1.88,3.66-.56,3.96-.3,4.32,3.11,1.62,16.92,3.38,33.83,5.11,50.74,.27,2.65,.58,5.29,.86,7.94,.15,1.38-.31,2.51-1.74,2.82-5.6,1.21-11.2,2.42-16.83,3.46-1.91,.35-2.61-.36-2.82-2.31-.99-8.54-1.7-17.12-2.81-25.65-.47-2.91-1.45-3.48-4.14-2.4-3.8,1.53-7.46,3.56-11.39,4.57-24.52,6.42-50.01,10-75.37,8.37-6.05-.25-11.53-2.78-16.96-5.07-7.53-3.18-14.81-6.97-22.22-10.43C29.43,52.26,12.06,34.59,1.01,13.57-.03,12.04-.81,9.91,1.52,9.01,13.15,4.99,25.18,2.31,37.27,.12c22.5-.9,44.96,3.29,67.04,7.15,9.05,1.35,16.93,5.85,25.45,9.04Z"/></g></g></svg>