<?xml version="1.0" encoding="UTF-8"?>
<svg id="_レイヤー_2" data-name="レイヤー 2" xmlns="http://www.w3.org/2000/svg" viewBox="0 0 82.28 263.52">
  <defs>
    <style>
      .cls-1 {
        fill: #a4a4a4;
      }
    </style>
  </defs>
  <g id="parts">
    <path class="cls-1" d="M77.11,247.57c-5.94,4.33-11.9,8.68-17.85,12.99-4.82,4.43-5.51,3.71-9.04-1.02-7-9.81-13.67-19.87-20.44-29.85-3.17-4.77-6.29-9.57-9.22-14.49-2.82-5.85-4.43-12.36-6.51-18.53-4.15-13.74-8.24-27.49-12.34-41.24-1.42-4.76-1.91-9.61-1.65-14.58,1.81-22.38-.34-45.46,7.3-66.95,3.11-8.89,5.54-18.04,9.37-26.67,3.98-8.97,7.18-18.35,12.89-26.47,4.5-6.31,9.61-12.2,14.94-17.81,3.37-3.47,4.95-3.81,9.23-1.42,4.63,2.58,9.03,5.58,13.51,8.43,2.59,1.65,5.19,3.28,7.68,5.07,1.71,1.23,1.8,2.43,.43,4.15-15.52,21.22-25.33,45.9-34.83,70.2-2.16,5.37-3.56,10.92-4.41,16.58-2.41,14.73-4.39,29.64-2.91,44.59,.73,4.77,2.67,9.47,3.21,14.3,.92,7.7,3.83,14.62,7.86,21.14,6.24,10.1,12.82,19.96,19.92,29.49,5,6.73,9.57,13.79,15.08,20.14,4.88,7.38,3.36,6.18-2.38,11.74,.05,.07,.1,.14,.15,.21Z"/>
  </g>
</svg>