<?xml version="1.0" encoding="UTF-8"?><svg xmlns="http://www.w3.org/2000/svg" viewBox="0 0 174.78 121.45"><defs><style>.d{fill:#a4a4a4;}</style></defs><g id="a"/><g id="b"><g id="c"><path class="d" d="M174.69,47.15s.12,.5,.08,.94c-.93,8.95-.87,9.14-9.45,11.97-17.22,5.67-34.68,10.63-51.73,16.78-18.37,6.63-36.48,14.13-51.31,27.43-5.13,4.6-9.83,9.71-14.37,14.9-1.81,2.07-3.3,2.74-5.89,1.95-10.24-3.13-20.19-6.9-27.5-15.14C6.15,96.53,.69,85.42,.16,72.78c-.41-9.61-.11-19.5,1.76-28.9C5.18,27.4,14.21,14.25,28.8,5.33c2.36-1.44,4.87-2.65,7.13-4.24,2.41-1.68,4.39-1.31,6.64,.3,12.78,9.16,26.75,16.3,40.35,24.09,14.81,8.49,30.81,12.91,47.46,15.41,14.7,2.2,29.43,4.16,44.31,6.24Z"/></g></g></svg>