<?xml version="1.0" encoding="UTF-8"?><svg xmlns="http://www.w3.org/2000/svg" viewBox="0 0 280.21 207.07"><defs><style>.d{fill:#a4a4a4;}</style></defs><g id="a"/><g id="b"><g id="c"><path class="d" d="M276.06,139.46c-4.17-9-19.31-32.72-22.17-34.37-12.41-7.19-24.75-14.49-37.49-21.09-5.8-3.01-11.97-4.16-18.23-5.09-8.92-1.33-44.02-4.5-52.65-3.97-5.17,.32-31.71,4.56-41.78,9.22-14.62,6.76-28.48,17.04-41.15,26.87-2.49,1.94-7.84,8.6-9.24,11.41-11.85,22.62-29.94,54.45-36.86,77.04-.97,2.47-1.61,5.06-2.4,7.59l.12-.07c-1.07,.2-1.47-.6-1.65-1.34-2.87-11.77-7.42-23.01-10.81-34.6-1.35-4.63-1.33-9.73-1.43-14.63-.41-18.66-.58-37.31,.43-55.97,.27-5.08,1.58-9.58,4.08-13.92,10.24-17.83,28.5-50.66,46.27-61.54,5.15-2.52,10.39-4.87,15.68-7.09,12.29-5.15,25.05-9.05,37.55-13.63C113.01,1.12,121.75-.12,130.8,0c8.4,.12,16.81,.48,25.2,.88,12.96,.62,25.55,3.63,38.21,6.13,2.36,.47,4.69,1.54,6.81,2.73,15.12,8.47,28.77,18.79,40.76,31.41,5.75,6.05,10.07,12.86,13.99,20.08,5.31,9.78,9.22,20.06,12.2,30.79,3.56,12.83,11.71,45.84,12.23,49.49,.29,2.04-3.83-1.38-4.14-2.05Z"/></g></g></svg>