<svg fill='currentcolor' xmlns="http://www.w3.org/2000/svg" viewBox="0 0 200.22 309.75">
  <g id="parts">
    <path fill='currentcolor' class="cls-1" d="M88.77,182.53c2.41,2.84,5.07,4.57,7.94,5.98,9.24,4.55,18.47,9.11,27.75,13.56,9.15,4.38,18.41,8.53,27.52,12.99,6.35,3.11,12.81,6.13,18.7,9.98,6.14,4.01,12.04,8.54,15.88,15.13,1.21,2.07,1.2,3.51-.61,5.21-3.59,3.36-6.96,6.96-10.51,10.36-.71,.68-1.79,1.24-2.76,1.35-16.49,1.84-32.94,3.99-49.55,4.8-6.69,.33-13.32,2.17-19.96,3.37-.71,.13-1.35,.57-2.58,1.1,1.17,1.56,2.03,2.96,3.12,4.14,9.85,10.63,20.13,20.73,32.7,28.24,2.62,1.57,5.01,3.56,7.4,5.49,1.25,1.02,2.27,2.32,3.79,3.92-5.28,1.98-10.04,1.86-14.62,1.01-13.44-2.5-26.83-5.26-40.18-8.14-4.58-.99-9.31-2.05-13.41-4.17-2.98-1.54-15.62-6.62-18.62-8.22-4.29-2.29-8.53-4.73-12.53-7.49-8.96-6.18-17.15-13.33-25.05-20.82-3.49-3.31-6.5-6.6-7.26-11.83-.46-3.19-.11-3.64,2.38-4.04,5.62-.88,11.21-2.14,16.86-2.54,8.9-.63,17.73-1.58,26.55-2.92,8.95-1.36,18.02-1.93,27.03-3,2.72-.32,5.4-1.11,8.07-1.78,1.56-.39,1.87-1.42,1-2.78-.25-.39-.51-.77-.79-1.13-10.41-13.17-21.23-25.78-35.74-34.92-14.04-8.85-27.55-18.53-42-26.74-6.96-3.95-13.25-8.89-19.28-14.58,1.12-2.09,2.88-3.07,4.94-3.51,5.54-1.19,11.08-2.37,16.65-3.41,12.08-2.25,24.12-4.95,36.3-6.46,16.82-2.09,33.31-5.78,49.91-8.95,5.67-1.08,19.5-4.49,25.33-5.9-6.02-6.99-15.89-13.93-22.53-19.48-4.94-4.14-21.05-15.48-24.24-16.8-5.8-2.39-11.72-4.48-17.5-6.93-3.36-1.42-22.87-10.62-29.45-13.35-3.62-1.5-7.43-2.56-10.96-4.24-4.5-2.15-8.8-4.72-13.9-7.5,1.99-.39,3.24-.79,4.5-.87,9.51-.57,19.02-1.33,28.55-1.54,15.39-.34,30.76-1.18,45.93-3.73,6.61-1.11,12.96-3.74,19.42-5.71,.38-.12,.65-.56,1.36-1.19C88.32,33.1,63.3,20.61,42.17,1.66c-.26-.23-.18-.85-.32-1.65,3.92,0,11.49-.01,11.49-.01l27.85,6.91s50.11,16.95,67.85,28.31c12.85,8.23,28.46,14.84,41.15,23.33,.59,.4,.92,1.2,1.42,1.88-6.18,2.72-15.7,5.23-22.13,6.18-17.63,2.61-38.25,10.29-55.87,12.97-1.32,.2-2.6,.69-4.54,1.21,1.08,1.25,1.68,2.29,2.57,2.91,6.97,4.77,13.69,10.02,21.08,14.04,14.85,8.07,27.93,18.46,40.86,29.14,7.59,6.27,15.24,12.46,22.87,18.67,2.15,1.75,4.57,3.27,3.5,6.74-1.15,3.71-2.6,7.14-6.8,8.31-2.06,.58-4.13,1.1-6.23,1.52-24.7,4.97-49.41,9.9-74.11,14.89-7.23,1.46-14.42,3.09-21.63,4.66-.7,.15-1.35,.47-2.42,.86Z"/>
  </g>
</svg>