<?xml version="1.0" encoding="UTF-8"?><svg xmlns="http://www.w3.org/2000/svg" viewBox="0 0 198.1 101.17"><defs><style>.d{fill:#a4a4a4;}</style></defs><g id="a"/><g id="b"><g id="c"><path class="d" d="M172.74,8.16c9.48,9.51,14.72,20.64,20.62,31.31,1.42,2.58,2.03,5.84,2.21,8.83,.99,16.38,1.74,32.77,2.52,49.16,.11,2.24-1.17,3.53-3.42,3.68-63.01,.17-126.04-.37-189.06-.46-4.91-.02-6.02-1.14-5.49-6.24C3.37,67.66,9.66,18.05,41.73,11.93c23.24-4.4,39.89,6.51,57.07,20.55,6.95,2.92,11.3-8.47,16.71-11.59,5.65-5.1,11.24-10.32,17.34-14.85C140.6,.28,149.85-.43,159.13,.18c6.14,.4,10.45,4.27,13.61,7.99Z"/></g></g></svg>