<?xml version="1.0" encoding="UTF-8"?><svg xmlns="http://www.w3.org/2000/svg" viewBox="0 0 256.14 72.46"><defs><style>.d{fill:#a4a4a4;}</style></defs><g id="a"/><g id="b"><g id="c"><path class="d" d="M0,62.18C45.88,42.58,91.59,22.12,139.44,7.82c9.93-3.13,20.18-4.95,30.33-7.21,2.85-.65,5.63-.83,8.52-.3,10.88,2.02,21.76,4.04,32.67,5.89,17.44,3.43,29.57,17.99,42.97,28.57,2.84,2.45,2.78,2.65,.75,5.5-1.78,2.5-3.59,4.99-5.46,7.43-1.78,2.32-2.52,2.41-5.02,.44-6.6-5.11-12.71-11.14-20.18-14.97-17.43-8.43-35.12-18.33-55.15-16.7-9.77,.28-19.63,.2-28.94,3.41-29.98,6.23-56.84,22.11-85.15,33.27-13.7,6.02-27.3,12.25-40.94,18.4-2.91,1.31-2.92,1.38-5.31-.93-2.77-2.68-5.49-5.43-8.53-8.45Z"/></g></g></svg>