<?xml version="1.0" encoding="UTF-8"?>
<svg id="_レイヤー_2" data-name="レイヤー 2" xmlns="http://www.w3.org/2000/svg" viewBox="0 0 113.23 272.52">
  <defs>
    <style>
      .cls-1 {
        fill: #a4a4a4;
      }
    </style>
  </defs>
  <g id="parts">
    <path class="cls-1" d="M111.35,161.82c-1.02,7.06-.99,14.38-3,21.24-5.56,14.67-10.15,29.8-17.51,43.71-8.89,15.67-15.5,34.02-30.38,45.1-1.23,1.01-2.08,.83-2.99-.48-16.74-29.05-33.92-58.29-47.09-89.14-2.93-12.59-5.81-25.19-8.64-37.8-.43-1.93-1.29-4.3-.57-5.83,1.03-2.21-.85-3.27-.84-4.93,.02-1.98-.2-3.97-.24-5.96-.44-12.95,.81-25.83,1.53-38.76,.84-14.19,5.97-27.61,10.94-40.75,2.98-6.81,6.3-13.48,9.6-20.15,2.58-5.22,6-10.02,7.55-15.81,1.25-4.66,4.84-8.17,7.8-11.9,2.75-2.34,10.61,7.6,13.62,8.86,2.32,1.37,3.97,3.84,6.2,5.42,4.44,3.14,7.81,7.2,11.12,11.43,4.77,6.1,9.89,11.93,14.76,17.97,1.37,1.69,2.46,3.63,3.53,5.53,5.64,10.07,11.09,20.26,16.89,30.24,12.45,21.54,10.29,57.81,7.24,81.96,.16,.02,.32,.04,.48,.05Z"/>
  </g>
</svg>