<?xml version="1.0" encoding="UTF-8"?><svg xmlns="http://www.w3.org/2000/svg" viewBox="0 0 111.36 107.36"><defs><style>.d{fill:#a4a4a4;}</style></defs><g id="a"/><g id="b"><g id="c"><g><path class="d" d="M89.4,25.95c-.83-8.64,.61-17.14,3.46-25.27,.84-1.89,2.2,.67,2.91,1.39,5.72,7.41,10.6,15.32,14.27,23.96,2.55,5.77,.79,12.08-.07,18.03-.9,5.03-2.99,9.59-5.69,13.89-.38,.77-1.09,1.39-1.97,1.1-.37-.12-.72-.47-.97-.8-5.13-6.56-9.22-13.68-11.46-21.76-.81-3.44-.38-7.04-.47-10.55Z"/><path class="d" d="M76.26,87.91c-2.98,6.85-10.88,12.78-16.9,17.01-1.47,.63-3.69,3.56-5.18,1.98-14-19.05-10.43-41.56,2.5-60.12,6.12,4.46,13.6,11.55,16.63,18.52,1.62,5.4,3.75,10.26,4.73,15.87,0,0,.3,3.87-1.79,6.74Z"/><path class="d" d="M27.35,34.33c-.25,8.98-2.13,16.18-5.83,22.92-1.85,3.36-3.58,6.79-5.34,10.21-.6,1.16-1.39,1.37-2.29,.31-3.25-3.82-6.53-7.63-9.57-11.62-.96-1.26-1.52-3.03-1.73-4.64C1.64,44.38,.85,37.24,.06,30.09c-.62-6.84,4.03-12.66,6.73-18.61,1.88-3.49,5.22-5.59,8.13-8.08,.32-.28,1.48-.18,1.74,.15,9.2,10.46,9.3,18.3,10.69,30.78Z"/></g></g></g></svg>