<?xml version="1.0" encoding="UTF-8"?><svg xmlns="http://www.w3.org/2000/svg" viewBox="0 0 279.68 150.79"><defs><style>.d{fill:#a4a4a4;}</style></defs><g id="a"/><g id="b"><g id="c"><path class="d" d="M9.04,101.81c1.71-18.37,15.08-37.8,22.48-54.15,2.93-6.47,8-11.44,13.71-15.33C71.28,15.09,100.66-1.84,133.11,.16c7.64,1.69,15.08,4.35,22.76,5.74,31.44,6.47,60.52,25.84,79.37,51.7,10.09,14.88,21.72,28.71,28.88,45.47,6.34,14.83,11.19,30.11,15.56,45.71-7.72,3.3-15.19,1.53-22.4,1.59-18.91,.16-37.83-.81-56.74-.59-7.96,.09-13.06-2.75-16.77-9.54-12.04-20.1-32.87-43.1-58.71-38.69-15.85,3.57-19.65,6.16-29.07,21.5-3.37,5.49-7.48,10.53-11.14,15.85-2.8,14.9-34.11,7.84-46.52,8.85-55.98,1.66-36.11,5.43-29.3-45.92Z"/></g></g></svg>