<?xml version="1.0" encoding="UTF-8"?><svg xmlns="http://www.w3.org/2000/svg" viewBox="0 0 164.11 119.57"><defs><style>.d{fill:#a4a4a4;}</style></defs><g id="a"/><g id="b"><g id="c"><path class="d" d="M105.35,31.75c4.91-4.84,9.16-9.03,13.43-13.23,3.36-3.31,6.68-6.65,10.1-9.88,1.4-1.32,3.07-2.07,4.96-.76,6.4,4.45,13.02,8.61,19.12,13.44,5.71,4.53,8.48,11.17,10.88,17.91,.69,1.93,.07,2.86-1.7,3.47-2.76,.96-5.51,1.94-8.23,3.01-12.17,4.76-24.33,9.55-36.48,14.35-.67,.26-1.26,.72-2.43,1.4,1.81,.87,3.11,1.57,4.46,2.14,13.32,5.62,26.65,11.22,39.97,16.83,.85,.36,1.8,.62,2.48,1.19,.46,.38,.91,1.38,.72,1.83-1.37,3.18-1.8,6.84-5.05,9.07-2.14,1.47-4.11,3.26-5.92,5.12-6.2,6.36-14.15,9.61-22.14,12.89-2.26,.93-3.91,.73-5.89-.73-5.82-4.27-11.8-8.35-17.76-12.43-2.34-1.6-2.56-1.53-3.56,1.05-2.17,5.59-4.35,11.19-6.27,16.86-1.03,3.03-2.59,4.57-5.97,4.25-6.72-.65-13.46-1.14-20.2-1.59-2.83-.19-4.22-1.61-5.24-4.24-3.85-9.89-7.94-19.68-11.96-29.5-.28-.69-.67-1.35-1.26-2.51-3.97,3.26-7.69,6.37-11.47,9.42-2.87,2.31-5.86,4.49-8.71,6.83-1.19,.98-2.1,1.03-3.16-.08C17.92,87.39,6.95,77.61,.8,63.9c-1.14-2.55-1.16-4.52,.59-6.72,6.99-8.78,13.73-17.76,20.92-26.37,2.42-2.9,5.9-4.88,8.84-7.36,1.65-1.39,2.83-.34,4.05,.59,4.65,3.54,9.26,7.12,13.92,10.66,3.95,3.01,5.31,2.58,6.79-2.13,2.35-7.48,4.74-14.95,6.95-22.48,.68-2.31,1.88-3.54,4.16-4.36C75.33,2.73,83.97,1.35,92.66,.2c4.93-.65,5.7,.12,6.78,5.15,1.61,7.52,3.21,15.03,4.84,22.55,.22,1.02,.56,2.02,1.08,3.85Z"/></g></g></svg>