<?xml version="1.0" encoding="UTF-8"?>
<svg id="_レイヤー_2" data-name="レイヤー 2" xmlns="http://www.w3.org/2000/svg" viewBox="0 0 137.17 187.22">
  <defs>
    <style>
      .cls-1 {
        fill: #a4a4a4;
      }
    </style>
  </defs>
  <g id="parts">
    <path class="cls-1" d="M127.84,141.14c-5.15,2.57-10.6,4.31-16.16,5.72-2.16,.55-4.4,1.06-6.61,1.13-5.52,.17-10.2,2.36-14.35,5.74-4.08,3.31-7.88,6.96-12,10.22-11.41,9.05-23.36,17.18-37.33,21.94-4.44,1.51-8.9,1.62-13.34,.88-3.92-.66-7.77-1.91-11.55-3.19-9.89-3.36-14.25-11.23-16.41-20.74-.21-.92,0-1.96,.13-2.93,.71-5.2,1.13-10.46,2.27-15.56,.98-4.36,2.37-8.73,4.31-12.74,6.53-13.54,12.58-27.26,17.7-41.39,2.47-6.83,4.17-13.82,5.06-21.07,1.26-10.17,2.57-20.31,2.96-30.56,.11-2.97,.89-5.92,1.39-8.87,.87-5.16,1.89-10.31,2.61-15.49,.78-5.58,4.64-8.7,8.85-11.47,1.84-1.21,4.11-1.86,6.26-2.48,1.1-.32,2.57-.4,3.56,.07,7.9,3.75,16.2,6.93,21.83,14.18,1.99,2.57,4.23,5.03,5.75,7.86,3.32,6.17,7,12.3,9.18,18.89,3.86,11.65,10.54,21.5,17.45,31.35,3.77,5.37,8.17,10.11,13.04,14.47,1.31,1.17,2.46,2.51,3.82,3.62,6.35,5.15,7.72,11.75,10.05,19.94,2.33,8.19-.12,25.31-8.5,30.52Z"/>
  </g>
</svg>