<?xml version="1.0" encoding="UTF-8"?><svg xmlns="http://www.w3.org/2000/svg" viewBox="0 0 220.97 121.43"><defs><style>.d{fill:#a4a4a4;}</style></defs><g id="a"/><g id="b"><g id="c"><path class="d" d="M39.21,0c6.59,12.14,17.59,20.26,27.46,29.49,6.94,7.03,14.91,12.8,22.75,18.72,6.63,4.43,14.73,6.14,22.1,9.02,4.07,1.43,8.26,2.36,12.58,2.72,9.59,.82,19.17,2.07,28.77,2.47,9.98,.15,20.06-1.28,29.91-2.97,13.67-2.11,25.16-10.66,38.2-14.68-1.79,12.06-16.83,69.62-20.05,76.65-12.83-8.81-25.29-18.05-39.47-24.68-16.52-8.14-32.77-17.19-51.12-20.38-15.56-3.86-31.77-2.77-47.65-4.32-21.05-1.17-42.12-.66-62.67,4.5C10.76,51.92,24.14,28.41,35.92,4.18c.8-1.56,2.25-2.8,3.4-4.18h-.1Z"/></g></g></svg>