<?xml version="1.0" encoding="UTF-8"?><svg xmlns="http://www.w3.org/2000/svg" viewBox="0 0 240.57 195.55"><defs><style>.d{fill:#a4a4a4;}</style></defs><g id="a"/><g id="b"><g id="c"><path class="d" d="M240.24,116.99c0,1.64-.13,3.29,.03,4.92,.41,4.22-.5,8.13-2.48,11.84-1.83,3.43-3.16,7.28-5.6,10.2-5.08,6.09-11.1,10.71-19.84,10.51-6.41-.14-12.61-.7-18.64-3.04-11.45-4.45-22.98-8.67-34.45-13.08-1.94-.75-3.84-1.21-5.91-1.41-4.56-.44-8.01,1.34-10.65,4.85-6.09,8.08-10.92,16.79-13.22,26.76-.78,3.39-1.68,6.75-2.67,10.08-1.26,4.23-3.4,7.88-7.34,10.25-1.58,.95-3.14,1.95-4.62,3.04-7.26,5.36-14.45,4.38-21.64-.14-2.77-1.74-5.61-3.39-8.41-5.07-.7-.42-13.97-11.2-18.98-17.32-5.57-6.81-11.31-13.5-16.44-20.63-7.53-10.47-14.91-21.05-21.94-31.86-2.88-4.42-4.93-9.44-6.93-14.35-3.39-8.34-6.64-16.75-9.6-25.25C6.47,64.51,3.3,51.44,1.09,38.07,.04,31.72,.12,25.43,0,19.1-.1,13.3,2.45,8.96,7.5,5.94c6.23-3.72,12.43-5.1,19.02-.96,2.6,1.63,5.27,3.18,7.91,4.7,10.81,6.19,23.13,20,25.55,24.28,2.42,4.28,4.69,8.64,7.15,12.9,2.86,4.97,5.87,9.85,8.79,14.78,1.46,2.47,2.81,5,4.3,7.45,2.29,3.74,6.6,3.66,8.75-.21,2.82-5.07,4.68-10.45,4.71-16.35,.01-3.49-.07-6.98,.15-10.46,.75-11.87,5.27-22.17,13.28-30.93,.82-.9,1.86-1.6,2.84-2.33,5.54-4.1,11.94-6.52,18.46-8.09,4.26-1.03,9.06-.84,13.45-.14,10.1,1.62,20.18,3.7,29.16,8.99,4.76,2.8,9.53,5.68,13.87,9.06,8.56,6.67,16.86,13.66,24.38,21.55,3.82,4.01,7.38,8.13,10.47,12.78,6.29,9.47,10.97,19.63,14.36,30.42,2.02,6.44,4.53,12.75,5.2,19.54,.46,4.67,.85,9.35,1.27,14.03l-.33,.03Z"/></g></g></svg>