<?xml version="1.0" encoding="UTF-8"?>
<svg id="_レイヤー_2" data-name="レイヤー 2" xmlns="http://www.w3.org/2000/svg" viewBox="0 0 95 174.47">
  <defs>
    <style>
      .cls-1 {
        fill: #a4a4a4;
      }
    </style>
  </defs>
  <g id="parts">
    <path class="cls-1" d="M.42,60.19c-.12-.74-.6-1.76-.36-2.57,1.09-3.73,2.31-7.42,3.61-11.09,1.23-3.49,1.64-3.72,5.44-3.18,12.98,1.78,25.88,4.27,38.99,4.86,2.81,.15,3.31-.31,3.56-3,1.15-13.26,2.12-26.53,3.59-39.76,.29-2.66,1.17-3.51,3.93-3.88C70.17,.13,81.19-.53,92.26,.5c2.27,.21,2.9,.91,2.71,3.17-3.39,40.61-13.36,152.79-14.81,168.28-.21,2.05-.79,2.62-2.69,2.5-2.45-.15-14.68-1.41-18.34-1.86-3.82-.06-3.78-3.37-3.78-6.43-1.25-21.47-2.57-42.93-3.68-64.41-.24-3.62,.35-7.86-3.31-9.95-4.59-3.08-36.73-23.72-47.94-31.62Z"/>
  </g>
</svg>