<?xml version="1.0" encoding="UTF-8"?><svg xmlns="http://www.w3.org/2000/svg" viewBox="0 0 194.59 175.76"><defs><style>.d{fill:#a4a4a4;}</style></defs><g id="a"/><g id="b"><g id="c"><path class="d" d="M135.43,41.68c-.06-1.42-.38-2.76-.12-3.97,2.39-11.27,3.23-22.78,4.94-34.16,.48-3.18,.87-3.73,3.93-3.51,5.1,.37,10.19,.98,15.27,1.57,10.37,1.25,20.75,2.44,31.1,3.87,3.66,.56,4.35,1.46,3.94,4.99-2.57,21.41-5.13,42.83-7.41,64.28-2.19,19.31-4.56,38.59-6.45,57.93-1.16,10.82-2.35,21.64-3.5,32.47-.29,2.76-.42,5.54-.69,8.3-.25,2.93-3.56,2.29-5.57,2.14-40.83-5.4-81.78-9.74-122.63-14.99-14.83-1.85-29.8-3.06-44.55-5.32-3.58-.21-4.05-1.42-3.49-4.92,1.66-11.82,2.35-23.8,3.45-35.7,.54-3.73,1.18-4.39,4.76-4.25,10.65,.39,21.29,1.22,31.95,1.13,1.99-.01,2.4-.55,2.71-2.67,.89-6.16,.66-12.37,.82-18.56,.19-7.4-.47-7.3,7.16-7.31,10.07,0,20.03,1.27,30.03,2.25,2.25,.4,5.68,1,6.03-2.22,.65-10.44,1.16-20.91,1.83-31.36,.99-7.9-.7-9.9,8.33-9.24,10.25,.15,20.5,.34,30.75,.45,2.42,.02,4.96,.64,7.42-1.21Z"/></g></g></svg>