<?xml version="1.0" encoding="UTF-8"?>
<svg id="_レイヤー_2" data-name="レイヤー 2" xmlns="http://www.w3.org/2000/svg" viewBox="0 0 99.55 184.66">
  <defs>
    <style>
      .cls-1 {
        fill: #a4a4a4;
      }
    </style>
  </defs>
  <g id="parts">
    <path class="cls-1" d="M97.73,180.58c-2.36-1.13-17.85-52.39-17.85-52.39l.23-.28s-.39-.13-.39-.13c-.38-1.22-.76-2.44-1.14-3.66l.22-.41s-.43-.27-.43-.27c-2.77-17.16,13.4-34.19,21.17-44.51-15.1-2.04-41.25-.19-48.01-17.08-8.61-17.23-16.06-35.09-24.07-52.64-2.36-5.31-2.69-5.97-7.15-9.21,4.17,38.85,12.09,82.96-16.83,114.74-6.51,8.28-3.34,6.89,4.72,7.09,10.41,.72,21.44-.2,31.25,3.88,25.58,10.65,41.41,35.39,55.37,58.12,1.54,2.64,5.68-1.83,2.9-3.26Z"/>
  </g>
</svg>