<?xml version="1.0" encoding="UTF-8"?>
<svg id="_レイヤー_2" data-name="レイヤー 2" xmlns="http://www.w3.org/2000/svg" viewBox="0 0 256.9 230.44">
  <defs>
    <style>
      .cls-1 {
        fill: #a4a4a4;
      }
    </style>
  </defs>
  <g id="parts">
    <path class="cls-1" d="M12.88,43.01c3.43,.81,7.86,1.61,12.14,2.92,9.43,2.88,18.32,7.08,27.09,11.55,11.69,5.96,51.46,30.41,60.22,35.7,.7,.42,1.45,.77,2.18,1.14,3.58,1.8,3.97,1.74,6.69-1.43,2.39-2.8,4.85-5.55,7.05-8.5,8.55-11.49,16.89-23.13,25.52-34.56,6.4-8.49,30.57-37.89,35.75-44.49,2.82-3.59,6.76-4.35,10.69-5.31,.6-.15,1.8,.4,2.06,.94,1.32,2.75,2.66,5.54,3.5,8.45,.34,1.18-.45,2.78-.96,4.1-5.88,15.06-10.5,30.57-16.97,45.42-7.44,17.07-14.34,34.38-21.4,51.61-1.55,3.78-2.81,7.69-4.12,11.57-.65,1.95-.21,3.07,1.59,4.13,1.77,1.03,3.61,1.94,5.45,2.84,13.64,6.67,26.6,14.51,39.25,22.87,10.93,7.22,21.93,14.38,32.06,22.71,3.45,2.84,6.64,6.07,9.6,9.43,4.94,5.63,7.08,21.93,6.57,22.73,.33,5.52-4.67,11.52-10.65,13.46-2.4,.78-12.12,.79-15.1,.07-18.54-4.46-36.61-10.33-54.1-17.94-14.29-6.22-28.1-13.35-41.53-21.26-6.35-3.74-12.94-7.07-18.71-11.73-1.82-1.47-3.75-1.49-5.69-.23-1.03,.67-2.02,1.4-3,2.13-9.37,6.95-48.42,36.04-58.66,43.53-2.46,1.8-5.25,3.15-7.88,4.74-5.08,3.06-10.3,5.94-15.19,9.27-4.01,2.73-7.31,1.53-10.64-.9-2.62-1.91-3.55-5.55-2.07-9.51,1.5-4.01,2.84-8.13,5.58-11.57,3.57-4.48,6.84-9.21,10.59-13.53,7.78-8.96,39.82-43.46,47.9-51.88,1.56-1.63,3.17-3.21,4.63-4.93,1.32-1.55,1.2-2.77-.21-4.35-.82-.91-1.7-1.79-2.62-2.6-7.86-6.86-41.38-36.01-48.35-42.63-8.17-7.76-16.14-15.75-23.9-23.93-3.06-3.22-5.72-6.96-6.89-11.46-.67-2.58-.35-3.68,1.79-5.28,2.89-2.16,6.22-3.02,10.78-3.28Z"/>
  </g>
</svg>