<?xml version="1.0" encoding="UTF-8"?><svg xmlns="http://www.w3.org/2000/svg" viewBox="0 0 116.69 73.48"><defs><style>.d{fill:#a4a4a4;}</style></defs><g id="a"/><g id="b"><g id="c"><path class="d" d="M101.61,41.28c4.09,.31,8.18,.63,12.26,.94,2.46,.19,2.74,.33,2.79,2.94,.07,8.4,.03,16.81-.21,25.2-.11,2.65-.8,3.29-3.42,3.08-17.16-1.39-34.29-3.21-51.48-4.24-14.12-.4-28.27-.3-42.39-.99-3.89-.13-7.78-.23-11.67-.4C4.87,67.42-.05,68.32,0,64.52c0-8.81,.1-17.62,.15-26.43,0-1.45,.79-2.29,2.1-2.63,9.68-1.68,19.43-3.09,29.18-4.34,4.68-.56,8.47-2.29,12.05-5.36,9.12-7.96,17.55-16.63,26.47-24.8,.96-.89,2.07-1.39,3.29-.43,4.34,3.44,8.69,6.86,12.97,10.36,1.35,1.1,1.35,2.39,.05,3.71-5.03,5.11-10.12,10.17-15.18,15.25-1.33,1.55-4.35,3.06-3.92,5.15,.62,2.42,3.44,1.52,5.31,1.9,9.69,1.76,19.22,4.2,29.13,4.39Z"/></g></g></svg>