<?xml version="1.0" encoding="UTF-8"?><svg xmlns="http://www.w3.org/2000/svg" viewBox="0 0 169.12 118.79"><defs><style>.d{fill:#a4a4a4;}</style></defs><g id="a"/><g id="b"><g id="c"><path class="d" d="M56.34,2.44c4.91,0,9.83-.07,14.74,.02,6.08,.11,12.12-.39,18.17-.74,2.06-.12,4.14-.01,6.2-.08,6.44-.22,12.87-.79,19.32-.96,2.8-.07,5.64-.39,8.47-.63,2.52-.21,4.34,.53,6.15,2.39,6.57,6.77,13.16,13.54,20.07,19.97,5.68,5.28,11.25,10.66,16.72,16.15,3.47,3.49,3.95,2.97,1.1,7.67-3.07,5.08-5.81,10.36-8.68,15.55-3.93,7.12-7.87,14.23-11.78,21.36-1.99,3.62-3.91,7.28-5.87,10.92-3.91,7.28-7.83,14.56-11.75,21.83-.31,.57-.62,1.13-1,1.66-.55,.78-1.28,1.27-2.28,1.25-2.58-.05-5.17-.06-7.75-.19-1.92-.1-3.87-.22-5.75-.6-5.09-1.01-10.31-.3-15.39-1.37-.25-.05-.51-.06-.77-.08-4.5-.29-9.01-.51-13.5-.89-4.61-.39-9.21-.93-13.82-1.39-.9-.09-1.81-.06-2.71-.13-3.47-.26-6.93-.56-10.4-.8-1.32-.09-2.08-.99-2.8-1.88-2.02-2.51-4-5.06-5.98-7.61-6.08-7.85-12.15-15.7-18.22-23.56-3.94-5.1-7.82-10.26-11.82-15.31-4.72-5.97-9.51-11.88-14.33-17.76-3.34-4.07-3.5-4.28-.81-8.63,4.94-8.01,9.72-16.13,15.65-23.49,2.83-3.51,5.6-7.08,8.37-10.64,.59-.76,1.27-1.29,2.21-1.43,1.4-.2,2.8-.5,4.2-.51,8.02-.05,16.03-.02,24.05-.02v-.07Z"/></g></g></svg>