<?xml version="1.0" encoding="UTF-8"?>
<svg id="_レイヤー_2" data-name="レイヤー 2" xmlns="http://www.w3.org/2000/svg" viewBox="0 0 270.99 390.85">
  <defs>
    <style>
      .cls-1 {
        fill: #a4a4a4;
      }
    </style>
  </defs>
  <g id="parts">
    <path class="cls-1" d="M270.51,210.69c1.96,18.17-2.38,35.4-7.6,52.55-9.16,29.52-21.37,57.1-37.81,79.32-12.52,13.87-24.15,30.16-37.38,42.43-15.98,8.19-24.1,5.86-40.33,4.39-24.3-1.52-49.44-4.76-71.52-20.58-10-6.94-19.73-14.65-29.58-22.04-2.28-1.71-4.22-3.78-5.23-7.48-8.76-17.17-17.75-34.38-25.17-52.93C2.78,255.03-2.05,215.78,.78,179.72c4.65-28.26,9.83-56.24,18.81-82.39,.83-2.62,1.69-5.36,2.96-7.54,6.97-11.95,13.99-23.83,21.15-35.55,10.31-16.9,23.31-28.89,36.88-39.44,26.6-17.61,57.88-19.55,85.57-5.64,31.63,15.83,63.18,42.94,80.07,85.69,11.82,36.93,27.21,73.33,24.3,115.83Z"/>
  </g>
</svg>