<?xml version="1.0" encoding="UTF-8"?><svg xmlns="http://www.w3.org/2000/svg" viewBox="0 0 344.56 143.78"><defs><style>.d{fill:#a4a4a4;}</style></defs><g id="a"/><g id="b"><g id="c"><path class="d" d="M86.14,57.19c-18.76,10.64-38.13,21.34-52.88,37.38-3.46,3.5-4.22,6.4-9.38,2.31-7.08-4.88-14.16-9.76-21.23-14.65-1.45-.99-3.54-2.27-2.23-4.27,7.19-10.2,14.99-19.99,22.35-30.08,1.62-2.19,3.74-3.7,5.87-5.32,5.4-4.11,11.48-7.18,16.9-11.15,5.81-4.26,12.22-7.46,18.1-11.56,2.13-1.48,4.74-2.42,7.25-3.19,11.34-3.45,22.74-6.72,34.11-10.11,9.89-2.95,20.1-3.8,30.3-4.58,22.03-1.47,44.27-3.78,66.16,.3,10.54,1.66,20.84,4.36,31.06,7.34,5.9,1.72,11.62,4.12,17.59,5.45,24.4,5.12,64.26,36.42,75.46,58.54,4.29,7.7,8.56,15.41,12.77,23.16,3.16,5.82,4.89,12.12,5.87,18.63,.27,3.72,1.33,8.25-2.2,10.82-6.3,4.88-12.52,9.87-18.76,14.82-2.33,2-4.79,4.83-6.24,.27-9.53-25.63-22.34-50.45-42.08-69.78-4.31-4.26-9.56-7.02-14.76-9.86-15.74-8.59-32.41-14.79-49.87-18.81-6.78-1.56-13.63-2.82-20.48-4.04-2.6-.46-5.31-.64-7.95-.56-7.99,.27-15.98,.55-23.95,1.17-8.98,.69-17.94,1.68-26.89,2.67-11.91,1.55-24.24,2.86-34.69,9.36-3.3,2.07-6.79,3.81-10.2,5.7Z"/></g></g></svg>