<?xml version="1.0" encoding="UTF-8"?><svg xmlns="http://www.w3.org/2000/svg" viewBox="0 0 229.33 124.29"><defs><style>.d{fill:#a4a4a4;}</style></defs><g id="a"/><g id="b"><g id="c"><path class="d" d="M208.26,40.66c5.2,6.38,8.57,13.61,11.58,21.01,3.7,9.09,7.46,18.15,9.12,27.92,.59,3.5,.53,6.85-.86,10.1-1.45,3.38-3.11,6.68-4.47,10.09-.72,1.82-1.7,2.25-3.61,2.1-8.65-.68-17.3-1.32-25.97-1.68-8.09-.34-16.2-.26-24.29-.47-4.29-.11-8.57-.47-12.86-.64-2.07-.08-7.91-.04-8.73-.23-2.27-.52-4.53-1.13-6.8-1.66-3.26-.76-6.31-1.95-9.05-3.93-4.03-2.92-8.45-4.22-13.51-3.63-3.51,.41-6.38,1.59-8.34,4.62-.67,1.03-1.52,1.97-2.01,3.08-1.24,2.81-3.4,3.65-6.33,4.04-6.56,.89-13.07,2.15-19.57,3.41-13.6,2.64-27.16,5.44-40.77,8.02-3.85,.73-7.8,.91-11.69,1.4-1.99,.25-3.55-.33-4.88-1.87-7.52-8.74-15.07-17.46-22.62-26.17C.75,94.04-.07,91.61,0,88.75c.33-11.96,1.95-23.72,5.42-35.19,.31-1.04,.81-2.08,1.45-2.95,4.32-5.96,8.53-12,13.14-17.73,1.79-2.22,4.29-4.15,6.86-5.41C49.23,16.59,72.58,8.44,96.72,2.51c3.45-.85,6.94-1.56,10.43-2.24,1.19-.23,2.45-.34,3.65-.21,18.6,1.93,36.97,5.12,54.68,11.3,11.66,4.07,22.58,9.6,32.13,17.57,2.05,1.71,4.2,3.36,5.98,5.33,1.8,1.99,3.2,4.34,4.69,6.41Z"/></g></g></svg>