<?xml version="1.0" encoding="UTF-8"?>
<svg id="_レイヤー_2" data-name="レイヤー 2" xmlns="http://www.w3.org/2000/svg" viewBox="0 0 70.5 160.58">
  <defs>
    <style>
      .cls-1 {
        fill: #a4a4a4;
      }
    </style>
  </defs>
  <g id="parts">
    <path class="cls-1" d="M70.5,28.68c-13.05,9.25-24.91,18.95-38.66,26.82-.32-2.31-.72-4.06-.79-5.85-.64-14.81-1.23-29.62-1.83-44.44-.04-.92-.05-1.84,0-2.76,.07-1.54-.64-2.16-2.16-2.17C19.37,.23,11.69,.16,4.01,0,1.9-.04,1.32,.92,1.31,2.82,1.3,7.26,.05,144.67,0,156.93c-.02,3.94,.03,3.96,4.12,3.35,6.91-1.02,13.81-2.14,20.72-3.1,3.5-.49,3.65,.1,3.92-4.21,1.21-18.89,2.41-37.78,3.66-56.67,.26-3.98-.32-8.4,1.32-11.83,1.64-3.43,5.46-6.02,8.54-8.73,8.1-7.12,16.26-14.15,24.51-21.09,2.23-1.87,3.38-3.67,3.31-6.68-.15-6.24,.23-12.52,.4-19.29Z"/>
  </g>
</svg>