<?xml version="1.0" encoding="UTF-8"?><svg xmlns="http://www.w3.org/2000/svg" viewBox="0 0 261.69 87.14"><defs><style>.d{fill:#a4a4a4;}</style></defs><g id="a"/><g id="b"><g id="c"><path class="d" d="M247.59,55.9c-.94,1.58-1.7,3.27-2.58,4.89-1.33,2.44-2.64,2.78-4.89,1.14-1.32-.96-16.23-14.4-22.33-20.15-2.62-2.46-3.85-1.7-5.65,.19-4.68,4.88-15.77,16.94-16.79,17.95-2.92,2.89-4,2.93-7.14,.06-5.29-4.83-10.5-9.75-15.8-14.58-2.46-2.24-3.28-2.37-5.76-.15-4.73,4.22-9.27,8.66-13.91,12.99-2.84,2.66-5.64,5.37-8.59,7.89-2.35,2.01-2.84,1.98-5.24,.03-3.65-2.96-12.6-10.76-13.57-11.51-3.27-2.56-5.06-2.92-8.29,.65-4.52,5-9.52,9.58-14.32,14.32-4.32,4.26-7.2,5.17-12.52-.05-6-5.87-18.38-18.38-18.67-18.67-2.41-2.49-3.64-2.48-5.95,.26-2.1,2.5-4.14,5.07-6.11,7.67-6.16,8.14-19.37,25.82-19.93,26.4-2.54,2.58-4.11,2.55-6.66-.01C23.61,75.93,2.36,54.34,1.02,52.8c-1.23-1.41-1.32-2.99-.41-4.56,2.26-3.89,18.18-30.04,21.94-36.13,.6-.97,1.64-1.38,2.66-.9,3.88,1.84,7.75,3.74,11.55,5.74,2.16,1.14,4.19,2.53,6.29,3.78,5.96,3.55,22.29,12.86,24.5,13.93,1.69,.82,3.13,.41,4.42-.94,5.95-6.21,22.38-23.58,24.15-24.33,2.28-.96,.88-.21,5.09,2.78,4.21,2.99,14.48,10.27,14.98,10.62,6.14,4.29,6.93,4.23,12.02-1.61,2.96-3.39,5.83-6.86,8.51-10.47,1.6-2.15,2.32-3.85,5.91-2.16,3.59,1.69,19.23,9.17,22.07,10.63s5.08,2.01,8.03-1.08c1.84-1.92,11.05-12.36,13.94-15.55,1.08-1.19,2.47-1.55,3.9-.85,1.83,.89,23.33,17.11,23.67,17.35,2.72,1.92,4.23,1.93,6.48-.41,3.11-3.25,13.4-14.93,15.71-17.25,1.79-1.79,2.57-1.96,4.57,.13,1.41,1.48,13.27,16.62,18.05,22.5,2.67,3.29,3.84,5,.96,10.06-2.88,5.06-8.67,15.5-12.43,21.81Z"/></g></g></svg>