<?xml version="1.0" encoding="UTF-8"?><svg xmlns="http://www.w3.org/2000/svg" viewBox="0 0 379.53 200.43"><defs><style>.d{fill:#a4a4a4;}</style></defs><g id="a"/><g id="b"><g id="c"><path class="d" d="M214.25,.26c39.31,1.76,80.48,7.36,114.43,28.55,10.09,6.7,19.92,13.72,29.23,21.47,7.76,6.47,14.21,14.17,20.46,22.05,1.49,1.88,1.41,3.62,.57,5.68-7.37,18.24-14.52,36.57-21.76,54.86-.75,1.64-1.37,5.59-3.89,4.3-10.54-6.71-20.97-13.63-31.39-20.52-16.2-11.13-35.57-14.41-54.6-17.26-19.25-1.86-38.34,4.16-56.68,9.27-13.99,4.61-28.64,7.37-41.92,13.95-38.18,17.64-71.35,44.06-98.63,75.94-2.19,2.36-2.83,2.44-5.09,.5-21.75-18.41-43.15-37.24-62.73-58.01-2.82-2.92-2.91-3-.64-6.82,12.62-20.78,24.53-42.35,40.03-61.14C73.67,37.93,87.41,25.48,132.46,8.22c17.79-4.55,36.61-4.54,54.76-7.45C196.22-.33,205.23,0,214.25,.26Z"/></g></g></svg>