<?xml version="1.0" encoding="UTF-8"?><svg xmlns="http://www.w3.org/2000/svg" viewBox="0 0 308.85 225.49"><defs><style>.d{fill:#a4a4a4;}</style></defs><g id="a"/><g id="b"><g id="c"><path class="d" d="M67.48,25.92c6.24,3.47,11,8.49,15.68,13.69,4.78,5.31,9.83,10.4,14.8,15.54,.7,.72,1.59,1.3,2.5,1.73,.28,.13,1.28-.44,1.29-.71,.11-2.65,.28-5.33,.04-7.97-.83-9.04-.35-18,.95-26.96,.56-3.89,1.41-7.64,3.51-11.04C108.98,4.07,109.66,1,117.05,0c3.74-.05,6.78,3.02,8.54,6.11,4.92,8.98,9.89,17.94,14.83,26.92,5.78,11.07,12.15,21.85,18.18,32.8,.7,1.24,1.46,2.47,2.33,3.6,2.24,2.39,4.93-4.79,6.44-5.98,5.33-6.08,8.28-13.52,12.12-20.48,3.96-7.16,8.55-14,13.16-20.77,2.51-3.69,6.61-4.71,10.89-4.49,2.77,.14,4.37,2.07,5.35,4.48,2.23,5.51,4.42,11.03,6.56,16.57,1.93,5,2.78,10.23,3.67,15.5,1.73,10.31,3.93,20.54,5.99,30.79,.29,1.36,1.57,1.73,2.44,.56,7.55-9.72,16.1-18.51,25.03-26.93,2.49-2.35,5.54-4.19,8.56-5.85,2.93-1.62,4.12-1.19,6.53,1.13,2.62,2.41,4.42,4.05,3.28,7.88-2.91,10.66-5.95,21.29-8.4,32.07-.58,2.58-.09,3.06,2.58,3.96,13.24,4.32,26.81,8.05,38.05,16.61,15.24,13.48-3.45,28.15-17.98,29.47-12.01,3.53-24.48,5.11-36.96,5.72-1.1,.13-1.94,.85-1.94,2.02,0,1.83,0,3.7,.3,5.5,1.03,6.49,1.52,13,1.51,19.57-.11,11.23-2.87,22.43-6.83,32.89-2.24,4.22-4.91,12.52-11.05,9.54-1.29-.54-2.57-1.36-3.54-2.36-8.69-9.02-16.68-18.58-22.59-29.71-3.14-5.45-5.42-11.57-8.93-16.74-2.17-1.34-3.26,1.37-4.11,2.92-2.59,5.1-4.84,10.4-7.76,15.3-2.43,4.08-4.32,8.37-6.1,12.71-.81,1.97-1.85,3.52-3.36,4.98-6.42,5.78-11.41,14.22-20.5,15.9-2.83,.63-2.8-2.99-3.41-4.83-2.8-11.39-4.46-22.84-3.42-34.68,.58-7.52,.3-15.16,.16-22.73-.23-1.4-.22-3.18-1.95-3.43-2.92-.27-5.09,2.53-6.39,4.84-3.96,7.39-8.12,14.67-11.34,22.45-2.65,6.42-5.38,12.85-8.73,18.92-4.18,7.59-10.16,13.82-16.81,19.37-2.63,2.2-5.82,2.98-9.1,3.37-5.91,.64-4.86-6.61-4.36-10.47,1.89-13.8,3.87-27.59,5.81-41.39,.39-3.83,1.44-7.74,.94-11.59-.31-1.28-1.69-2.51-2.89-1.16-2.53,2.95-5.25,5.78-7.41,8.99-6.77,9.61-15.61,17.31-24.94,24.28-6.37,4.94-13.97,6.72-21.68,8.07-7.13,1.84-7.08-9.84-5.86-14.29,3.4-13.92,10.57-26.56,15.81-39.85,4.91-8.46,6.8-17.99,7.36-27.64,.23-2.62-.99-3.81-3.71-3.59-5.71,.46-11.42,1-17.11,1.7-8.94,1.09-17.85,2.51-26.8,3.47-8.01,.86-8.01,1.61-7.06-6.95,.4-3.67,.83-7.33,1.34-10.99,.28-2,.76-2.4,2.8-2.51,6.75-.37,13.5-.66,20.25-1.07,4.09-.25,8.15-.81,12.24-.99,3.02-.13,6.07,.67,9.09-.16,2.42-.37,5.6-.95,4.37-4.17-3.87-12.96-8.29-25.79-9.5-39.34-.49-4.06-.82-8.15-1.27-12.21-.66-6.05,1.01-11.81,2.28-17.59,.41-1.89,1.74-3.77,3.11-5.23,2.58-2.75,5.96-2.58,9.11-1.22,4.49,1.94,8.84,4.22,13.25,6.36Z"/></g></g></svg>