<?xml version="1.0" encoding="UTF-8"?><svg xmlns="http://www.w3.org/2000/svg" viewBox="0 0 203.41 212.9"><defs><style>.d{fill:#a4a4a4;}</style></defs><g id="a"/><g id="b"><g id="c"><path class="d" d="M116.23,212.9c-5.54-.51-12.74-1.08-19.92-1.89-1.42-.16-2.9-1.01-4.06-1.91-1.62-1.27-2.8-3.83-4.48-4.13-2.55-.46-3.29-2.51-4.96-3.65-3.14-2.15-6.31-4.3-9.19-6.77-1.83-1.56-3.33-3.57-4.69-5.58-2.67-3.94-5.25-7.96-7.67-12.07-2.2-3.73-5.47-5.42-9.59-5.2-8.73,.46-16.58-2.63-24.53-5.53-3.14-1.15-5.13-3.06-6.41-6.08-1.2-2.82-2.25-5.94-4.23-8.15-2.72-3.04-3.4-6.98-5.65-10.19-2.19-3.12-3.79-6.64-5.73-9.95C.91,124.63-.13,116.56,.01,108.66c.21-11.65,1.59-23.29,2.75-34.91,.26-2.65,1.9-5.13,2.49-7.78,.79-3.55,3.84-5.58,5.32-8.55,3.01-6.05,7.84-10.66,11.9-15.85,4.07-5.19,8.63-10.03,13.31-14.69,2.36-2.34,5.35-4.12,8.25-5.84,10.87-6.44,22.25-11.96,34.13-16.15,5.85-2.06,12.29-2.51,18.5-3.42,4.86-.71,9.78-1.15,14.69-1.42,2.56-.14,5.26-.01,7.73,.63,7.59,1.96,15.11,4.19,22.62,6.41,1.44,.43,2.96,1.07,4.08,2.04,6.39,5.52,13.01,10.84,18.88,16.88,4.65,4.79,8.78,10.23,12.26,15.92,2.4,3.93,3.41,8.75,4.83,13.24,1.72,5.4,3.18,10.89,4.82,16.31,.84,2.78,.54,5.42-.31,8.14-1.01,3.22-2.93,6.71-2.38,9.7,.55,2.92,3.64,5.41,5.75,7.98,6.75,8.22,11.75,17.46,13.43,27.91,.99,6.11-.57,12.6-.03,18.84,.49,5.59-2.07,9.42-4.96,13.56-6.16,8.83-12,17.87-18.15,26.7-1.35,1.94-3.24,3.69-5.25,4.95-9.51,5.96-19.15,11.72-28.74,17.54-.39,.24-.88,.4-1.17,.73-3.36,3.91-8.03,3.93-12.59,4.26-4.75,.34-9.51,.65-15.95,1.09Z"/></g></g></svg>