<?xml version="1.0" encoding="UTF-8"?><svg xmlns="http://www.w3.org/2000/svg" viewBox="0 0 253.75 81.77"><defs><style>.d{fill:#a4a4a4;}</style></defs><g id="a"/><g id="b"><g id="c"><path class="d" d="M142.94,2.33C153.07,.67,163.3,.21,173.52,0c6.72-.14,12.75,2.64,18.72,5.41,6.04,2.8,11.09,7.07,15.83,11.55,6.99,6.6,13.82,13.43,20.11,20.69,9.95,11.45,17.68,24.62,25.2,37.76,3.62,4.93-21.53,2.06-24.69,3.02-75.49,.81-150.96,2.66-226.45,3.34-1.98,0-2.69-1-1.99-2.71,6.88-17.46,17.9-34.96,35.6-42.82,4.32-1.25,8.73-2.24,12.99-3.67,12.83-4.37,24.92,2.91,35.47,9.44,5.59,3.31,5.29,2.88,8.78-1.72,4.88-6.31,10.57-11.97,15.83-17.97,5.83-6.75,13.17-11.66,20.36-16.73,4.06-2.29,9.14-2.28,13.64-3.25Z"/></g></g></svg>