<?xml version="1.0" encoding="UTF-8"?><svg xmlns="http://www.w3.org/2000/svg" viewBox="0 0 181.74 60"><defs><style>.d{fill:#a4a4a4;}</style></defs><g id="a"/><g id="b"><g id="c"><path class="d" d="M156.62,47.11c-4.48-3.59-8.94-7.21-13.46-10.75-3.67-3.87-8.29-7.76-14.06-7.47-28.23,.32-56.46,.66-84.68,1.3-13.09,.27-26.18,.58-39.27,.88-2.28,.25-5-.28-4.84-3.1C.19,22.63,.09,17.31,.02,11.99c-.31-3.19,3.22-3.04,5.51-3.24C51.53,6.07,97.53,3.14,143.5,.07c3.36-.45,5.36,1.48,6.76,4.14,9.16,15.58,20.92,29.32,30.93,44.28,1.16,1.56,.3,3.11-.85,4.35-8.24,9.48-5.37,9.03-14.68,1.69-3.06-2.41-6.09-4.87-9.13-7.3l.09-.12Z"/></g></g></svg>