<?xml version="1.0" encoding="UTF-8"?><svg xmlns="http://www.w3.org/2000/svg" viewBox="0 0 185.75 46.43"><defs><style>.d{fill:#a4a4a4;}</style></defs><g id="a"/><g id="b"><g id="c"><path class="d" d="M93.46,44.66c-29.28-.66-58.57-1.05-87.84-2-2.13-.2-4.77,.37-5.62-2.19C.99,28.72,2.56,16.86,3.75,5.08,4.26,1.79,4.6-.27,8.37,.03,46.28-.13,84.17,1.48,122.09,1.36c19.67,.31,39.34,.49,59.01,.9,3.35-.09,3.09,2.2,3.14,4.69,.46,11.26,.91,22.51,1.37,33.77,.02,2.25,1.02,5.93-2.42,5.69-29.91-.17-59.81-1.15-89.71-1.83v.07Z"/></g></g></svg>