<?xml version="1.0" encoding="UTF-8"?><svg xmlns="http://www.w3.org/2000/svg" viewBox="0 0 362.11 141"><defs><style>.d{fill:#a4a4a4;}</style></defs><g id="a"/><g id="b"><g id="c"><path class="d" d="M362.11,67.95c-8.33,5.83-16.4,11.47-24.47,17.11-1.95,1.25-3.05-1.68-4.2-2.78-9.74-11.86-19.5-23.7-29.2-35.59-5.23-5.96-13.76-7.49-21.18-8.98-6.81-1.02-13.65-1.89-20.48-2.76-3.34-.42-6.58,.14-9.6,1.59-11.72,5.85-23.77,11.51-34.28,19.4-17.44,16.24-32.31,34.91-48.35,52.49-13.98,14.07-31.31,24.17-49.76,31.21-21.2,5.25-41.55-5.76-60.73-13.44-4.92-2.08-9.83-4.09-15.06-5.18-1.74-.36-3.19-1.2-4.65-2.13-13.06-7.65-25.15-17.24-38.95-23.48-1.38-.49-1.53-1.31-.6-2.54,8.14-10.13,23.85-33.15,24.39-33.92,1.68-2.43,1.69-2.44,4.51-1.11,7.07,3.35,14.04,6.94,21.22,10.02,17.92,7.57,65.17,31.24,82.97,23.63,1.4-.55,15.48-13.99,21.29-19.7,10.83-10.43,21.39-21.11,31.39-32.35,16.43-17.72,14.85-16.29,38.72-31.6,4.41-3.3,9.02-5.39,14.61-5.5,8.89-.62,17.76-1.71,26.66-2.22,9.85-.52,19.71,.66,29.48,1.87,26.11,8.82,51.47,43.29,66.28,65.95Z"/></g></g></svg>