<?xml version="1.0" encoding="UTF-8"?><svg xmlns="http://www.w3.org/2000/svg" viewBox="0 0 253.56 69.74"><defs><style>.d{fill:#a4a4a4;}</style></defs><g id="a"/><g id="b"><g id="c"><path class="d" d="M10.83,27.72c-2.92-4.93-5.91-9.83-8.67-14.85-.96-1.75-1.65-3.78-1.92-5.76C-.5,1.54,.18,1.43,5.76,.36c5.98-1.16,10.26,.5,14.04,5.08,2.6,3.14,5.76,5.81,8.71,8.65,8.53,7.05,20.67,6.76,31.14,6.4,6.95-.36,13.95-.65,20.68-2.57,20.82-5.46,41.64-10.91,62.92-14.42,9.27-1.44,18.41-.78,27.52,.61,15.54,1.26,29.03,8.29,41.95,16.29,15.6,8.26,25.63,23.35,37.81,35.65,4.67,5.29,3.96,8.56-2.08,12.27-2.91,1.79-5.82,1.88-8.78,.43-18.94-8.12-32.01-24.58-49.13-35.51-5.24-3.64-10.73-6.46-17.28-7.45-11-1.6-21.97-2.65-33.07-1.95-13.17,2.77-25.87,7.83-38.84,11.49-14.11,4.37-28.32,8.31-42.88,10.9-5.26,.93-10.52,1.66-15.89,1.11-4.37-.45-8.34-1.68-11.9-4.43-4.37-3.38-8.96-6.48-13.49-9.66l-6.35-5.51Z"/></g></g></svg>