<?xml version="1.0" encoding="UTF-8"?>
<svg id="_レイヤー_2" data-name="レイヤー 2" xmlns="http://www.w3.org/2000/svg" viewBox="0 0 175.3 216.4">
  <defs>
    <style>
      .cls-1 {
        fill: #a4a4a4;
      }
    </style>
  </defs>
  <g id="parts">
    <g>
      <path class="cls-1" d="M44.73,215.64c-.32,.1-.6,.26-.89,.26-3.61,.02-38.77,.45-39.9,.49-1.18,.05-1.56-.26-1.61-1.33-.12-2.68-1.28-52.69-1.41-58.78,0-.1-.02-.21-.02-.31,0-1.03,.26-1.39,1.18-1.42,2.58-.1,41.03-.77,43.3-.8,1.34-.02,1.64,.21,1.69,1.6,.07,1.65,.04,3.3-.01,4.95-.35,11.04-.68,22.07-1.1,33.11-.27,7.11-1.16,21.92-1.24,22.24Z"/>
      <path class="cls-1" d="M43.86,134.62c-12.36-.86-24.68-1.92-36.95-3.58-2.12-.27-4.25-.46-6.37-.68-.43-.05-.58-.25-.53-.66,.56-4.03,1.07-8.06,1.64-12.08,1.61-9.23,2.76-18.51,3.87-27.81,.34-2.48,.43-4.99,.84-7.47,0-1.09,5.38,.08,6.28,.04,12.97,1.21,25.94,2.43,38.9,3.74,.62,0,.55,.54,.52,1.03-.57,4.44-1.17,8.88-1.76,13.31-1.45,9.04-2.41,18.16-3.83,27.21-.31,2.11-.53,4.24-.87,6.35-.06,.85-1.15,.56-1.74,.61Z"/>
      <path class="cls-1" d="M104.74,2.04c3.26,.49,3.33,.5,2.68,4.3-1.25,7.29-1.25,14.73-2.8,21.98,.25,3.85-.92,7.59-1.01,11.38-.09,3.72-.83,7.34-1.09,11.01-.16,3.31-.24,6.64-.94,9.9-.36,1.6-.97,2.07-2.56,2.01-2.09-.08-4.17-.15-6.26-.25-4.91-.25-9.81-.53-14.72-.77-1.83,.12-3.7,.22-5.47-.4-.36-.11-.78-.69-.8-1.07-.09-1.59-.14-3.2-.01-4.79,.36-4.29,.79-8.57,1.25-12.85,.21-1.96,.72-3.89,.37-5.88-.06-.35,0-.75,.08-1.1,1.03-4.47,1.08-9.07,1.22-13.58,.12-4.19,1.26-8.28,.84-12.5-.11-1.08,.3-2.19,.39-3.3,.44-1.97-.85-6.19,2.19-6.12,2.94,.16,5.88,.41,8.82,.6,6.1,.22,11.35,.83,17.83,1.43Z"/>
      <path class="cls-1" d="M131.95,132.59c-.08-.79-.78-15.68-1.03-22.54-.24-6.62-.43-13.25-.64-19.87-.09-2.96-.26-9.82-.21-10.29,.12-1.33,.42-1.67,1.73-1.72,1.65-.07,21.29,.46,29.45,.76,3.31,.12,6.62,.32,9.93,.59,1.78,.15,2.39,.71,2.42,2.45,.07,4.02,.02,8.04-.05,12.07-.14,8.17-.8,16.32-1.44,24.47-.24,3.06-.41,10.64-.48,11.35-.28,2.79-.58,3.15-3.54,3.24-5.44,.17-10.88,.31-16.32,.33-5.9,.02-18.44-.1-18.76-.21-.41-.15-.77-.45-1.06-.62Z"/>
      <path class="cls-1" d="M166.16,153.37c2.38,.43,2.97,1.11,2.62,4.7-1.75,17.95-3.58,35.89-5.21,53.85-.38,3.19-1.19,3.83-4.32,3.52-8.56-.85-17.11-1.81-25.67-2.7-1.95-.2-3.1-1.15-3-3.18,.18-3.6,.4-7.2,.68-10.8,.84-10.78,1.73-21.56,2.58-32.34,.35-4.42,.56-8.86,.94-13.28,.23-2.73,1.05-3.45,3.7-3.18,9.79,1.03,17.42,1.99,27.68,3.4Z"/>
      <path class="cls-1" d="M101.95,83.05c3.51,1,8.02,2.57,6.99,7.61-.76,14.43-1.61,28.86-2.45,43.28,.25,4.12-2.46,6.41-6.46,5.24-5.78-2.31-31.13-1.68-29.63-9.06,.97-16.71,3.51-33.33,5.2-49.99,.45-2.69,1.58-3.55,4.12-2.91,7,1.78,13.98,3.66,22.24,5.83Z"/>
      <path class="cls-1" d="M175.07,59.09c-.47,.06-38.81,3.22-39.87,3.24-.97,.02-1.17-.21-1.22-1.27-.02-.47,.12-55.6,.18-56.9,13.42-.57,26.65-1.14,39.78-1.69,.16,.21,.24,.29,.29,.39,.05,.1,.62,37.29,1.07,55.77,0,.1-.1,.21-.23,.47Z"/>
      <path class="cls-1" d="M46.24,6.57c.19,.36,.46,.66,.48,.97,.06,.96-2.83,52.96-3.04,55.24-.11,1.22-.46,1.49-1.59,1.42-.72-.04-34.85-3.82-37.36-4.15-1.19-.16-1.45-.47-1.31-1.67,.41-3.71,5.08-53.62,5.19-54.33,.11-.72,.63-.97,1.3-.93,.84,.05,35.02,3.23,36.34,3.46Z"/>
      <path class="cls-1" d="M64.72,159.36c.75-.15,1.41-.32,2.09-.4,6.5-.77,32.77-3.7,39.41-4.34,2.98-.29,3.03-.22,3.03,2.74,.02,15.05,.1,48.59,.03,50.3-.09,2.09-.14,2.15-2.26,2.23-8.89,.32-33.14,1.02-36.37,1.02-2.09,0-2.15-.04-2.33-2.14-.76-8.96-3.13-40.2-3.58-46.86-.05-.79-.01-1.59-.02-2.56Z"/>
    </g>
  </g>
</svg>