<?xml version="1.0" encoding="UTF-8"?>
<svg id="_レイヤー_2" data-name="レイヤー 2" xmlns="http://www.w3.org/2000/svg" viewBox="0 0 307.08 91.16">
  <defs>
    <style>
      .cls-1 {
        fill: #a4a4a4;
      }
    </style>
  </defs>
  <g id="parts">
    <path class="cls-1" d="M220.38,69.25c-25.05,18.63-63.56,22.6-95.43,21.81-10.58,.14-20.48-2.63-30.07-6.88-25.47-11.74-47.38-29.76-67.98-48.53C17.91,27.26,10.38,17.57,2.17,8.5,.17,6.01-1.93,2.27,3.23,1.95c32.29,.08,64.45-1.16,96.56-.76,12.49,1.91,25.04-.74,37.59-.26,11.58,.49,23.22,.11,34.81,.34,4.24,.82,21.35-.71,25.75-.73,17.58-.05,35.17,.17,52.75,.37,16.94-.26,33.88-.61,50.83-.9,2.05,.1,6.54-.72,5.37,2.56-28.45,24.71-51.97,48.06-86.51,66.67Z"/>
  </g>
</svg>