<?xml version="1.0" encoding="UTF-8"?><svg xmlns="http://www.w3.org/2000/svg" viewBox="0 0 268.03 215.34"><defs><style>.d{fill:#a4a4a4;}</style></defs><g id="a"/><g id="b"><g id="c"><path class="d" d="M103.96,193.75c-2.21-3.15-5.11-6.85-7.49-10.85-1.53-2.58-3.57-4.67-5.32-7.03-1.56-2.11-3.35-2.61-5.88-1.8-3.29,1.05-6.7,1.71-10.04,2.6-4.03,1.07-8.13,1.66-12.28,2.13-5.24,.6-10.35,.53-15.48-.82-2.68-.7-5.44-1.05-8.17-1.56-5.39-1.01-10.16-3.42-14.68-6.41-1.88-1.24-3.67-2.64-5.63-3.73-4.35-2.43-7.52-6.09-10.54-9.9-.63-.8-1.15-1.76-1.45-2.73-3.06-9.77-5.97-19.57-6.86-29.86-.4-4.59-.03-9.07,1.65-13.29,2.18-5.47,4.48-10.94,7.28-16.11,3.66-6.74,9.31-11.62,16.53-14.32,4.37-1.63,8.96-2.7,13.45-3.99,.83-.24,1.7-.35,2.55-.52,3.09-.59,3.42-1.07,2.38-4.16-.94-2.79-2-5.54-3.03-8.3-1.95-5.23-2.77-10.73-4.06-16.12-.77-3.23-1.12-6.47-.12-9.75,.5-1.65,.93-3.36,1.11-5.07,.57-5.36,3.75-9.27,7.28-12.86,5.51-5.61,12.46-8.73,20.02-10.44,8.91-2,17.89-2.25,26.82-.04,3.35,.83,6.63,2,9.92,3.09,1.48,.49,2.91,1.13,4.34,1.76,1.49,.66,2.68,.27,3.72-.89,.58-.64,1.36-1.16,1.78-1.89,2.83-4.83,7.58-7.01,12.43-8.91,4.06-1.59,8.3-2.18,12.75-1.91,8.78,.53,17.08,2.86,25.21,6,4.58,1.76,8.42,4.7,12.27,7.7,5.49,4.26,8.85,10.09,12.31,15.85,2.63,4.39,2.5,4.45,7.75,3.88,4.14-.45,8.27-1.02,12.42-1.2,11.72-.52,22.78,1.71,32.63,8.49,.71,.49,1.47,.96,2.05,1.58,7.28,7.76,13.66,16.1,17.54,26.17,1.34,3.48,1.82,6.95,1.73,10.67-.22,9.42-3.87,17.45-9.29,24.9-2.44,3.36-4.73,6.83-7.03,10.29-1.21,1.82-1.1,2.86,.36,4.68,.87,1.08,1.81,2.11,2.73,3.15,6.33,7.23,11.5,15.18,14.91,24.21,1.65,4.37,3.7,8.69,4.64,13.22,1.78,8.58,.83,16.91-4.4,24.34-1.2,1.7-2.2,3.56-3.55,5.11-3.2,3.67-6.62,6.85-11.53,8.51-5.98,2.02-12.02,3.28-18.24,4.03-2.29,.28-4.46,.03-6.64-.74-6.55-2.28-13.13-4.46-19.7-6.68-.82-.28-1.63-.62-2.47-.83-2.43-.59-3.38-.23-4.86,1.89-1.78,2.55-3.39,5.25-5.32,7.69-1.15,1.46-2.72,2.61-4.21,3.77-.95,.74-2.1,1.19-3.13,1.83-8.05,4.99-16.8,7.04-26.26,6.74-8.37-.26-16.58-1.42-24.7-3.33-1.51-.35-3.02-.85-4.42-1.51-3.77-1.76-7.65-3.37-11.17-5.55-4.57-2.82-8.47-6.55-12.64-11.17Z"/></g></g></svg>