<?xml version="1.0" encoding="UTF-8"?>
<svg id="_レイヤー_2" data-name="レイヤー 2" xmlns="http://www.w3.org/2000/svg" viewBox="0 0 98.94 284.73">
  <defs>
    <style>
      .cls-1 {
        fill: #a4a4a4;
      }
    </style>
  </defs>
  <g id="parts">
    <path class="cls-1" d="M57.64,284.73c-.29-.32-.71-.59-.83-.96-6.15-19.81-19.2-56.24-28.62-74-9.42-17.75-19.71-36.59-26.42-47.59-1.88-3.08-2.45-5.68-.81-8.97,1.74-3.49,16.81-39.64,24-57.23C39.86,59.59,50.82,5.3,52.09,0c.59,2.79,1.03,4.29,1.21,5.83,2.5,21.05,6.71,41.78,11.32,62.44,1,4.47,16.92,43.69,23.9,58.71,3.1,6.67,6.2,13.35,9.45,19.95,1.21,2.46,1.27,4.56,.23,7.17-5.45,13.66-15.02,31.61-22.15,54.51s-16.42,74.19-18.41,76.13Z"/>
  </g>
</svg>