<?xml version="1.0" encoding="UTF-8"?><svg xmlns="http://www.w3.org/2000/svg" viewBox="0 0 191.7 100.07"><defs><style>.d{fill:#a4a4a4;}</style></defs><g id="a"/><g id="b"><g id="c"><path class="d" d="M68.13,41.74s.36,.07,.35,.08c3.79,1.44,7.64,1.77,11.63,.73,12.92-3.5,26.03-6.43,38.87-10.15,10.91-3.8,21.11-1.23,30.9,3.59,21,10.07,33.89,29.03,41.82,50.71-11.58-1.3-21.84-5.75-33.21-7.51-25.42-5.07-43.1,5.34-65.04,16.12-18.13,8.83-41.11,5.06-55.93-8.69C18,67.67,8.86,41.28,1.9,15.64c-.5-1.75-1.14-3.57-1.12-5.35C.82,6.86-1.32,3.28,1.33,0,22.15,15.87,40.39,38.96,68.13,41.74Z"/></g></g></svg>