<?xml version="1.0" encoding="UTF-8"?><svg xmlns="http://www.w3.org/2000/svg" viewBox="0 0 191.21 145.88"><defs><style>.d{fill:#a4a4a4;}</style></defs><g id="a"/><g id="b"><g id="c"><path class="d" d="M191.08,74.34c0,21.89,.02,68.3-.07,69.6-.13,1.75-1.63,2.46-3.17,1.54-.42-.25-.8-.56-1.17-.88-11.96-10.38-51.4-39.83-58.29-45.3-9.44-7.5-18.83-15.06-28.24-22.6-2.16-1.73-4.32-3.47-6.45-5.25-1.06-.89-1.97-.78-3.07-.03-3.5,2.39-74.85,49.69-86.98,57.37-.55,.35-1.14,.64-1.73,.92C.82,130.22,0,129.72,0,128.42c0-4.08,.8-29.01,1.7-31.7,.15-.45,.11-.97,.14-1.46,.38-6.83,.65-13.67,1.16-20.5,.43-5.84,1.13-11.65,1.7-17.48,.08-.81,.1-1.63,.12-2.45,.15-6.03,.9-12,1.8-17.96,.07-.48,.08-.98,.11-1.46,.37-6.18,1.99-27.28,2.21-31.67C9.07,1.16,10.74-.41,13.1,.09c2.94,.62,13.25,.61,15.52,.62,35.29,.09,70.58,.15,105.87,.21,2.78,0,5.58-.21,8.33,.06,14.67,1.44,44.7,.77,45.03,.79,3.05,.13,3.31,.31,3.33,3.47,.05,10.46,.04,56.53,.04,69.11h-.13Z"/></g></g></svg>