<?xml version="1.0" encoding="UTF-8"?>
<svg id="_レイヤー_2" data-name="レイヤー 2" xmlns="http://www.w3.org/2000/svg" viewBox="0 0 335.24 277.75">
  <defs>
    <style>
      .cls-1 {
        fill: #a4a4a4;
      }
    </style>
  </defs>
  <g id="parts">
    <g>
      <path class="cls-1" d="M206.03,42.82c.38,14.56-10.72,17.34-20.55,24.33-4.3,2.79-9,4.33-14.12,4.64-1.42,.09-2.85,.26-4.26,.53-3.99,.77-7.87,.45-11.56-1.25-5.85-2.7-11.72-5.32-16.67-9.66-3.58-3.14-6.55-6.59-8.14-11.09-1.25-3.54-2.28-7.15-3.54-10.68-.91-2.56-.46-4.93,.52-7.3,2.27-5.49,5.05-10.68,8.96-15.22,3.37-4.41,7.42-8.45,12.72-10.35,9.14-3.35,18.72-7.82,28.49-4.44,5.71,1.38,10.52,4.45,15.19,7.79,4.01,3.51,6.57,8.53,9.49,12.93,3.43,5.77,2.67,13.79,3.48,19.77Z"/>
      <path class="cls-1" d="M20.83,140.56c-.65-7.83,2.46-23.01,10.88-24.74,6.36-2.39,10.94-3.34,17.15,.1,9.25,4.71,14.15,5.29,19.15,15.45,6.25,10.56,6.45,20.92,1.84,32.16-1.27,3.38-3.81,5.63-7.58,6.5-11.94,2.75-22.69,.98-31.72-7.85-5.93-5.87-11.57-13.13-9.72-21.62Z"/>
      <path class="cls-1" d="M265.01,40.02c-.89-8.88,2.27-19.44,10.17-24.25,12.98-8.02,29.78-12.93,44.31-5.78,3.37,1.52,6.36,3.63,8.24,7.05,1.38,2.51,3.18,4.79,4.48,7.33,8.32,15.3-1.64,33.24-15.93,40.61-10.53,6.34-20.63,7.06-32.56,6.43-2.2-1.46-4.95-2.5-6.48-4.47-4.14-5.31-7.79-10.99-11.53-16.6-1.33-3.14-.46-6.95-.68-10.32Z"/>
      <path class="cls-1" d="M265.27,243.67c-.08-4.33,1.03-8.43,2.79-12.32,.67-1.49,1.81-3.23,3.19-3.83,2.77-1.2,4.67-3.38,7-5.06,3.75-2.7,7.81-4.81,11.97-6.75,3.49-1.63,7.36-1.79,11-1.79,4.7,0,9.38,1,13.75,3.31,3.96,2.1,6.96,5.01,8.89,8.87,1.89,3.8,3.26,7.86,4.81,11.82,.9,2.29,.82,4.6,.33,7.02-1.16,5.74-2.92,11.19-6.39,15.99-.59,.82-1.06,1.77-1.42,2.72-1.37,3.61-4.22,5.86-7.48,7.35-4.15,1.89-8.32,3.88-13.15,3.72-2.17-.08-4.36,.59-6.55,.84-4.06,.45-7.84-.87-11.3-2.63-5.2-2.65-9.43-6.68-13.3-11.03-.44-.49-.85-1.11-1.01-1.74-1.08-4.29-2.14-8.58-3.08-12.9-.25-1.14-.04-2.38-.04-3.57Z"/>
      <path class="cls-1" d="M205.23,149.75c-.56,3.95-2.18,7.48-5.26,10.11-2.79,2.38-5.79,4.52-8.62,6.86-1.79,1.48-3.86,2.18-6.02,2.85-10,3.1-19.8,1.37-29.55-1.16-1.53-.4-3.01-1.32-4.31-2.28-3.6-2.68-7.02-5.61-10.63-8.27-3.18-2.34-3.65-5.91-4.14-9.24-.8-5.43-.79-10.98-1.45-16.44-.68-5.59,2.02-9.37,6.01-12.62,.63-.51,1.33-.98,2.06-1.31,8.2-3.66,16.29-7.74,25.24-9.2,4.8-.78,9.74-.95,14.61,.26,10.36,2.57,16.27,9.63,19.56,19.3,1.72,5.05,2.75,19.34,2.49,21.14Z"/>
      <path class="cls-1" d="M79.42,33.74c-.02,9.1-1.73,16.87-6.26,23.92-1.28,2.39-3.55,3.66-5.58,5.28-7.16,6.59-15.99,9.03-25.29,10.66-4.1,.72-7.79,.07-11.65-.99-10.28-2.84-21.01-7.74-26.02-17.74C1.46,48.73-1.03,41.66,.43,34.72c2.1-7.09,4.45-14.55,10.24-19.57,3.35-2.88,6.51-6,9.87-8.87,2.72-2.32,6.06-3.52,9.47-4.38C43.02-1.74,56.75-.32,68.05,7.55c8.24,5.64,11.84,17.04,11.37,26.18Z"/>
      <path class="cls-1" d="M41.55,271.2c-12.98,.43-24.74-4.74-33.45-14.09-5.99-14.75,5.24-28.89,17.77-35.46,2.57-1.46,5.89-1.57,8.82-2.46,3.84-1.17,7.58-1.22,11.38,.2,4.98,1.86,10.12,3.33,15,5.41,10.9,4.49,12.34,13.86,11.9,24.53,.79,10.21-8.88,15.01-16.38,19.39-4.62,2.19-10.05,1.77-15.03,2.49Z"/>
      <path class="cls-1" d="M272.79,137.72c.48-5.41,.98-10.57,5.72-13.97,9.68-8.66,21.2-16.22,34.62-11.32,6.77,1.96,10.03,8.69,14.11,13.87,2.52,4.25-.97,17.21-3.08,21.74-3.53,7.73-9,13.51-16.75,17-4.79,1.6-10.24,5.23-15.16,2.31-5.54-2.93-10.9-6.18-15.64-10.32-3-3.17-3.24-14.8-3.83-19.31Z"/>
      <path class="cls-1" d="M178.35,208.18c9.36-.69,16.37,3.66,23.01,8.35,2.46,1.73,3.59,5.27,5.55,7.81,5.71,7.4,5.47,15.23,2.25,23.5-2.09,5.37-4.76,10.29-8.97,14.31-2.56,2.44-5.07,4.94-7.49,7.5-7.89,8.34-17.54,9.61-27.98,6.62-5.73-1.64-11-4.45-15.65-8.29-2.54-2.1-5.29-3.95-7.69-6.19-1.01-.95-1.53-2.55-1.97-3.95-.54-1.75-.92-3.58-1.1-5.41-.17-1.79-.32-3.7,.11-5.41,.91-3.62,1.76-7.26,2.97-10.82,1.28-3.77,3.06-7.02,6.04-9.59,5.12-4.41,10.29-8.76,15.37-13.21,4.66-4.08,10.03-5.81,15.55-5.21Z"/>
    </g>
  </g>
</svg>