<?xml version="1.0" encoding="UTF-8"?><svg xmlns="http://www.w3.org/2000/svg" viewBox="0 0 272.52 113.23"><defs><style>.d{fill:#a4a4a4;}</style></defs><g id="a"/><g id="b"><g id="c"><path class="d" d="M110.7,111.35c-7.06-1.02-14.38-.99-21.24-3-14.67-5.56-29.8-10.15-43.71-17.51C30.08,81.95,11.73,75.35,.65,60.47c-1.01-1.23-.83-2.08,.48-2.99C30.17,40.74,59.41,23.56,90.26,10.39c12.59-2.93,25.19-5.81,37.8-8.64,1.93-.43,4.3-1.29,5.83-.57,2.21,1.03,3.27-.85,4.93-.84,1.98,.02,3.97-.2,5.96-.24,12.95-.44,25.83,.81,38.76,1.53,14.19,.84,27.61,5.97,40.75,10.94,6.81,2.98,13.48,6.3,20.15,9.6,5.22,2.58,10.02,6,15.81,7.55,4.66,1.25,8.17,4.84,11.9,7.8,2.34,2.75-7.6,10.61-8.86,13.62-1.37,2.32-3.84,3.97-5.42,6.2-3.14,4.44-7.2,7.81-11.43,11.12-6.1,4.77-11.93,9.89-17.97,14.76-1.69,1.37-3.63,2.46-5.53,3.53-10.07,5.64-20.26,11.09-30.24,16.89-21.54,12.45-57.81,10.29-81.96,7.24l-.05,.48Z"/></g></g></svg>