<?xml version="1.0" encoding="UTF-8"?>
<svg id="_レイヤー_2" data-name="レイヤー 2" xmlns="http://www.w3.org/2000/svg" viewBox="0 0 247.45 392.14">
  <defs>
    <style>
      .cls-1 {
        fill: #a4a4a4;
      }
    </style>
  </defs>
  <g id="parts">
    <path class="cls-1" d="M34.91,126.87c12.56-33.15,23.66-67.86,46.9-95.36C92.62,18.45,105.05,5.99,121.5,.63c1.48-.57,3.23-.69,4.83-.6,11.67,.66,23.26,1.78,34.32,5.97,14.16,4.81,27.94,10.67,40.88,18.21,4.8,2.72,9.51,5.6,14.3,8.32,1.83,1.04,3.14,2.49,4.46,4.1,7.1,8.69,11.83,18.66,15.97,28.96,4.92,13.58,3.06,28.46,2.29,42.61-.35,4.02-1.62,7.57-3.58,10.98-5.92,10.3-12.68,20.04-19.71,29.59-1.69,2.3-3.77,4.31-5.68,6.45-5.26,5.83-9.04,12.63-11.78,19.95-3.82,7.62-4.3,15.74-3.35,23.99,1.5,13.01-.05,10.14,7.87,20.66,2.46,3.27,4.82,6.64,7.46,9.77,5.98,7.12,10.2,15.34,14.59,23.43,4.2,7.74,8.37,15.53,11.9,23.58,3.61,8.24,6.27,16.89,9.65,25.23,2.29,5.66,1.69,11.21,.45,16.85-1.55,6.33-2.61,12.85-4.61,19.05-2.91,5.85-5.29,11.92-8.6,17.61-8.7,14.97-22.37,23.53-37.75,29.96-2.05,.86-4.32,1.31-6.54,1.65-14.79,2.26-29.55,4.74-44.55,5.14-9.23,.25-18.41-.42-27.45-2.39-7.3-1.86-14.96-2.76-21.88-5.81-2.23-1.01-4.33-2.37-6.64-3.14-9.23-3.08-17.47-8.03-25.39-13.51-6.56-4.54-13.12-9.13-18.84-14.75-6.95-6.93-12.37-15.31-17.73-23.47-4.58-7.49-9.09-15.07-11.85-23.54-1.65-5.05-3.67-10-5.76-14.89-3.09-7.23-4.8-14.81-5.91-22.53-1.02-7.1-1.67-14.25-2.6-21.36-.59-4.54-.12-8.95,.78-13.4,5.46-26.31,16.79-50.92,23.8-76.78,2.8-10.11,6.68-19.79,10.07-29.66Z"/>
  </g>
</svg>