<?xml version="1.0" encoding="UTF-8"?><svg xmlns="http://www.w3.org/2000/svg" viewBox="0 0 181.75 42.89"><defs><style>.d{fill:#a4a4a4;}</style></defs><g id="a"/><g id="b"><g id="c"><path class="d" d="M176.31,2.71c2.11,.17,2.6,1.57,2.83,3.32,.79,6.04,1.68,12.06,2.45,18.1,.41,3.22,.26,3.45-3.01,3.79-9.23,.97-18.45,1.98-27.69,2.76-47.24,3.98-94.48,7.91-141.72,11.83-8.26,.69-6.96,1.31-7.41-6.23C1.11,25.42,.59,14.56,.03,3.7-.14,.39,.25-.06,3.63,0,15.78,.26,151.74,2.64,164.17,2.91c2.9,.06,5.79-.05,8.69-.1,1.15-.02,2.3-.07,3.44-.11Z"/></g></g></svg>