<?xml version="1.0" encoding="UTF-8"?><svg xmlns="http://www.w3.org/2000/svg" viewBox="0 0 202.16 163.16"><defs><style>.d{fill:#a4a4a4;}</style></defs><g id="a"/><g id="b"><g id="c"><path class="d" d="M171.91,41.47c-21.77,.19-38.78-4.31-59.7-3.46-5.62,.35-6.09,.84-7.2,5.54-.37,1.59-.96,3.14-1.38,4.72-1.34,5.16-.97,6.21,3.87,8.88,3.04,1.68,6.2,3.22,9.44,4.47,21.79,8.42,43.74,16.42,65.47,25,7.21,2.46,20.55,13.16,10.76,20.05-2.97,1.37-6.11,2.36-9.23,3.38-7.86,.47-15.89-1.62-23.78-2.21-11.41-1.53-22.2-5.72-33.17-9-5.92-1.81-12.09-2.05-18.17-2.87-2.29-.45-5.97,.91-4.52,3.72,2.12,3.74,4.36,7.38,8.19,9.78,23.87,15.24,48.91,28.45,74.35,40.8,3.36,1.96,7.71,4.04,8.8,8-.08,2.28-4.42,5.34-6.86,4.86-19.39-4.32-38.59-9.47-57.98-13.78-21.42-5.03-40.86-16.25-57.91-29.92-9.45-8.37-21.4-14.3-28.5-25.02-6.19-8.92-12.35-17.87-18.43-26.87-1.29-1.91-2.86-3.37-4.71-4.73-5.11-3.76-10.12-7.66-15.07-11.64-4.49-3.07-10.39-12.59-1.79-14.5,7.32-.88,14.72,.31,22.06,.65,4.36,.41,7.21-3.67,9.06-7.07C40.77,18.2,57.02,1.09,70.42,0c24.89,.18,49.5,3.87,73.07,11.96,15.05,4.09,29.94,8.63,44.3,14.74,4,1.58,8.1,2.9,12.13,4.39,2.53,.93,2.83,2.09,1.35,4.08-2.64,3.56-6.27,5.2-10.56,5.43-6.95,.38-13.92,.64-18.8,.86Z"/></g></g></svg>