<?xml version="1.0" encoding="UTF-8"?><svg xmlns="http://www.w3.org/2000/svg" viewBox="0 0 338.27 75.99"><defs><style>.d{fill:#a4a4a4;}</style></defs><g id="a"/><g id="b"><g id="c"><path class="d" d="M6.21,26.27c4.02,3.99,7.58,7.51,11.13,11.04,3.71,3.68,7.35,7.44,11.15,11.03,2.17,2.05,2.48,1.94,4.39-.33,5.62-6.72,11.25-13.43,16.81-20.2,2.4-2.92,2.47-3.11,5.56-1.28,5.55,3.29,11.04,6.7,16.5,10.14,8.03,5.06,6.63,4.33,9.71-2.79,2.85-6.61,5.58-13.28,8.59-20.5,1.36,1.08,2.67,2,3.86,3.07,6.5,5.88,12.85,11.93,19.49,17.65,5.71,4.92,4.48,4.05,7.84-1.65,2.65-4.5,4.79-9.29,7.32-13.87,2.41-4.36,2.63-4.35,6.37-1.27,6.06,4.98,12.09,9.98,18.14,14.97,.59,.49,1.21,.96,1.87,1.35,3.06,1.82,4.85,1.62,7.3-.97,4.02-4.24,7.98-8.54,11.96-12.81,2.41-2.59,2.45-2.64,5.21-.61,7.8,5.74,15.59,11.49,23.35,17.29,3.79,2.83,3.89,3.01,7.18-.38,7.49-7.73,14.87-15.56,22.21-23.42,3.07-3.29,3.41-3.44,6.38-.14,4.73,5.26,9.34,10.62,14.07,15.88,2.88,3.21,2.96,3.08,5.9-.18,6.22-6.89,16.64-23.59,16.98-24.1,3.61-5.45,4.25-5.64,8.4-.33,3.68,4.71,6.79,9.87,10.16,14.82,2.07,3.05,4.24,6.04,6.19,9.17,1.22,1.95,2.24,2.01,3.97,.57,7.32-6.1,14.72-12.11,22.11-18.13,2.62-2.13,5.28-4.22,7.98-6.27,.8-.6,1.76-.98,2.98-1.65,.2,1.14,.42,1.85,.43,2.57,.19,21.06,.35,42.12,.52,63.18,0,.92,.19,1.91-.08,2.75-.22,.67-.93,1.29-1.58,1.66-.47,.27-1.2,.11-1.82,.12-27.82,.26-313.72,3.27-331.4,3.33-3.13,.01-3.54-.24-3.25-2.94,1.54-14.21,3.18-28.4,4.84-42.6,.13-1.15,.68-2.25,1.29-4.18Z"/></g></g></svg>