<?xml version="1.0" encoding="UTF-8"?>
<svg id="_レイヤー_2" data-name="レイヤー 2" xmlns="http://www.w3.org/2000/svg" viewBox="0 0 259.65 224.83">
  <defs>
    <style>
      .cls-1 {
        fill: #a4a4a4;
      }
    </style>
  </defs>
  <g id="parts">
    <path class="cls-1" d="M127.65,222.54c-1.99,2.48-5.56,3.02-8.21,1.24-5.41-3.64-54.63-35.1-74.02-47.22-5.1-3.19-9.88-9.01-13.72-14.49-9.3-13.28-20.49-29.76-24.85-33.47-4.36-3.71-7.78-7.98-6.63-13.05C5.08,94.05,17.56,36.04,18.88,28.54c.79-4.48,2.7-7.13,7.48-8.26C42.26,16.54,111.91,.18,113.8,.02c1.88-.16,2.84,.84,2.9,3.03,.07,2.45-.93,32.39-1.11,44.92-.13,8.6,.32,8.85,8.88,6.78,26.97-6.53,53.96-13.02,80.87-19.77,4.67-1.17,8.09-.54,11.93,2.5,11.32,8.94,23.02,17.41,34.55,26.09q8.65,6.51,6.94,17.41c-3.11,19.9-10.33,67.24-10.83,71.02-.29,2.2-1.56,3.29-3.76,3.56-7.56,.94-48.56,6.41-61.53,7.84-6.92,.76-11.77,3.67-16.05,9.43-9.88,13.31-30.57,39.3-38.93,49.71Z"/>
  </g>
</svg>