<?xml version="1.0" encoding="UTF-8"?>
<svg id="_レイヤー_2" data-name="レイヤー 2" xmlns="http://www.w3.org/2000/svg" viewBox="0 0 241.38 329.02">
  <defs>
    <style>
      .cls-1 {
        fill: #a4a4a4;
      }
    </style>
  </defs>
  <g id="parts">
    <path class="cls-1" d="M113.71,13.49c3.95,4.72,8.41,13.03,11.41,23.05,2.23,7.45,4.22,18.71,6.12,26.25,5.63,33.36,2.18,67.61,5.36,101.21,.52,5.49,6.15,14.17,9.99,16.18,8.54,4.03,18.64-2.24,24.99-7.82,7.15-6.54,4.99-21.8,6.78-30.87-.2-35.95-3.85-66.76-2.57-102.79,.05-5.74,.29-11.48,.28-17.22,.25-6.04,4.23-11.59,7.86-16.24,1.76-1.85,3.65-3.24,6.24-3.59,6.1-.81,13.95-2.39,21.56-1.28s13.05,5.96,18.25,12.35,8.93,30.82,9.43,37.28c.96,15.55,2.33,31.08,1.86,46.68-.39,28.69,.65,57.48-4.92,85.77-3.92,27.68-5.39,26.4-22.51,47.7-15.05,19.11-51.19,13.17-73.05,13.08-2.91,.37-9.77-.92-10.47,2.78-3.17,15.49-6.54,65.01-11.22,72.89-2.26,4.14-5.36,7.74-10.03,9.57-4.54,2.13-8.46-2.33-10.74-5.86-13.22-21.55-13.81-46.82-16.3-71.22-.81-12.9-11.15-20.19-22-24.69-21.16-10.17-28.78-29.11-33.27-50.82-3.09-14.42-6.58-28.76-9.94-43.12-4.85-20.75-9.97-41.44-14.44-62.27C.81,63.13,.72,55.45,.12,47.9,0,46.33-1.27,37.61,8.18,27.6c1.66-1.76,5.86-3.95,8.18-4.6,5.34-1.51,15.34,11.61,17.61,19.21,14.14,39.12,15.41,82.18,33.46,119.89,1.2,2.36,2.35,2.4,6.05,4.94,5.24,3.61,21.23-3,19.67-12.46-4.98-35.29-4.89-71.12-10.56-106.39-1.13-8.74-2.05-17.51-3.11-26.25-.66-5.43,3.41-10.31,12.87-12.42s17.41-.73,21.37,3.99Z"/>
  </g>
</svg>