<?xml version="1.0" encoding="UTF-8"?>
<svg id="_レイヤー_2" data-name="レイヤー 2" xmlns="http://www.w3.org/2000/svg" viewBox="0 0 151.81 245.72">
  <defs>
    <style>
      .cls-1 {
        fill: #a4a4a4;
      }
    </style>
  </defs>
  <g id="parts">
    <path class="cls-1" d="M21.35,4.71C22.84,2.22,22.59-.41,25.47,.05c5.28,1.63,10.57,3.25,15.84,4.96,2.97,.72-1.31,7.4-1.55,9.45-3.91,11.64-8.01,23.23-11.61,34.97-3.52,14.25-6.8,28.77-9.09,43.29-.1,11.31-3.36,23.26,1.26,34.04,5.9,13.82,2.59,10,14.83,18.6,15.09,10.6,30.61,20.56,47.35,28.48,2.75,1.3,5.3,3.11,7.75,4.93,21.16,16.1,41.58,33.41,59.95,52.63,2.05,2.42,2.09,2.82,.32,5.29-1.31,1.83-2.7,3.6-4.07,5.4-3.69,4.87-3.59,4.73-7.99,.15-10.24-9.94-19.38-21.31-30.68-30.03-22.12-14.46-44.97-27.75-66.6-42.93-4.4-2.92-8.95-5.61-13.43-8.41-5.57-4.41-11.23-8.61-17.46-12.06-3.73-3.06-5.8-7.81-8.74-11.61-.32-.47-.53-1.18-.45-1.73,.59-3.91-.29-7.64-1.12-11.4,.22-10.01,1.14-20.22,2.7-30.19,1.16-8.11,3.23-16.13,3.92-24.27,.56-6.64,3.38-12.56,4.47-18.96,.65-3.38,.66-6.94,1.54-10.24,2.93-7.46,3.74-15.48,6.18-23.07,1.3-1.86,1.48-3.9,1.27-7.08l1.26-5.54Z"/>
  </g>
</svg>