<?xml version="1.0" encoding="UTF-8"?><svg xmlns="http://www.w3.org/2000/svg" viewBox="0 0 397.52 192.97"><defs><style>.d{fill:#a4a4a4;}</style></defs><g id="a"/><g id="b"><g id="c"><path class="d" d="M77.02,75.03c3.18-8.51,8.81-17,16.77-22.22,1.51-1.28,3.47-1.37,5.29-1.08,19.35,1.99,24.72,7.72,39.11,19.36,7.06,5.6,13.81,11.55,20.09,18.03,1.84,1.63,3.98,4.43,6.73,2.98,17.41-9.15,16.25-32.17,25.13-47.63,5.01-8.58,13.44-28.75,25.91-24.09,7.84,3.42,16.02,6.66,22.05,12.97,7.35,7.41,14.33,15.18,21.5,22.77,4.35,3.13,12.64,17.87,18,12.25,3.45-2.54,5.35-6,5.87-10.35,5.12-12.94,8.86-26.35,14.25-39.18,12.36-26.18,29.08-22.6,47.43-4.36,17.29,16.74,27.38,39.15,40.05,59.32,6.19,24.62,8.62,50.46,11.81,75.71,.18,8.47,2.28,18.32-3.43,25.52-2.35,3.74-3.16,8.73-7.99,10.37-7.08,3.17-16.06,5.78-22.87,.76-6.21-4.84-13.54-8.78-18.47-14.99-11.55-14.9-19.46-33.48-35.38-44.26-5.31-2.17-11.82,.61-15.04,5.3-8.13,12.17-18.6,33.92-35.02,18.54-7.43-7.05-14.73-14.2-21.14-22.22-6.13-7.59-13.94-15.19-24.16-7.42-12.49,8.37-14.59,24.92-24.32,35.59-18.29,20.35-38.37-2.64-53.5-14.66-4.12-2.62-8.21-8.01-13.33-4.62-6.96,2.81-12.83,7.36-16.73,13.81-11.47,17.77-15.28,41.14-41.38,41.75-23.12-1.81-37.81-22.63-47.18-41.95-5.82-11.96-11.85-23.86-15.06-36.89C.02,98-2.53,79.06,5.62,64.22c4.64-6.87,11.09-13.15,19.92-11.96,11.35,3,18.75,14.04,24.13,23.86,2.31,4.56,4.84,9.01,7.34,13.46,1.34,2.39,3.58,3.28,6.24,2.73,8.74-1.61,10.44-10.13,13.77-17.29Z"/></g></g></svg>