<?xml version="1.0" encoding="UTF-8"?><svg xmlns="http://www.w3.org/2000/svg" viewBox="0 0 250.56 226.8"><defs><style>.d{fill:#a4a4a4;}</style></defs><g id="a"/><g id="b"><g id="c"><path class="d" d="M248.86,126.39c-1.67,10.46-19.67,20.46-34.36,26.19-2.16,.62-4.28,1.42-6.37,2.25-2.01,.79-2.3,1.88-1.1,3.81,1.4,2.26,9.96,17.13,11.47,22.92,.31,1.19,1.45,15.98-2.13,21.43-2.25,3.43-5.22,6.3-8.62,8.64-2.72,1.87-21.16,3.08-27.06,1.6-7.75-1.94-27.39-11.06-29.93-12.38-2.48-1.29-3.65-.93-5.08,1.43-1.48,2.45-7.48,11.34-9.49,12.58-6.08,3.78-12.22,7.54-18.65,10.66-5.92,2.87-16.45,.29-22.35-1.67-9-3-19-11-21.81-30.26-.85-4.71,1.11-16.77,1.16-18.19,.16-4.44,.89-5.63-4.86-6.17-7.11-.66-40.86-5.69-46.68-9.04s-12.81-4.35-18.81-16.35c-2-4-5-14-4-21,1.14-7.96,7.59-18,9.91-19.44,3.83-2.38,7.65-4.77,11.57-6.98,1.58-.89,11-3.75,13.9-4.77,2.13-.75,2.48-2.09,.95-3.68-3.27-3.4-6.51-6.84-9.99-10.01-5.19-4.73-10.88-19.19-10.98-20.2-.53-5.17,5.15-22.04,14.4-27.98s16.89-9.28,28.25-11.94,21.25-1.23,34.16-1.12c2.9,.02,5.66,.43,8.45,1.29,6.65,2.05,13.37,3.88,19.64,7,1.78,.88,2.5,.53,3.53-1.17,.42-.7,.85-1.42,1.14-2.17,5.11-9.07,11.6-17.84,20.07-19.82,3.51-.82,13.09-2.54,15.7-1.55,2.68,1.01,11.5,1.81,16.9,8.18s8.39,15.96,8.88,17.73c1.07,3.88,1.54,4.29,5.45,4.33,4.72,.05,9.45-.22,14.15,.09,9.55,.62,18.61,3.04,26.4,8.87,6.29,4.7,9.65,10.95,9.29,19.03-.12,2.8-8.65,14.08-11.74,17.35-1.25,1.33-2.83,2.34-4.93,4.03,4.77,3.9,21.75,19.28,23.45,25.92,.8,3.16,1.2,6.42,1.81,9.63,.07,.37-1.57,10.45-1.69,10.93Z"/></g></g></svg>