<?xml version="1.0" encoding="UTF-8"?><svg xmlns="http://www.w3.org/2000/svg" viewBox="0 0 118.8 106.71"><defs><style>.d{fill:#a4a4a4;}</style></defs><g id="a"/><g id="b"><g id="c"><path class="d" d="M74.19,7.58c2.07,3.13,4.76,7.38,7.08,10.76,2.71,3.81,6.26,4.93,10.74,3.45,7.18-2.16,14.01-3.46,20.65,1.02,4.1,2.73,7.7,8.16,5.46,12.98-2.77,5.69-5.39,11.53-8.84,16.8-10.61,16.28-19.91,33.3-29.2,50.35-1.22,2.25-3.11,5.14-5.96,3.07-5.01-2.96-8.75-7.42-11.97-12.06-5.94-3.87-9.13-10.33-14.33-14.94-15.2-14.59-29.3-30.42-44.4-45.14C.24,30.8-.84,27.45,.68,23.35c.99-2.67,1.82-5.46,3.24-7.89,6-9.37,16.09-4.52,24.27-1.28,4.26,1.44,7.94,.92,11.06-2.75,2.38-2.8,5.2-5.23,7.76-7.88,7.83-7.16,19.87-2.29,27.17,4.02Z"/></g></g></svg>