<?xml version="1.0" encoding="UTF-8"?><svg xmlns="http://www.w3.org/2000/svg" viewBox="0 0 160.58 70.5"><defs><style>.d{fill:#a4a4a4;}</style></defs><g id="a"/><g id="b"><g id="c"><path class="d" d="M131.89,70.5c-9.25-13.05-18.95-24.91-26.82-38.66,2.31-.32,4.06-.72,5.85-.79,14.81-.64,29.62-1.23,44.44-1.83,.92-.04,1.84-.05,2.76,0,1.54,.07,2.16-.64,2.17-2.16,.06-7.68,.13-15.37,.28-23.04,.04-2.11-.92-2.69-2.82-2.7C153.31,1.3,15.91,.05,3.64,0-.3-.01-.32,.03,.29,4.12c1.02,6.91,2.14,13.81,3.1,20.72,.49,3.5-.1,3.65,4.21,3.92,18.89,1.21,37.78,2.41,56.67,3.66,3.98,.26,8.4-.32,11.83,1.32,3.43,1.64,6.02,5.46,8.73,8.54,7.12,8.1,14.15,16.26,21.09,24.51,1.87,2.23,3.67,3.38,6.68,3.31,6.24-.15,12.52,.23,19.29,.4Z"/></g></g></svg>