<?xml version="1.0" encoding="UTF-8"?><svg xmlns="http://www.w3.org/2000/svg" viewBox="0 0 139.97 96.16"><defs><style>.d{fill:#a4a4a4;}</style></defs><g id="a"/><g id="b"><g id="c"><path class="d" d="M139.97,42.58c-13.54,5.7-26.97,11.66-40.46,17.47-4.8,2.08-8.52,5.33-11.21,9.83-5.27,8.21-10.06,16.8-12.87,26.21-1.89,.34-2.44-.77-3.13-1.66-4.09-5.27-8.14-10.57-12.26-15.81C45.95,59.9,21.08,56.95,0,50.8c.07-1.62,1.37-1.69,2.38-2.08,14.14-5.51,28.25-11.13,42.45-16.49,15.36-4.97,20.15-19.98,28.7-32.22,2,.89,2.09,2.89,2.56,4.48,2.66,9.03,8.91,15.49,15.6,21.48,4.16,3.73,9.62,5.28,14.94,6.86,11,3.27,21.94,6.76,33.34,9.76Z"/></g></g></svg>