<?xml version="1.0" encoding="UTF-8"?><svg xmlns="http://www.w3.org/2000/svg" viewBox="0 0 142.22 114.67"><defs><style>.d{fill:#a4a4a4;}</style></defs><g id="a"/><g id="b"><g id="c"><path class="d" d="M.75,1.32C1.97,.24,3.28-.1,4.85,.02,12.9,.33,20.94,.39,28.99,.2c20.79,.57,41.59,.12,62.38,.34,15.72-.16,31.45,.55,47.17,.49,2.82,.14,3.77,.12,3.67,3.74-.32,14.79-.4,29.59-.86,44.38,.14,2.88-.98,4.64-3.85,5.79-19.06,7.73-37.96,15.84-57,23.61-26.17,10.64-50.98,24.33-76.88,35.61C-.06,115.94-.08,112.66,.03,109.88-.06,73.69,.48,37.51,.75,1.32Z"/></g></g></svg>