<?xml version="1.0" encoding="UTF-8"?>
<svg id="_レイヤー_2" data-name="レイヤー 2" xmlns="http://www.w3.org/2000/svg" viewBox="0 0 121.47 151.11">
  <defs>
    <style>
      .cls-1 {
        fill: #a4a4a4;
      }
    </style>
  </defs>
  <g id="parts">
    <g>
      <path class="cls-1" d="M22.6,32.15c.67,1.92,.97,3.86,1.28,5.79,.41,2.62,.63,5.27,.92,7.9,.22,2.04,.41,4.08,.64,6.11,.19,1.66,.43,3.31,.63,4.96,.42,3.54,.79,7.09,1.26,10.62,.63,4.81,1.4,9.61,1.97,14.43,.35,3.01,.55,6.05,.62,9.09,.06,2.86-.75,5.62-2.12,8.08-1.36,2.42-3.46,4.24-6.26,4.98-.64,.17-1.39,.27-2.01,.11-2.05-.56-4.08-1.19-6.09-1.91-1.66-.59-3.15-1.5-4.37-2.81-.26-.28-.54-.55-.85-.75-3.49-2.21-5.3-5.71-7.17-9.19-1.35-2.51-1.02-5.18-.95-7.8,.18-6.54,2.12-12.72,4.2-18.84,.98-2.88,2.6-5.48,4.12-8.11,2.36-4.06,4.79-8.09,7.16-12.15,.53-.91,.87-1.94,1.41-2.84,.85-1.43,1.8-2.81,2.71-4.2,.46-.69,.92-1.38,1.41-2.06,.39-.53,.73-1.13,1.5-1.41Z"/>
      <path class="cls-1" d="M69.92,150.78c-3.88-.56-7.25-2.35-10.27-4.69-2.45-1.9-3.84-4.64-4.9-7.56-1.59-4.38-.94-11.35,.15-17.86,1.69-10.69,7.83-29.23,12.37-33.91,1.17,.19,15.43,28.01,16.05,29.05,3.59,6.04,4.46,13,3.59,19.47-.55,4.03-1.96,7.87-4.19,11.33-.4,.62-.95,1.21-1.56,1.64-2.84,1.99-5.9,3.29-9.49,2.76-.58-.09-1.17-.14-1.76-.21Z"/>
      <path class="cls-1" d="M81.13,48.43c1.04-9.89,2.12-19.78,3.12-29.67,.53-5.23,.99-10.47,1.35-15.71,.09-1.37,.52-2.15,1.83-2.46,1.4-.33,2.57-1.23,4.18,.15,9.81,8.44,17.42,18.62,22.86,30.22,4.25,9.07,7.7,18.6,6.87,29.01-.12,1.52-.18,3.07-.08,4.59,.45,6.76-6.06,14.93-14.29,15.8-4.58,.48-8.98-.1-13.28-1.51-3-.99-5.16-3.09-6.84-5.82-4.27-6.95-5.45-14.6-5.46-22.56,0-.67,0-1.34,0-2.01-.09,0-.18-.02-.27-.03Z"/>
    </g>
  </g>
</svg>