<?xml version="1.0" encoding="UTF-8"?><svg xmlns="http://www.w3.org/2000/svg" viewBox="0 0 309.75 200.22"><defs><style>.d{fill:#a4a4a4;}</style></defs><g id="a"/><g id="b"><g id="c"><path class="d" d="M127.22,88.77c-2.84,2.41-4.57,5.07-5.98,7.94-4.55,9.24-9.11,18.47-13.56,27.75-4.38,9.15-8.53,18.41-12.99,27.52-3.11,6.35-6.13,12.81-9.98,18.7-4.01,6.14-8.54,12.04-15.13,15.88-2.07,1.21-3.51,1.2-5.21-.61-3.36-3.59-6.96-6.96-10.36-10.51-.68-.71-1.24-1.79-1.35-2.76-1.84-16.49-3.99-32.94-4.8-49.55-.33-6.69-2.17-13.32-3.37-19.96-.13-.71-.57-1.35-1.1-2.58-1.56,1.17-2.96,2.03-4.14,3.12-10.63,9.85-20.73,20.13-28.24,32.7-1.57,2.62-3.56,5.01-5.49,7.4-1.02,1.25-2.32,2.27-3.92,3.79-1.98-5.28-1.86-10.04-1.01-14.62,2.5-13.44,5.26-26.83,8.14-40.18,.99-4.58,2.05-9.31,4.17-13.41,1.54-2.98,6.62-15.62,8.22-18.62,2.29-4.29,4.73-8.53,7.49-12.53,6.18-8.96,13.33-17.15,20.82-25.05,3.31-3.49,6.6-6.5,11.83-7.26,3.19-.46,3.64-.11,4.04,2.38,.88,5.62,2.14,11.21,2.54,16.86,.63,8.9,1.58,17.73,2.92,26.55,1.36,8.95,1.93,18.02,3,27.03,.32,2.72,1.11,5.4,1.78,8.07,.39,1.56,1.42,1.87,2.78,1,.39-.25,.77-.51,1.13-.79,13.17-10.41,25.78-21.23,34.92-35.74,8.85-14.04,18.53-27.55,26.74-42,3.95-6.96,8.89-13.25,14.58-19.28,2.09,1.12,3.07,2.88,3.51,4.94,1.19,5.54,2.37,11.08,3.41,16.65,2.25,12.08,4.95,24.12,6.46,36.3,2.09,16.82,5.78,33.31,8.95,49.91,1.08,5.67,4.49,19.5,5.9,25.33,6.99-6.02,13.93-15.89,19.48-22.53,4.14-4.94,15.48-21.05,16.8-24.24,2.39-5.8,4.48-11.72,6.93-17.5,1.42-3.36,10.62-22.87,13.35-29.45,1.5-3.62,2.56-7.43,4.24-10.96,2.15-4.5,4.72-8.8,7.5-13.9,.39,1.99,.79,3.24,.87,4.5,.57,9.51,1.33,19.02,1.54,28.55,.34,15.39,1.18,30.76,3.73,45.93,1.11,6.61,3.74,12.96,5.71,19.42,.12,.38,.56,.65,1.19,1.36,11.37-25.98,23.86-51,42.82-72.13,.23-.26,.85-.18,1.65-.32,0,3.92,.01,11.49,.01,11.49l-6.91,27.85s-16.95,50.11-28.31,67.85c-8.23,12.85-14.84,28.46-23.33,41.15-.4,.59-1.2,.92-1.88,1.42-2.72-6.18-5.23-15.7-6.18-22.13-2.61-17.63-10.29-38.25-12.97-55.87-.2-1.32-.69-2.6-1.21-4.54-1.25,1.08-2.29,1.68-2.91,2.57-4.77,6.97-10.02,13.69-14.04,21.08-8.07,14.85-18.46,27.93-29.14,40.86-6.27,7.59-12.46,15.24-18.67,22.87-1.75,2.15-3.27,4.57-6.74,3.5-3.71-1.15-7.14-2.6-8.31-6.8-.58-2.06-1.1-4.13-1.52-6.23-4.97-24.7-9.9-49.41-14.89-74.11-1.46-7.23-3.09-14.42-4.66-21.63-.15-.7-.47-1.35-.86-2.42Z"/></g></g></svg>