<?xml version="1.0" encoding="UTF-8"?><svg xmlns="http://www.w3.org/2000/svg" viewBox="0 0 197.46 117.28"><defs><style>.d{fill:#a4a4a4;}</style></defs><g id="a"/><g id="b"><g id="c"><path class="d" d="M20.69,3.13c28.83,12.09,57.72,24.08,86.12,37.14,3.44,1.61,6.92,2.01,10.72,1.67,14.45-1.28,28.82-3.11,43.07-5.78,9.26-1.73,18.46-3.83,27.68-5.77,2.54-.14,8.76-3.3,9.17,.44-.92,19.92-3.78,39.81-5.41,59.7-.28,1.57-1.73,2.42-3.05,1.74-21.65-11.64-43.61-22.66-65.77-33.31-3.8-1.84-7.65-2.09-11.93-.53-10.22,3.74-19.67,8.91-29.11,14.18-26.18,14.4-52.44,28.8-78.16,43.95C1.42,117.58,0,118.04,0,114.25c.39-5.27,.98-10.52,1.44-15.79C4.34,67.35,6.58,36.17,9.96,5.11,10.21,3.17,10.46-.14,13.04,0c2.63,.81,5.17,1.91,7.74,2.91l-.09,.22Z"/></g></g></svg>