<?xml version="1.0" encoding="UTF-8"?><svg xmlns="http://www.w3.org/2000/svg" viewBox="0 0 180.13 147.24"><defs><style>.d{fill:#a4a4a4;}</style></defs><g id="a"/><g id="b"><g id="c"><path class="d" d="M157.86,20.8c5.42,5.25,9.42,11.49,12.81,18.14,1.57,3.08,3.06,6.19,4.54,9.31,.45,.95,.82,1.96,1.08,2.97,1.52,5.92,3,11.87,3.57,17.96,.36,3.82,.35,7.71,.03,11.53-.41,4.89-1.29,9.74-1.96,14.61-.31,2.27-1.1,4.31-2.26,6.32-2.46,4.27-13.51,18.83-16.05,22.22-2.1,2.81-4.71,4.98-7.76,6.74-5.09,2.94-10.48,5.2-15.94,7.27-5.34,2.02-10.77,3.83-16.21,5.57-2.01,.64-4.15,.9-6.24,1.23-11.18,1.78-22.44,2.61-33.75,2.56-2.64-.01-5.3-.44-7.9-.95-7.95-1.56-15.99-2.8-23.68-5.44-4.9-1.68-9.71-3.63-14.47-5.66-1.93-.82-3.67-2.12-5.41-3.33-2.72-1.88-5.38-3.86-8.06-5.81-.86-.62-4.54-3.29-5.32-4.17-4.23-4.76-8.64-9.39-11.11-15.42-.25-.62-.45-1.27-.79-1.83C-.04,99.74-.16,94.31,.08,88.82c.04-.93,.23-1.85,.2-2.78-.26-8.82,.7-17.51,2.69-26.09,1.54-6.63,4.08-12.88,6.74-19.13,2.01-4.74,5.34-8.14,9.28-11.16,.53-.4,1.04-.83,1.5-1.31,4.82-5.05,10.55-8.82,16.67-12.1,7.62-4.08,15.29-8.08,23.55-10.7,5.57-1.76,11.24-3.18,16.87-4.74,.51-.14,1.04-.24,1.57-.27,4.86-.23,4.66,0,4,4.18-.81,5.13-1.07,17.61-1.04,18.68,.02,1.09-.52,1.68-1.51,2.07-2.34,.93-4.66,1.94-6.98,2.92-7.49,3.16-14.4,7.38-21.22,11.75l-13.65,14.53c-3.71,6.45-7.21,12.98-9.68,20.05-1.54,4.42-2.6,8.92-3.54,13.47-.63,3.05-.62,6.07,.62,9,.82,1.96,1.39,4.05,2.43,5.88,2.21,3.87,5.52,6.73,9.1,9.34,6.99,5.09,15.07,7.76,23.06,10.65,2.25,.81,4.57,1.43,6.86,2.11,7.99,2.39,8.43,2.51,16.46,1.69,4.75-.49,9.5-1.1,14.21-1.92,10.65-1.85,20.93-4.95,30.62-9.82,3.86-1.94,7.09-4.77,9.52-8.3,4.45-6.47,8.26-13.34,10.82-20.78,1.29-3.76,2.39-7.64,3.04-11.55,.38-2.28-.15-4.76-.57-7.1-.76-4.18-1.59-8.36-2.7-12.46-.69-2.54-1.87-4.97-2.99-7.37-.43-.92-1.3-1.65-2.03-2.42-4.78-5.12-10.85-8.43-16.72-12.06-6.92-4.28-14.5-7.17-21.84-10.56-3.03-1.4-4.18-3.15-4.16-6.32,.02-4.79-.31-9.57-.44-14.36-.04-1.44,.48-1.92,1.94-1.82,5.43,.38,10.91,.49,16.27,1.34,3.76,.59,7.48,1.93,11.02,3.4,7.74,3.21,15.07,7.27,22.28,11.5,2.03,1.19,3.69,3.02,5.52,4.55Z"/></g></g></svg>