<?xml version="1.0" encoding="UTF-8"?><svg xmlns="http://www.w3.org/2000/svg" viewBox="0 0 300.34 293.28"><defs><style>.d{fill:#a4a4a4;}</style></defs><g id="a"/><g id="b"><g id="c"><path class="d" d="M224.63,176.92c-12.51,0-25.02-.02-37.54,0-7.25,.02-8.06-.42-6.98,8.03,2.1,16.48,3.64,33.01,3.22,49.62,.14,12.51,.01,25.02,.14,37.53,.06,5.49-1.8,10.45-3.74,15.41-2.01,5.33-9.19,7.73-13.67,3.83-7.41-13.27-10.21-28.98-14.25-43.61-4.92-20.5-10.61-40.85-14.39-61.61-.47-2.82-3.44-3.33-5.86-3.22-4.96,.2-9.81-.7-14.65-1.55-24.55-4.4-49.3-9-72.63-18.1-13.68-5.47-27.69-10.41-40.32-18.15-2.57-1.58-4.18-3.72-3.93-7.07,.2-8.22-1.23-17.9,6.95-22.89,6.73-4.61,14.08-7.47,22.35-7.56,15.61-.16,31.03,2.31,46.53,3.75,16.55,1.62,32.69,5.41,48.91,8.91,2.14,.37,3.02-.17,3.79-2.22,1.6-4.22,3.11-8.47,4.54-12.74,10.05-29.49,18.96-59.38,30.59-88.29,1.14-3.05,2.58-6.05,2.75-9.4,.07-1.31,.76-2.38,1.76-3.12,2.3-1.51,9.06-6.18,10.93-3.85,2.35,3.1,4.58,6.1,4.48,10.44-.36,15.58-.1,31.18-.72,46.75-.51,12.68-1.99,25.32-2.96,37.98-.74,8.38-.06,16.83-1.23,25.18-.17,1-.14,2.05-.13,3.07,.03,2.96,.28,3.38,3.4,4.12,36.42,7.98,81.94,7.33,113.56,28.36,2.5,2.1,3.77,4.82,4.53,7.84,2.55,8.13-12.78,10.27-18.27,10.81-19.02,1.67-38.09,1.77-57.16,1.74Z"/></g></g></svg>