<?xml version="1.0" encoding="UTF-8"?>
<svg id="_レイヤー_2" data-name="レイヤー 2" xmlns="http://www.w3.org/2000/svg" viewBox="0 0 191.42 170.21">
  <defs>
    <style>
      .cls-1 {
        fill: #a4a4a4;
      }
    </style>
  </defs>
  <g id="parts">
    <path class="cls-1" d="M88.12,139.86c8.88-.02,16.67-.78,24.38-2.32,2.37-.35,5.18-1.07,6.44,1.59,3.48,5.93,7.44,11.5,12.06,16.6,2.91,3.05,.56,3.92-2.49,4.93-16.4,5.4-33.42,9.07-50.74,9.19-5.89,.97-11.59-.24-17.35-1.15-4.83-.97-10.12-1.02-14.39-3.7-14.18-8.68-26.25-20.39-35.26-34.39-2.51-3.81-5.04-7.6-7.6-11.36-.58-.86-.91-1.76-1.06-2.76-1.11-7.75-3.27-15.52-1.32-23.31,1.41-10.12,5.49-19.91,10.35-28.84,3.1-4.44,6.18-8.92,9.47-13.23,5.12-6.31,11.44-11.58,17.05-17.45,11.96-11.04,27.1-18.05,41.69-24.95,2.11-.92,4.25-1.71,6.47-2.2C98.15,3.69,110.47-.01,123.24,0c1.59-.03,3.1,.31,4.62,.79,11.74,4.05,24.3,7.29,34.84,13.94,10.35,9.9,19.09,21.42,23.75,35.09,2.74,6.54,3.84,13.38,4.32,20.39,2.12,15.95-.83,32.35-9.7,45.91-7.58,14.27-13.07,19.12-25.8,28.55-1.59,1.19-3.32,2.22-5.01,3.28-.7,.44-1.42,.22-1.86-.44-3.35-4.98-5.87-10.46-9.01-15.55-1.06-1.74-.94-3.13,.11-4.73,9.26-14.38,19.79-28.78,23.52-45.77,.38-9.67-4.07-19.02-7.84-27.74-7.26-10.62-18.82-17.61-30.2-23.19-19.38-9.51-51.53,5.19-69.39,14.49-3.39,1.79-5.77,4.65-8.23,7.41-5.32,5.96-10.38,12.16-14.85,18.79-6.81,9.87-11.36,21.47-7.06,33.35,.57,2.08,1.6,3.9,3.03,5.58,14.59,16.94,37.03,30.24,59.65,29.71Z"/>
  </g>
</svg>