<?xml version="1.0" encoding="UTF-8"?><svg xmlns="http://www.w3.org/2000/svg" viewBox="0 0 322.59 138.56"><defs><style>.d{fill:#a4a4a4;}</style></defs><g id="a"/><g id="b"><g id="c"><path class="d" d="M141.11,4.68c6.56,4.02,10.52,10.86,13.27,18.42,3.09,8.5,5.66,17.2,8.69,25.72,3.99,11.21,8.2,22.37,15.05,32.22,3.7,5.32,7.68,10.47,11.8,15.48,4.2,5.11,9.14,6.55,15.03,4.28,13.04-5.03,25.07-11.69,34.65-22.22,7.03-7.72,14.25-15.27,21.46-22.82,5.85-6.12,11.75-12.2,17.77-18.15,1.57-1.55,3.55-2.82,5.56-3.73,1.12-.5,2.95-.45,4.03,.14,4.27,2.34,8.12,5.23,9.85,10.1,2.17,6.14,15.13,45.38,20.86,58.35,.68,1.54,1.39,3.08,2.14,4.59,2.13,4.31,1.84,5.51-2.11,8.5-.23,.17-6.55,3.73-9.46,5.37-4.3-2.23-8.12-4.94-10.85-9.13-2.61-4.01-13.48-17.73-16.13-20.66-2.81-3.11-6.13-4.43-10.59-3.96-9.4,.98-17.64,4.25-24.15,11.1-9.38,9.88-19.96,18.31-30.96,26.26-1.36,.99-2.54,2.23-3.8,3.36-12.65,11.31-27.14,12.9-42.85,8.14-2.24-.68-2.9-2.43-3.55-4.37-4.16-12.33-8.47-24.62-12.54-36.98-4.16-12.63-8.07-25.34-12.13-38-1.73-5.39-3.55-10.75-5.39-16.09-.55-1.59-1.19-3.17-2.02-4.63-.87-1.53-3.05-2.09-4.45-1.16-1.88,1.25-3.75,2.57-5.4,4.1-11.36,10.57-76.73,74.04-84.52,81.81-2,1.99-4.28,2.82-6.94,2.25-10.51-2.26-21-4.61-31.49-6.98C1.21,115.8,0,115.11,0,114.68c.02-1,.38-2.26,1.06-2.96,21.43-21.76,44.18-42.08,68.31-60.79,8.47-6.57,45.5-36.19,54.84-45.22,.2-.2,.35-.45,.57-.63,7.9-6.48,7.5-6.92,16.32-.4Z"/></g></g></svg>