<?xml version="1.0" encoding="UTF-8"?><svg xmlns="http://www.w3.org/2000/svg" viewBox="0 0 250.21 147.21"><defs><style>.d{fill:#a4a4a4;}</style></defs><g id="a"/><g id="b"><g id="c"><path class="d" d="M116.33,12.04c4.42,2.95,9.02,5.67,13.19,8.93,3.72,2.9,6.81,3.25,11.03,.66,7.11-4.38,14.52-8.38,22.09-11.93,19.04-8.92,37.88-6.06,56.22,2.24,3.94,1.78,7.16,5.39,10.36,8.52,4.97,4.84,9.94,9.75,14.38,15.07,4.96,5.95,7.65,12.73,6.25,20.91-2.1,12.28-3.74,24.64-5.44,36.98-.54,3.96-1.99,7.29-4.51,10.46-10.08,12.7-20.89,24.78-34.41,33.78-16.05,10.69-35.36,14.1-51.89,1.36-10.67-8.22-21.26-16.54-31.78-24.95-4.87-3.9-4.81-4.02-9.65-.02-10.36,8.56-21.45,15.69-35.17,17.49-2.21,.29-4.49,.56-6.69,.34-7.3-.71-14.65-1.27-21.85-2.63-4.74-.9-9.52-2.56-13.77-4.82-7.2-3.83-13.91-8.56-21-12.62-4.98-2.86-7.87-7.12-9.1-12.45C.65,82.33-1.2,65.12,.83,47.66c.48-4.11,1.97-7.86,4.56-11.2,3.76-4.84,7.4-9.76,10.96-14.75C23.92,11.09,34.87,5.94,47.02,3,58.02,.35,69.31,.45,80.55,.45c1.23,0,2.49,.25,3.67,.04,10.14-1.8,18.74,1.51,26.53,7.76,1.75,1.4,3.72,2.52,5.59,3.77v.02Z"/></g></g></svg>