<?xml version="1.0" encoding="UTF-8"?><svg xmlns="http://www.w3.org/2000/svg" viewBox="0 0 190.07 86.25"><defs><style>.d{fill:#a4a4a4;}</style></defs><g id="a"/><g id="b"><g id="c"><path class="d" d="M1.06,61.14c3.36-5.11,20.42-29.64,24.56-35.97,4.41-6.76,10.53-11.48,17.48-15.02C56.06,3.55,69.88-.07,84.49,0c6.95,.03,13.9,.56,20.84,1.06,7.48,.54,14.3,2.97,20.72,6.98,11.1,6.94,52.7,32.29,62.21,38.3,2,1.27,2.34,2.27,1.05,3.94-3.24,4.22-6.53,8.4-9.89,12.52-1.41,1.73-2.16,1.84-4.22,.55-3.64-2.28-35.24-22.83-49.31-27.14-14.24-4.36-28.67-6.86-43.57-4-2.01,.39-4.01,.87-5.97,1.44-3.61,1.05-6.66,2.92-9.2,5.81-10.83,12.31-32.44,43.58-33.84,45.84-.62,1.02-1.61,1.19-2.64,.6-.89-.51-29.11-19.76-29.44-20.02-1.55-1.22-1.68-1.85-.17-4.76Z"/></g></g></svg>