<?xml version="1.0" encoding="UTF-8"?><svg xmlns="http://www.w3.org/2000/svg" viewBox="0 0 222.49 169.12"><defs><style>.d{fill:#a4a4a4;}</style></defs><g id="a"/><g id="b"><g id="c"><path class="d" d="M12.89,28.68c.68-1.03,1.47-1.99,2.01-3.09,2.68-5.51,6.66-9.78,12.02-12.75,6.27-3.48,12.5-7.03,18.84-10.37C50.03,.21,54.59-.45,59.48,.29c14.17,1.69,28.48,5.81,39.24,15.68,3.64,2.37,8.55,9.36,12.72,4.56,4.18-4.78,9.8-7.05,15.54-9.33,9.48-4.24,19.54-3.83,29.61-2.96,.81,.05,1.65,.21,2.4,.5,7.41,2.94,14.91,5.69,22.17,8.96,4.46,2.01,8.54,4.83,12.8,7.27,2.17,1.24,4,2.79,5.26,5.02,5.25,9.27,10.56,18.5,15.85,27.75,3.8,11.63,6.96,23.61,7.42,35.98,.33,22.94-11.45,52.96-28.12,68.86-4.7,4.13-10.15,7.09-16.73,6.43-7.54-.76-15.09-1.53-22.56-2.76-7.37-1.22-13.98-4.67-20.28-8.52-6.48-3.6-12.16-8.31-17.81-13.08-1.85-1.5-3.15-1.73-5.33,.29-2.09,1.94-4.55,3.49-6.78,5.29-3.23,2.62-6.62,4.54-10.92,5.13-4.23,.58-8.3,2.25-12.51,3.07-3.8,.74-7.7,1.1-11.57,1.4-1.59,.13-3.36,0-4.82-.57-5.7-2.26-11.33-4.72-16.94-7.2-8.3-5.17-15.39-12.25-21.72-19.73C14.11,117.29,2.94,99.72,.64,80.1-1.61,62.06,2.01,43.63,12.97,28.73l-.07-.05Z"/></g></g></svg>