<?xml version="1.0" encoding="UTF-8"?>
<svg id="_レイヤー_2" data-name="レイヤー 2" xmlns="http://www.w3.org/2000/svg" viewBox="0 0 123.63 151.28">
  <defs>
    <style>
      .cls-1 {
        fill: #a4a4a4;
      }
    </style>
  </defs>
  <g id="parts">
    <g>
      <path class="cls-1" d="M75.68,110.42c1.37-2.52,2.42-5.2,3.68-7.78,7.77-17.82,22.17-30.79,36.19-43.69,1.17-2.06,11.33-8.56,7.03-10-1.6-.37-3.22-.65-4.82-.99-15.37-3.6-32.58-4.62-43.99-16.88C67.21,24.58,45.04,1.56,44.23,.68c-3.17-2.59-2.64,2.95-2.68,4.73-.59,2.17-1.45,4.31-1.73,6.52-3.71,22.56-11.94,45.03-27.26,62.31-3.81,4.29-7.57,8.63-11.33,12.97-1.88,2.18-1.7,2.65,1.22,3.56,9.26,2.18,17.83,6.02,26.33,10.2,20.07,9.87,28.03,32.04,38.85,50.03,1.8-13.7,1.25-28.09,8.05-40.58Z"/>
      <path class="cls-1" d="M67.55,151.28s.11-.22,.11-.23h0s-.02-.04-.03-.05c0,.04,0,.08-.01,.12l-.07,.16Z"/>
    </g>
  </g>
</svg>