<?xml version="1.0" encoding="UTF-8"?>
<svg id="_レイヤー_2" data-name="レイヤー 2" xmlns="http://www.w3.org/2000/svg" viewBox="0 0 311.18 78.78">
  <defs>
    <style>
      .cls-1 {
        fill: #a4a4a4;
      }
    </style>
  </defs>
  <g id="parts">
    <path class="cls-1" d="M1.83,49.93c.46-11.65,1.03-23.3,1.49-34.96,.16-1.61-.15-5.42,2.42-4.43,2.26,.96,4.48,2.01,6.72,3.03,8.75,3.99,40.99,19.11,48.37,22.67,2.46,.61,10.01,6.72,10.02,1.54,.18-12.08,.21-24.16,.28-36.23,.83-6.23,16.57,8.47,20.54,9.46,13.51,8.16,26.48,17.13,39.41,26.16,6.13,4.28,6.74,4.06,7.66-3.11,1.25-9.74,2.25-19.52,3.36-29.28,.12-1.98,.61-5.9,3.28-3.84,18.77,14.84,37.14,30.24,56.41,44.44,1.27,.93,2.4,.46,2.64-1.14,.93-6.28,3.74-28.62,4.33-33.5,.22-1.8,1.38-2.24,3.06-1.12,32.89,22.65,66.63,44.1,99.04,67.45,.25,.18,.38,.74,.32,1.07-.05,.27-.49,.66-.75,.66-77.06-3.69-159.68-2.98-236.72-7.21-10.02-.39-57.75-1.66-73.69-3.3,0,0,1.31-14.33,1.83-18.35Z"/>
  </g>
</svg>