<?xml version="1.0" encoding="UTF-8"?>
<svg id="_レイヤー_2" data-name="レイヤー 2" xmlns="http://www.w3.org/2000/svg" viewBox="0 0 178.06 225.69">
  <defs>
    <style>
      .cls-1 {
        fill: #a4a4a4;
      }
    </style>
  </defs>
  <g id="parts">
    <path class="cls-1" d="M171.19,3.94c-7.04,12.49-13.74,25.31-15.98,39.69-1.25,7.9,.15,15.48,1.29,23.18,2.49,16.91,7.7,33.12,12.61,49.39,4.04,13.38,6.64,27.05,8.61,40.84,.93,6.54-.08,13.16-2.26,19.33-3.76,11.09-12.1,20.02-19.65,28.74-6.44,6.75-14.09,11.76-23.09,14.61-9.62,3.04-19.59,4.3-29.49,5.88-.79,.13-1.67,.12-2.44-.08-16.51-3.09-29.76-11.95-42.27-22.69-3.79-3.11-5.5-7.61-7.71-11.72-2.62-4.86-4.9-9.91-7.09-14.98-.79-1.82-1.13-3.92-1.28-5.93-1.23-16.24-4.74-32.01-9.82-47.45-3.6-10.93-9.83-19.71-20.43-24.97-4.03-2-7.9-4.31-11.84-6.5-.16-.09-.22-.34-.33-.51,.16-.37,.22-.87,.5-1.09,5.49-4.12,11.44-7.1,18.51-7.23,27.44-1.62,41.82,3.54,66.44,14.27,3.69,1.81,3.75-3.09,4.7-5.36,8.18-31.43,24.39-63.87,54.71-78.82,8.02-4.11,16.05-8.18,24.07-12.31,2.3-1.18,3.16,2.07,2.26,3.69Z"/>
  </g>
</svg>