<?xml version="1.0" encoding="UTF-8"?>
<svg id="_レイヤー_2" data-name="レイヤー 2" xmlns="http://www.w3.org/2000/svg" viewBox="0 0 257.91 274.37">
  <defs>
    <style>
      .cls-1 {
        fill: #a4a4a4;
      }
    </style>
  </defs>
  <g id="parts">
    <path class="cls-1" d="M257.84,135.81c.27,6.86-.19,13.61-4.05,19.53-6.25,10.86-12.56,21.74-22.87,29.31-24.04,18.27-23.48,52.08-38.62,76.26-2.85,4.37-7.17,7.8-10.99,11.49-.79,.77-2.2,1-3.37,1.25-4.44,.8-9.15,1.64-12.84-1.67-18.18-12.93-26.72-34.61-43.51-48.86-13.37-9.89-30.03-13.97-45.49-19.47-26.23-8.78-52.19-24.7-64.82-50.19-1.8-3.9-4-7.62-6.15-11.34-6.32-11.96-5.66-26.09-4-39.07,1.07-10.68,10.14-16.93,17.89-23.08,5.58-4.57,11.59-8.49,18.29-11.19,6.45-2.59,11.74-6.4,15.63-12.31C67.06,37.61,71.24,4.77,99.05,1.48c25.93-3.98,51.86-.49,72.18,17.28,1.22,.98,2.21,2.46,2.86,3.91,3.11,6.91,6.06,13.88,9.05,20.84,1.94,6.42,5.22,12.03,11.08,15.69,15.55,11.15,33.8,19.34,46.04,34.43,12.76,13.21,18.28,23.39,17.46,42.19,.04,0,.08,0,.12,0Z"/>
  </g>
</svg>