<?xml version="1.0" encoding="UTF-8"?>
<svg id="_レイヤー_2" data-name="レイヤー 2" xmlns="http://www.w3.org/2000/svg" viewBox="0 0 211.69 59.75">
  <defs>
    <style>
      .cls-1 {
        fill: #a4a4a4;
      }
    </style>
  </defs>
  <g id="parts">
    <path class="cls-1" d="M211.69,56.62c-.33,.38-.64,1.07-1.05,1.14-1.81,.32-3.65,.63-5.47,.64-11.26,.09-22.52,.01-33.77,.14-49.53,.85-99.07,1.17-148.61,1.2-6.34,0-12.68-.12-19.03-.2-1.67,.03-4.81-.16-3.4-2.44C17.03,39.4,34.65,22.6,51.09,4.67c6.77-7.89,7.24-4.47,14.34,.59,12.9,10.45,26.51,19.91,40.29,29.14,1.82,1.22,3.5,1.75,5.71,.92,12.62-4.07,24.96-8.88,37.21-13.95,6.13-2.29,12.15-4.81,17.98-7.81,1.41-.72,2.77-.4,3.93,.74,13.98,13.83,28.15,27.56,41.15,42.31Z"/>
  </g>
</svg>