<?xml version="1.0" encoding="UTF-8"?>
<svg id="_レイヤー_2" data-name="レイヤー 2" xmlns="http://www.w3.org/2000/svg" viewBox="0 0 84 115.24">
  <defs>
    <style>
      .cls-1 {
        fill: #a4a4a4;
      }
    </style>
  </defs>
  <g id="parts">
    <path class="cls-1" d="M16.93,101.63c-2.21-2.2-4.89-4.25-6.11-7.19-2.54-6.63-5.5-13.08-7.41-19.96-3.23-12.88-5.82-27.16,.34-39.55,3.01-6.23,6.27-12.34,9.4-18.51,1.75-3.44,4.18-6.03,7.92-7.51,5.03-2,9.85-4.55,14.88-6.56,8.72-3.26,19.62-3.58,27.51,1.93,2.08,1.59,4.16,3.2,6.29,4.71,4.9,3.78,8.58,9.12,10.53,14.9,6.3,24.63,4.63,50.79-5.22,74.31-2.37,5.92-7.03,10.09-11.95,13.81-16.44,6.87-34.1,2.46-46.18-10.39Z"/>
  </g>
</svg>