<?xml version="1.0" encoding="UTF-8"?>
<svg id="_レイヤー_2" data-name="レイヤー 2" xmlns="http://www.w3.org/2000/svg" viewBox="0 0 112.08 150.35">
  <defs>
    <style>
      .cls-1 {
        fill: #a4a4a4;
      }
    </style>
  </defs>
  <g id="parts">
    <path class="cls-1" d="M111.91,63.01c-14.96,7.92-30.27,15.36-45.5,22.78-3.46,1.69-3.74,2.07-2.94,5.77,2.75,12.62,5.64,25.21,8.57,37.79,1.26,5.56,1.27,5.63-3.96,7.1-9.38,2.64-18.77,5.24-28.17,7.79-7.44,2.02-14.89,3.96-22.36,5.88-2.23,.57-2.89,.17-3.61-1.86-4.55-16.37-8.55-32.9-12.89-49.33-.31-2.27-2.53-6.14,.55-7.28,10.53-3.54,21.25-6.43,31.88-9.65,7.16-2.2,6.88-.98,5.69-8.61-2.61-16.81-7.25-33.2-11.34-49.69-.82-3.3-.55-3.84,2.68-5.04,14.88-5.5,29.78-10.92,44.6-16.59,3.29-.92,7.49-4.44,9.17,.53,7.98,18.77,17.24,36.96,26.24,55.25,.63,1.72,2.03,3.24,1.39,5.16Z"/>
  </g>
</svg>