<?xml version="1.0" encoding="UTF-8"?><svg xmlns="http://www.w3.org/2000/svg" viewBox="0 0 216.4 175.3"><defs><style>.d{fill:#a4a4a4;}</style></defs><g id="a"/><g id="b"><g id="c"><g><path class="d" d="M215.64,130.57c.1,.32,.26,.6,.26,.89,.02,3.61,.45,38.77,.49,39.9,.05,1.18-.26,1.56-1.33,1.61-2.68,.12-52.69,1.28-58.78,1.41-.1,0-.21,.02-.31,.02-1.03,0-1.39-.26-1.42-1.18-.1-2.58-.77-41.03-.8-43.3-.02-1.34,.21-1.64,1.6-1.69,1.65-.07,3.3-.04,4.95,.01,11.04,.35,22.07,.68,33.11,1.1,7.11,.27,21.92,1.16,22.24,1.24Z"/><path class="d" d="M134.62,131.44c-.86,12.36-1.92,24.68-3.58,36.95-.27,2.12-.46,4.25-.68,6.37-.05,.43-.25,.58-.66,.53-4.03-.56-8.06-1.07-12.08-1.64-9.23-1.61-18.51-2.76-27.81-3.87-2.48-.34-4.99-.43-7.47-.84-1.09,0,.08-5.38,.04-6.28,1.21-12.97,2.43-25.94,3.74-38.9,0-.62,.54-.55,1.03-.52,4.44,.57,8.88,1.17,13.31,1.76,9.04,1.45,18.16,2.41,27.21,3.83,2.11,.31,4.24,.53,6.35,.87,.85,.06,.56,1.15,.61,1.74Z"/><path class="d" d="M2.04,70.56c.49-3.26,.5-3.33,4.3-2.68,7.29,1.25,14.73,1.25,21.98,2.8,3.85-.25,7.59,.92,11.38,1.01,3.72,.09,7.34,.83,11.01,1.09,3.31,.16,6.64,.24,9.9,.94,1.6,.36,2.07,.97,2.01,2.56-.08,2.09-.15,4.17-.25,6.26-.25,4.91-.53,9.81-.77,14.72,.12,1.83,.22,3.7-.4,5.47-.11,.36-.69,.78-1.07,.8-1.59,.09-3.2,.14-4.79,.01-4.29-.36-8.57-.79-12.85-1.25-1.96-.21-3.89-.72-5.88-.37-.35,.06-.75,0-1.1-.08-4.47-1.03-9.07-1.08-13.58-1.22-4.19-.12-8.28-1.26-12.5-.84-1.08,.11-2.19-.3-3.3-.39-1.97-.44-6.19,.85-6.12-2.19,.16-2.94,.41-5.88,.6-8.82,.22-6.1,.83-11.35,1.43-17.83Z"/><path class="d" d="M132.59,43.35c-.79,.08-15.68,.78-22.54,1.03-6.62,.24-13.25,.43-19.87,.64-2.96,.09-9.82,.26-10.29,.21-1.33-.12-1.67-.42-1.72-1.73-.07-1.65,.46-21.29,.76-29.45,.12-3.31,.32-6.62,.59-9.93,.15-1.78,.71-2.39,2.45-2.42,4.02-.07,8.04-.02,12.07,.05,8.17,.14,16.32,.8,24.47,1.44,3.06,.24,10.64,.41,11.35,.48,2.79,.28,3.15,.58,3.24,3.54,.17,5.44,.31,10.88,.33,16.32,.02,5.9-.1,18.44-.21,18.76-.15,.41-.45,.77-.62,1.06Z"/><path class="d" d="M153.37,9.15c.43-2.38,1.11-2.97,4.7-2.62,17.95,1.75,35.89,3.58,53.85,5.21,3.19,.38,3.83,1.19,3.52,4.32-.85,8.56-1.81,17.11-2.7,25.67-.2,1.95-1.15,3.1-3.18,3-3.6-.18-7.2-.4-10.8-.68-10.78-.84-21.56-1.73-32.34-2.58-4.42-.35-8.86-.56-13.28-.94-2.73-.23-3.45-1.05-3.18-3.7,1.03-9.79,1.99-17.42,3.4-27.68Z"/><path class="d" d="M83.05,73.35c1-3.51,2.57-8.02,7.61-6.99,14.43,.76,28.86,1.61,43.28,2.45,4.12-.25,6.41,2.46,5.24,6.46-2.31,5.78-1.68,31.13-9.06,29.63-16.71-.97-33.33-3.51-49.99-5.2-2.69-.45-3.55-1.58-2.91-4.12,1.78-7,3.66-13.98,5.83-22.24Z"/><path class="d" d="M59.09,.23c.06,.47,3.22,38.81,3.24,39.87,.02,.97-.21,1.17-1.27,1.22-.47,.02-55.6-.12-56.9-.18C3.58,27.72,3.02,14.49,2.46,1.36c.21-.16,.29-.24,.39-.29C2.95,1.02,40.14,.45,58.62,0c.1,0,.21,.1,.47,.23Z"/><path class="d" d="M6.57,129.06c.36-.19,.66-.46,.97-.48,.96-.06,52.96,2.83,55.24,3.04,1.22,.11,1.49,.46,1.42,1.59-.04,.72-3.82,34.85-4.15,37.36-.16,1.19-.47,1.45-1.67,1.31-3.71-.41-53.62-5.08-54.33-5.19-.72-.11-.97-.63-.93-1.3,.05-.84,3.23-35.02,3.46-36.34Z"/><path class="d" d="M159.36,110.59c-.15-.75-.32-1.41-.4-2.09-.77-6.5-3.7-32.77-4.34-39.41-.29-2.98-.22-3.03,2.74-3.03,15.05-.02,48.59-.1,50.3-.03,2.09,.09,2.15,.14,2.23,2.26,.32,8.89,1.02,33.14,1.02,36.37,0,2.09-.04,2.15-2.14,2.33-8.96,.76-40.2,3.13-46.86,3.58-.79,.05-1.59,.01-2.56,.02Z"/></g></g></g></svg>