<?xml version="1.0" encoding="UTF-8"?><svg xmlns="http://www.w3.org/2000/svg" viewBox="0 0 194.29 155.1"><defs><style>.d{fill:#a4a4a4;}</style></defs><g id="a"/><g id="b"><g id="c"><path class="d" d="M183.35,80.1c2.74,10.08,5.9,20.07,8.12,30.26,2.88,13.28,3.14,26.84,2.58,40.39-.18,4.33-.32,4.35-4.48,4.36-5.38,0-10.76-.01-16.13-.1-3.1-.05-3.11-.12-3.12-3.39-.03-8.45-.08-16.9-.06-25.35,.04-14.85-1.75-29.56-5.71-43.77-5.72-20.52-15.69-38.77-33.01-52.02-5.1-3.91-10.71-7.25-16.38-10.28-4.92-2.63-10.34-3.6-16.08-2.67-13.78,2.24-25.69,8.1-35.48,18.04-9.88,10.01-18.05,21.34-25.07,33.51-.91,1.59-1.7,3.3-2.24,5.05-4.25,13.71-7.35,27.66-7.37,42.08-.01,10.6,.47,21.19,.73,31.79q.14,5.66-5.62,5.55c-6.76-.12-13.52-.19-20.28-.32-3.8-.07-3.85-.11-3.73-3.85,.89-26.82,4.04-53.3,11.53-79.19,3.26-11.26,6.64-22.4,12.85-32.46,5.38-8.73,12.16-16.22,20.37-22.35,7.16-5.35,14.55-10.34,23.54-12.23C77.73,1.16,92.8-.54,102.34,.16c11.22,.82,14.27,1.41,25.08,4.58,2.18,.64,6.93,4.05,8.77,5.32,5.43,3.76,10.76,7.69,15.96,11.76,11.25,8.8,18.35,20.59,23.32,33.7,3.05,8.04,7.98,24.56,7.88,24.58Z"/></g></g></svg>