<?xml version="1.0" encoding="UTF-8"?>
<svg id="_レイヤー_2" data-name="レイヤー 2" xmlns="http://www.w3.org/2000/svg" viewBox="0 0 298.04 274.02">
  <defs>
    <style>
      .cls-1 {
        fill: #a4a4a4;
      }
    </style>
  </defs>
  <g id="parts">
    <path class="cls-1" d="M112.74,0c13.29,3.68,25.76,8.77,38.6,13.63,15.03,5.61,27.19,14.85,37.41,26.98,4.63,6.17,11.43,11,14.22,18.33,8.49,19.55,16.01,39.45,23.11,59.53,3.44,8.99,6.88,18,10.96,26.7,9.46,19.84,24.56,36.39,40.12,51.67,6.47,6.25,13.68,11.72,20.16,17.98,1.05,1.05,.96,2.1-.16,3.21-8.07,6.91-67.34,49.41-74.78,54.85-1.9,1.38-3.74,1.63-5.59,.07-2.5-2.1-5.33-3.96-7.33-6.46-4.84-6.08-9.58-12.28-13.82-18.79-16.31-27.03-22.11-59.22-40.31-85.42-8.26-12.9-20.23-22.47-32.42-31.5-9.44-7.39-20.08-12.56-30.96-17.46-10.83-4.88-21.56-9.99-32.68-14.2-8.43-3.19-16.92-6.21-25.3-9.51-10.83-4.34-21.35-9.43-32.63-12.52-.52-.17-1.36-.72-1.32-.99,.11-.7,.44-1.59,.99-1.97C37.75,48.75,75.28,24.29,112.74,0Z"/>
  </g>
</svg>