<?xml version="1.0" encoding="UTF-8"?><svg xmlns="http://www.w3.org/2000/svg" viewBox="0 0 311.2 159.03"><defs><style>.d{fill:#a4a4a4;}</style></defs><g id="a"/><g id="b"><g id="c"><path class="d" d="M26.63,25.42c12-6.79,24.42-12.01,36.93-17.66C78.15,1.11,93.28-.96,109.09,.39c7.63,1.09,15.85-.3,23.02,2.91,19.83,7.82,39.22,16.57,58.44,25.75,8.79,3.92,17.59,7.87,26.63,11.13,20.72,7.34,43.1,8.36,64.91,8.17,8.99-.16,17.96-1.38,26.96-1.54,1.48,0,2.16,.81,2.16,2.38-.82,10.59-12.67,82.55-14.1,91.66-.36,2.32-1.49,3.8-3.91,4-3.25,.28-6.57,.97-9.75,.61-7.72-.87-15.46-1.91-23.06-3.51-30.64-7.58-57.5-26.24-88.91-31.9-14.96-3.28-30.2-1.58-45.2,.65-11.9,1.44-23.08,5.32-34.23,9.55-11.11,4.21-22.31,8.18-33.15,13.07-8.21,3.71-16.36,7.57-24.61,11.17-10.73,4.58-21.76,8.43-31.93,14.22-.49,.25-1.47,.45-1.63,.24-.42-.57-.81-1.44-.7-2.09C8.08,112.91,17.32,69.08,26.63,25.42Z"/></g></g></svg>