<?xml version="1.0" encoding="UTF-8"?>
<svg id="_レイヤー_2" data-name="レイヤー 2" xmlns="http://www.w3.org/2000/svg" viewBox="0 0 146.52 146.84">
  <g id="parts">
    <path class="cls-1" d="M79.12,0c.86,2.09,1.57,3.41,1.96,4.82,3.55,12.74,10.03,24.19,16.19,35.72,3.32,6.22,8.71,11.23,14.79,14.9,7.36,4.44,15.16,8.15,22.69,12.32,3.15,1.75,6.29,3.62,9.05,5.91,3.82,3.17,3.61,3.64-.68,5.88-7.94,4.15-15.94,8.19-23.77,12.54-12.43,6.9-22.78,16.09-29.9,28.56-4.44,7.77-8.7,15.64-13.06,23.46-.4,.72-.89,1.4-1.73,2.73-1.62-2.56-3.03-4.66-4.31-6.83-8.02-13.66-16.07-27.31-23.99-41.03-3.6-6.24-8.38-11.29-14.22-15.47-8.97-6.42-17.84-12.97-26.74-19.49-1.25-.92-2.54-1.83-3.58-2.96-.84-.91-2.07-2.41-1.8-3.17,.34-.94,1.97-1.65,3.18-2.01,5.94-1.8,11.88-3.59,17.89-5.12,10.02-2.54,18.53-8.25,27.54-12.91,1.61-.83,2.97-2.37,4.1-3.84,5.9-7.64,11.65-15.39,17.53-23.04,2.7-3.52,5.56-6.9,8.83-10.95Z"/>
  </g>
</svg>