<?xml version="1.0" encoding="UTF-8"?>
<svg id="_レイヤー_2" data-name="レイヤー 2" xmlns="http://www.w3.org/2000/svg" viewBox="0 0 167.6 171.69">
  <defs>
    <style>
      .cls-1 {
        fill: #a4a4a4;
      }
    </style>
  </defs>
  <g id="parts">
    <path class="cls-1" d="M95.36,0c7.55,.09,14.74,1.88,21.78,4.38,3.25,1.16,6.48,2.39,9.69,3.64,.98,.38,1.94,.86,2.83,1.42,5.17,3.26,10.34,6.57,14.93,10.6,2.88,2.53,5.55,5.36,7.95,8.36,3.06,3.83,5.75,7.96,8.61,11.96,1.33,1.86,2.16,3.89,2.7,6.14,1.14,4.79,3.12,22.96,3.6,27.17,.4,3.49,0,6.86-1.01,10.22-1.68,5.63-4.04,10.98-6.59,16.23-2.49,5.14-5.2,10.18-7.96,15.19-1.02,1.85-2.4,3.5-3.69,5.18-6.9,8.98-14.51,17.31-22.77,25.05-1.92,1.8-4.15,3.32-6.39,4.73-6.85,4.33-13.55,8.95-20.95,12.32-4.71,2.14-9.54,4.03-14.4,5.83-1.96,.73-4.12,.98-6.21,1.3-3.27,.5-6.56,.89-9.85,1.31-1.05,.14-5.56,.73-6.73,.63-6.34-.55-12.73-.89-18.66-3.57-.61-.27-1.2-.62-1.83-.78-5.57-1.48-9.38-5.34-12.98-9.5-.61-.7-1.11-1.5-1.76-2.15-6.25-6.23-11.52-13.2-15.97-20.81-3.44-5.87-5.88-12.17-8.24-18.53-1.79-4.83-1.71-9.58-.92-14.48,.1-.65,.19-1.32,.19-1.98,.03-6.98,1.61-13.66,3.8-20.25,2.73-8.2,5.56-16.37,9.77-23.95,2.83-5.11,5.98-10.04,9-15.04,.27-.45,.59-.89,.96-1.27,3.38-3.51,3.39-3.2,5.78,.29,2.94,4.29,11.33,13.53,12.07,14.29,.76,.77,.77,1.58,.32,2.54-1.06,2.29-2.06,4.61-3.07,6.92-3.27,7.44-5.39,15.25-7.35,23.11,.02,6.65,.05,13.29,.07,19.94,1.74,7.24,3.67,14.38,6.74,21.23,1.92,4.27,4.24,8.27,6.68,12.22,1.64,2.65,3.72,4.83,6.63,6.12,1.94,.86,3.79,1.99,5.8,2.6,4.26,1.3,8.64,1.1,13.03,.53,8.57-1.1,16.28-4.72,24.07-8.1,2.19-.95,4.3-2.1,6.44-3.18,7.45-3.75,7.85-3.97,13.13-10.08,3.12-3.62,6.15-7.33,9.01-11.16,6.47-8.66,11.81-17.98,15.51-28.17,1.47-4.06,1.87-8.34,1.21-12.58-1.21-7.76-3.16-15.36-6.42-22.54-1.64-3.62-3.51-7.19-5.73-10.48-1.29-1.91-3.38-3.36-5.29-4.77-3.42-2.52-6.9-4.98-10.52-7.2-2.25-1.37-4.77-2.33-7.24-3.3-.95-.37-2.08-.3-3.14-.37-6.99-.44-13.68,1.32-20.44,2.72-7.97,1.65-15.47,4.75-23.13,7.33-3.16,1.06-5.2,.58-7.37-1.73-3.28-3.49-6.8-6.74-10.18-10.14-1.02-1.02-.97-1.72,.16-2.65,4.21-3.46,8.27-7.13,12.74-10.21,3.14-2.16,6.76-3.73,10.35-5.1,7.83-2.98,15.94-5.07,24.09-6.95,2.29-.53,4.75-.34,7.14-.48Z"/>
  </g>
</svg>