<?xml version="1.0" encoding="UTF-8"?>
<svg id="_レイヤー_2" data-name="レイヤー 2" xmlns="http://www.w3.org/2000/svg" viewBox="0 0 200.43 379.53">
  <defs>
    <style>
      .cls-1 {
        fill: #a4a4a4;
      }
    </style>
  </defs>
  <g id="parts">
    <path class="cls-1" d="M.26,165.28c1.76-39.31,7.36-80.48,28.55-114.43,6.7-10.09,13.72-19.92,21.47-29.23,6.47-7.76,14.17-14.21,22.05-20.46,1.88-1.49,3.62-1.41,5.68-.57,18.24,7.37,36.57,14.52,54.86,21.76,1.64,.75,5.59,1.37,4.3,3.89-6.71,10.54-13.63,20.97-20.52,31.39-11.13,16.2-14.41,35.57-17.26,54.6-1.86,19.25,4.16,38.34,9.27,56.68,4.61,13.99,7.37,28.64,13.95,41.92,17.64,38.18,44.06,71.35,75.94,98.63,2.36,2.19,2.44,2.83,.5,5.09-18.41,21.75-37.24,43.15-58.01,62.73-2.92,2.82-3,2.91-6.82,.64-20.78-12.62-42.35-24.53-61.14-40.03-35.16-32.04-47.61-45.78-64.86-90.83-4.55-17.79-4.54-36.61-7.45-54.76C-.33,183.31,0,174.3,.26,165.28Z"/>
  </g>
</svg>