<?xml version="1.0" encoding="UTF-8"?><svg xmlns="http://www.w3.org/2000/svg" viewBox="0 0 177.23 80.9"><defs><style>.d{fill:#a4a4a4;}</style></defs><g id="a"/><g id="b"><g id="c"><path class="d" d="M176.95,33.66c-25.44-1.17-50.66-6.78-76.05-9.2-15.58-1.56-40.71,2.58-51.02,15.46-10.45,12.85-23.22,23.8-32.83,37.37-2.15,3-4.36,4.5-8.24,3.06-2.81-1.04-5.94-1.2-8.81-3.21C9.01,59.66,18.3,41.9,33.72,29.2c8.65-7.21,17.45-14.29,26.53-20.97C69.87,1.27,80.74-.89,92.31,.32c25.85,2.99,51.86,5,77.48,9.63,3.32,.57,3.88,1.15,4.39,4.18,1.05,6.24,2.05,12.49,3.05,18.73,.03,.18-.13,.38-.28,.79Z"/></g></g></svg>