<?xml version="1.0" encoding="UTF-8"?><svg xmlns="http://www.w3.org/2000/svg" viewBox="0 0 198.79 222.02"><defs><style>.d{fill:#a4a4a4;}</style></defs><g id="a"/><g id="b"><g id="c"><path class="d" d="M196.56,95.91c0,16.11,2.15,58.97,2.17,60.92,.11,15.32,.06,39.08-.03,54.4-.05,7.68-.93,8.4-9.22,8.47-14.93,.12-29.91-.71-44.78,.29-25.09,1.68-50.19,1.61-75.29,1.86-15.32,.16-50.69,.27-53.03,.05-2.11-.2-3.62-1.37-4.03-3.6-.14-.77-3.97-83.01-5.54-99.78C5.1,100.2,.29,41.67,.06,30.69,0,28.34-.01,25.98,0,23.62c.02-2.64,1.31-4.47,3.75-5.4,1.46-.55,2.96-1.14,4.49-1.34,6.6-.89,13.23-1.48,19.81-2.48,6.56-1,47.7-5.61,58.87-6.86,1.56-.17,81.94-6.9,93.68-7.37,14.18-.58,13.14-.4,13.46,13.48,.16,7.01,1.84,28.06,1.85,31.58,.05,16.89,.44,50.68,.65,50.68Z"/></g></g></svg>