<?xml version="1.0" encoding="UTF-8"?><svg xmlns="http://www.w3.org/2000/svg" viewBox="0 0 308.57 118.06"><defs><style>.d{fill:#a4a4a4;}</style></defs><g id="a"/><g id="b"><g id="c"><path class="d" d="M.29,7.08c4.95,2.35,9.7,5.07,14.76,6.93,10.57,3.89,21.38,7.1,31.94,11.03,8.64,3.21,35.72,6.98,40.27,6.89,23.05-.47,45.29-4.85,66.76-13.49C179.05,8.38,209.33-.97,231.42,.08c8.41,.4,21.04-2.1,37.74,7.87,11.91,7.11,20.68,26.83,25.58,43.51,6.19,21.1,14,65.81,13.83,65.81-.82,.04-2.98,1.14-3.48,.66-6.57-6.37-12.04-13.85-18.48-20.34-12.79-12.89-27.54-23.08-43.98-30.59-8-3.65-21.86-10.81-31.26-8.36s-34.22,10.87-50.53,18.63c-6.51,3.1-13.92,4.3-20.89,6.45-10.14,3.12-20.34,3.36-30.71,1.28-7.16-1.43-14.38-2.62-21.6-3.67-6.47-.94-29.58-15.3-34.93-20.38-7.94-7.53-16.84-14-24.4-22C19.91,30.1,11.16,21.59,2.6,12.89,1.17,11.43-.73,10.09,.29,7.08Z"/></g></g></svg>