<?xml version="1.0" encoding="UTF-8"?><svg xmlns="http://www.w3.org/2000/svg" viewBox="0 0 245.94 178.31"><defs><style>.d{fill:#a4a4a4;}</style></defs><g id="a"/><g id="b"><g id="c"><path class="d" d="M228.39,46.07c5.59,7.34,9.06,15.69,11.6,24.48,3.68,11.93,7.12,22.53,5.57,35.21-1.6,20.03-8.05,39.94-20.35,56.01-2.57,3.23-6.18,5.45-9.24,8.18-5.64,3.18-11.21,6.67-17.74,7.54-9.9,.88-20.26,1.47-30.06-.48-14.24-4.61-29.6-3.74-44.26-1.86-13.53,2.02-27.27,1.23-40.86,.55-3.12-.2-6.41-.28-9.3-1.57-8.64-4.39-18.22-8.02-24.81-15.36-3.03-3.27-6.58-6.38-7.84-11-5.42-9.43-11.73-18-21.42-23.6-3.33-1.92-6.39-4.32-9.59-6.47-3.23-2.23-4.74-6.04-7.07-9.09-4.8-7.17-2.74-22.36-1.67-30.82C6.85,47.9,21.93,18.26,48.96,2.7c16.67-5.86,35.15-1.22,51.14,4.84,2.9,1.05,5.22,3.05,7.66,4.82,4.37,3.18,9.01,5.91,13.98,8.01,14.98,6.5,31.83,5.7,47.57,2.7,11.46-1.76,23.56-2.66,34.93,.02,1.31,.32,2.65,.87,3.74,1.65,8.01,5.86,15.47,12.65,20.41,21.35Z"/></g></g></svg>