<?xml version="1.0" encoding="UTF-8"?><svg xmlns="http://www.w3.org/2000/svg" viewBox="0 0 255.7 136.73"><defs><style>.d{fill:#a4a4a4;}</style></defs><g id="a"/><g id="b"><g id="c"><path class="d" d="M118.31,.08c23.29,5.91,45.33,16.2,68.06,24,13.07,6.24,52.74,23.61,59.64,24.5,3.28,2.14,9.02,1.41,9.65,6.42,.48,3.82-3.85,5.4-6.44,7.45-16.47,13.06-31.97,27.49-49.62,38.91-22.2,14.37-75.39,39.53-94.94,34.78-30.98-7.18-58.86-21.36-85.46-38.22-6.28-3.98-11.77-9.22-18.48-12.7-1.72-2.24-.1-4.95,2.21-6.57C19.91,62.5,37.05,46.51,53.83,30.15,63.13,21.08,92.12-1.48,118.31,.08Z"/></g></g></svg>