<?xml version="1.0" encoding="UTF-8"?>
<svg id="_レイヤー_2" data-name="レイヤー 2" xmlns="http://www.w3.org/2000/svg" viewBox="0 0 251.09 269.07">
  <defs>
    <style>
      .cls-1 {
        fill: #a4a4a4;
      }
    </style>
  </defs>
  <g id="parts">
    <path class="cls-1" d="M47.81,170.44c.4-3.83,.62-8.52,1.45-13.11,.53-2.96,.36-5.87,.58-8.8,.2-2.61-.82-4.17-3.27-5.21-3.18-1.36-6.19-3.09-9.3-4.61-3.75-1.83-7.23-4.07-10.68-6.43-4.35-2.98-8.17-6.38-11.16-10.75-1.56-2.28-3.42-4.36-5.15-6.53-3.41-4.29-5.44-9.24-6.9-14.46-.61-2.17-1.04-4.4-1.81-6.51C-.12,89.35-.11,84.51,.1,79.65c.04-1.01,.29-2.08,.69-3.01,4.08-9.39,8.3-18.7,14.37-27.05,2.71-3.73,5.92-6.88,9.95-8.96,5.23-2.7,10.55-5.34,16.05-7.41,7.19-2.7,14.65-2.69,21.87,0,4.37,1.63,8.54,3.83,12.78,5.79,.78,.36,1.51,.84,2.27,1.28,2.72,1.58,3.29,1.43,4.52-1.58,1.12-2.72,2.12-5.5,3.15-8.26,1.95-5.22,4.94-9.92,7.49-14.84,1.53-2.95,3.39-5.62,6.29-7.45,1.46-.92,2.9-1.93,4.16-3.11,3.94-3.68,8.9-4.55,13.92-4.95,7.84-.63,15.14,1.56,21.97,5.22,8.05,4.32,15,10.01,20.3,17.53,1.99,2.82,3.7,5.85,5.47,8.82,.8,1.34,1.46,2.76,2.13,4.17,.7,1.48,1.85,1.95,3.4,1.76,.86-.11,1.79,0,2.58-.26,5.3-1.8,10.32-.34,15.23,1.4,4.11,1.46,7.7,3.78,10.89,6.9,6.29,6.15,11.03,13.35,15.13,21.04,2.31,4.33,3.28,9.07,4.24,13.85,1.36,6.82,.09,13.42-1.08,20.04-.89,5.05-1.02,5,3.32,8.01,3.42,2.37,6.92,4.64,10.18,7.22,9.2,7.28,16.1,16.21,19.1,27.78,.22,.84,.48,1.68,.52,2.54,.42,10.63-.22,21.12-3.88,31.26-1.27,3.51-3.18,6.44-5.68,9.2-6.34,6.97-14.35,10.65-23.32,12.74-4.04,.94-8.05,2.07-12.05,3.18-2.11,.58-2.71,1.44-2.79,3.77-.05,1.39,0,2.78,0,4.17,.05,9.61-1.25,19.01-4.58,28.06-1.61,4.39-2.9,8.99-5.15,13.03-4.27,7.65-10.44,13.32-19.27,15.52-2.02,.5-3.99,1.25-6.04,1.54-4.82,.68-9.49,.84-14.28-1.12-5.84-2.39-11.24-5.39-16.42-8.9-1.91-1.29-3.39-2.9-4.54-4.91-3.45-6.01-7-11.97-10.52-17.95-.44-.75-.82-1.53-1.32-2.24-1.45-2.04-2.41-2.39-4.91-1.76-3.02,.76-6,1.75-9.05,2.33-1.83,.35-3.77,.19-5.65,.09-1.2-.06-2.37-.48-3.56-.67-9.35-1.5-17.3-5.68-24.26-12.1-6.16-5.68-11.6-11.93-16.49-18.69-.91-1.26-1.72-2.62-2.35-4.04-1.69-3.8-3.57-7.56-4.81-11.51-1.6-5.13-2.11-10.49-2.24-16.72Z"/>
  </g>
</svg>