<?xml version="1.0" encoding="UTF-8"?><svg xmlns="http://www.w3.org/2000/svg" viewBox="0 0 195.39 106.48"><defs><style>.d{fill:#a4a4a4;}</style></defs><g id="a"/><g id="b"><g id="c"><path class="d" d="M51.34,33.42c.35,.14,7.59-2.59,9.42-3.48,16.57-8.08,34.34-12.04,52.3-15.38,9.46-1.76,18.94-3.44,28.39-5.29,16.28-3.19,32.52-6.53,48.9-9.14,2.4-.38,3.05-.05,3.37,2.24,.61,4.25,1.16,8.51,1.59,12.79,.28,2.74-.09,3.14-2.89,3.57-7.48,1.13-14.97,2.32-22.48,3.25-9.75,1.21-19.51,2.34-29.3,3.24-11.47,1.06-22.7,3.37-33.8,6.28-4.72,1.24-9.15,3.55-13.77,5.18-7.98,2.82-15.22,7.03-22.34,11.51-7.29,4.59-14.6,9.14-22.01,13.53-2.74,1.63-4.71,3.77-6.39,6.42-7.37,11.57-14.85,23.07-22.29,34.59-.55,.86-1.13,1.71-1.74,2.53-.84,1.13-2.07,1.53-3.26,.91-4.5-2.34-9.53-3.55-13.62-6.82-1.4-1.12-1.55-2.13-1.38-3.63,.56-4.78,3.14-8.85,4.72-13.27,1.37-3.83,3.23-7.51,5.04-11.17,1.46-2.95,3.4-5.54,5.87-7.81,4.22-3.87,8.23-7.96,12.32-11.95,0,0,23.41-18.3,23.34-18.12Z"/></g></g></svg>