<?xml version="1.0" encoding="UTF-8"?><svg xmlns="http://www.w3.org/2000/svg" viewBox="0 0 190.28 221.32"><defs><style>.d{fill:#a4a4a4;}</style></defs><g id="a"/><g id="b"><g id="c"><path class="d" d="M118.95,221.32c-9.74-.04-22.88-6.28-27.35-7.75-1.13-.37-10.95-7.76-14.94-10.63-10.34-7.43-21.34-13.87-33.04-18.81-10.19-4.3-20.91-5.66-31.67-1.19-2.07,.86-9.83,4.37-11.44,2.71-1.29-1.34,.19-3.11,.55-4.63,1.42-5.85,12.13-20.25,14.24-22.47,6.79-7.18,14.43-13.27,22.97-18.29,7.45-4.37,15.19-8.05,23.19-11.25,.38-.15,.8-.22,1.17-.38,2.06-.93,2.44-1.91,1.36-3.81-1.21-2.14-12.07-20.46-15.45-27.95-5.16-11.46-8.81-23.42-10.27-35.85-.95-8.08-1.15-16.37,.9-24.45,2.76-10.9,5.54-21.79,8.36-32.66,.3-1.16,.88-2.27,1.43-3.34,.36-.7,1.74-.76,2.08-.08,1.01,2,2.04,4,2.85,6.08,1.77,4.58,3.34,9.24,5.1,13.83,3.41,8.9,8.57,16.78,14.75,23.94,2.11,2.44,4.8,4.51,7.53,6.27,12.73,8.21,25.58,16.12,39.33,22.68,13.27,6.33,39.75,22,40.3,22.25,8.28,3.79,14.32,10.14,19.31,17.47,6.99,10.28,9.23,30.87,10,38.78,.35,3.56-.87,7.26-1.27,10.92-1.17,10.74-6.64,19.63-12.15,28.52-9.6,16.06-26.23,24.14-38.06,26.7-6.38,1.38-12.87,2.23-19.8,3.39Z"/></g></g></svg>