<?xml version="1.0" encoding="UTF-8"?><svg xmlns="http://www.w3.org/2000/svg" viewBox="0 0 286.11 195.98"><defs><style>.d{fill:#a4a4a4;}</style></defs><g id="a"/><g id="b"><g id="c"><path class="d" d="M219.8,184.29c-18.3,.67-10.11,1.15-18.63-19.49-6.78-22.27-12.59-45.53-27.95-63.72-6.52-8.91-14.93-15.14-25.83-17.42-19.78-3.91-41.74-2.39-59.13,8.49-24.59,25.66-26.4,64.44-28.51,98.09-.09,2.21-.53,2.68-2.85,2.83-12.89,.89-25.78,1.59-38.69,1.88-3.82,.2-7.62,.82-11.45,.96-6.67,.25-7.07,.13-6.64-6.49,.55-15.13,1.52-30.25,3.01-45.32,2.01-24.26,6.2-48.81,18.27-70.28,12.63-21.92,30.49-42.54,53.63-53.52C95.41,12.37,116.04,4.13,137.77,.69c22.35-2.29,45.09,1.31,66.34,8.34,42.9,15.08,63.21,66.17,71.67,107.41,4.12,19.77,8.87,39.44,10.28,59.62,.24,4.34-.3,4.81-4.6,5.01-20.56,.95-41.13,1.74-61.66,3.31v-.09Z"/></g></g></svg>