<?xml version="1.0" encoding="UTF-8"?>
<svg id="_レイヤー_2" data-name="レイヤー 2" xmlns="http://www.w3.org/2000/svg" viewBox="0 0 141.41 227.36">
  <defs>
    <style>
      .cls-1 {
        fill: #a4a4a4;
      }
    </style>
  </defs>
  <g id="parts">
    <path class="cls-1" d="M141.41,217.12c-7.97,4.04-16.77,6.43-25.06,9.8-2.12,.79-3.77,.63-5.44-1.26-12.34-13.97-24.74-27.9-37.23-41.74-5.42-6.01-9.34-12.95-13.06-20.02-6.86-13.07-13.48-26.26-20.45-39.27C25.22,92.47,14.4,58.56,.96,25.76c-1.22-3.13-1.31-5.81-.06-8.82C3.41,11.3,4.84,5.36,8.02,0c5.23,3,8.77,6.77,10.84,12.31,7.04,18.82,14.41,37.5,21.67,56.24,6.33,16.9,12.9,33.75,22.5,49.1,11.71,19.43,22.25,39.92,38.03,56.45,11.76,13.12,24.03,25.78,36.75,37.97,1.42,1.41,3.27,2.55,3.6,5.04Z"/>
  </g>
</svg>