<?xml version="1.0" encoding="UTF-8"?>
<svg id="_レイヤー_2" data-name="レイヤー 2" xmlns="http://www.w3.org/2000/svg" viewBox="0 0 142.1 274.34">
  <defs>
    <style>
      .cls-1 {
        fill: #a4a4a4;
      }
    </style>
  </defs>
  <g id="parts">
    <path class="cls-1" d="M111.08,220.71c-7.52,2.53-15.31,2.53-23.1,2.61-3.57,.04-3.71,.12-4.16,3.81-1.78,15.06-3.66,30.12-5.23,45.2-.37,4.55-12.11,.3-12.29-2.11-.42-5.83,1.6-33.33,1.82-48.13,.12-6.1,.17-6.18-5.74-6.86-7.94-.9-15.91-1.62-23.86-2.49-8.5-.95-17.41-1.63-24.61-6.77-2.18-2.06-8.25-3.71-8.48-6.63-.05-2.4,1.96-8.39,2.63-8.81,8.15-5.12,17.29-7.52,26.92-7.23,7.75-1.25,9.67,.39,15.31,5.31,6.59,4.73,12.39,10.17,19.56,14.11,.33-11.99-2.18-24.15-2.95-36.21-.4-3.91-.91-4.33-5.05-4.55-8.8-.47-17.61-.98-26.42-1.24-4.02-.12-7.63-1.08-11.08-3.13C18.42,153.38,.1,145.91,.21,138.38c-.5-6.67-.66-6.73,6.06-7.81,27.85-5.23,29.86-2.66,56.06,4.17,6.27,2.26-.67-26.01-1.32-29.22-1.3-7.97-7.29-6.34-13.46-7.57-9.87-1.57-20.88-3.91-27.42-12.15-1.07-2.31-9.34-8.62-4.61-10,17.47-5.9,24.06-7.71,40.96,1.94,3.71,2.18,10.16,6.84,10.27-.89,.73-8.99,1.45-17.98,2.16-26.97-.03-3.35,1.23-6.78-2.8-7.65-15.58-5.27-31.66-7.85-39.31-24.43-1.71-2.68-2.72-11.72,1.58-11.71,7.06,1.27,13.78,3.99,20.64,6.04,8.41,3.05,13.85,10.76,20.53,16.34,1.5,1.38,2.4,1.15,3.11-.83,2.85-8.34,5.66-16.71,9.02-24.86,1.24-3.01,1.68-3.12,4.62-2.36q6.75,1.74,4.52,8.34c-1.96,6.16-3.89,10.74-5.15,17.34,12.17-2.68,25.48-9.34,36.03-.29,.45,.35,.45,1.47,.38,2.21-2.4,4.13-6.15,7.74-9.37,11.31-4.38,4.33-10.14,6.06-15.95,7.48-3.18,.78-6.38,1.53-9.6,2.12-1.82,.33-2.94,1.09-3.42,2.96-2.43,9.36-3.68,18.91-4.46,28.52-.16,1.94,.89,2.65,2.6,1.79,5.13-2.57,10.32-5.06,15.32-7.87,4.68-2.63,9.5-3.56,14.78-2.74,5.82,1.45,12.88-.29,17.71,3.83,2.56,2.78,8.97,4.89,4.14,8.88-12.53,13.88-30.59,16.83-48.43,16.53-3.37-.05-2.95,5.23-3.51,7.57-.26,7.58-.4,15.16-.51,22.74-.03,2.01,.81,2.49,2.75,1.61,23.14-12.78,33.43-9.75,56.19,1.35,2.18,.98,2.34,2.65,.64,4.42-6.89,7.8-16.45,12.1-25.23,17.33-2.18,1.31-4.45,1.94-6.97,2.1-6.96,.44-13.91,.96-20.85,1.52-2.82,.23-3.26,.67-3.25,3.33,.02,4.51,.89,27.85,1.2,35.01-.25,3.13,.87,5.41,4.36,3.78,7.45-2.25,14.77-5,22.44-6.41,6.73-1.57,11.89,1.6,16.78,5.56,.98,.79,.88,1.92,.36,2.78-2.6,4.2-4.91,7.24-8.03,11.45l-10.68,5.78Z"/>
  </g>
</svg>