<?xml version="1.0" encoding="UTF-8"?><svg xmlns="http://www.w3.org/2000/svg" viewBox="0 0 227.36 141.41"><defs><style>.d{fill:#a4a4a4;}</style></defs><g id="a"/><g id="b"><g id="c"><path class="d" d="M10.25,141.41c-4.04-7.97-6.43-16.77-9.8-25.06-.79-2.12-.63-3.77,1.26-5.44,13.97-12.34,27.9-24.74,41.74-37.23,6.01-5.42,12.95-9.34,20.02-13.06,13.07-6.86,26.26-13.48,39.27-20.45C134.89,25.22,168.8,14.4,201.6,.96c3.13-1.22,5.81-1.31,8.82-.06,5.65,2.51,11.58,3.94,16.94,7.12-3,5.23-6.77,8.77-12.31,10.84-18.82,7.04-37.5,14.41-56.24,21.67-16.9,6.33-33.75,12.9-49.1,22.5-19.43,11.71-39.92,22.25-56.45,38.03-13.12,11.76-25.78,24.03-37.97,36.75-1.41,1.42-2.55,3.27-5.04,3.6Z"/></g></g></svg>