<?xml version="1.0" encoding="UTF-8"?><svg xmlns="http://www.w3.org/2000/svg" viewBox="0 0 209.12 174.03"><defs><style>.d{fill:#a4a4a4;}</style></defs><g id="a"/><g id="b"><g id="c"><path class="d" d="M154.97,173.73c.35-.69-.15-1.58-.64-2.13-4.61-5.72-24.32-28.5-24.67-28.92-8.02-9.63-34.38-35.22-35.46-38.04,1.43-.1,2.4-.32,3.33-.22,7.94,.84,15.96,1.28,23.8,2.72,28.42,4.8,59.24,13.21,87.34,19.54,.12,0,.56-1.14,.4-1.31-.5-.51-1.22-.81-1.85-1.19-10.81-9.63-22.93-17.66-35.99-23.95-21.05-11.27-44.57-16.25-66.83-24.57-.97-.34-2.45-.4-2.41-2.44,10.24-1.67,20.7-1.96,31.04-2.93,16.9-2.19,61.61-.88,70.67-.85,.99-.04,2.24-.13,2.21-1.46-.2-1.28-1.64-2.35-2.91-2.71-7.21-3-25.66-6.6-27.28-6.87-11.33-1.88-22.45-4.7-33.55-7.64-15.08-4.78-31.58-5.91-45.91-12.57,1.84-3.98,5.99-4.61,9.36-6.17,19.83-9.87,69.34-19.96,83.95-26.12l.38-.1c.52-.85,1.05-1.7,1.57-2.55-1.05-.64-2.11-1.29-3.16-1.93-.04-.14-.08-.28-.11-.41-.23,.1-.46,.19-.69,.29C183.81,.86,172.74,0,172.74,0c-2.07,0-31.02,1.91-39.68,3.59l-.4-.29-.36,.4c-2.83,.41-5.69,.73-8.5,1.26C88.21,10.96,53.5,20.93,18.17,28.15c-2.98,.62-4.6,2.05-5.42,4.99C8.59,47.71,4.16,62.21,.2,76.84c-.46,1.61-.19,2.73,1.44,3.5,5.73,2.73,18.01,8.83,18.45,9.1,.29,.28,1.98,1.04,2.45,1.31,.88,.48,13.21,7.39,13.66,7.62,2.36,.77,53.61,32.42,56.9,34.37,.27,.18,4.26,2.79,4.51,2.96,.46,.28,4.2,3.11,4.53,3.17,0,0,4.92,3.27,5.35,3.56l3.9,2.64c.65,1.56,36.47,23.92,42.01,28.73,.39,.39,1.27,.22,1.57-.07Z"/></g></g></svg>