<?xml version="1.0" encoding="UTF-8"?><svg xmlns="http://www.w3.org/2000/svg" viewBox="0 0 388.08 318.35"><defs><style>.d{fill:#a4a4a4;}</style></defs><g id="a"/><g id="b"><g id="c"><path class="d" d="M124.22,205.44c-6.35,0-12.81-.71-19.04,.18-8.14,1.15-54.61,4.16-57.45,4.53-5.38,.7-10.6-.81-15.85-1.43-6.06-.71-12.01-2.38-18.04-3.45-2.61-.47-9.23-8.02-10.72-10.21-3.04-4.48-3.44-9.57-2.96-14.77,.39-4.16,2.82-7.4,5.95-9.68,5.95-4.32,12.19-8.17,18.95-11.27,14.13-6.47,29.21-9.2,44.27-12.09,5.01-.96,10.08-1.62,15.11-2.51,1.6-.28,3.14-.83,5.41-1.45-1.31-1.02-2.08-1.87-3.03-2.32-11.84-5.63-23.77-11.08-35.56-16.82-8.67-4.22-33.64-21.38-34.25-22.54-3.11-5.83-5.47-11.9-4.24-18.74,.56-3.09,2.92-4.65,5.5-5.16,5.56-1.1,11.16-2.89,16.93-.99,11.9,.88,23.16,5.06,34.88,6.85,1.99,.31,3.95,1.1,5.82,1.9,9.04,3.87,18.05,7.8,27.05,11.74,9.04,3.96,17.33,9.28,25.76,14.33,3.51,2.11,6.97,4.31,10.48,6.41,.45,.27,1.1,.22,1.65,.32,.01-.54,.23-1.2,0-1.6-.82-1.41-1.72-2.8-2.73-4.08-7.04-8.85-12.73-18.56-18.22-28.39-4.59-8.23-9.01-16.55-13.52-24.82-2.07-3.8-3.8-7.73-4.41-12.06-.59-4.23-2.77-7.94-3.57-12.19-1.34-7.15-.85-14.24-.73-21.35,.03-1.84,1.1-3.32,2.97-4.29,1.97-1.01,3.66-2.54,5.54-3.73,.82-.52,1.77-.99,2.72-1.12,4.96-.65,9.84-.31,14.45,1.82,6.16,2.84,12.08,6.06,17.06,10.78,5.8,5.49,11.7,10.88,17.47,16.4,8.29,7.93,13.75,17.69,18.34,28.1,2.77,6.27,4.13,12.75,5.07,19.45,1.03,7.29,2.53,23.55,2.77,24.32,.09,.28,1.35,.41,1.42,.24,.5-1.11,7.56-22.87,10.51-32.66,4.73-15.7,7.7-31.77,11.16-47.76,1.97-9.09,6-17.41,13.22-23.79,1.68-1.48,3.25-1.94,5.56-1.22,5.93,1.84,11.37,4.42,16.39,8.17,4.14,3.1,6.78,7.07,8.6,11.7,.89,2.27,5.82,24.27,5.15,33.18-.44,5.91-2.82,30.72-3.56,37.21-.62,5.48-3.05,25.77-3.64,30.43-.25,2.02-.54,4.04-.84,6.06-.37,2.42,.67,3.43,3.17,2.83,3.78-.9,7.56-1.82,11.28-2.94,10.03-3.03,20.31-4.59,30.71-5.56,15.22-1.41,34.2,2.59,37.86,4.41,9.72,4.84,19.73,9.15,28.89,15.04,7.07,4.54,13.84,9.37,18.97,16.3,2.67,3.61,5.84,6.78,7.67,11.02,1.4,3.24,1.41,6.3,.23,9.53-2.27,6.22-6.89,10.23-12.77,12.49-8.43,3.25-17.33,4.57-26.35,5.23-7.12,.52-14.22,1.46-21.33,2.13-2.65,.25-15.54,1.28-16.25,1.65,.37,.64,14.04,11.27,20.43,16.04,2.94,2.2,21.39,17.14,27.53,22.54,4.13,3.64,7.73,7.88,11.55,11.87,.57,.59,15.67,19.66,17.46,30.6,2.27,8.08,.45,11.77-4.73,15.81-3.48,2.71-7.78,4.61-12,6.02-2.56,.86-5.78,.6-8.49-.04-10.95-2.59-21.9-5.32-32.26-9.82-4.11-1.79-13.37-7.06-14.11-7.4-14.67-6.57-27.76-15.78-41.02-24.69-4.93-3.31-9.88-6.58-14.86-9.81-.43-.28-1.17-.21-1.71-.08-.21,.05-.38,.7-.39,1.09-.03,.82-.12,1.68,.1,2.45,2.09,7.48,1.46,15.16,.76,22.62-.69,7.46-2.32,14.97-7.32,21.18-2.17,2.7-9.24,12.68-11.63,14.01-5.42,3.02-11.23,5.24-17.21,6.45-5.68,1.14-11.26-1.06-16.68-2.9-4.87-4.63-10.58-8.44-14.2-14.31-.54-.87-.98-1.81-1.37-2.75-4.78-11.37-8.19-23.17-9.92-35.35-1.24-8.67-.17-17.17,4.8-24.79,1.45-2.22,2.7-4.57,4.02-6.82-.92-1.2-1.51-.24-2.06,.16-9.45,6.87-19.26,13.18-29.58,18.67-12.84,6.83-25.55,13.94-38.56,20.43-8.96,4.47-18.33,8.1-28.11,10.59-3.36,.86-6.41,.63-9.61-.47-3.36-1.15-6.24-3.07-9-5.19-2.74-2.11-4.04-4.95-4.24-8.49-.33-5.86,5.29-22.93,6.86-25.79,3.48-6.35,7.94-12.14,14.04-16.02,9.5-6.03,19.19-11.83,29.83-15.76,2.07-.76,3.99-1.92,5.97-2.89-.07-.31-.14-.62-.21-.92Z"/></g></g></svg>