<?xml version="1.0" encoding="UTF-8"?><svg xmlns="http://www.w3.org/2000/svg" viewBox="0 0 169.73 97.58"><defs><style>.d{fill:#a4a4a4;}</style></defs><g id="a"/><g id="b"><g id="c"><path class="d" d="M169.39,97.58c-41.43-2.12-82.76-5.91-124.13-8.98-3.87-.3-7.77-.36-11.65-.59-2.21-.13-3.86-1.14-4.79-3.26-2.14-4.27-4.36-8.24-5.46-12.97-7.15-13.83-11.57-28.81-18.79-42.62-1.86-3.37-2.95-7.16-4.36-10.77-.53-1.36-.14-2.46,1.25-2.99C19.62,9.91,38.14,5.45,56.42,.57c3.93-1.36,6.52-.18,9.16,2.65,3.9,4.19,7.99,8.22,12.23,12.08,29.8,27.99,62.49,52.72,91.92,81.1l-.34,1.19Z"/></g></g></svg>