<?xml version="1.0" encoding="UTF-8"?>
<svg id="_レイヤー_2" data-name="レイヤー 2" xmlns="http://www.w3.org/2000/svg" viewBox="0 0 129.86 89.85">
  <defs>
    <style>
      .cls-1 {
        fill: #a4a4a4;
      }
    </style>
  </defs>
  <g id="parts">
    <path class="cls-1" d="M30.56,33.12c10.22,4.64,14.53,2.76,17.5-7.41,1.43-4.91,6.22-19.28,7.42-21.41,1.95-3.47,4.81-6.08,8.92-2.76,4.11,3.33,17.48,24.73,19.19,27.29,3.65,5.48,8.85,7,15.02,5.55,4.59-1.07,20.26-3.99,23.29-3.54s5.78,2.06,6.82,3.86c2.22,3.86,1.28,13.54-3.5,18.11-3.53,5.02-25.86,27.8-33.01,34.53-1.88,1.77-3.89,2.61-6.61,2.51-16.38-.61-32.77-1.09-49.15-1.51-2.47-.06-4.1-.69-5.44-3.03C23.77,72.69,2.84,37,1.05,31.06c-4.63-8.45,7.29-13.25,12.23-9.63s14.16,10.26,17.28,11.68Z"/>
  </g>
</svg>