<?xml version="1.0" encoding="UTF-8"?><svg xmlns="http://www.w3.org/2000/svg" viewBox="0 0 228.32 111.06"><defs><style>.d{fill:#a4a4a4;}</style></defs><g id="a"/><g id="b"><g id="c"><path class="d" d="M127.91,107.64c5.1-6.55,9.35-12.02,13.6-17.49,1.74-2.6,4.51-4.72,5.18-7.85-4.02-1.15-8.03,1.11-12.05,1.57-6.24,1.15-6.77-7.81-9.38-11.7-1.67-2.51-3.03-10.08-7.19-7.17-2.2,1.99-4.56,3.93-6.3,6.29-7.67,11.7-19.23,3-30.13,3.57,.77,4.53,14.47,23.06,19.04,31.26,1.63,4.54-8.63,2.56-11.21,3.18-25.8,.59-51.59,1.28-77.39,1.68-14.72,.23-11.87,.82-11.85-12.52,.03-16.63,5.06-32.21,10.23-47.82C16.81,32.75,35.58,15.13,53.02,8.12c14.3-5.98,51.81-11.22,77.27-5.96,21.74,4.49,38.9,14.02,55.17,29.62,10.19,9.01,20.96,17.8,26.89,30.4,5.89,12.07,10.96,24.44,14.87,37.29,2.73,7.76,.28,7.25-6.6,7.62-31.04,.03-61.67,2.6-92.71,.55Z"/></g></g></svg>