<?xml version="1.0" encoding="UTF-8"?><svg xmlns="http://www.w3.org/2000/svg" viewBox="0 0 147.78 180.36"><defs><style>.d{fill:#a4a4a4;}</style></defs><g id="a"/><g id="b"><g id="c"><path class="d" d="M24.31,160.21C6.4,145.43-.25,121.97,0,99.48c2.69-15.32,4.37-32.16,14.16-44.83,9.6-11.72,23.35-19.28,36.53-26.3,5.76-5.23,1.23-16.2,2.61-23.47-.56-3.24,1.12-5.31,4.6-4.79,6.17,.43,12.36,.79,18.52,1.34,3.69,.33,4.2,1.02,4.32,4.88,.25,7.46,.34,14.92,.62,22.38-.05,3.05,6.24,3.55,8.57,4.68,9.45,2.84,18.43,6.81,27.31,11.04,12,8.42,22.33,20.81,25.95,35.28,4.5,18.98,6.31,38.68,2.57,57.95-1.38,7.88-5.03,14.7-11.33,19.99-10.69,9.17-23.16,15.79-36.36,20.59-14.26,3.53-30.25,2.52-44.2-1.84-10.41-4.19-20.92-8.94-29.57-16.18Z"/></g></g></svg>