<?xml version="1.0" encoding="UTF-8"?><svg xmlns="http://www.w3.org/2000/svg" viewBox="0 0 230.56 110.37"><defs><style>.d{fill:#a4a4a4;}</style></defs><g id="a"/><g id="b"><g id="c"><path class="d" d="M47.39,16.3c7.62-5.57,16.26-9.39,26.03-10.81,7.77-1.13,15.42-3.04,23.16-4.35,14.74-2.49,29.14-.75,43.3,3.75,12.91,4.1,25.95,7.92,37.67,14.92,19.47,11.63,36.89,25.66,50.44,44.08,3.49,4.74,3.65,4.98-.97,8.84-12.22,10.21-24.62,20.21-36.95,30.27-2.37,1.93-4.9,3.67-7.15,5.73-2.35,2.15-4.38,2.12-6.94,.26-5.3-3.84-10.68-7.6-16.21-11.1-16.47-10.43-33.49-19.73-52.64-24.43-17.08-4.19-33.46-3.12-49.84,4.11-11.32,4.99-23.53,7.95-35.32,11.9-2.58,.86-3.56-.91-4.69-2.47-4.48-6.19-8.82-12.48-13.4-18.6-5.22-6.97-5.24-6.86,.28-13.98,11.91-15.37,26.32-27.91,43.22-38.12Z"/></g></g></svg>