<?xml version="1.0" encoding="UTF-8"?><svg xmlns="http://www.w3.org/2000/svg" viewBox="0 0 252.36 99.77"><defs><style>.d{fill:#a4a4a4;}</style></defs><g id="a"/><g id="b"><g id="c"><path class="d" d="M252.31,76.58c.53-1.64-3.13-4.82-3.84-5.52-3.54-3.47-7.47-3.66-11.89-1.87-3.6,1.46-7.35,2.52-11.01,3.84-6.22,2.25-13.15,3.05-22.09,.87-15.74-3.83-26.05-16.22-28.25-18.03-7.59-6.26-15.11-12.59-22.62-18.94-9.55-8.08-19.75-15.28-29.97-22.46-3.52-2.47-21.37-9.55-26.36-11.35-5.66-2.05-11.65-2.02-17.54-2.66-11.32-1.22-23.42,.19-33.6,2.02-10.18,1.83-29.21,9.2-36.93,13.26C.48,19.79-1.01,25.9,.56,28.21c1.96,2.89,4.33,5.35,8.4,5.33,10.72-.05,21.18-1.52,31.46-4.69,11.36-3.52,22.93-6.14,34.84-7.04,1.42-.11,2.92-.43,4.27-.13,6.79,1.51,13.71,3.04,20.15,5.35,6.44,2.31,10.96,4.5,16.24,7.14,3.07,1.54,6.01,3.58,8.54,5.9,10.4,9.55,20.49,19.13,30.92,28.65,5.29,4.82,25.04,20.44,29.36,23.54,4.68,3.36,9.68,6.17,15.45,7.17,1.78,.31,3.68,.49,5.44,.22,6.47-.99,12.09-2.95,19.69-5.17,7.59-2.21,20.51-9.41,22.49-10.85,2.45-1.78,3.82-4.21,4.48-7.05Z"/></g></g></svg>