<?xml version="1.0" encoding="UTF-8"?><svg xmlns="http://www.w3.org/2000/svg" viewBox="0 0 148.7 129.48"><defs><style>.d{fill:#a4a4a4;}</style></defs><g id="a"/><g id="b"><g id="c"><path class="d" d="M.32,0c1.57,.52,2.74,.9,3.9,1.3C27.16,9.3,135.63,47.11,144.92,50.42c4.45,1.59,3.75,1.04,3.72,5.17-.21,22.8-.44,45.61-.68,68.41-.06,5.56-.08,5.53-5.69,5.48-35.52-.33-128.13-1.17-138.91-1.28-.57,0-1.14-.08-1.7-.06-1.2,.06-1.6-.58-1.6-1.67,0-1.47-.02-2.95-.03-4.42C-.05,93.34,.02,13.69,.16,2.57c0-.67,.08-1.34,.16-2.57Z"/></g></g></svg>