<?xml version="1.0" encoding="UTF-8"?><svg xmlns="http://www.w3.org/2000/svg" viewBox="0 0 229.07 100.33"><defs><style>.d{fill:#a4a4a4;}</style></defs><g id="a"/><g id="b"><g id="c"><path class="d" d="M5.27,95.61c24.16,.56,211.99,4.19,212.41,4.18,0,0,8.18,.42,10.4,.54,.73-.02,1.31-1.16,.77-1.71-1.64-1.14-2.81-3.07-5.11-3.1-1.32-.93-18.81-12.88-20.56-14.02,0,0-65.5-40.72-66.98-41.33-3.32,12.77-6.82,24.46-10.52,36.94-.35,1.16-.76,2.36-1.44,3.34-.33,.47-1.46,.81-2.01,.62C121.1,80.66,11.72,6.13,3.83,.83,1.24-1.31,1.09,1.17,1.78,2.95h0C1.48,33.4-.68,65.63,.21,95.22c1.83,.15,3.44,.36,5.06,.39Z"/></g></g></svg>