<?xml version="1.0" encoding="UTF-8"?><svg xmlns="http://www.w3.org/2000/svg" viewBox="0 0 209.51 112.91"><defs><style>.d{fill:#a4a4a4;}</style></defs><g id="a"/><g id="b"><g id="c"><path class="d" d="M21.46,72.8c-2.61,12.78-2.57,25.72-5.44,38.44-.4,1.96-.82,2.12-2.58,.88-4.62-3.24-9.18-6.56-13.44-10.27C1.14,76.3,3.9,50.72,2.23,25.12c-.05-2.46,.17-2.62,2.51-3.28,4.04-1.13,8.07-2.3,12.13-3.38,1.8-.48,2.33-.09,2.67,1.77,1.19,6.7,2.42,13.39,3.54,20.09,.6,3.6,5.37-.98,6.9-1.9,9.38-7.61,38.72-23.7,52.23-28.76,5.94-2.22,20.12-5.81,26.23-6.9,11.25-1.95,22.69-3.69,34.12-2.23,3.15,.43,6.32,.81,9.48,1.13,18.72,2.13,37.08,11.68,54.26,20.57,3.31,1.71,3.9,4.52,2.52,7.36-5.78,10.34-12.54,20.12-19.35,29.82-7.74,12.49-19.55,21.24-30.1,31.13-4.19,4.17-9.19,7.05-14.47,9.44-6.59,2.99-13.34,5.64-20.02,8.44-2.03,.85-4.11,1.24-6.33,1.29-4.91,.05-9.86,1.17-14.75,.65-19.43-2.05-41.59-9.11-47.38-11.77-13.67-5.81-23.56-16.8-34.96-25.79Z"/></g></g></svg>