<?xml version="1.0" encoding="UTF-8"?><svg xmlns="http://www.w3.org/2000/svg" viewBox="0 0 177.09 104.6"><defs><style>.d{fill:#a4a4a4;}</style></defs><g id="a"/><g id="b"><g id="c"><path class="d" d="M160.78,82.83c-.55,5.77-9.3,19.39-15.33,20.25-18.17,2.16-36.6,1.67-54.87,.67-16.11-1.02-32.41-.12-48.28-3.69-17.04-4.56-29.97-17.63-40.54-31.04-1.2-1.46-1.84-3.01-1.75-4.98,.22-5.11,.05-10.25,.48-15.34,1.36-8.08,8.89-19.72,15.28-24.85,6.23-4.49,12.04-10.07,19.11-13.18,9.86-3.31,19.76-6.54,29.63-9.82,2.73-.91,5.52-.99,8.32-.66,18.19,2.03,36.39,4.68,53.97,9.92,14.86,4.79,27.8,13.8,40.17,23.08,3.75,3.05,12.08,11.52,9.69,16.57-1.6,3.11-2.35,12.14-7.37,10.68-10.49-4.46-20.83-9.23-31.73-12.66-6.24-2.16-12.38-4.62-18.58-6.9-11.77-4.32-24-5.82-36.46-6.03-21.87,.07-20.35,1.85-36.62,14.74-1.31,1.16-5,3.73-2.06,5.06,2.27,.52,4.55,.77,6.83-.04,5.26-2,10.6-3.64,16.12-4.69,10.47-2.61,21.02-1.02,31.54-.53,15.83,3.24,30.78,10.02,45.72,16.06,6.11,2.5,12.22,5,18.32,7.5,.88,.4,1.19,1.19,.93,2.04-.76,2.53-1.6,5.04-2.52,7.86Z"/></g></g></svg>