<?xml version="1.0" encoding="UTF-8"?><svg xmlns="http://www.w3.org/2000/svg" viewBox="0 0 141.98 119.83"><defs><style>.d{fill:#a4a4a4;}</style></defs><g id="a"/><g id="b"><g id="c"><path class="d" d="M88.81,114.98c-29.19-4.02-58.46-7.59-87.58-12.11-1.26-.23-1.54-.81-.87-1.97,2.81-4.81,5.6-9.63,8.53-14.36C26.28,58.15,44.14,30.06,62.4,2.22c1.56-2.8,2.3-2.29,5.22-1.93,5.07,.62,10.18,1.03,15.2,1.9,18.57,2.96,37.31,4.56,55.92,7.23,3.53,.46,3.49,.5,3.02,3.83-2.82,21.05-5.62,42.1-8.43,63.14-.97,7.36-1.85,14.73-2.81,22.09-.83,6.33-1.71,12.65-2.58,18.97-.13,.95-.26,2.42-1.5,2.37-12.58-1.22-25.05-3.52-37.65-4.66l.02-.19Z"/></g></g></svg>