<?xml version="1.0" encoding="UTF-8"?>
<svg id="_レイヤー_2" data-name="レイヤー 2" xmlns="http://www.w3.org/2000/svg" viewBox="0 0 249.23 367.19">
  <defs>
    <style>
      .cls-1 {
        fill: #a4a4a4;
      }
    </style>
  </defs>
  <g id="parts">
    <path class="cls-1" d="M247.52,223.28c-4.91-14.4-12.24-28.84-24.23-38.47-7.89-5.86-32.85-20.8-34.6-21.47-.28-.02-.56-.04-.84-.06-2.85,.32-4.75-1.64-6.02-3.49-1.32-1.92,.91-3.72,1.8-5.49,8.03-13.33,16.85-26.24,24.28-39.92,5.89-14.21,15.72-27.81,14.35-43.81,.23-8.49-9.82-9.45-16.04-7.07-23.3,6.01-46.64,21.72-64.75,37.36-4.55,4.2-8.95-3.07-9.49-7.15-10.37-30.24-11.98-64.85-29.89-91.77-2.36-4.06-7.79-1-9.29,2.26-9.67,25.31-17.76,54.84-8.6,81.35,1.83,5.21,3.13,10.61,4.51,15.96,.2,.8-.64,1.64-1.43,1.41-1.57-.46-3.16-.89-4.66-1.54-21.88-8.54-44.42-18.75-68.27-18.88-7.66-.31-10.77,7.43-13.8,13.14-.51,1.02-.68,2.46-.43,3.57,4.1,18.57,18.34,33.63,36.02,40.66,6.71,2.55,13.65,4.37,20.65,5.88,4.11,1.03,4.53,1.66,3.13,5.44-1.92,5.19-3.91,10.36-6.05,15.46-6.11,16.12-13.76,32.43-15.28,49.75,.12,5.12,.45,10.24,.4,15.36-.12,12.36,4.03,23.69,8.15,35.05,.24,1.68,1.11,2.8,2.83,3.16,1.21,.52,2.42,1.04,3.64,1.56,1.03,1.1,2.26,1.18,3.61,.75,.85,.02,16.52-7.93,16.78-8.19,.25-.06,6.42-6.88,6.38-8.53,0,0,.23-.35,.23-.35,1.99-.92,3.63-5.12,3.63-5.12,1.61-.46,12.99-18.04,13.4-20.39,0,0,.22-.34,.22-.34,1.32,.07,2.63,.15,3.95,.22,.3,2.06,.6,4.11,.89,6.17,2.12,22.78,6.02,65.76,8.81,91.57,1.22,9.95,4.65,19.51,6.78,29.3,1.45,7.01,8.45,9.05,14.53,10.42,4.94,1.6,12.72-9.85,15.19-13.71,4.49-12.53,9.53-24.89,11.25-38.25,.74-5.69,1.72-11.34,2.62-17.01,3.52-23.68,6.72-47.56,6.87-71.51,.05-1.93-1.19-4.34,1.12-5.58,1.91-1.03,3.45,.76,4.96,1.67,20.07,11.83,39.08,26.49,62.63,30.18,.59,.15,1.22,.17,1.83,.17,12.8-.98,10.34-20.69,8.23-29.72Z"/>
  </g>
</svg>