<?xml version="1.0" encoding="UTF-8"?><svg xmlns="http://www.w3.org/2000/svg" viewBox="0 0 142.61 154.56"><defs><style>.d{fill:#a4a4a4;}</style></defs><g id="a"/><g id="b"><g id="c"><path class="d" d="M.27,91.06c23.14-3.67,46.25-7.37,69.2-12.1,3.75-.68,5.96-2.43,7.95-5.68,13.56-22.75,23.97-47.13,37.41-69.94,.85-1.13,1.46-3.24,3.07-3.33,.31,.05,.78,.55,.78,.85-.05,18.18-.83,36.3-2.66,54.38-.3,4.44,.69,5.23,4.62,3.68,5.55-2.19,10.98-4.7,16.45-7.1,1.43-.98,3.37-2.04,4.89-.76,.51,.49,.79,1.75,.53,2.42-1.53,3.84-3.23,7.61-4.92,11.39-5.55,10.8-10.16,22.11-15.52,33.02-1.35,2.83-2,5.6-1.52,8.64,.97,6.12,1.96,12.25,3.03,18.35,1.47,8.37,3.03,16.73,4.55,25.09,.08,.45,.14,.91,.13,1.37,.03,2.58-3.89,4.52-5.46,2.22-6.31-8.76-11.67-18.2-17.06-27.54-2.07-3.75-4.96-5.66-8.93-6.81C64.72,109.56,32.48,100.46,0,92.19l.27-1.14Z"/></g></g></svg>