<?xml version="1.0" encoding="UTF-8"?><svg xmlns="http://www.w3.org/2000/svg" viewBox="0 0 180.24 89.21"><defs><style>.d{fill:#a4a4a4;}</style></defs><g id="a"/><g id="b"><g id="c"><path class="d" d="M17.45,8.27c4.22-3.59,8.92-5.92,14.25-6.77,16.6-4.28,33.2,1.48,48.99,6.48,7.42,2.73,15.31,4.14,22.3,8.11,1.9,1.08,4.21,1.44,6.33,2.15,10.47,4.23,19.67,10.95,29.37,16.63,14.21,8.44,27.56,18.16,40.42,28.33,4.19,1.91-4.57,21.14-6.77,24.01-1.33,2.3-2.55,2.6-4.27,.94-1.9-1.85-3.84-3.61-5.94-5.26-7.38-6.67-14.46-13.85-21.84-20.53-15.89-11.08-34.23-19.38-52.81-24.99-12.04-3.14-24.48-7.76-37.12-5.79-5.32,1.47-12.12-.64-15.77,4.55-4.69,6.17-8.48,12.9-12.79,19.3-.63,1.44-1.66,3.18-3.55,2.27-4.28-1.91-8.59-3.83-12.85-5.76-1.91-.64-4.46-.65-5.27-2.6C-.9,37.18,4.63,25.65,9.97,15.12c1.59-3.26,4.73-5.03,7.48-6.85Z"/></g></g></svg>