<?xml version="1.0" encoding="UTF-8"?><svg xmlns="http://www.w3.org/2000/svg" viewBox="0 0 398.91 79.3"><defs><style>.d{fill:#a4a4a4;}</style></defs><g id="a"/><g id="b"><g id="c"><path class="d" d="M66.71,41.8c-5.89,6.37-13.08,10.27-19.98,14.63-5.54,3.51-11.47,4.3-17.68,3.75-10.48-.92-12.46-1.98-19.86-9.42C3.48,45.01-.09,38.34,.02,29.99c.03-2.45-.31-12.21,.97-14.4,2.43-4.17,5.62-7.39,10.1-9.52C18.04,2.76,25.32,.87,32.93,.12c1.41-.14,2.92-.22,4.28,.11,5.77,1.41,11.59,2.72,17.2,4.61,2.82,.95,5.36,2.94,7.83,4.72,2.83,2.03,5.47,4.32,8.15,6.55,1.3,1.08,2.61,1.1,3.95,.25,1.38-.88,2.7-1.85,4.06-2.77,3.59-2.44,7.43-4.26,11.63-5.44,12.88-3.61,24.24,.05,34.92,7.09,.85,.56,1.6,1.28,2.41,1.91,1.32,1.02,2.52,.86,3.9-.09,5.06-3.48,10.1-7.02,15.32-10.24,5.88-3.63,12.35-5.27,19.31-5.3,6.52-.02,12.53,1.91,18.45,4.23,1.66,.65,3.14,1.95,4.46,3.21,5.52,5.25,10.34,11.1,14.27,17.64,1.25,2.09,2.01,4.48,3.02,6.71,.51,1.12,1.52,1.46,2.45,.76,1.64-1.23,3.22-2.53,4.82-3.82,6.35-5.13,13.03-9.99,23.02-11.1,12.09-1.35,21.7,1.25,26.38,5.65,3.12,2.94,5.83,6.31,8.68,9.52,.82,.92,1.67,1.1,2.64,.36,2.28-1.75,4.62-3.42,6.77-5.32,8.61-7.59,18.81-9.5,29.85-8.52,.82,.07,1.62,.27,2.44,.31,5.97,.29,11.25,2.04,15.02,7.04,.48,.64,1.17,1.15,1.82,1.64,1.39,1.06,2.76,.96,3.75-.36,1.35-1.8,2.5-3.77,3.92-5.51,5.78-7.09,16.67-10.85,25.93-10.74,13.35,.16,25.56,10.35,30.48,16.27,4.92,5.92,6.06,13,3.56,20.29-1.88,5.49-5.05,10.2-9.91,13.75-3.13,2.28-5.82,5.2-9.43,6.82-2.05,.92-4.16,1.7-6.29,2.41-4.7,1.55-9.13,.96-13.7-1.1-6.97-3.14-13.71-6.49-19.17-11.99-.57-.58-1.25-1.07-1.91-1.55-.93-.68-1.87-.75-2.75,.1-.29,.29-.58,.59-.81,.92-4.41,6.14-10.51,10.29-16.8,14.18-1.88,1.16-4.01,2.25-6.15,2.61-12.61,2.12-23.6-.7-31.9-11.11-1.91-2.4-3.82-4.81-5.82-7.14-1.04-1.21-2.08-1.11-3.02,.2-1.31,1.84-2.61,3.69-3.77,5.62-3.05,5.1-7.3,8.61-12.76,11.08-4.91,2.22-9.76,4.26-15.19,4.56-1.02,.06-2.09,.3-3.06,.1-11.73-2.44-22.5-6.44-28.85-17.71-1.27-2.26-2.09-4.95-4.73-6.19-2.05,1.28-4.08,2.59-6.16,3.83-4.92,2.95-9.82,5.93-14.79,8.78-5.51,3.16-11.61,3.87-17.82,3.83-3.78-.02-7.13-1.33-10.3-3.51-5.42-3.72-8.86-9-12.27-14.38-1.57-2.47-2.04-5.72-4.99-7.24-2,2.02-4.16,3.91-5.98,6.08-6.29,7.52-14.7,11.63-23.59,15-2.34,.89-4.75,1.24-7.25,.78-2.22-.41-4.5-.59-6.64-1.23-9.75-2.92-11.32-4.12-17.04-12.87-2.13-3.26-4.11-6.61-6.18-9.91-.51-.81-1.1-1.58-1.89-2.71Z"/></g></g></svg>