<?xml version="1.0" encoding="UTF-8"?><svg xmlns="http://www.w3.org/2000/svg" viewBox="0 0 182.55 24.36"><defs><style>.d{fill:#a4a4a4;}</style></defs><g id="a"/><g id="b"><g id="c"><path class="d" d="M.85,19.24c-.23-.35-.54-.77-.79-1.22-.08-.14-.06-.36-.05-.54C.41,12.17,.81,6.87,1.22,1.57,1.3,.51,1.81-.02,2.97,0,14.16,.23,49,.72,55.24,.85c12.28,.26,50.05,1.01,56.66,1.17,10.08,.24,56.83,1.21,67.09,1.38,.18,0,.37,0,.55,0,2.21,.17,3.07,.98,3,3.05-.17,5.13-.39,10.26-.62,15.39-.08,1.71-.66,2.43-2.26,2.5-3.12,.13-26.59-.25-35.21-.39-11.92-.18-23.81-.73-35.7-1.56-5.66-.4-49.67-1.28-65.98-1.66-8.98-.21-17.97-.41-26.95-.63-3.67-.09-13.54-.68-14.97-.86Z"/></g></g></svg>