<?xml version="1.0" encoding="UTF-8"?><svg xmlns="http://www.w3.org/2000/svg" viewBox="0 0 287.61 122.48"><defs><style>.d{fill:#a4a4a4;}</style></defs><g id="a"/><g id="b"><g id="c"><path class="d" d="M.56,121.94c-.13-.35-.68-1.09-.53-1.64,.25-.95,.89-1.82,1.45-2.67C9.03,106.17,78.25,11.63,79.65,9.62c3.4-4.9,4-3.71,7.98-1.44,6.22,3.55,52.95,34.68,59.09,38.77,2.22,1.48,4.06,1.47,6.12-.18C162.28,39.22,209.93,1.06,210.97,.4c.97-.63,1.98-.52,2.73,.39,.78,.95,1.56,1.92,2.17,2.97,7.92,13.61,33.06,55.27,37.71,62.5,5.09,7.91,10.13,15.85,15.23,23.76,3.1,4.82,15.45,24.13,18.39,29.05,.86,1.43,.36,2.25-1.34,2.48-1.62,.22-45.92,.27-53.28,.28-7.14,0-14.28,.26-21.43,.29-7.56,.03-15.11-.09-22.67-.11-4.08-.01-8.17,.06-12.25,.07-7.76,.03-15.51,.07-23.27,.07-6.94,0-30.63,.09-35.53,.14-7.96,.08-15.92,.21-23.88,.2-4.7,0-21.44-.44-25.12-.46-9.19-.04-18.37-.12-27.56-.07-7.14,.04-14.28,.32-21.43,.33-6.12,0-12.25-.21-18.89-.34Z"/></g></g></svg>