<?xml version="1.0" encoding="UTF-8"?>
<svg id="_レイヤー_2" data-name="レイヤー 2" xmlns="http://www.w3.org/2000/svg" viewBox="0 0 77.26 180.16">
  <defs>
    <style>
      .cls-1 {
        fill: #a4a4a4;
      }
    </style>
  </defs>
  <g id="parts">
    <path class="cls-1" d="M.79,97.74c-.53-6.11-1.37-12.21-.21-18.35,.61-3.22,1.32-6.35,2.88-9.33,4-7.63,8.77-14.77,13.78-21.74,3.46-4.81,7.12-9.48,10.71-14.21,6.39-8.42,14.43-15.04,23.17-20.84,6.48-4.3,13.08-8.42,19.64-12.6,1.87-1.19,3.08-.86,3.75,1.25,.99,3.11,1.79,6.28,2.59,9.44,.5,1.99-.24,3.47-1.82,4.83-5.59,4.8-11.09,9.69-16.58,14.61-1.67,1.49-23.91,24.66-25.8,27.08-.97,1.25-1.64,2.8-2.18,4.3-3.2,8.91-4.8,18.17-5.73,27.56-.14,1.41-.03,2.87,.09,4.29,.72,8.55,1.01,17.13,3.14,25.55,1.45,5.72,8.94,49.84,10.03,56.7,.03,.2,.05,.41,.06,.61,.15,2.65-.62,3.47-3.08,3.21-2.23-.23-14-1.54-17.66-1.92-2.64-.27-3.38-.78-3.84-3.12-.91-4.61-12.22-71.88-12.95-77.34Z"/>
  </g>
</svg>