<?xml version="1.0" encoding="UTF-8"?><svg xmlns="http://www.w3.org/2000/svg" viewBox="0 0 241.72 109.29"><defs><style>.d{fill:#a4a4a4;}</style></defs><g id="a"/><g id="b"><g id="c"><path class="d" d="M217.58,39.68c8.33,5.69,15.55,13.01,22.51,20.62,2.13,2.33,2.17,2.35,.11,4.87-1.56,1.9-3.28,3.68-4.77,5.63-1.37,1.8-2.65,2.06-4.65,.8-11.18-7.04-22.48-13.9-33.66-20.94-7.7-4.86-15.76-8.91-24.45-11.69-2.19-.7-4.41-1.38-6.51-2.31-15.32-6.78-31.13-7.76-47.35-4.14-4.05,.9-8.26,1.34-12.13,2.72-4,1.43-7.76,3.61-11.49,5.71-15.37,8.64-28.79,19.88-41.94,31.49-12.67,11.19-25.27,22.45-36.73,34.92-2.38,2.59-2.63,2.5-5.24,.29-2.82-2.38-5.62-4.78-8.4-7.2-4.29-3.74-3.38-3.22-.12-6.56,5.8-5.93,11.75-11.72,17.61-17.59,14.87-14.91,29.67-29.88,44.61-44.72,2.59-2.57,5.54-4.85,8.57-6.89,5.22-3.52,10.43-7.15,16.01-10.02,6.67-3.43,13.72-6.14,20.63-9.1,3.1-1.33,6.25-2.56,9.42-3.74,1.43-.53,2.91-1.06,4.41-1.22,9.52-1.01,19.03-.72,28.49,.71,1.79,.27,3.52,1.06,5.22,1.76,10.55,4.35,20.23,10.31,30.07,16.01,10.4,6.03,20.32,12.7,29.76,20.6Z"/></g></g></svg>