<?xml version="1.0" encoding="UTF-8"?>
<svg id="_レイヤー_2" data-name="レイヤー 2" xmlns="http://www.w3.org/2000/svg" viewBox="0 0 114.14 188.82">
  <defs>
    <style>
      .cls-1 {
        fill: #a4a4a4;
      }
    </style>
  </defs>
  <g id="parts">
    <path class="cls-1" d="M77.11,9.85c12.72,6.65,13.99,21.1,20.81,32.07,14.43,27.59,16.16,71.25,16.21,102.27,.34,15.93-7.4,24.57-16.64,36.36-13.08,14.13-35.58,7.34-50.6,.33-7.08-4-15.58-6.42-20.87-12.9C-2.03,130.17-4.3,82.08,4.72,37.34c2.13-8.51,3.63-17.23,7.2-25.29,1.58-4.99,6.38-6.28,10.7-8.04C32.92-2.06,43.57-.13,54.23,2.57c3.91,.99,4.57,2,3.86,6.11-4.08,26.94-2.25,54.22-.61,81.25,.11,1.5,.4,3.18,1.2,4.38,1.4,1.69,5.68,2.46,5.77-.82,2.81-28.1,6.34-56.12,12.65-83.65Z"/>
  </g>
</svg>