<?xml version="1.0" encoding="UTF-8"?>
<svg id="_レイヤー_2" data-name="レイヤー 2" xmlns="http://www.w3.org/2000/svg" viewBox="0 0 93.4 220.01">
  <defs>
    <style>
      .cls-1 {
        fill: #a4a4a4;
      }
    </style>
  </defs>
  <g id="parts">
    <path class="cls-1" d="M43.36,58.98c.26,16.39,.2,35.78,.86,53.28-.14,1.52,1.71,2.22,1.82,.34,5.3-35.89,9.53-71.93,13.7-107.97,.2-1.66-.39-4.23,1.71-4.6,1.62-.29,2.13,2.19,2.97,3.52,10.36,16.33,18.72,33.66,25.56,51.73,7.49,33.87,1.65,68.96-7.18,102.04-1.4,5.43-3.95,10.22-7.52,14.63-12.66,15.63-26,30.64-40.02,45.04-4.13,4.24-4.21,4.2-6.84-1.24-6.88-14.23-12.39-29.02-18.06-43.76-1.23-3.19-1.69-6.77-4.26-9.39C2.05,146.79,.43,130.4,.06,114.05c-.4-22.23,.7-60.08,13.91-78.16C22.37,24.53,30.21,12.66,40.49,2.83c1.08-1.19,2.17-.25,2.28,1.18,.39,18.69-.38,36.11,.59,54.97Z"/>
  </g>
</svg>