<?xml version="1.0" encoding="UTF-8"?>
<svg id="_レイヤー_2" data-name="レイヤー 2" xmlns="http://www.w3.org/2000/svg" viewBox="0 0 323.45 217.89">
  <defs>
    <style>
      .cls-1 {
        fill: #a4a4a4;
      }
    </style>
  </defs>
  <g id="parts">
    <path class="cls-1" d="M235.38,137.09c2.57-.62,5.22-.99,7.68-1.9,13.11-4.85,26.62-8.17,40.41-10.19,7.27-1.06,14.63-1.16,21.97,.36,3.81,.79,5.62,2.98,6.4,6.49,.29,1.3,0,2.38-.88,3.39-7.27,8.36-14.92,16.32-24.22,22.46-8.63,5.49-18.84,8.05-27.55,13.35-.5,.41,.24,1.22,.59,1.28,13.87-.21,27.72-.89,41.55,.92,4.95,.73,27.55,4.61,20.9,11.93-4.42,5.95-8.5,13.88-16.05,16.2-13.25,3.54-26.58,6.73-39.98,9.65-22.33,5.32-45.43,5.09-68.23,6.52-11.84,.62-23.66,.38-35.46-.7-14.9-.21-29.77-1.39-44.57-2.58-8.28-.06-16.21-2.44-24.35-2.94-8.42-.51-16.62-2.49-24.95-3.06-18.06-1.22-35.63-5.37-53.39-8.34-4.52-1.31-10.79-1.69-13.55-5.98-.79-1.61-.86-3.56-1.45-5.28-.72-2.07,.22-3.56,1.37-5.07,4.02-5.27,9.64-7.92,15.68-10.24,23.92-9.55,49.51-6.12,74.48-8.99-15.77-12.98-33.14-24.13-45.86-40.35-2.11-3-3.89-6.24-5.62-9.48-.71-5.48,4.64-10.81,10.03-12.01,6.8-1.39,12.3-4.09,19.19-1.22,1.37,.4,2.64,1.27,4.02,1.44,13.79,1.88,25.61,9.36,38.28,14.48,3.06,1.19,2.2-2.99,1.88-4.72-1.51-8.68-2.03-17.46-2.79-26.22-1.3-13.41-2.21-26.89-1.93-40.36,.19-3.03,1.32-6.02,2.36-8.83,.82-6.55,5.21-10.91,9.2-15.59,4.2-4.93,12.34-4.36,16.43-1.96,2.22,1.3,3.7,3.18,4.34,5.71,1.63,6.34,3.68,12.61,4.84,19.04,3.82,19.1,4.52,38.47,4.33,57.91,1.58-.14,1.19-1.35,1.36-2.08,7.46-33.86,16.45-68.94,38.88-96.28,2.55-3.3,11.38-5.22,14.63-2.68,4.06,3.17,7.38,7.13,7.39,12.79,.02,7.14,.05,14.28,0,21.41-2.22,15.19-5.16,30.33-7.71,45.48-.59,3.19-1.99,6.24-2.76,9.39-.66,3.63-1.43,7.22-3,10.59-.33,.71-.3,1.58-.6,3.3,1.25-1.13,2.04-1.61,2.49-2.3,5.84-8.9,11.57-17.85,17.44-26.73,4.18-6.32,8.39-12.62,12.82-18.75,3.02-4.18,6.71-7.7,11.68-9.66,2.72-1.27,5.09-3.58,8.01-4.48,9.85-2.98,7.9-3.26,13.51,4.08,3.69,4.56,3.63,9.73,2.52,15.11-2.35,19.32-10.89,37.32-19.76,54.42-3.85,7.18-9.79,13.25-12.04,21.24-.32,.03-.57,.07-.61,.44,.21-.13,.43-.26,.64-.38Z"/>
  </g>
</svg>