<?xml version="1.0" encoding="UTF-8"?><svg xmlns="http://www.w3.org/2000/svg" viewBox="0 0 307.63 147.38"><defs><style>.d{fill:#a4a4a4;}</style></defs><g id="a"/><g id="b"><g id="c"><path class="d" d="M293.82,145.62c-9.69-6.94-35.02-25.26-38.13-27.23-13.94-8.81-28.42-16.69-43.53-23.29-16.68-6.16-34.85-8.74-52.62-8.6-21.35-.17-43.09,3.39-64-2.35-11.86-3-24.25-5.68-33.1-14.87C41.79,51.43,21.12,33.45,2.39,13.52c-3.18-3.34-3.01-3.11-.51-7.08C3.38,4.78,5.58-1.61,8.28,.38c18.68,12.84,36.78,26.53,56.22,38.27,9.92,6.33,20.4,12.38,32.32,13.78,34.18,5.76,69.09-1.97,103.18,4.96,13.68,1.87,26.02,5.32,36.99,14.06,12.11,8.5,21.4,20.24,32.17,30.29,12.05,11.9,22.74,25.15,35.98,35.81,4.41,3.21,2.26,3.85-1.22,6.86-.02-.03-4.62,5.8-10.11,1.21Z"/></g></g></svg>