<?xml version="1.0" encoding="UTF-8"?>
<svg id="_レイヤー_2" data-name="レイヤー 2" xmlns="http://www.w3.org/2000/svg" viewBox="0 0 230.13 83.25">
  <defs>
    <style>
      .cls-1 {
        fill: #a4a4a4;
      }
    </style>
  </defs>
  <g id="parts">
    <path class="cls-1" d="M0,81.41C25.29,56.86,51.98,34.67,77.51,10.44c3.48-3.17,7.18-6.11,10.75-9.18,1.54-1.32,3.07-1.6,5.06-.83,38.18,14.23,76.7,27.55,115.37,40.37,6.02,1.99,12.14,3.71,18.2,5.59,3.2,.99,3.69,1.73,2.9,4.89-2.48,9.72-5.11,19.4-7.51,29.15-.46,1.8-1.62,2.74-3.54,2.74-5.94,0-11.89,.03-17.83,.04-14.54-.06-29.11,.37-43.62-.53-18.03-.04-36.05,.07-54.08-.02-13.49-.27-26.98-.98-40.48-.7-21.26-.33-41.37,1.21-62.75-.55Z"/>
  </g>
</svg>