<?xml version="1.0" encoding="UTF-8"?>
<svg id="_レイヤー_2" data-name="レイヤー 2" xmlns="http://www.w3.org/2000/svg" viewBox="0 0 18.31 183.66">
  <defs>
    <style>
      .cls-1 {
        fill: #a4a4a4;
      }
    </style>
  </defs>
  <g id="parts">
    <path class="cls-1" d="M11.28,183.08c-3.05,.19-6.25,.4-9.45,.57-1.46,.08-1.83-.25-1.83-1.59,0-3.57,.05-7.15,.08-10.72,.06-7.89,.14-15.78,.19-23.66,.05-8.14,.07-16.27,.11-24.41,.04-9.86,.08-19.72,.14-29.58,.04-8.14,.11-16.27,.15-24.41,.04-9.62,.05-19.23,.1-28.85,.05-9.74,.13-19.48,.18-29.21,.02-2.96-.03-5.92-.03-8.88C.92,.47,1.26,.07,2.97,.06,7.41,.01,11.85-.01,16.29,0c1.27,0,1.57,.32,1.65,1.45,.06,.86,.06,1.73,.03,2.59-.25,6.53-.56,13.05-.75,19.58-.16,5.54-.27,11.09-.22,16.64,.05,6.04,.29,12.08,.45,18.12,.14,5.3,.31,10.59,.44,15.89,.13,5.54,.26,11.09,.31,16.63,.07,8.5,.09,17.01,.1,25.51,0,6.41,.03,12.82-.06,19.23-.1,7.02-.33,14.04-.48,21.06-.16,7.39-.3,14.79-.44,22.18-.01,.62,.05,1.23,.02,1.85-.06,1.15-.39,1.55-1.5,1.72-1.46,.23-2.93,.41-4.56,.63Z"/>
  </g>
</svg>