<?xml version="1.0" encoding="UTF-8"?><svg xmlns="http://www.w3.org/2000/svg" viewBox="0 0 301.48 167.35"><defs><style>.d{fill:#a4a4a4;}</style></defs><g id="a"/><g id="b"><g id="c"><path class="d" d="M299.37,120.26c1.11,12.85,2.11,29.76,2.11,43.57,.06,3.23-.75,4-4.1,3.24-9.2-2.1-18.35-4.42-27.54-6.59-7.04-3.14-5.44-14.09-8.35-20.45-6.03-22.22-16.47-45.37-37.34-57.1-16.43-9.15-33.48-18.3-52.47-20.2-26.66-4.64-56.25,1.41-76.97,19.34-13.25,14.23-27.59,28.75-33.71,47.67-1.84,5.15-3.36,10.41-5.06,15.61-1.12,3.43-1.86,3.91-5.45,3.14-15.78-3.43-31.55-6.95-47.37-10.18-3.07-.67-3.51-1.47-2.84-4.76,1.19-5.85,2.69-11.57,5.13-17.09,13.65-28.61,28.28-58.42,52.03-80.01,11.33-8.98,23.3-17,36.7-22.57,11.99-5.5,24.64-9.2,37.2-13.11,1.86-.58,3.96-.95,5.87-.72,29.54,3.14,59.78,6.49,86.49,20.42,12.81,9.29,27.55,16.35,38.76,27.6,18.13,21.33,32.85,43.06,36.93,72.17Z"/></g></g></svg>