<?xml version="1.0" encoding="UTF-8"?><svg xmlns="http://www.w3.org/2000/svg" viewBox="0 0 290.44 197.72"><defs><style>.d{fill:#a4a4a4;}</style></defs><g id="a"/><g id="b"><g id="c"><path class="d" d="M118.23,.57c73.46-2.14,109.94,1.11,164.41,20.57,2.49,.85,4.86,2.1,7.18,3.36,1.07,.58,.67,2.62-.53,3-12.2,2.27-73.42,1.32-91.39,2.9-33.34,2.23-66.73,2.45-100.04,5.13-.41,.03-1.07,.71-1.08,1.11-.02,.49,.45,1.06,.83,1.49,26.53,7.82,53.9,14.39,79.93,24.12,19.09,7.4,38.85,13.25,57.39,22,7.4,3.52,37.28,18.37,10.96,16.28-14.7-2.77-29.46-5.25-44.11-8.22-26.16-5.12-52.7-7.58-79.15-10.56-1.9-.21-4.04-1.07-5.58,1.01,1.97,3.13,4.15,5.94,7.51,7.66,14.72,9.7,29.4,19.46,44.2,29.03,13.18,7.36,23.77,18.01,34.43,28.54,1.02,1,1.93,2.13,2.77,3.29,1.84,2.14-.75,5.38-3.3,4.45-1.37-.41-2.73-.9-4.06-1.43-20.68-8.44-41.7-16.19-62.02-25.45-17.09-8.22-35.39-12.87-53.83-16.82-3.26-.9-7.99-.13-5.27,4.19,3.11,4.07,6.27,8.12,9.57,12.03,16.77,20.73,35.75,39.5,52.96,59.83,1.38,2.37,4.24,6.46,1.38,8.76-1.57,1.14-2.7,1.24-4.47-.04-15.64-11.6-92.93-69.82-116.1-87-4.91-3.05-7.51-7.44-8.75-12.8-2.87-12.37-5.77-24.73-8.37-37.15-1.44-8.01-3.11-16.18-3.72-24.27,1.3-5.57-.65-18.75,10.2-20.88C51.26,5.32,77.09,4.61,118.23,.57Z"/></g></g></svg>