<?xml version="1.0" encoding="UTF-8"?>
<svg id="_レイヤー_2" data-name="レイヤー 2" xmlns="http://www.w3.org/2000/svg" viewBox="0 0 121.45 174.78">
  <defs>
    <style>
      .cls-1 {
        fill: #a4a4a4;
      }
    </style>
  </defs>
  <g id="parts">
    <path class="cls-1" d="M47.15,.09s.5-.12,.94-.08c8.95,.93,9.14,.87,11.97,9.45,5.67,17.22,10.63,34.68,16.78,51.73,6.63,18.37,14.13,36.48,27.43,51.31,4.6,5.13,9.71,9.83,14.9,14.37,2.07,1.81,2.74,3.3,1.95,5.89-3.13,10.24-6.9,20.19-15.14,27.5-9.45,8.37-20.56,13.83-33.2,14.37-9.61,.41-19.5,.11-28.9-1.76-16.48-3.27-29.63-12.29-38.55-26.88-1.44-2.36-2.65-4.87-4.24-7.13-1.68-2.41-1.31-4.39,.3-6.64,9.16-12.78,16.3-26.75,24.09-40.35,8.49-14.81,12.91-30.81,15.41-47.46,2.2-14.7,4.16-29.43,6.24-44.31Z"/>
  </g>
</svg>