<?xml version="1.0" encoding="UTF-8"?><svg xmlns="http://www.w3.org/2000/svg" viewBox="0 0 194.25 150.77"><defs><style>.d{fill:#a4a4a4;}</style></defs><g id="a"/><g id="b"><g id="c"><path class="d" d="M2.46,136.34c-2.21-.42-2.64-.94-2.4-3.14C1.58,119.05,13.04,15.04,14.17,4.08,14.55,.37,14.06-.19,18.49,.05c5.69,.31,11.37,.73,17.05,1.18,13.44,1.05,90.42,5.27,115.46,6.4,13.48,.61,26.92,1.62,40.32,3.13,.57,.06,1.26-.08,1.67,.2,.55,.38,1.21,1.07,1.25,1.66,.1,1.7-.92,38.81-1.55,67.28-.32,14.42-2.72,52.06-3.46,66.47-.05,.95-.16,1.9-.38,2.82-.24,1.01-.91,1.61-2.03,1.58-2.28-.07-41.38-1.26-58.63-2.17-12.13-.65-24.23-1.85-36.33-3.01-19.28-1.84-38.55-3.83-57.82-5.79-10.01-1.02-31.15-3.39-31.58-3.45Z"/></g></g></svg>