<?xml version="1.0" encoding="UTF-8"?>
<svg id="_レイヤー_2" data-name="レイヤー 2" xmlns="http://www.w3.org/2000/svg" viewBox="0 0 193.11 295.91">
  <defs>
    <style>
      .cls-1 {
        fill: #a4a4a4;
      }
    </style>
  </defs>
  <g id="parts">
    <path class="cls-1" d="M2.78,0c1.83,5.16,3.28,10.44,5.54,15.34,4.72,10.22,10.1,20.14,14.79,30.38,3.84,8.38,20.32,30.2,23.6,33.35,16.64,15.97,35.45,28.59,56.75,37.67,24.81,10.58,52.83,25.39,67.71,41.75,5.66,6.23,16.36,13.39,21.13,32.25,3.39,13.45-4.35,33.6-12.68,48.85-10.54,19.3-36.63,56.43-36.76,56.31-.6-.55-2.92-1.3-2.93-1.99-.13-9.15,1.28-18.3,1.31-27.45,.07-18.16-3.15-35.79-9.47-52.73-3.07-8.24-7.82-23.1-16.19-28.02s-31.88-16.51-48.9-22.56c-6.8-2.42-12.89-6.8-19.34-10.21-9.37-4.96-16.76-12.01-22.63-20.81-4.05-6.07-8.31-12.02-12.68-17.87-3.91-5.24-10.1-31.74-10.29-39.11C1.44,64.22-.27,53.36,.04,42.35,.38,30.15,.21,17.95,.31,5.74,.33,3.7-.07,1.41,2.78,0Z"/>
  </g>
</svg>