<?xml version="1.0" encoding="UTF-8"?><svg xmlns="http://www.w3.org/2000/svg" viewBox="0 0 184.83 182.52"><defs><style>.d{fill:#a4a4a4;}</style></defs><g id="a"/><g id="b"><g id="c"><path class="d" d="M6.5,139.27c-.79-7.82-1.2-15.67-1.78-23.51-.92-10.13-2.02-20.25-2.96-30.39-.65-6.8-1.02-13.63-1.73-20.42-.26-2.21,.71-3.51,2.4-4.84C7.7,55.95,56.13,16.48,75.62,1.61c2.65-1.97,2.62-1.87,5.98-1.07,18.58,4.3,37.29,8,55.81,12.55,15,3.79,29.96,7.72,44.98,11.44,2.27,.58,2.5,.86,2.43,3.19-.1,3.22-6.84,88.16-7.65,98.7-.33,2.48,.53,5.54-1.92,7.14-13,9.78-53.08,41.51-60.22,47.45-2.13,1.77-3.9,1.85-6.32,.97-32.73-11.58-65.79-22.18-98.63-33.43-3.88-1.31-4.01-.78-3.88-5.37,.04-1.29,0-2.59,0-3.88l.3-.02Z"/></g></g></svg>