<?xml version="1.0" encoding="UTF-8"?>
<svg id="_レイヤー_2" data-name="レイヤー 2" xmlns="http://www.w3.org/2000/svg" viewBox="0 0 109.29 241.72">
  <g id="parts">
    <path class="cls-1" d="M39.68,24.14c5.69-8.33,13.01-15.55,20.62-22.51,2.33-2.13,2.35-2.17,4.87-.11,1.9,1.56,3.68,3.28,5.63,4.77,1.8,1.37,2.06,2.65,.8,4.65-7.04,11.18-13.9,22.48-20.94,33.66-4.86,7.7-8.91,15.76-11.69,24.45-.7,2.19-1.38,4.41-2.31,6.51-6.78,15.32-7.76,31.13-4.14,47.35,.9,4.05,1.34,8.26,2.72,12.13,1.43,4,3.61,7.76,5.71,11.49,8.64,15.37,19.88,28.79,31.49,41.94,11.19,12.67,22.45,25.27,34.92,36.73,2.59,2.38,2.5,2.63,.29,5.24-2.38,2.82-4.78,5.62-7.2,8.4-3.74,4.29-3.22,3.38-6.56,.12-5.93-5.8-11.72-11.75-17.59-17.61-14.91-14.87-29.88-29.67-44.72-44.61-2.57-2.59-4.85-5.54-6.89-8.57-3.52-5.22-7.15-10.43-10.02-16.01-3.43-6.67-6.14-13.72-9.1-20.63-1.33-3.1-2.56-6.25-3.74-9.42-.53-1.43-1.06-2.91-1.22-4.41-1.01-9.52-.72-19.03,.71-28.49,.27-1.79,1.06-3.52,1.76-5.22,4.35-10.55,10.31-20.23,16.01-30.07,6.03-10.4,12.7-20.32,20.6-29.76Z"/>
  </g>
</svg>