<?xml version="1.0" encoding="UTF-8"?><svg xmlns="http://www.w3.org/2000/svg" viewBox="0 0 134.92 139.52"><defs><style>.d{fill:#a4a4a4;}</style></defs><g id="a"/><g id="b"><g id="c"><path class="d" d="M0,76.35c1.87-1.34,23.43-13.19,31.85-18.67,9.01-5.87,17.98-12.04,24.78-20.64,1.55-1.96,21.4-36.1,21.9-36.53,.76-.65,1.76-.76,2.38,.14,.78,1.11,9.06,18.48,12.83,25.81,3.29,6.41,7.65,12.01,14.03,15.7,5.16,2.99,22.5,12.41,25.91,14.31,1.48,.83,1.65,2.39,.42,3.38-1.24,1.01-2.53,1.99-3.92,2.77-5.98,3.36-12.14,6.43-17.95,10.06-2.44,1.53-4.34,4.04-6.22,6.33-6.28,7.65-11.79,15.82-16.02,24.8-4.79,10.17-10.05,20.13-13.93,30.72-.29,.79-1.08,4.01-1.77,4.99-1.58-.19-4.36-5.79-7.44-15.89-3.08-10.1-15.73-31.56-27.28-37.01-10.35-5.8-21.34-9.62-33.5-8.77-1.58,.11-3.2-.15-4.79-.35-.35-.04-.63-.55-1.28-1.15Z"/></g></g></svg>