<?xml version="1.0" encoding="UTF-8"?><svg xmlns="http://www.w3.org/2000/svg" viewBox="0 0 192.65 138.05"><defs><style>.d{fill:#a4a4a4;}</style></defs><g id="a"/><g id="b"><g id="c"><path class="d" d="M76.2,137.83c-4.89,.95-7.61-1.14-10.12-5.47C58.55,119.39,5.23,32.98,1.7,27.52,.39,25.5-.37,23.52,.19,21.19,1.7,14.87,3.26,8.57,4.88,2.28,5.42,.19,6.94-.49,8.92,.35c7.59,3.24,70.63,35.93,83.99,43.9,2.12,1.26,4.54,2.2,6.94,2.78,11.4,2.78,81.54,11.38,85.87,12.6,1.82,.51,3.23,1.45,3.65,3.36,1.11,5.11,2.21,10.23,3.2,15.37,.37,1.93-.52,3.39-2.32,4.25-1.13,.54-2.24,1.12-3.35,1.7-11.56,4.67-28.67,8.34-43.52,15.67-8.32,7.58-17.42,23.34-21.83,30.57-3.28,2.89-1.52,4.7-6.11,4.89-8.71,.37-38.98,2.33-39.22,2.37Z"/></g></g></svg>