<?xml version="1.0" encoding="UTF-8"?><svg xmlns="http://www.w3.org/2000/svg" viewBox="0 0 253.04 83.39"><defs><style>.d{fill:#a4a4a4;}</style></defs><g id="a"/><g id="b"><g id="c"><path class="d" d="M0,77.89c3-5.37,5.12-9.81,7.84-13.86,5.01-7.48,21.4-28.95,24.58-32.13,5.2-5.21,10.58-10.25,15.97-15.27,7.18-6.68,15.57-11.22,25.08-13.65,1.37-.35,17.15-3.22,22.67-2.97,3.67,.16,16.51,3.24,23.66,5.79,7.14,2.55,20.63,13.37,26.94,20.8,4.37,5.14,14.89,16.72,15.74,17.19,.79,.44,1.9,.63,2.81,.48,.96-.15,6.3-3.34,7.96-4.52,5.47-3.89,11.75-5.79,18.15-7.23,2.5-.56,5.32-.4,7.86,.11,11.55,.19,22.4,6.54,24.8,8.36,10.27,7.77,18.67,17.12,23.77,29.15,1.59,3.75,3.54,7.35,5.18,11.09,.19,.42-.44,1.62-.95,1.83-.9,.37-1.99,.33-3,.31-5.32-.08-213.9-4.41-249.06-5.49Z"/></g></g></svg>