<?xml version="1.0" encoding="UTF-8"?><svg xmlns="http://www.w3.org/2000/svg" viewBox="0 0 151.28 123.63"><defs><style>.d{fill:#a4a4a4;}</style></defs><g id="a"/><g id="b"><g id="c"><g><path class="d" d="M40.86,75.68c2.52,1.37,5.2,2.42,7.78,3.68,17.82,7.77,30.79,22.17,43.69,36.19,2.06,1.17,8.56,11.33,10,7.03,.37-1.6,.65-3.22,.99-4.82,3.6-15.37,4.62-32.58,16.88-43.99,6.49-6.55,29.51-28.73,30.39-29.54,2.59-3.17-2.95-2.64-4.73-2.68-2.17-.59-4.31-1.45-6.52-1.73-22.56-3.71-45.03-11.94-62.31-27.26-4.29-3.81-8.63-7.57-12.97-11.33-2.18-1.88-2.65-1.7-3.56,1.22-2.18,9.26-6.02,17.83-10.2,26.33C40.45,48.85,18.27,56.81,.28,67.63c13.7,1.8,28.09,1.25,40.58,8.05Z"/><path class="d" d="M0,67.55s.22,.11,.23,.11h0s.03-.02,.05-.03h-.12l-.16-.08Z"/></g></g></g></svg>