<?xml version="1.0" encoding="UTF-8"?>
<svg id="_レイヤー_2" data-name="レイヤー 2" xmlns="http://www.w3.org/2000/svg" viewBox="0 0 160.43 167.66">
  <defs>
    <style>
      .cls-1 {
        fill: #a4a4a4;
      }
    </style>
  </defs>
  <g id="parts">
    <path class="cls-1" d="M33.59,8.65c9.11,2.89,18.18,8.04,26.96,12.03,20.61,9.94,23.78-29.5,35.58-18.83,4.32,5.49,7.09,12.2,8.55,19.06,.64,3.66,2.21,6.91,4.51,9.9,6.21,7.42,17.85-2.47,26,1.34,.86,.32,1.23,1.12,.86,2-2.04,3.53-5.53,6.01-7.23,9.86-4.83,8.25,14.96,6.9,19.43,8.04,4.57,.48,6.61,3.15,5.77,7.59-1.43,6.71-8.09,10.28-12.6,14.86-11.81,9.01,15.33,22.15,18.07,31.17,4.9,9.54-10.79,9.92-16.71,10.99-6.19,.94-9.97,4.73-10.89,10.88-.76,5.12-1.21,10.2-.4,15.42,.79,5.08-1.59,9.27-5.16,12.71-4.51,4.74-9.3-2.09-12.81-4.91-3.37-2.45-7.2-10.14-11.78-5.82-5.77,5.63-9.65,12.9-14.56,19.25-2.77,3.77-6.11,4.39-10.25,2.26-3.95-1.89-5.2-13.77-6.98-18.17-2.95-17.48-14.52-19.17-29.79-17.42-5.3-.31-11.92,2.53-15.75-2.39-2.38-2.72-3.43-5.35-1.67-8.96,2.17-4.45,3.9-9.12,5.77-13.72,2.87-7.79,8.56-16.47-2.23-20.45-4.12-1.9-8.45-3.34-12.72-4.9-4.16-1.61-9.08-2.09-12.21-5.57-1.72-1.89-1.78-4.75-.24-6.9,5.15-8.39,15.36-9.89,23.67-13.76,8.55-3.78,7.74-3.04,8-12.44,.04-1.62-.48-3.26-.83-4.87-1.52-7.07-3.12-14.13-4.61-21.21-.88-4.16,1.36-6.99,6.26-7.06Z"/>
  </g>
</svg>