<?xml version="1.0" encoding="UTF-8"?><svg xmlns="http://www.w3.org/2000/svg" viewBox="0 0 390.85 270.99"><defs><style>.d{fill:#a4a4a4;}</style></defs><g id="a"/><g id="b"><g id="c"><path class="d" d="M180.16,270.51c-18.17,1.96-35.4-2.38-52.55-7.6-29.52-9.16-57.1-21.37-79.32-37.81-13.87-12.52-30.16-24.15-42.43-37.38C-2.33,171.75,0,163.63,1.48,147.4c1.52-24.3,4.76-49.44,20.58-71.52,6.94-10,14.65-19.73,22.04-29.58,1.71-2.28,3.78-4.22,7.48-5.23,17.17-8.76,34.38-17.75,52.93-25.17C135.82,2.78,175.07-2.05,211.13,.78c28.26,4.65,56.24,9.83,82.39,18.81,2.62,.83,5.36,1.69,7.54,2.96,11.95,6.97,23.83,13.99,35.55,21.15,16.9,10.31,28.89,23.31,39.44,36.88,17.61,26.6,19.55,57.88,5.64,85.57-15.83,31.63-42.94,63.18-85.69,80.07-36.93,11.82-73.33,27.21-115.83,24.3Z"/></g></g></svg>