<?xml version="1.0" encoding="UTF-8"?><svg xmlns="http://www.w3.org/2000/svg" viewBox="0 0 180.56 140.86"><defs><style>.d{fill:#a4a4a4;}</style></defs><g id="a"/><g id="b"><g id="c"><path class="d" d="M173.12,52.74c-.57,8.91-1.31,18.15-1.66,27.4,.42,15.98,5.06,31.6,8.6,47.11,1.02,4.2,.79,4.83-3.34,7.13-4.14,2.31-8.43,4.33-12.66,6.48-4.55-1.05-7.84-4.3-11.6-6.7-27.01-17.34-51.46-38.18-77.13-57.37-2.79-2.05-5.95-3.74-9.16-5.05C44.26,63,23.25,52.37,2.2,41.81c-2.23-1.14-2.79-2.41-1.57-4.15,3.88-5.53,7.81-11.05,11.99-16.35,.95-1.2,2.94-1.87,4.57-2.21C52.96,13.02,88.8,7.26,124.84,3.07c5.7-.76,11.37-1.77,17.02-2.88,3.11-.61,5.16,.22,6.96,2.92,5.56,8.34,11.33,16.53,17.03,24.77,2.36,3.7,6.11,7.08,7.39,11.13,1.16,4.33-.42,9.06-.12,13.73Z"/></g></g></svg>