<?xml version="1.0" encoding="UTF-8"?><svg xmlns="http://www.w3.org/2000/svg" viewBox="0 0 272.45 74.43"><defs><style>.d{fill:#a4a4a4;}</style></defs><g id="a"/><g id="b"><g id="c"><path class="d" d="M259.1,50.69c-.29,.2-.64,.41-.97,.66-8.68,6.62-17.71,3.28-24.18-1.89-1.59-1.27-2.94-2.85-4.39-4.29-.87-.87-1.67-1.81-2.57-2.64-1.8-1.66-2.04-1.64-4.19-.45-6.29,3.48-12.85,6.32-19.72,8.46-7.21,2.24-14.27,1.04-21.16-1.05-2.62-.79-4.8-3.04-7.2-4.6-1.86-1.21-3.63-3.05-5.66-3.41-2.33-.42-3.51,2.44-5.35,3.67-3.92,2.61-7.64,5.54-11.61,8.06-6.16,3.91-12.86,5.19-20.02,3.27-4.15-1.11-8.27-2.17-12.17-4.15-3.83-1.94-7.97-3.23-11.91-4.96-2.21-.97-3.93-.52-5.55,1.09-4.02,4-8.93,6.59-14.28,8.15-4.89,1.42-9.95,2.32-14.97,3.24-1.09,.2-2.39-.42-3.53-.84-2.3-.86-4.58-1.8-6.83-2.79-1.71-.75-3.09-.5-4.45,.83-2.92,2.87-5.95,5.63-8.89,8.49-2.98,2.9-6.5,4.93-10.16,6.84-3.21,1.68-6.53,2.3-10.09,1.98-5.38-.48-10.5-1.78-15.07-4.8-.34-.23-.68-.46-1.02-.68-10.47-6.73-7.95-3.4-11.55-15.96C-.39,45.9-.48,38.78,1.08,31.62c.5-2.28,1.32-4.24,3.02-5.89,2.64-2.57,5.18-5.24,7.76-7.87,2.77-2.81,6.23-3.97,10.06-3.75,3.26,.19,6.55,.51,9.73,1.24,5.8,1.34,11.1,3.64,15.89,7.47,8.11,6.48,6.63,5.64,12.43-1.78,1.51-1.94,3.08-3.84,4.72-5.67,6.65-7.43,20.64-10.91,30.11-3.48,2.9,2.27,5.91,4.42,8.96,6.48,2.47,1.67,3.3,1.52,5.41-.37,.46-.41,.87-.87,1.28-1.33,7.24-8.07,16.92-11.35,27.1-13.18,5.48-.98,10.97-.28,15.68,3.56,3.96,3.23,8.2,6.13,12.38,9.09,2.14,1.52,2.76,1.47,4.84-.32,4.65-4.01,9.23-8.11,13.85-12.16,.75-.66,1.49-1.58,2.38-1.81,5.76-1.51,11.56-3.14,17.4-.29,3.12,1.52,6.29,2.95,9.34,4.59,2.7,1.45,5.29,3.13,7.91,4.73,2.3,1.4,4.39,1.59,6.79-.14,2.31-1.65,5.02-2.74,7.53-4.1,5.38-2.91,11.16-1.94,16.85-1.71,.78,.03,1.61,.41,2.29,.83,4.88,3.04,9.51,6.32,13.19,10.88,5.59,6.91,5.44,14.31,2.18,21.94-2.24,5.23-6.21,9.09-11.07,12.11Z"/></g></g></svg>