<?xml version="1.0" encoding="UTF-8"?><svg xmlns="http://www.w3.org/2000/svg" viewBox="0 0 155.91 57.14"><defs><style>.d{fill:#a4a4a4;}</style></defs><g id="a"/><g id="b"><g id="c"><path class="d" d="M133.29,52.84c-13.02-.48-14.84-6.86-22.78-10.74-1.6-.91-2.98-.65-4.46,.59-3.44,2.8-7.61,4.85-10.78,7.99-3.66,3.82-4.56,4.4-9.71,5.18-8.13,2.72-15.42,1.03-21.76-4.42-5.21-3.07-9.65-12.13-15.58-5.93-7.07,4.86-15.86,9.38-24.6,6.94-8.59-1.98-17.45-4.92-21.63-13.42-4.61-6.37,0-13.14,1.69-19.76C6.3,11.44,13.55,6.83,20.04,2.41c8.14-4.85,10.47-1.3,17.88,1.2,8.72,1.01,10.18,13.3,12.77,19.91,1.89,5.46,6.32-1.35,8.28-3.42,2.98-3.38,5.9-6.79,8.91-10.14,2.17-2.42,4.91-3.53,8.19-3.36,2.87,.14,5.75,.37,8.6,.2,9.39-.35,14.08,9.83,19.8,15.7,.92,1.04,2.38,.89,3.15-.26,2.34-3.33,4.28-6.97,7.05-9.98,4.2-5.14,9.61-5.96,15.99-5.49,26.24,1.97,25.62,20.5,25.1,31.29,.18,5.27-4,8.47-7.9,11.27,.12,.24-14.57,3.51-14.57,3.51Z"/></g></g></svg>