<?xml version="1.0" encoding="UTF-8"?><svg xmlns="http://www.w3.org/2000/svg" viewBox="0 0 97.86 63.06"><defs><style>.d{fill:#a4a4a4;}</style></defs><g id="a"/><g id="b"><g id="c"><path class="d" d="M30.92,62.99c-7.64,.52-14.18-1.89-19.82-6.71C-.57,46.33-2.82,34.91,3.32,23.14c3.19-6.12,8.33-10.98,14.81-13.73,6.05-2.57,12.3-4.77,18.62-6.55C41.83,1.43,47.13,.33,52.38,.07c11.13-.54,21.59,2,30.79,8.71,2.87,2.09,5.94,3.9,8.76,6.04,3.81,2.9,6.48,6.59,5.84,11.66-.28,2.2-.97,4.51-2.1,6.39-2.49,4.12-5.53,7.73-9.68,10.53-11.02,7.45-22.64,13.55-35.63,16.56-6.37,1.48-12.95,2.04-19.43,3.01Z"/></g></g></svg>