<?xml version="1.0" encoding="UTF-8"?><svg xmlns="http://www.w3.org/2000/svg" viewBox="0 0 149.2 257.51"><defs><style>.d{fill:#a4a4a4;}</style></defs><g id="a"/><g id="b"><g id="c"><path class="d" d="M102.24,39.18c3.26,3.94,6.61,7.82,9.77,11.85,4.39,5.9,9.17,11.6,12.97,17.89,8.51,16.39,15.71,33.34,21.95,50.72,2.58,7.18,2.38,14.48,2.15,21.84-.04,1.19-.5,2.4-.93,3.54-2.68,7.09-5.42,14.15-8.1,21.24-3.97,10.53-10.51,19.4-17.87,27.75-15.41,17.83-31.16,35.33-47.98,51.86-5.56,4.8-12.93,7.06-19.25,10.76-1.73,.89-3.53,1.3-5.29,.29-5.49-3.17-11.28-5.9-15.57-10.81-8.94-9.17-10.99-23.63-.62-32.7,4.74-4.54,9.48-9.08,14.04-13.79,7.17-7.41,15.56-13.29,23.73-19.47,11.43-9.3,21.62-20.09,32.13-30.38,4.43-4.52,8.25-9.64,12.28-14.54,2.49-4.54,2.43-10.38,2.51-15.53-.2-2.34-.85-4.4-2.53-6.09-2.75-2.76-5.4-5.62-8.25-8.27-1.17-1.09-2.67-1.92-4.15-2.55-11.85-5.1-23.67-10.23-35.88-14.48-15.66-5.45-31.15-11.4-46.73-17.09-10-3.41-14.98-13.25-18.67-22.39C-5.31,30.46,9.2,13.33,21.9,1.57,22.99,.53,24.23-.02,25.77,0c5.52,.06,10.99-.16,16.33,2.03,5.1,2.1,10.46,3.57,15.7,5.35,5.07,1.72,9.85,4.02,14.27,7.08,5.72,3.96,11.83,7.37,17.02,12.09,.55,.5,12.39,11.69,13.16,12.63Z"/></g></g></svg>