<?xml version="1.0" encoding="UTF-8"?><svg xmlns="http://www.w3.org/2000/svg" viewBox="0 0 146.84 146.52"><defs><style>.d{fill:#a4a4a4;}</style></defs><g id="a"/><g id="b"><g id="c"><path class="d" d="M146.84,79.12c-2.09,.86-3.41,1.57-4.82,1.96-12.74,3.55-24.19,10.03-35.72,16.19-6.22,3.32-11.23,8.71-14.9,14.79-4.44,7.36-8.15,15.16-12.32,22.69-1.75,3.15-3.62,6.29-5.91,9.05-3.17,3.82-3.64,3.61-5.88-.68-4.15-7.94-8.19-15.94-12.54-23.77-6.9-12.43-16.09-22.78-28.56-29.9-7.77-4.44-15.64-8.7-23.46-13.06-.72-.4-1.4-.89-2.73-1.73,2.56-1.62,4.66-3.03,6.83-4.31,13.66-8.02,27.31-16.07,41.03-23.99,6.24-3.6,11.29-8.38,15.47-14.22,6.42-8.97,12.97-17.84,19.49-26.74,.92-1.25,1.83-2.54,2.96-3.58,.91-.84,2.41-2.07,3.17-1.8,.94,.34,1.65,1.97,2.01,3.18,1.8,5.94,3.59,11.88,5.12,17.89,2.54,10.02,8.25,18.53,12.91,27.54,.83,1.61,2.37,2.97,3.84,4.1,7.64,5.9,15.39,11.65,23.04,17.53,3.52,2.7,6.9,5.56,10.95,8.83Z"/></g></g></svg>