<?xml version="1.0" encoding="UTF-8"?><svg xmlns="http://www.w3.org/2000/svg" viewBox="0 0 99.01 76.35"><defs><style>.d{fill:#a4a4a4;}</style></defs><g id="a"/><g id="b"><g id="c"><path class="d" d="M85.07,10.01c3.39,3.54,7.11,7.84,9,13.33,1.61,4.68,3.23,9.4,4.37,14.21,1.73,7.32-.54,13.16-6.48,18.14-14.25,11.95-30.66,18.39-48.96,20.38-6.7,.73-13.25,.33-18.71-4.49-.85-.75-2.03-1.2-3.13-1.59-9.64-3.45-15.54-10.21-18.35-20.01C1.51,45.43-.24,41.02,.03,36.18c.08-1.41-.08-2.95,.41-4.21,2.84-7.25,5.54-14.66,12.36-19.36,4.08-2.81,8.16-5.66,12.45-8.13C32.26,.45,40.13,.15,47.95,0c11.06-.2,21.45,3.06,31.8,6.46,.89,.29,1.76,.71,2.54,1.21,.79,.51,1.46,1.2,2.78,2.32Z"/></g></g></svg>