<?xml version="1.0" encoding="UTF-8"?><svg xmlns="http://www.w3.org/2000/svg" viewBox="0 0 186.73 170.12"><defs><style>.d{fill:#a4a4a4;}</style></defs><g id="a"/><g id="b"><g id="c"><path class="d" d="M93.5,1.3c16.22,.24,32.44,.48,48.67,.72,12.29,.19,24.57,.39,36.86,.6,2.21,.04,4.41,.15,6.62,.24,.67,.03,1.07,.35,1.08,1.05,.01,.67-.46,43.87-.68,64.8-.2,18.82-.36,37.63-.56,56.45-.11,10.08-.66,35.03-.84,37.42-.07,.97-.29,1.18-1.25,1.18-4.61,.04-9.22,.06-13.82,.06-15.84-.01-31.68-.1-47.52-.02-4.99,.03-9.97,.46-14.95,.75-8.72,.49-42.25,2.55-50.3,3.03-4.79,.29-37.96,1.86-49.76,2.39-5.17,.23-4.42,.86-4.55-4.15-.25-9.4-.74-33.39-.75-35.99-.03-7.68-.05-15.36-.12-23.04-.15-15.84-.27-31.68-.52-47.52-.11-7.1-.59-14.19-.78-21.29C.11,29.82-.03,1.98,0,1.41,.08,.27,.29,.05,1.36,0c.77-.03,92.15,1.32,92.15,1.3Z"/></g></g></svg>