<?xml version="1.0" encoding="UTF-8"?><svg xmlns="http://www.w3.org/2000/svg" viewBox="0 0 337.84 110.17"><defs><style>.d{fill:#a4a4a4;}</style></defs><g id="a"/><g id="b"><g id="c"><path class="d" d="M337.84,110.17c-7.84-5.39-16.19-9.3-24.21-14.26-27.35-16.27-54.64-32.65-82.24-48.49-4-2.25-8.16-4.23-12.19-6.43-2.16-1.18-4.12-1.05-6.32-.01-15.78,7.46-88.83,40.02-109.51,48.98-1.13,.5-2.05,.54-3.15,.06-12.27-5.18-24.7-10.13-37.29-14.41-13.33-4.33-25.91-10.44-38.9-15.54-7.99-3.21-16.12-5.85-24.02-9.3,.42-1.33,1.51-.82,2.25-.74,11.83,1.2,23.59,3.03,35.41,4.24,21.63,2.12,42.94,6.43,64.33,10.04,2.03,.41,3.76,.17,5.47-.83,15.89-9.27,71.22-41.56,83.2-48.07,4.82-1.67,30.35-18.54,31.99-14.89,21.56,21.95,95.95,91.37,111.12,104.63,1.66,1.45,3.23,2.97,4.06,5.03Z"/></g></g></svg>