<?xml version="1.0" encoding="UTF-8"?><svg xmlns="http://www.w3.org/2000/svg" viewBox="0 0 124.52 131.26"><defs><style>.d{fill:#a4a4a4;}</style></defs><g id="a"/><g id="b"><g id="c"><path class="d" d="M95.83,131.25c-24.99-4.73-49.57-9.69-74.15-15.96-10.91-3.42-11.01-3.43-12.55-14.94-1.86-19.46-4.72-38.8-7.65-58.13-.43-2.96-.61-5.95-1.03-8.91-.88-6.21-.99-6.37,4.52-9.03,9.28-4.49,18.74-8.62,28-13.16,5.67-2.78,11.13-5.98,16.64-9.08,5.17-2.91,6.91-2.81,11.62,1.03,11.93,11.1,23.82,22.26,35.78,33.34,7.8,7.23,15.61,14.46,23.56,21.52,4.01,3.56,4.97,7.24,2.9,12.38-5.6,13.86-10.73,27.91-16.14,41.85-2.04,5.27-4.44,10.41-6.41,15.7-1,2.69-2.76,3.53-5.08,3.4Z"/></g></g></svg>