<?xml version="1.0" encoding="UTF-8"?><svg xmlns="http://www.w3.org/2000/svg" viewBox="0 0 104.52 53.23"><defs><style>.d{fill:#a4a4a4;}</style></defs><g id="a"/><g id="b"><g id="c"><path class="d" d="M103.44,25.93c2.75,6.76,.16,14.17-6.38,17.19-9.47,4.37-19.37,7.47-29.58,9.52-2.86,.57-5.87,.59-8.8,.59-9.54,0-19.08-.17-28.62-.2-2.91,0-5.38-.9-7.85-2.48C13.61,45.03,7.43,37.3,1.92,28.93c-2.09-3.18-2.64-6.55-.8-9.96,1.59-2.93,3.31-5.83,5.33-8.46,1.62-2.11,3.95-3.3,6.71-3.96,7.36-1.76,14.62-3.97,21.97-5.79C37.54,.16,40.11-.07,42.6,.02c5.6,.2,11.23,.37,16.77,1.13,14.66,2.01,26.77,9.72,38.45,18.1,2.29,1.64,3.77,4.43,5.62,6.68Z"/></g></g></svg>