<?xml version="1.0" encoding="UTF-8"?><svg xmlns="http://www.w3.org/2000/svg" viewBox="0 0 174.34 147.01"><defs><style>.d{fill:#a4a4a4;}</style></defs><g id="a"/><g id="b"><g id="c"><path class="d" d="M1.9,63.5c8.03-5.18,17.79-8.88,26.46-13.09,20.8-9.54-7.55-37.13,8.2-39.41,6.98,.18,13.92,2.32,20.13,5.57,3.22,1.84,6.73,2.71,10.5,2.84,9.68-.05,9.48-15.33,17.61-19.17,.8-.46,1.64-.24,2.09,.61,1.42,3.83,1.1,8.09,2.98,11.86,3.27,8.98,14.86-7.12,18.59-9.84,3.29-3.21,6.64-3.08,9.52,.4,4.26,5.38,2.75,12.79,3.41,19.18-.59,14.85,26.84,2.33,35.53,5.96,10.47,2.31,.76,14.64-2.19,19.88-3.23,5.36-2.72,10.7,1.43,15.32,3.46,3.85,7.09,7.44,11.62,10.15,4.41,2.63,6.13,7.14,6.5,12.08,.78,6.5-7.54,5.83-11.95,6.73-4.04,1.03-12.4-.93-12,5.36,.66,8.04,3.78,15.66,5.54,23.49,1.14,4.53-.52,7.5-4.8,9.33-3.98,1.84-13.92-4.77-18.45-6.21-15.34-8.87-24.02-1.05-32.42,11.84-3.62,3.89-5.65,10.8-11.89,10.6-3.62,.1-6.31-.77-7.96-4.43-2.04-4.51-4.54-8.82-6.89-13.19-4.17-7.18-7.22-17.09-17.17-11.33-4.09,1.96-7.97,4.38-11.89,6.68-3.89,2.18-7.4,5.66-12.08,5.85-2.56,.12-4.79-1.66-5.46-4.21-3.18-9.32,2.18-18.14,4.5-27.01,2.54-8.99,2.6-7.91-4.48-14.1-1.22-1.06-2.82-1.7-4.28-2.46-6.42-3.34-12.87-6.61-19.27-9.98-3.76-1.98-4.52-5.51-1.45-9.32Z"/></g></g></svg>