<?xml version="1.0" encoding="UTF-8"?><svg xmlns="http://www.w3.org/2000/svg" viewBox="0 0 237.02 155.29"><defs><style>.d{fill:#a4a4a4;}</style></defs><g id="a"/><g id="b"><g id="c"><path class="d" d="M40.84,46.6c5.34-7.75,12.03-14.67,18.7-21.54,2.93-3.02,6.82-5.22,10.52-7.36,8.86-5.13,17.96-9.82,27.55-13.52C116.32-2.19,137.33,.03,156.64,2.31c7.74,.97,12.84,7.55,19.82,10.55,3.97,2,7.61,4.74,10.7,8.13,25.98,23.37,37.85,44.2,49.42,76.87,.92,2.49,.45,3.35-2.08,4.02-3.95,1.05-7.94,1.93-11.92,2.86-2.79,.65-5.6,1.21-8.37,1.91-2.97,.75-4.17,.52-5.64-2.12-8.15-14.36-14.57-29.91-25.79-42.29-1.93-2.07-3.5-4.52-5.03-6.92-5.52-8.73-5.92-9.12-15.43-13.07-16.59-6.51-35.01-11.7-52.58-5.95-1.94,.61-3.99,1.01-6.02,1.19-11.51,1-20.79,6.76-29.69,13.52-13.93,10.69-22.76,26.59-27.58,43.22-4.07,16.04-9.14,31.94-11.33,48.38-1.56,9.23-13.79,7.05-20.58,9.83-3.38,.79-6.74,1.66-10.13,2.45-4.27,.99-4.97,.41-4.09-3.67,3.59-17.87,9.14-35.23,14.23-52.71,5.61-18.78,14.81-36.06,26.28-51.89Z"/></g></g></svg>