<?xml version="1.0" encoding="UTF-8"?><svg xmlns="http://www.w3.org/2000/svg" viewBox="0 0 192.71 122.79"><defs><style>.d{fill:#a4a4a4;}</style></defs><g id="a"/><g id="b"><g id="c"><path class="d" d="M184.18,120.43c-3.14-2.72-5.78-5.2-8.61-7.41-7.76-6.07-39.54-30.87-48.13-36.64-5.88-3.95-11.25-8.67-16.88-12.99-1.64-1.26-26.25-16.75-28.33-18.12-2.63-1.74-5.07-1.45-7.84-.5-6.51,2.23-37.99,12.35-47.12,15.44-7.39,2.5-14.73,5.15-22.11,7.68-1.07,.37-2.23,.6-3.35,.6-.51,0-1.1-.66-1.49-1.15-.25-.32-.27-.87-.28-1.32-.02-2.07-.09-4.14,.04-6.2C.69,49.49,2.6,17.83,2.93,12.33c.08-1.37,.21-2.75,.43-4.11,.23-1.39,1.12-1.92,2.47-1.47,3.48,1.15,7.03,2.15,10.41,3.53,14.69,6.01,30.01,10,45.29,14.12,6.64,1.79,13.4,3.12,20.09,4.76,2.99,.73,5.86,.71,8.82-.21C99.43,26.15,181.94,2.31,189.69,.21c2.18-.59,2.86,.02,3.01,2.39,.11,1.83-.98,35.8-1.62,50.95-.31,7.48-2.48,58.47-2.86,68.42-.03,.69-.83,1.05-1.37,.62l-2.67-2.17Z"/></g></g></svg>