<?xml version="1.0" encoding="UTF-8"?>
<svg id="_レイヤー_2" data-name="レイヤー 2" xmlns="http://www.w3.org/2000/svg" viewBox="0 0 179.98 177.82">
  <defs>
    <style>
      .cls-1 {
        fill: #a4a4a4;
      }
    </style>
  </defs>
  <g id="parts">
    <path class="cls-1" d="M118.42,44.54c-.29-1.4-.82-2.66-.76-3.9,.55-11.51-.45-23.01-.59-34.51-.04-3.22,.26-3.82,3.32-4.09,5.09-.45,10.21-.66,15.33-.9C146.15,.73,156.59,.24,167.03,0c3.7-.04,4.53,.74,4.69,4.3,.89,21.55,1.79,43.1,2.97,64.63,.93,19.41,1.67,38.83,2.89,58.22,.59,10.87,1.14,21.74,1.74,32.61,.15,2.77,.47,5.53,.64,8.31,.22,2.93-3.15,2.83-5.15,3-41.17,1.2-82.29,3.47-123.45,4.81-14.93,.54-29.91,1.74-44.83,1.87-3.57,.36-4.22-.75-4.24-4.29-.25-11.94-1.49-23.87-2.3-35.79-.07-3.77,.46-4.52,4.02-4.96,10.57-1.32,21.21-2.2,31.72-4,1.96-.33,2.28-.92,2.24-3.06-.11-6.22-1.33-12.31-2.16-18.45-.99-7.34-1.63-7.14,5.9-8.36,9.94-1.62,19.98-1.95,30-2.58,2.28,.03,5.76,.08,5.6-3.15-1.03-10.41-2.2-20.83-3.21-31.25-.28-7.95-2.27-9.66,6.74-10.45,10.14-1.49,20.29-2.94,30.43-4.48,2.4-.36,5-.16,7.13-2.38Z"/>
  </g>
</svg>