<?xml version="1.0" encoding="UTF-8"?><svg xmlns="http://www.w3.org/2000/svg" viewBox="0 0 188.21 54.86"><defs><style>.d{fill:#a4a4a4;}</style></defs><g id="a"/><g id="b"><g id="c"><path class="d" d="M184.47,29.16c1.28,2.78,2.36,5.15,3.45,7.52,.41,.88,.37,1.75-.02,2.62-2.42,5.73-7.08,11.29-13.64,11.98-28.3,2.55-56.72,3.85-85.14,3.53-12.46-.49-24.76-2.55-37.14-3.8-9.18-.97-17.8-4.36-26.41-7.41-6.09-2-11.76-4.93-17.29-8.12-1.43-.83-2.92-1.67-3.42-3.48-.11-.41-.5-.74-.79-1.09-1.92-2.59-5.08-7.59-3.74-10.73,.84-4,1.95-5.24,5.67-6.86,3.66-2.04,7.33-4.06,11.01-6.07,8.63-3.37,18.22-3.93,27.28-5.73,6.05-.35,12.14-.75,18.2-1.19,13.19-.95,26.34,.36,39.5,1.04,12.09,.78,23.96,3.61,35.88,5.65,10.24,1.95,20.19,5.2,30.22,7.94,7.63,1.49,12.54,8.26,16.4,14.19Z"/></g></g></svg>