<?xml version="1.0" encoding="UTF-8"?>
<svg id="_レイヤー_2" data-name="レイヤー 2" xmlns="http://www.w3.org/2000/svg" viewBox="0 0 42.89 181.75">
  <defs>
    <style>
      .cls-1 {
        fill: #a4a4a4;
      }
    </style>
  </defs>
  <g id="parts">
    <path class="cls-1" d="M2.71,5.45c.17-2.11,1.57-2.6,3.32-2.83C12.06,1.82,18.08,.94,24.12,.16c3.22-.41,3.45-.26,3.79,3.01,.97,9.23,1.98,18.45,2.76,27.69,3.98,47.24,7.91,94.48,11.83,141.72,.69,8.26,1.31,6.96-6.23,7.41-10.85,.65-21.71,1.16-32.57,1.72-3.31,.17-3.76-.21-3.69-3.59C.26,165.97,2.64,30.01,2.91,17.58c.06-2.9-.05-5.79-.1-8.69-.02-1.15-.07-2.3-.11-3.44Z"/>
  </g>
</svg>