<?xml version="1.0" encoding="UTF-8"?>
<svg id="_レイヤー_2" data-name="レイヤー 2" xmlns="http://www.w3.org/2000/svg" viewBox="0 0 302.36 276.68">
  <defs>
    <style>
      .cls-1 {
        fill: #a4a4a4;
      }
    </style>
  </defs>
  <g id="parts">
    <path class="cls-1" d="M58.75,126.5c-3.74-3.59-7.48-7.17-11.21-10.76-13.41-12.89-26.79-25.83-40.26-38.66-5.2-4.96-6.3-10.64-3.77-17.2,.06-.14,.13-.28,.18-.43,2.66-7.34,3.59-8.02,11.43-7.11,5.83,.68,11.37,2.19,16.61,5.14,13.15,7.41,25.61,15.79,37.52,25.05,.69,.54,1.78,.57,3.41,1.06-.97-2.14-1.57-3.52-2.22-4.87-7.79-16.38-15.71-32.7-23.28-49.18-1.49-3.25-1.96-7.1-2.31-10.73-.38-3.95,3.93-9.88,7.79-11.06,1.31-.4,3.06-.16,4.37,.38,12.81,5.28,23.47,13.54,31.64,24.63,7.84,10.64,14.99,21.78,22.47,32.69,.81,1.18,1.77,2.25,2.66,3.37,.3-.12,.59-.25,.89-.37,.68-5.27,1.34-10.54,2.04-15.8,1.68-12.72,5.08-24.98,9.94-36.86,2.08-5.09,5.26-9.36,9.45-12.89,4.22-3.55,7.52-3.85,12.16-.84,4.23,2.75,7.68,6.37,8.88,11.37,1.31,5.51,2.28,11.12,2.97,16.75,.95,7.72,1.49,15.49,2.24,23.63,4.7-2.63,9.03-5.21,13.5-7.53,14.11-7.34,28.73-13.39,44.55-15.88,5.29-.83,10.7-1.15,16.06-1.16,4.9-.02,7.75,4.73,5.92,9.32-1.78,4.48-3.75,8.89-5.62,13.33-1.24,2.95-3.01,5.45-5.23,7.82-7.29,7.8-14.35,15.84-21.44,23.83-1.35,1.53-.77,2.76,1.65,2.78,5.82,.04,11.64-.17,17.46-.4,12.75-.5,25.48-1.2,38.23-1.52,3.95-.1,7.94,.71,11.89,1.25,7.89,1.09,13.74,5.87,19.25,11.1,.8,.75,.96,2.4,1,3.65,.03,.82-.56,1.77-1.1,2.49-4.78,6.38-9.1,13.16-16,17.64-6.06,3.93-11.77,8.48-18.11,11.86-8.93,4.76-18.3,8.7-27.49,12.98-.54,.25-1.47,.2-1.65,.56-.32,.63-.52,1.88-.18,2.17,1.03,.88,2.33,1.46,3.56,2.09,16.38,8.5,32.82,16.87,49.1,25.55,4.02,2.14,7.55,5.23,11.2,8.01,1.07,.82,1.96,1.98,2.67,3.14,1.35,2.22,1.08,4.03-1.09,5.5-2.01,1.36-4.18,2.81-6.49,3.35-11.6,2.74-23.29,4.27-35.15,1.46-7.63-1.8-15.33-3.31-22.91-5.29-5.27-1.38-10.38-3.38-15.58-5.05-.42-.13-1.38,.11-1.39,.24-.06,.66-.12,1.53,.24,1.99,7.49,9.34,15.08,18.6,22.54,27.96,3.35,4.21,6.4,8.64,9.64,12.94,1.93,2.56,2.84,5.38,2.63,8.6-.11,1.68,.01,3.38,.06,5.07,.13,4.61-1.3,6.78-5.86,6.9-4.39,.11-8.89-.43-13.19-1.37-7.18-1.56-13.3-5.54-19.22-9.72-10.3-7.27-20.52-14.66-30.82-21.94-2.96-2.09-6.07-3.97-9.11-5.95-.23,.22-.46,.43-.69,.65,2.31,10.36,4.63,20.73,6.92,31.1,1.9,8.57,3.6,17.17,3.55,26,0,2.07,.55,4.38-1.89,5.74-2.83,1.57-5.73,2.23-8.8,.86-.83-.37-1.6-.93-2.32-1.51-7.92-6.38-15.11-13.16-19.9-22.56-5-9.81-9.17-19.89-13-30.15-.26-.7-.58-1.39-1.1-2.64-.71,1.27-1.31,2.05-1.62,2.94-3.71,10.59-7.13,21.29-11.16,31.76-2.25,5.84-5.02,11.6-8.4,16.85-4.54,7.04-8.19,7.07-13.91,1.03-8.73-9.21-13.29-20.2-13.44-32.88-.1-8.6,.15-17.2,.33-25.79,.07-3.36,.38-6.72,.63-10.95-1.6,.88-2.58,1.39-3.54,1.94-3.49,2.01-23.95,18.6-30.43,24.15-1.96,1.68-4.15,3.22-6.47,4.36-3.64,1.8-7.63,2.41-11.69,1.88-3.5-.46-7.02-.96-10.47-1.7-4.16-.89-6.96-3.27-8.61-7.45-3.24-8.2-2.73-16.24,.14-24.3,1.29-3.62,2.78-7.17,4.3-10.7,.54-1.24,1.29-2.46,2.19-3.46,8.04-8.89,16.43-17.42,25.78-24.95,.68-.55,1.17-1.35,2.07-2.42-3.19-1.11-6.01-2.1-8.83-3.08-9.86-3.43-19.79-6.66-29.53-10.39-4.08-1.56-7.86-4.03-11.57-6.41-3.84-2.46-5.33-7.03-3.83-11.27,.31-.87,1.71-1.74,2.72-1.91,7.28-1.19,14.55-2.45,22-1.87,4.29,.33,8.62,.13,12.89,.6,4.7,.52,9.34,1.61,14.03,2.32,1.93,.29,3.92,.25,5.88,.36,.22-.41,.44-.81,.67-1.22Z"/>
  </g>
</svg>