<?xml version="1.0" encoding="UTF-8"?><svg xmlns="http://www.w3.org/2000/svg" viewBox="0 0 195.81 177.85"><defs><style>.d{fill:#a4a4a4;}</style></defs><g id="a"/><g id="b"><g id="c"><path class="d" d="M158.7,177.85c-26.51-2.16-33.68-11.66-55.1-23.98-9.69-6.23-21.26-5.34-32.23-3.88-5.87,.69-10.89,3.54-15.73,6.64-7.78,4.98-27.23,14.83-38.28,15.85-6.43,.59-14.91-.87-15.99-9.15-4.5-18.4,3.01-35.34,8.26-52.66,3.58-13.57-.31-27.79-1.1-41.53-2.03-19.4-4.88-39.42-.74-58.7C9.64,5.12,12.55,1.18,18.77,.2c4.68-.74,50.49,.63,68.61,2.62,11.05,1.41,22.09,1.05,33.14,.6,13.97,.1,27.55-5.15,41.51-2.41,25.18,1.99,18.56,30.73,19.01,48.6,0,9.22-.5,18.43-.6,27.65-1.02,21.89,4.02,43.62,13.38,63.73,2.88,5.62,2.56,11.43-.47,17.13-2.13,4.01-10.51,11.68-14.64,14.09-6.93,3.95-20.01,5.64-20.01,5.64Z"/></g></g></svg>