<?xml version="1.0" encoding="UTF-8"?><svg xmlns="http://www.w3.org/2000/svg" viewBox="0 0 243.9 110.1"><defs><style>.d{fill:#a4a4a4;}</style></defs><g id="a"/><g id="b"><g id="c"><path class="d" d="M243.9,24.06c-14.56,28.5-28.44,56.61-43.17,84.93-.74,1.25-1.84,1.46-3.08,.53-8.96-7.18-18.59-13.37-28.36-19.38-9.56-5.97-21.54-4.2-32.11-7.13-12.33-2.69-32.34,1.43-43.58,7.05-12.96,6.46-26.95,9.69-41.11,12.19-15.73,2.5-31.43-1.65-46.95-3.81-2.31-.45-7.53-1.24-4.72-4.41,8.97-11.43,17.94-22.87,26.95-34.27C42.96,40.47,58.32,21.29,73.46,1.96c2.17-2.46,2.68-2.44,5.65-.83,19.69,10.84,38.85,23.07,60.13,30.67,15.08,4.52,30.68,7.59,46.5,7.64,4.12,0,8.16-.18,12.18-1.13,16.3-3.62,30.38-6.93,45.97-14.24Z"/></g></g></svg>