<?xml version="1.0" encoding="UTF-8"?>
<svg id="_レイヤー_2" data-name="レイヤー 2" xmlns="http://www.w3.org/2000/svg" viewBox="0 0 191.55 312.72">
  <defs>
    <style>
      .cls-1 {
        fill: #a4a4a4;
      }
    </style>
  </defs>
  <g id="parts">
    <path class="cls-1" d="M.3,171.58c.07-7.99-.41-16,1.27-23.88,2.99-14.23,5.59-28.61,11.98-41.79,13.17-27.77,31.55-52.77,50.75-76.65,1.39-1.73,3.14-3.25,4.97-4.53,11.77-8.25,24.14-15.48,37.08-21.74C115.12-1.61,125.25,.64,134.76,.02c10.64-.1,20.74,2.72,30.42,6.6,7.26,2.9,13.26,8.11,18.44,14.04,3.47,4.59,3.81,10.79,6.09,15.97,3.22,8.43,1.36,16.94,.7,25.44-.78,9.71-3.98,18.96-10.22,26.5-2.89,3.72-5.77,7.44-8.75,11.08-1.03,1.25-2.25,2.39-3.56,3.36-6.41,4.75-12.85,9.47-19.34,14.12-8.04,6.76-12.46,22.86-15.97,32.73-2.66,12.93,2.74,25.96,4.95,38.64,4.89,18.38,10.61,36.56,16.14,54.76,3.81,12.03,.62,24.39-.79,36.51-2.74,13.57-15.87,22.82-27.2,29.1-6.02,2.56-13.29,2.57-19.8,3.46-7.21,.79-14.27,.51-21.14-2.31-5.7-2.34-11.27-4.87-16.47-8.21-22.51-11.41-31.51-24.28-43.78-45.7-7.72-13.73-16.1-27.25-20.7-42.44-1.04-3.28-1.73-6.78-1.89-10.21-.49-10.63-2.71-21.17-1.62-31.88Z"/>
  </g>
</svg>