<?xml version="1.0" encoding="UTF-8"?><svg xmlns="http://www.w3.org/2000/svg" viewBox="0 0 260.31 60.27"><defs><style>.d{fill:#a4a4a4;}</style></defs><g id="a"/><g id="b"><g id="c"><path class="d" d="M260.31,57.15c-1.79,2.07-4.21,1.57-6.5,1.6-47.75,.36-95.5,2.71-143.22,.75-32-.27-64,.07-96,.19-5.24-.3-9.39,.43-14.59-1.69,7.59-3.84,13.65-3.01,20.82-5.49,6.25-2.55,12.68-4.41,19.3-5.55,27.28-4.27,54.5-8.95,81.75-13.49,8.41-1.37,16.87-2.39,25.3-3.61,8.54-1.24,8.59-1.27,7.47-9.64-3.35-22.11-8.87-25.79,14.53-12.47,6.04,3.47,12.01,7.07,17.93,10.75,2.28,1.42,4.29,1.4,6.45-.06,4.91-3.34,9.82-6.69,14.79-9.94,2.08-1.36,3.29-.9,4.04,1.51,1.92,6.16,3.99,12.29,5.49,18.55,1.2,5.02,4.14,7.81,8.64,10.05,10.39,5.17,20.54,10.82,30.76,16.34,1.1,.6,2.01,1.56,3,2.36l.04-.15Z"/></g></g></svg>