<?xml version="1.0" encoding="UTF-8"?><svg xmlns="http://www.w3.org/2000/svg" viewBox="0 0 328.44 72.86"><defs><style>.d{fill:#a4a4a4;}</style></defs><g id="a"/><g id="b"><g id="c"><path class="d" d="M1,64.43c-.35-5-.72-9.84-.99-14.7-.17-2.34,2.35-2.43,4.12-2.54,27.57-1.78,55.47-.72,82.7-5.9,18.23-3.05,35.31-10.94,50.67-21.11,7.27-4.96,14.54-9.92,22.41-13.95,32.26-16.03,51.48,1.51,75.05,21.99,12.92,10.73,30.02,14.55,46.44,15.24,14.73,.64,29.5,.76,44.17,2.28,2.4,.23,3.12,1.16,2.81,3.73-1.02,6.9-1.89,13.8-2.14,20.77-.17,2.01-.69,2.57-2.68,2.6-17.2-.03-34.39-1.15-51.59-1.32-90.27-2.34-180.87-3.27-270.95-7.1Z"/></g></g></svg>