<?xml version="1.0" encoding="UTF-8"?><svg xmlns="http://www.w3.org/2000/svg" viewBox="0 0 209.01 37.42"><defs><style>.d{fill:#a4a4a4;}</style></defs><g id="a"/><g id="b"><g id="c"><path class="d" d="M.01,25.16C.01,21.93,.04,18.7,0,15.48c-.03-2.29,1.05-3.35,3.33-3.43C5.32,11.98,192.5,.75,202.76,.13c.92-.06,1.85,0,2.77-.1,1.76-.18,2.46,.55,2.53,2.33,.21,5.07,.4,10.15,.91,15.19,.26,2.6-.9,3.18-3.05,3.38-6.43,.59-12.85,1.35-19.28,1.89-36.92,3.13-73.84,6.33-110.78,9.29-24.06,1.93-48.15,3.48-72.23,5.21-3.45,.25-3.48,.26-3.55-3.4-.06-2.92-.01-5.84-.01-8.77H.01Z"/></g></g></svg>