<?xml version="1.0" encoding="UTF-8"?><svg xmlns="http://www.w3.org/2000/svg" viewBox="0 0 274.06 190.11"><defs><style>.d{fill:#a4a4a4;}</style></defs><g id="a"/><g id="b"><g id="c"><path class="d" d="M126.96,.06c26.02,1.96,45.37,6.8,64.61,12.37,9,2.6,16.96,7.12,24.91,11.78,7.7,4.51,15.41,8.99,22.91,13.81,5.74,3.69,10.55,8.33,13.2,14.94,4.53,11.27,9.62,22.32,13.83,33.71,1.94,5.26,2.65,11.04,3.38,16.65,1.59,12.19,3.08,24.41,4.11,36.67,.45,5.31-.32,10.73-.58,16.1-.5,10.12-.97,20.25-1.61,30.37-.24,3.74-.45,3.75-4.12,3.64-4.46-.13-8.92-.23-13.37-.5-3.17-.19-3.22-.45-3.37-3.62-.6-12.74-1-25.5-1.93-38.21-.97-13.18-2.42-26.32-6.16-39.1-1.29-4.41-1.59-9.12-2.98-13.5-1.52-4.8-3.54-9.48-5.77-13.99-4.64-9.37-9.52-18.62-14.43-27.85-.91-1.71-12.32-12.8-13.13-13.22-9.98-5.14-32.56-16.34-33.91-16.56-7.74-1.21-15.51-2.28-23.25-3.52-8.32-1.32-16.55-.5-24.8,.64-4.82,.67-9.28,2.38-13.16,5.23-11.79,8.62-23.48,17.38-35.15,26.16-1.32,.99-2.37,2.41-3.37,3.76-6.92,9.29-12.87,19.14-17.12,29.95-3.94,10.02-7.79,20.07-11.6,30.13-3.4,8.96-5.19,18.33-6.66,27.76-1.57,10.03-2.91,20.09-4.37,30.13-.18,1.22-.48,2.41-.66,3.63-.24,1.7-1.18,2.27-2.86,2.19-8.91-.44-17.82-.76-26.73-1.24-3.06-.17-3.08-.32-2.55-3.34,3.93-22.25,7.42-44.58,12.7-66.59,1.99-8.3,5.5-15.97,8.61-23.81,7.74-19.51,17.65-37.89,29.44-55.26,2.06-3.04,4.26-5.71,7.6-7.63,5.32-3.06,10.33-6.67,15.42-10.13,4.53-3.07,9.53-4.95,14.81-6.18,2.84-.66,32.06-6.07,38.13-5.36Z"/></g></g></svg>