<?xml version="1.0" encoding="UTF-8"?><svg xmlns="http://www.w3.org/2000/svg" viewBox="0 0 255.14 129.02"><defs><style>.d{fill:#a4a4a4;}</style></defs><g id="a"/><g id="b"><g id="c"><path class="d" d="M20.07,0c9.3-.07,29.35,2.4,31.7,3.07,15.45,4.45,30.22,10.57,43.37,19.88,9.28,6.57,21.54,10.67,30.39,12.83,8.85,2.16,22.85,4.16,39.72,.26,11.92-3.89,35.2-15.9,35.75-16.18,3.27-1.69,4.02-1.37,5.55,2,5.61,12.3,47.85,103.81,48.55,105.52,.17,.42-.13,1.11-.37,1.59-.06,.12-.82,.06-1.12-.13-2.88-1.95-38.23-28.89-70.03-38.66-5.95-1.34-11.18-2.53-22.2-3.23-11.02-.7-23.87-.61-39.94,3.7-16.06,4.3-54.61,17.92-58.8,19.56-1.13,.44-2,.19-2.63-.79C59,107.85,.75,5.25,.47,4.7-.42,2.97-.07,1.9,1.73,1.49,3.91,.99,10.77,.07,20.07,0Z"/></g></g></svg>