<?xml version="1.0" encoding="UTF-8"?><svg xmlns="http://www.w3.org/2000/svg" viewBox="0 0 151.11 121.47"><defs><style>.d{fill:#a4a4a4;}</style></defs><g id="a"/><g id="b"><g id="c"><g><path class="d" d="M118.96,22.6c-1.92,.67-3.86,.97-5.79,1.28-2.62,.41-5.27,.63-7.9,.92-2.04,.22-4.08,.41-6.11,.64-1.66,.19-3.31,.43-4.96,.63-3.54,.42-7.09,.79-10.62,1.26-4.81,.63-9.61,1.4-14.43,1.97-3.01,.35-6.05,.55-9.09,.62-2.86,.06-5.62-.75-8.08-2.12-2.42-1.36-4.24-3.46-4.98-6.26-.17-.64-.27-1.39-.11-2.01,.56-2.05,1.19-4.08,1.91-6.09,.59-1.66,1.5-3.15,2.81-4.37,.28-.26,.55-.54,.75-.85,2.21-3.49,5.71-5.3,9.19-7.17,2.51-1.35,5.18-1.02,7.8-.95,6.54,.18,12.72,2.12,18.84,4.2,2.88,.98,5.48,2.6,8.11,4.12,4.06,2.36,8.09,4.79,12.15,7.16,.91,.53,1.94,.87,2.84,1.41,1.43,.85,2.81,1.8,4.2,2.71,.69,.46,1.38,.92,2.06,1.41,.53,.39,1.13,.73,1.41,1.5Z"/><path class="d" d="M.33,69.92c.56-3.88,2.35-7.25,4.69-10.27,1.9-2.45,4.64-3.84,7.56-4.9,4.38-1.59,11.35-.94,17.86,.15,10.69,1.69,29.23,7.83,33.91,12.37-.19,1.17-28.01,15.43-29.05,16.05-6.04,3.59-13,4.46-19.47,3.59-4.03-.55-7.87-1.96-11.33-4.19-.62-.4-1.21-.95-1.64-1.56-1.99-2.84-3.29-5.9-2.76-9.49,.09-.58,.14-1.17,.21-1.76Z"/><path class="d" d="M102.68,81.13c9.89,1.04,19.78,2.12,29.67,3.12,5.23,.53,10.47,.99,15.71,1.35,1.37,.09,2.15,.52,2.46,1.83,.33,1.4,1.23,2.57-.15,4.18-8.44,9.81-18.62,17.42-30.22,22.86-9.07,4.25-18.6,7.7-29.01,6.87-1.52-.12-3.07-.18-4.59-.08-6.76,.45-14.93-6.06-15.8-14.29-.48-4.58,.1-8.98,1.51-13.28,.99-3,3.09-5.16,5.82-6.84,6.95-4.27,14.6-5.45,22.56-5.46,.67,0,1.34,0,2.01,0l.03-.27Z"/></g></g></g></svg>