<?xml version="1.0" encoding="UTF-8"?><svg xmlns="http://www.w3.org/2000/svg" viewBox="0 0 215.36 144.39"><defs><style>.d{fill:#a4a4a4;}</style></defs><g id="a"/><g id="b"><g id="c"><path class="d" d="M215.36,46.44c-5.33,2.07-10.62,4.25-16.01,6.18-10.48,3.75-21.02,7.35-31.53,11.03-.9,.31-1.79,.66-2.67,1.04-.59,.26-.55,1.13,.06,1.52,.4,.26,.82,.48,1.24,.71,10.37,5.58,20.74,11.15,31.1,16.72,2.52,1.36,5.04,2.72,7.53,4.13,.34,.19,.52,.66,.78,1-.36,.21-.72,.61-1.08,.62-5.4,.05-10.81,.04-16.21,.07-5.88,.03-11.76,.08-17.65,.15-1.24,.02-2.48,.19-4.1,.32,.63,1.13,.99,2,1.54,2.73,7.06,9.22,14.15,18.42,21.22,27.64,1.25,1.63,2.42,3.33,3.62,5-.93,.03-1.85,.07-2.78,.1-2.67-1.4-5.37-2.76-8.02-4.2-8.95-4.86-17.88-9.75-26.82-14.63-.42-.23-.86-.42-1.29-.63-1.23-.61-2.42-2.17-3.83-1.06-1.28,1-.44,2.72-.29,4.08,1.03,9.34,2.17,18.66,3.22,27.99,.12,1.04,.74,2.15-.28,3.46-1.2-1.25-2.39-2.44-3.53-3.67-7.64-8.33-15.28-16.67-22.92-25-.42-.46-.91-.9-1.45-1.21-.64-.38-1.25-.14-1.53,.54-.3,.73-.51,1.51-.68,2.28-2.14,9.31-4.26,18.63-6.39,27.95-.12,.54-.31,1.07-.71,2.39-1.12-2.04-1.93-3.34-2.57-4.72-3.88-8.38-7.71-16.79-11.56-25.18-.13-.29-.19-.66-.4-.86-.42-.4-.9-.85-1.42-.98-.26-.06-.83,.48-1.01,.86-1.76,3.74-3.52,7.49-5.19,11.28-2.63,5.97-5.19,11.98-7.81,17.96-.31,.71-.76,1.36-1.35,2.38-.95-1.06-1.05-2.07-1.15-3.07-.81-7.75-1.62-15.51-2.42-23.26-.07-.63-.07-1.27-.16-1.9-.29-2.2-2.1-3.24-4.1-2.26-.84,.41-1.6,1.04-2.33,1.65-10.35,8.73-20.87,17.26-29.97,27.36-.36,.4-.9,.65-1.94,1.38,.42-3.04,.96-5.3,1.58-7.55,3.2-11.67,5.71-23.54,9.65-35.01,.17-.51,.69-1.34-.2-1.61-.47-.14-1.14,.24-1.66,.49-.42,.2-.77,.55-1.15,.85-8.31,6.44-16.62,12.88-24.94,19.3-1.09,.85-2.25,1.62-4.3,3.09,.93-2.17,1.27-3.35,1.89-4.37,3.86-6.4,7.72-12.81,11.7-19.14,3.13-4.99,6.42-9.87,9.63-14.8,.35-.53,.73-1.05,1.04-1.6,.48-.87,.05-1.63-.94-1.57-5.88,.36-11.76,.66-17.63,1.14-8.72,.72-17.43,1.58-26.15,2.34-.33,.03-.69-.33-1.04-.51,.27-.35,.46-.86,.82-1.04,3.57-1.77,7.13-3.56,10.76-5.19,5.34-2.39,10.58-5,15.85-7.54,5.59-2.7,11.29-5.19,16.94-7.77,.87-.4,1.73-.81,2.56-1.29,.21-.12,.38-.52,.37-.78-.02-.25-.25-.59-.48-.69-.58-.26-1.2-.41-1.81-.59-13.27-4-26.54-8-39.8-12.01-1.04-.31-2.06-.71-3.96-1.37,3.66-.79,6.45-.5,9.19-.49,10.98,.05,21.96,.21,32.94,.32,.32,0,.64,.01,.96,0,1.44-.08,1.83-.7,1.39-2.25-.22-.77-.52-1.51-.75-2.27-3.41-11.28-6.81-22.56-10.2-33.84-.16-.54-.23-1.12-.51-2.49,1.84,1.41,3.13,2.25,4.25,3.28,7.95,7.35,15.88,14.72,23.79,22.11,2.09,1.96,4.07,4.04,6.2,5.96,1.64,1.47,2.77,1.25,3.71-.74,2.04-4.32,3.95-8.69,5.94-13.03,3.06-6.65,6.14-13.29,9.25-19.92,.51-1.1,1.2-2.12,2.1-3.68,.52,1.4,.86,2.26,1.16,3.13,3.17,9.01,6.33,18.03,9.51,27.04,.42,1.2,.84,2.41,1.4,3.54,.35,.7,1.16,.63,1.61,.15,.63-.68,1.14-1.51,1.57-2.34,4.92-9.64,9.81-19.29,14.73-28.93,.19-.37,.65-.61,1.4-1.3,.44,12.09,.87,23.73,1.3,35.52,3.4-1.7,7.06-4.93,18.49-16.09,5.66-5.52,10.74-11.62,17.08-17.16,.33,1.57-.14,2.55-.48,3.5-3.72,10.34-7.48,20.67-11.19,31.01-.81,2.25-1.52,4.53-2.2,6.81-.29,1,.6,1.92,1.62,1.72,.76-.15,1.54-.39,2.23-.74,8.92-4.6,17.82-9.25,26.75-13.83,2.97-1.52,6.07-2.77,9.01-4.34,3.07-1.64,6.07-3.45,9-5.33,2.79-1.78,5.99-2.92,8.29-5.53,.57-.64,1.94-.58,3.14-.89-.48,2.13-1.84,3.28-3.05,4.45-5.94,5.7-11.93,11.34-17.92,16.98-4.06,3.82-8.16,7.59-12.23,11.4-.44,.41-.77,.94-1.14,1.4,.9,1.01,1.89,.47,2.77,.36,9.17-1.07,18.34-2.21,27.52-3.28,4.89-.57,9.8-1.02,14.7-1.52,.27,.23,.54,.47,.81,.7Z"/></g></g></svg>