<?xml version="1.0" encoding="UTF-8"?><svg xmlns="http://www.w3.org/2000/svg" viewBox="0 0 310.28 157.96"><defs><style>.d{fill:#a4a4a4;}</style></defs><g id="a"/><g id="b"><g id="c"><g><path class="d" d="M8.55,155.33c-.71-.2-4.18,.39-3.37-.89,1.98-2.1,4.09-4.09,6.1-6.16,6.6-6.62,13.11-13.35,19.81-19.87,.97-.89,1.64,.92,2.17,1.53,1.73,2.81,3.44,5.63,5.18,8.44,3.24,5.2,6.67,10.27,9.54,15.69,.45,.77,.21,1.17-.66,1.17-3.71,0-7.43,0-11.14,0-9.22-.08-18.42-.07-27.63,.17v-.07Z"/><path class="d" d="M156.53,133.33c.51-.27,.81-.2,1.07,.07,.49,.51,1,1.01,1.45,1.55,2.91,3.46,5.8,6.94,8.71,10.4,2.67,3.17,5.36,6.33,8.03,9.49,.87,1.03,1.13,1.5,.94,1.62-.56,.37-1.19,.14-1.79,.13-7.63-.12-15.26-.4-22.9-.55-7.01-.02-14.04,.03-21.05-.04-.59-.28-.17-.6,.18-.89,1.42-1.24,2.83-2.49,4.25-3.72,7.09-5.95,13.93-12.23,21.1-18.07Z"/><path class="d" d="M128.57,95.2c5.52-10.24,12.52-19.5,18.67-29.36,.61-.88,1.36-2.56,2.55-1.31,6.01,5.35,11.67,11.06,17.24,16.86,3.81,3.96,7.66,7.89,11.19,12.11,.44,.51,1.46,.85,1.23,1.5-.28,.77-1.29,.47-2.01,.47-2.74,.03-5.49-.01-8.23,.12-2.4,.11-4.8-.3-7.2,.09-3.42-.17-6.86-.1-10.28-.09-2.67-.06-5.35,.22-8.02-.09-5.19,.02-9.79,0-15.14-.31Z"/><path class="d" d="M218.86,134.21c-.78,.62-6.55,5.19-6.55,5.19-7.65,5.34-15.28,10.69-22.38,16.76-.18,.19-.12,.37,.03,.61,15.89,.82,31.87,.36,47.78,1.13,.8,.04,1.64,.16,2.41-.24,4.46,1.02-1.78-4.94-4.34-6.92s-10.18-10.55-11.31-11.64c-2.41-2.33-4.86-5.52-5.64-4.9Z"/><path class="d" d="M62.1,93.14c.43-.43,.66-.75,.96-.97,1.78-1.28,3.48-2.67,5.35-3.83,11.16-7.94,22.08-16.24,33.22-24.22,1.28-.98,1.47-.92,2.19,.55,5.29,10.47,11.26,20.64,15.92,31.39-.48,.36-1.02,.23-1.54,.2-7.91-.41-15.81-.82-23.72-1.23-10.87-.71-21.52-.75-32.39-1.9Z"/><path class="d" d="M121.73,30.41c-2.35,.34-4.52,.58-6.71,.59-8.74,.04-17.49,.04-26.23,.07-6.82,.14-13.63,.14-20.44-.1-2.1,0-.7-1.16-.05-2.07,6.51-8.11,13.5-15.81,19.91-23.99,1.85-1.77,1.14-2.17,3.45-.19,9.15,7.85,18.47,15.49,27.73,23.22,.81,.68,1.69,1.34,2.35,2.46Z"/><path class="d" d="M306.2,95.07c-.66,.2-.87,.34-1.07,.32-18.06-2.08-36.7-.04-54.49-.91,8.68-10.07,18.5-19.19,27.65-28.85,1.75-1.7,2.03-1.66,3.63,.18,8.34,9.59,16.44,19.24,24.27,29.27Z"/><path class="d" d="M24.79,66.25c-8.43,7.92-17.07,15.87-24.63,24.57l-.02,.04-.15,.28c.14,.02,.28,.04,.42,.06,17.15,.05,34.3,.04,51.45-.04,.52-.04,1.68,.17,1.36-.6-7.03-8.21-14.1-16.41-21.43-24.36l-.3-.3-.96-.87c-.1-.49-.42-.74-.88-.84-.26-.31-.52-.62-.78-.93-.1-.15-.24-.43-.29-.41-.25,.07-.52,.18-.7,.35-1.04,1-2.02,2.07-3.09,3.04Z"/><path class="d" d="M185.5,29.78c-7.29-5.34-22.48-18.65-33.69-28.01-1.9-1.58-1.85-1.64-3.06,.59-5.16,9.2-11.72,17.52-16.85,26.72-.15,.26,.04,.59,.34,.59,18.1,.2,44.17,1.6,53.59,2.05,1.12,.05,.92-1.01-.34-1.93Z"/><path class="d" d="M55.79,30.7c-.35,0-8.9-.31-12.82-.41-3.4-.09-39.49-.27-39.69-.3-.93-.07-1.12-.86-.53-1.2,.13-.15,20.93-19.44,23.12-21.47,.5-.47,.51-.48,1.09,0,2.08,1.74,14.52,11.97,18.72,15.25,2.87,2.24,5.77,4.44,8.65,6.66,.51,.39,1.01,.81,1.51,1.21l-.07,.24Z"/><path class="d" d="M216.83,65.76c.2,.13,.4,.21,.54,.36,2.65,2.8,5.28,5.62,7.96,8.4,3.68,3.82,7.4,7.59,11.09,11.4,2.21,2.27,4.39,4.57,6.58,6.86,.11,.11,.13,.36,.1,.54-.01,.08-.21,.18-.33,.2-.27,.04-.55,.04-.82,.05-9.78,.09-19.56,.19-29.34,.28-6.89,.06-13.78,.13-20.67,.18-.96,0-1.93,0-2.89-.04-.52-.02-.79-.62-.47-1.06,.2-.27,.47-.5,.71-.73,3.71-3.6,7.43-7.19,11.14-10.79,5-4.85,9.98-9.7,14.98-14.55,.3-.29,.58-.59,.9-.85,.14-.12,.35-.16,.54-.24Z"/><path class="d" d="M254.76,156.64c.45-.46,27.79-21.31,29.96-22.89,1.15-.83,1.22-.81,2.13,.34,1.11,1.41,14.64,19.21,14.88,19.55,.62,.91,.45,1.51-.59,1.87-.51,.18-19.91,1.15-29.07,1.14-5.02,0-16.3,.02-17.3-.01Z"/><path class="d" d="M63.26,154.81c-.03-.17-.19-.47-.09-.63,.35-.59,21.34-25.21,21.9-25.81,.46-.5,.9-.53,1.42-.05,1.37,1.25,28.2,25.78,28.94,26.5,.17,.16,.23,.42,.34,.64-.25,.05-.5,.15-.76,.15-3.65-.01-41.37-.3-47.29-.38-1.31-.02-2.61-.16-3.91-.25-.13,0-.26-.07-.55-.16Z"/><path class="d" d="M310.28,29.34c-18.43,.66-36.6,.52-55.15-.23,.52-.48,.79-.79,1.11-1.04,4.75-3.57,9.52-7.12,14.27-10.68,6.45-4.83,12.9-9.67,19.34-14.52,.86-.65,1.66-1.38,2.51-2.06,.32-.25,.7-.43,1.04-.65,.5-.32,.81-.18,1.1,.34,1.83,3.21,3.76,6.37,5.54,9.61,3.26,5.94,6.43,11.92,9.63,17.88,.19,.36,.33,.74,.6,1.34Z"/><path class="d" d="M243.98,29.28c-4.6,.32-46.57,1.44-50.3,1.47,.35-.47,.52-.76,.74-.98,8.27-8.4,16.55-16.79,24.83-25.17,1.01-1.02,1.05-1.03,1.92-.09,7.53,8.1,15.06,16.21,22.58,24.32,.07,.07,.09,.18,.22,.46Z"/></g></g></g></svg>