<?xml version="1.0" encoding="UTF-8"?><svg xmlns="http://www.w3.org/2000/svg" viewBox="0 0 126.06 64.95"><defs><style>.d{fill:#a4a4a4;}</style></defs><g id="a"/><g id="b"><g id="c"><path class="d" d="M4.26,51.23c-1.72-1.44-2.96-4.77-3.57-8.18-1.33-7.55-.97-21.2,3.16-25.57C7.98,13.11,15.84,6.93,23.15,3.41,26.71,1.7,30.36,.56,34.27,.12c9.21-1.04,85.69,5.23,86.3,5.28,3,.24,3.16,.3,3.67,3.05,.66,3.63,1.19,7.28,1.76,10.92,.25,1.6-.32,2.74-1.79,3.52-2.35,1.25-68.98,36.26-83.08,40.67-7.41,2.32-14.45,1.81-21.34-2.11-4.98-2.84-10.1-5.43-15.54-10.22Z"/></g></g></svg>