<?xml version="1.0" encoding="UTF-8"?><svg xmlns="http://www.w3.org/2000/svg" viewBox="0 0 117.47 80.97"><defs><style>.d{fill:#a4a4a4;}</style></defs><g id="a"/><g id="b"><g id="c"><path class="d" d="M55.04,80c-16.31-1.42-31.92-.44-47.51,.83-.85,.07-1.7,.14-2.55,.14-3.38,.02-3.51-.11-3.58-3.86-.12-6.61-.18-13.23-.33-19.84C.73,42,.34,26.73,0,11.46c-.05-2.37,.25-4.76,.04-7.12C-.21,1.48,1.13,1,3.61,.96,19.08,.69,34.55-.03,50.02,0c19.55,.04,39.1,.62,58.65,1.04,4.41,.09,4.37,.24,5.55,4.75,2.26,8.61,3.18,17.38,3.24,26.26,.03,4.76,0,4.81-4.68,4.98-14.62,.51-29.23,.93-43.85,1.48-3.7,.14-7.4,.56-11.08,1-1.8,.21-2.75,1.25-2.75,3.29,0,9.68-.15,19.35-.21,29.03-.02,2.53,.09,5.06,.14,8.18Z"/></g></g></svg>