<?xml version="1.0" encoding="UTF-8"?><svg xmlns="http://www.w3.org/2000/svg" viewBox="0 0 269.89 108.15"><defs><style>.d{fill:#a4a4a4;}</style></defs><g id="a"/><g id="b"><g id="c"><path class="d" d="M267.59,91.52c1.21,2.65,3.51,3.92,1.5,6.04-4.34,3.43-8.67,6.87-13.06,10.23-2.28,2.03-5.35-5.28-6.91-6.63-7.37-9.83-14.59-19.77-22.22-29.39-9.74-10.98-19.84-21.92-30.5-32.03-9.26-6.5-17.25-15.95-28.75-18.27-14.72-2.98-9.71-3.53-23.73,1.67-17.29,6.42-34.29,13.56-50.31,22.85-2.63,1.53-5.56,2.61-8.46,3.59-25.26,8.3-51.1,15.3-77.35,19.54-3.16,.31-3.51,.12-4.54-2.73-.77-2.12-1.44-4.27-2.14-6.41-1.92-5.8-1.86-5.64,4.41-6.67,13.99-2.8,28.54-3.88,42.13-8.25,24.46-10.02,48.36-21.31,73.12-30.51,4.9-1.97,9.7-4.2,14.54-6.29,6.79-2.09,13.46-4.37,19.84-7.54,4.63-1.34,9.72-.34,14.52-.61,.57,0,1.28,.23,1.68,.61,2.88,2.7,6.46,4.09,10.03,5.54,8.12,5.86,16.01,12.41,23.34,19.35,6.02,5.56,11.45,11.81,17.76,16.99,5.15,4.23,8.43,9.91,13.08,14.43,2.41,2.45,5.34,4.48,7.57,7.07,4.48,6.64,10.63,11.86,15.5,18.17,.79,2.12,2.38,3.43,5.11,5.06l3.85,4.18Z"/></g></g></svg>