<?xml version="1.0" encoding="UTF-8"?>
<svg id="_レイヤー_2" data-name="レイヤー 2" xmlns="http://www.w3.org/2000/svg" viewBox="0 0 212.18 209.96">
  <defs>
    <style>
      .cls-1 {
        fill: #a4a4a4;
      }
    </style>
  </defs>
  <g id="parts">
    <path class="cls-1" d="M147.58,209.1c-24.92-9.28-29.25-20.38-46.51-38.05-7.63-8.63-19.01-10.91-29.96-12.49-5.84-.93-11.45,.45-16.94,2.11-8.84,2.68-30.24,6.87-41.14,4.85-6.35-1.18-14.11-4.89-12.9-13.15,.67-18.94,12.5-33.19,22.26-48.43,7.13-12.08,7.26-26.83,10.22-40.26,3.32-19.22,6.02-39.26,15.24-56.69C51.07,2.36,54.94-.63,61.19,.11c4.7,.56,48.42,14.33,65.32,21.16,10.25,4.36,20.97,7.01,31.73,9.58,13.41,3.89,27.91,2.53,40.61,8.96,23.69,8.76,9.51,34.61,5.09,51.94-2.5,8.87-5.49,17.6-8.09,26.44-6.93,20.79-7.99,43.07-4.44,64.97,1.24,6.19-.64,11.7-5.11,16.36-3.14,3.28-13.29,8.39-17.92,9.58-7.75,1.92-20.79,0-20.79,0Z"/>
  </g>
</svg>