<?xml version="1.0" encoding="UTF-8"?><svg xmlns="http://www.w3.org/2000/svg" viewBox="0 0 296.96 140.88"><defs><style>.d{fill:#a4a4a4;}</style></defs><g id="a"/><g id="b"><g id="c"><g><path class="d" d="M182.73,14.1c-5.35,1.06-10.98,.52-16.43,.52-3.11,0-6.22,.12-9.32,.14-14.55-.35-29.11-.2-43.66-.63-2.82-.04-5.63,.01-8.45,.01-.97,0-1.33-.23-1.34-1.12-.04-2.33,0-4.66,.05-6.99,.01-.57,.48-.81,1.03-.8,4.95,.14,9.89,.31,14.84,.44,10.96,.24,21.93,.27,32.88,.78,6,.35,12.01,.67,18.02,.89,2.91,.11,5.83,.03,8.72,.3,3.69,.35,3.71-.36,3.88,3.75-.03,.96,.27,1.8-.21,2.71Z"/><path class="d" d="M296.04,61.01c-.38,.08-.66,.17-.94,.19-1.46,.09-78.34,4.06-78.63,4.06-1.58,.01-1.73-.11-1.8-1.72-.1-2.33-.18-4.66-.26-6.99-.01-.29,0-.58,.02-.87,.06-.66,.3-.86,1-.86,2.48,0,4.96-.02,7.44,0,4.81,.02,9.62,.09,14.43,.06,4.37-.03,8.75-.13,13.12-.26,5.1-.16,10.21-.32,15.3-.6,6.55-.36,13.1-.82,19.64-1.25,2.91-.19,5.82-.4,8.73-.57,.99-.06,1.15,.07,1.29,1.04,.31,2.24,.73,7.41,.66,7.78Z"/><path class="d" d="M108.72,125.9c-.38-.89-.26-1.86-.35-2.8-.14-3.85-.28-7.7-.41-11.55-.02-.65-.23-1.71,.65-1.84,5.05-.59,10.16-.33,15.23-.59,20.12-.64,40.23-1.57,60.36-2.14,1.05-.03,1.25,.17,1.29,1.27,.11,3.2,.21,6.39,.29,9.59,.03,.96-.08,1.08-1.13,1.16-5.51,.39-11.02,.79-16.53,1.2-19.84,1.22-39.71,4.08-59.41,5.71Z"/><path class="d" d="M.29,15.89C.17,15.55,0,15.28,0,15.01c0-1.8,.01-3.59,.07-5.39C.14,6.93,.23,4.24,.37,1.55,.44,.15,.61,0,1.97,0,6.46,.03,10.96,0,15.44,.2c20.82,1.09,41.66,2.04,62.48,3.05,1,.12,2.41-.1,2.81,1.07,.18,3.75-.17,7.59-.22,11.36-.09,2.3-.26,2.45-2.72,2.4-25.83-.75-51.68-1.22-77.5-2.18Z"/><path class="d" d="M2.77,67.85c0-2.9,.17-23.49,.32-24.27,.06-.29,.48-.68,.78-.72,.68-.09,66,2.69,66.19,2.71,1.33,.13,1.56,.34,1.62,1.63,.08,1.59,.48,17.57,.41,18.26-.06,.58-.44,.88-1,.92-1,.06-66.73,2.58-67.13,2.55-.65-.05-1.2-.25-1.2-1.07Z"/><path class="d" d="M217.68,122.9c-1.77,.1-1.92-.01-2.11-1.91-.48-4.61-1.89-18.92-2.05-21.46-.1-1.54,.23-1.88,1.69-2.04,2.65-.29,74.34-6.25,77-6.43,1.58-.11,1.81,.14,2,1.67,.41,3.22,2.19,17.26,2.69,21.05,.19,1.49-.06,1.89-1.57,2.06-2.54,.29-76.15,6.99-77.65,7.07Z"/><path class="d" d="M103.13,64.28c-.02-.97-.08-2.17-.08-3.38-.01-3.47-.01-6.94-.01-10.41,0-.3,0-.6,.03-.9,.09-.77,.35-.95,1.22-.9,10.71,.6,21.42,1.09,32.12,1.84,9.65,.67,38.03,1.65,42.55,1.79,1.13,.03,2.26,.02,3.39,.09,.76,.05,1.09,.43,1.09,1.18,.02,3.62,.02,7.24,.01,10.86,0,.86-.38,1.2-1.28,1.2-5.96,0-45.65,.06-51.61,.04-5.73-.02-22.93,.23-25.8,.21-1.27,0-1.4-.17-1.64-1.61Z"/><path class="d" d="M206.95,5.08c.38-1.68,.82-2.04,2.18-1.93,6.03,.48,28.1,2.13,33.1,2.54,3.78,.3,7.55,.74,11.32,1.07,3.47,.3,34.63,2.79,35.84,3.01,1.04,.19,1.45,.73,1.4,1.7-.07,1.43-1.06,13.28-1.09,13.48-.15,.99-.68,1.48-1.64,1.46-.41,0-29.94-2.29-34.65-2.58-4.91-.3-9.83-.42-14.75-.68-4.91-.26-31.35-2.25-31.56-2.28-.97-.16-1.47-.71-1.39-1.69,.28-3.37,1.13-12.96,1.22-14.1Z"/><path class="d" d="M80.22,134.18c-2.16,.16-74.64,6.58-75.56,6.68-1.17,.13-1.64-.42-1.74-1.57-.74-7.9-1.47-15.8-2.31-23.69-.23-2.14,.8-2.35,2.52-2.41,7.93-.25,69.48-2.82,69.74-2.81,4.49,.2,4-.83,4.7,4.23,.88,6.41,1.74,12.82,2.66,19.56Z"/></g></g></g></svg>