<?xml version="1.0" encoding="UTF-8"?><svg xmlns="http://www.w3.org/2000/svg" viewBox="0 0 219.54 200.5"><defs><style>.d{fill:#a4a4a4;}</style></defs><g id="a"/><g id="b"><g id="c"><path class="d" d="M147.2,81.62c5.45,.21,9.72,.56,13.99,.5,8.81-.12,17.03,2.03,24.9,5.82,5.53,2.67,11.17,5.15,16.56,8.09,5.42,2.96,10.09,6.98,13.86,11.93,.83,1.09,1.51,2.32,2.06,3.57,1.7,3.88,1.28,4.34-2.16,7.14-7.45,6.07-16.32,8.35-25.45,9.91-11.67,1.99-23.37,3.83-35.26,4.01-1.38,.02-2.75,.27-4.12,.49-1.37,.22-1.82,1.13-1.33,2.35,.75,1.85,1.58,3.67,2.46,5.46,3.32,6.76,6.75,13.46,9.96,20.27,1.1,2.34,1.66,4.92,2.46,7.4,.68,2.1,0,3.72-1.98,4.55-4.42,1.87-8.86,3.72-13.5,.44-.99-.7-2.18-1.13-3.31-1.62-9.45-4.17-40.25-23.23-47.07-27.1-.75-.43-1.66-.58-3.13-1.07,.02,3.31-.06,6.19,.07,9.06,.3,6.6,.7,13.19,1.07,19.79,.42,7.22-1.71,14-3.74,20.77-1.1,3.68-4.55,5.29-7.58,7.04-.56,.33-2.3-.49-2.89-1.25-3.41-4.35-7.01-8.62-9.87-13.33-8.06-13.27-31.06-52.15-34.7-58.21-1.36-2.27-3.16-3.4-5.86-3.84-8.65-1.41-17.23-3.26-25.87-4.69-2.62-.43-4.02-1.56-4.92-4.01-2.65-7.2-3.16-5.53,3.1-8.74,7.38-3.79,14.75-7.61,22.16-11.36,1.6-.81,2.64-1.86,3.2-3.63,2.2-6.88,4.6-13.69,6.83-20.56,7.4-22.7,16.73-44.61,26.86-66.2,.26-.56,.53-1.11,.83-1.64C66.15,.67,68.48-.03,70.74,0c2.13,.03,1.97,2.41,2.54,3.9,5.84,15.16,7.34,30.96,6.85,47.05-.05,1.54-.03,3.08-.06,4.61-.09,6.91,.71,7.52,7.38,4.85,6.55-2.62,13.1-5.28,19.48-8.28,8.8-4.14,18.24-5.14,27.67-6.45,8.9-1.23,17.46,.63,26.04,2.39,3.71,.76,6.02,4.88,4.65,8.64-1.14,3.12-2.8,6.16-4.78,8.83-3.02,4.06-6.52,7.76-9.79,11.64-.97,1.15-1.87,2.37-3.5,4.44Z"/></g></g></svg>