<?xml version="1.0" encoding="UTF-8"?>
<svg id="_レイヤー_2" data-name="レイヤー 2" xmlns="http://www.w3.org/2000/svg" viewBox="0 0 139.52 134.92">
  <defs>
    <style>
      .cls-1 {
        fill: #a4a4a4;
      }
    </style>
  </defs>
  <g id="parts">
    <path class="cls-1" d="M76.35,134.92c-1.34-1.87-13.19-23.43-18.67-31.85-5.87-9.01-12.04-17.98-20.64-24.78-1.96-1.55-36.1-21.4-36.53-21.9-.65-.76-.76-1.76,.14-2.38,1.11-.78,18.48-9.06,25.81-12.83,6.41-3.29,12.01-7.65,15.7-14.03,2.99-5.16,12.41-22.5,14.31-25.91,.83-1.48,2.39-1.65,3.38-.42,1.01,1.24,1.99,2.53,2.77,3.92,3.36,5.98,6.43,12.14,10.06,17.95,1.53,2.44,4.04,4.34,6.33,6.22,7.65,6.28,15.82,11.79,24.8,16.02,10.17,4.79,20.13,10.05,30.72,13.93,.79,.29,4.01,1.08,4.99,1.77-.19,1.58-5.79,4.36-15.89,7.44-10.1,3.08-31.56,15.73-37.01,27.28-5.8,10.35-9.62,21.34-8.77,33.5,.11,1.58-.15,3.2-.35,4.79-.04,.35-.55,.63-1.15,1.28Z"/>
  </g>
</svg>