<?xml version="1.0" encoding="UTF-8"?><svg xmlns="http://www.w3.org/2000/svg" viewBox="0 0 159.68 68.56"><defs><style>.d{fill:#a4a4a4;}</style></defs><g id="a"/><g id="b"><g id="c"><path class="d" d="M0,39.09c.84-.6,1.43-1.16,2.13-1.51,3.67-1.81,7.35-3.62,11.07-5.35,8.01-3.71,23.6-11.94,30.64-16.64,7.04-4.7,21.21-10.18,30.04-12.17C82.71,1.42,97.2-.54,108.39,.13c11.18,.67,47.52,2.86,48.34,2.84,1.9-.04,3.03,1.09,2.95,3.1-.11,2.65-2.36,27.87-3.32,37.82-.19,1.93-.81,2.59-2.7,2.5-4.07-.21-8.13-.61-12.2-.97-12.21-1.08-24.42-2.1-36.71-1.12-7.95,.63-15.86,1.43-23.77,2.42-11.83,1.48-23.41,4.07-34.5,8.27-8.97,3.39-17.72,7.5-25.85,12.73-1.94,1.25-2.81,1.22-4.1-.71C13.22,62.09,.37,40.17,0,39.09Z"/></g></g></svg>