<?xml version="1.0" encoding="UTF-8"?><svg xmlns="http://www.w3.org/2000/svg" viewBox="0 0 210.99 136.82"><defs><style>.d{fill:#a4a4a4;}</style></defs><g id="a"/><g id="b"><g id="c"><path class="d" d="M207.76,26.32c-2.33,19.47-7.17,38.27-16.11,55.85-7.58,14.92-18.53,26.85-32.89,35.27-10.52,6.17-21.6,11.38-32.47,16.96-3.96,2.04-19.66,2.43-23.15,2.41-15.65-.08-29.57-6.01-42.83-13.44-4.96-2.78-9.23-7.09-13.23-11.26-12.34-12.88-22.71-27.27-31.25-42.93-1.24-2.27-2.26-4.75-2.89-7.26C8.83,45.86,.16,10.26,.01,8.53c-.15-1.74,.94-2.67,2.57-2.83C4.03,5.56,171.46,.73,202.28,.11c8.89-.18,9.59-1.21,8.08,8.95-.86,5.75-1.74,11.51-2.61,17.26Z"/></g></g></svg>