<?xml version="1.0" encoding="UTF-8"?><svg xmlns="http://www.w3.org/2000/svg" viewBox="0 0 256.85 190.7"><defs><style>.d{fill:#a4a4a4;}</style></defs><g id="a"/><g id="b"><g id="c"><path class="d" d="M256.85,101.83c-9.98,2.08-17.98-1.36-26.11-2.56-31.03-3.4-62.88-4.34-93.18,4.11-8.03,2.19-16.16,4.15-24.35,5.61-6.32,1.13-11.99,3.62-17.44,6.69-19.33,10.85-37.52,23.21-54.12,38.11-12.13,10.89-23.82,22.17-35.29,33.72-1.57,1.73-5.12,5.26-6.37,1.57,.02-13.78,.78-27.49,2.45-41.15C6.11,102.62,11.08,51.95,49.28,21.65,61.85,7.66,77.94,2.38,96.29,2.24c5.38-.04,10.76-1.02,16.13-1.63,12.6-1.42,25.03-.35,37.24,2.87,16.24,4.29,31.45,11.16,46.08,19.32,2.86,1.6,5.4,3.93,7.78,6.23,17.18,16.63,31.84,35.32,44.91,55.28,3.39,5.18,6.42,10.65,8.43,17.5Z"/></g></g></svg>