<?xml version="1.0" encoding="UTF-8"?><svg xmlns="http://www.w3.org/2000/svg" viewBox="0 0 200.31 148"><defs><style>.d{fill:#a4a4a4;}</style></defs><g id="a"/><g id="b"><g id="c"><path class="d" d="M14.31,11.27C21.8,3.33,29.96,.12,39.66,.02c16.34-.33,32.35,3.66,47.64,9.25,18.75,6.65,39.25,5.94,58.81,8.18,15.4,1.03,30.25,6.97,41.9,17.33,15.08,14.22,14.06,39.5,8.68,58.01-1.35,4.28-3.05,8.3-6.03,11.83-3,3.56-5.43,7.59-8.18,11.37-2.96,3.3-5.58,6.95-8.51,10.28-11.14,13.14-27.75,19.86-44.63,21.62-5.25,.5-10.25-1.04-14.89-3.26-6.43-3.06-12.9-6.08-18.61-10.5-7.5-5.8-15.83-6.46-24.71-3.48-7.21,2.42-14.31,5.04-21.26,8.14-8.31,3.71-17.13,5.04-26.17,4.46-3.8-.24-7.45-1.41-10.31-4.26-.95-.94-1.94-1.87-3.04-2.62-5.5-3.74-8.38-9.14-9.41-15.48-.89-5.48-1.5-10.94-.27-16.6,1.47-6.73,1.9-13.68,3.05-20.49,1.2-7.11,.99-14.25,.87-21.39-.14-8.69-.29-17.41-1.02-26.06-.92-10.1,4.46-18.51,10.72-25.1Z"/></g></g></svg>