<?xml version="1.0" encoding="UTF-8"?><svg xmlns="http://www.w3.org/2000/svg" viewBox="0 0 284.33 217.51"><defs><style>.d{fill:#a4a4a4;}</style></defs><g id="a"/><g id="b"><g id="c"><path class="d" d="M180.14,207.7c-8.41,2.37-32.97,9-36.89,9.53-7.49,1.02-14.64-.79-21.55-3.46-5-1.94-31.46-8.26-37.14-11.12-7.09-3.58-16.86-11.43-22.31-16.95-13.98-14.16-23.02-24.93-34.31-45.7S6.02,103.37,1.4,93.18c-1.91-2.89-1.89-3.3,.25-5.69,11.03-12.28,21.87-24.75,33.2-36.75,6.81-7.22,14.22-13.9,21.71-20.44,7.18-6.27,14.63-12.21,22.78-17.28,7.71-4.8,15.92-7.83,24.72-9.93,9.53-2.27,32.29-4.43,45.32-2.06,27.31,4.98,53.86,20.25,64.37,27.56,4.59,3.19,8.8,6.78,12.92,10.54,12.8,11.71,24.11,24.81,35.48,37.86,7.21,8.27,20.93,27.76,21.43,28.62,.96,1.68,1.05,3.38,.07,5.1-1.18,2.07-2.3,4.19-3.54,6.23-4.01,6.63-19.88,32.3-25.21,37.51-7.54,7.38-14.77,15.07-22.29,22.47-4.11,4.04-8.42,7.89-12.87,11.54-2.11,1.73-16.98,9.38-21.94,11.87-5.74,2.89-11.77,4.8-17.64,7.35Z"/></g></g></svg>