<?xml version="1.0" encoding="UTF-8"?><svg xmlns="http://www.w3.org/2000/svg" viewBox="0 0 233.03 80.08"><defs><style>.d{fill:#a4a4a4;}</style></defs><g id="a"/><g id="b"><g id="c"><path class="d" d="M4.04,0c6.72,2.52,12.9,4.93,19.15,7.16,24.46,8.69,48.83,17.68,73.45,25.89,30.43,10.15,61.14,19.48,91.63,29.47,15.06,4.93,29.9,10.55,44.76,16.74-4.48,.28-8.96,.77-13.45,.8-13.27,.11-172.05-.41-188.93-.3-9.33,.06-18.66,.05-27.99,.12-2.76,.02-2.69-1.88-2.64-3.7,.19-6.48,.38-12.97,.69-19.45C1.58,38.74,2.52,20.75,3.44,2.76c.03-.51,.21-1.02,.59-2.76Z"/></g></g></svg>