<?xml version="1.0" encoding="UTF-8"?><svg xmlns="http://www.w3.org/2000/svg" viewBox="0 0 196.32 90.42"><defs><style>.d{fill:#a4a4a4;}</style></defs><g id="a"/><g id="b"><g id="c"><path class="d" d="M0,51.37C-.06,35.49,1.78,19.74,2.47,3.87c.16-2.53,.54-2.93,2.91-2.94,58.96,0,118.04-.2,176.95-.59,7-2.27,9.28,7.14,10.49,12.18,1,8.95,2.18,17.88,3.27,26.83,.29,4.36,1.12,6.61-4.33,6.17-11.46,.5-22.92,.94-34.38,1.54-3.05,.16-6.09,.75-9.12,1.24-1.07,.17-1.59,1.45-.98,2.37,5.09,7.68,10.02,15.47,15.24,23.06,4.96,6.48,4.57,6.2-2.41,8.97-6.09,2.41-12.22,4.74-18.27,7.24-1.97,.81-3.4,.59-4.98-.84-7.44-6.73-14.91-13.43-22.49-20-4.17-3.62-8.56-6.99-12.93-10.38-1.98-1.54-4.3-2.15-6.86-2.27C63,54.75,31.59,53.44,0,51.37Z"/></g></g></svg>