<?xml version="1.0" encoding="UTF-8"?><svg xmlns="http://www.w3.org/2000/svg" viewBox="0 0 203.24 105.99"><defs><style>.d{fill:#a4a4a4;}</style></defs><g id="a"/><g id="b"><g id="c"><path class="d" d="M203.24,55.17c-.12,2.69-1.6,4.51-2.74,6.35-5.92,9.59-11.96,19.11-17.98,28.64-2.08,3.29-4.28,6.51-6.32,9.83-1.14,1.85-2.5,2.87-4.78,3.29-11.96,2.21-23.98,3.09-36.12,2.56-6.45-.29-12.38-2.13-18.26-4.83-12.11-5.57-21.44-14.34-29.28-24.75-3.49-4.64-7.65-7.76-12.87-9.95-6.83-2.87-13.82-5.14-21.1-6.51-3.42-.65-6.85-1.29-10.23-2.12-7.59-1.86-15.23-2.97-23.08-2.95-6.14,.02-12.29-.5-18.43-.83-2.06-.11-2.57-1.09-1.46-2.66,3.2-4.51,6.41-9.02,9.66-13.5C18.3,26.63,26.4,15.55,34.49,4.46c.85-1.16,1.6-2.42,2.64-3.39,.66-.61,1.78-1.13,2.64-1.06,10.21,.83,20.4,1.81,30.4,4.28,11.6,2.87,21.8,8.21,30.47,16.47,5.95,5.67,12.38,10.71,19.15,15.39,10.32,7.13,21.72,11.48,33.93,13.75,8.86,1.65,17.79,2.99,26.74,4.08,5.47,.67,11.04,.59,16.56,.85,2.01,.1,4.01,.21,6.24,.33Z"/></g></g></svg>