<?xml version="1.0" encoding="UTF-8"?>
<svg id="_レイヤー_2" data-name="レイヤー 2" xmlns="http://www.w3.org/2000/svg" viewBox="0 0 90.42 196.32">
  <defs>
    <style>
      .cls-1 {
        fill: #a4a4a4;
      }
    </style>
  </defs>
  <g id="parts">
    <path class="cls-1" d="M51.37,196.31c-15.87,.06-31.63-1.78-47.49-2.47-2.53-.16-2.93-.54-2.94-2.91,0-58.96-.2-118.04-.59-176.95C-1.92,6.98,7.49,4.7,12.53,3.49,21.48,2.49,30.41,1.31,39.35,.22c4.36-.29,6.61-1.12,6.17,4.33,.5,11.46,.94,22.92,1.54,34.38,.16,3.05,.75,6.09,1.24,9.12,.17,1.07,1.45,1.59,2.37,.98,7.68-5.09,15.47-10.02,23.06-15.24,6.48-4.96,6.2-4.57,8.97,2.41,2.41,6.09,4.74,12.22,7.24,18.27,.81,1.97,.59,3.4-.84,4.98-6.73,7.44-13.43,14.91-20,22.49-3.62,4.17-6.99,8.56-10.38,12.93-1.54,1.98-2.15,4.3-2.27,6.86-1.72,31.59-3.03,63-5.1,94.59Z"/>
  </g>
</svg>