<?xml version="1.0" encoding="UTF-8"?>
<svg id="_レイヤー_2" data-name="レイヤー 2" xmlns="http://www.w3.org/2000/svg" viewBox="0 0 171.77 280.03">
  <defs>
    <style>
      .cls-1 {
        fill: #a4a4a4;
      }
    </style>
  </defs>
  <g id="parts">
    <path class="cls-1" d="M165.72,257.57c-2.05,7.18-5.51,13.64-8.09,20.61-.68,1.69-1.72,2.1-3.35,1.71-36.91-8.45-75.38-17.12-105.34-41.59-13.36-10.4-24.11-24.18-33.47-38.2-8.46-15.47-11.79-32.68-14.29-49.97-1.53-9.38-1.45-18.78-.42-28.2,3.04-12.89,8.63-25.19,12.72-37.8,.61-1.71,1.49-3.39,2.55-4.87,7.92-10.97,15.82-21.96,23.92-32.79,3.18-4.25,6.93-8.01,11.43-11.04,12.39-8.36,24.64-16.93,36.95-25.42,2.21-1.53,4.51-2.72,7.31-2.93C113.11,6.25,129.72-.92,147.31,.1c5.93,.35,11.89,.13,17.83,.31,3.3,.1,3.61,.42,4,3.42,.91,7.09,1.72,14.2,2.63,21.82-4.59-.7-8.31-2.09-12.63-3.47-25.53-7.3-52.17,.26-75.86,10.25-13.95,7.35-25.39,18.74-36.51,29.78-7.39,6.58-11.64,15.25-15.82,23.94-11.9,23.57-9.69,50.57-6.33,75.97,.47,2.88,1.25,5.56,2.82,8.04,4.61,7.26,9,14.67,13.79,21.81,13.54,20.54,35.43,32.65,55.14,46.42,4.13,2.81,8.93,4.13,13.67,5.36,18.48,5.02,37.22,8.86,55.69,13.82Z"/>
  </g>
</svg>