<?xml version="1.0" encoding="UTF-8"?><svg xmlns="http://www.w3.org/2000/svg" viewBox="0 0 183.66 18.31"><defs><style>.d{fill:#a4a4a4;}</style></defs><g id="a"/><g id="b"><g id="c"><path class="d" d="M.58,11.28C.39,8.23,.18,5.03,.01,1.83-.07,.37,.26,0,1.6,0c3.57,0,7.15,.05,10.72,.08,7.89,.06,15.78,.14,23.66,.19,8.14,.05,16.27,.07,24.41,.11,9.86,.04,19.72,.08,29.58,.14,8.14,.04,16.27,.11,24.41,.15,9.62,.04,19.23,.05,28.85,.1,9.74,.05,19.48,.13,29.21,.18,2.96,.02,5.92-.03,8.88-.03,1.86,0,2.26,.35,2.28,2.06,.04,4.44,.07,8.88,.05,13.31,0,1.27-.32,1.57-1.45,1.65-.86,.06-1.73,.06-2.59,.03-6.53-.25-13.05-.56-19.58-.75-5.54-.16-11.09-.27-16.64-.22-6.04,.05-12.08,.29-18.12,.45-5.3,.14-10.59,.31-15.89,.44-5.54,.13-11.09,.26-16.63,.31-8.5,.07-17.01,.09-25.51,.1-6.41,0-12.82,.03-19.23-.06-7.02-.1-14.04-.33-21.06-.48-7.39-.16-14.79-.3-22.18-.44-.62-.01-1.23,.05-1.85,.02-1.15-.06-1.55-.39-1.72-1.5-.23-1.46-.41-2.93-.63-4.56Z"/></g></g></svg>