<?xml version="1.0" encoding="UTF-8"?><svg xmlns="http://www.w3.org/2000/svg" viewBox="0 0 283.6 274.27"><defs><style>.d{fill:#a4a4a4;}</style></defs><g id="a"/><g id="b"><g id="c"><path class="d" d="M263.1,123.68c3.18-2.07,6.55-4.41,8.66-7.45,4.82-6.94,9.06-14.33,11.03-22.69,1-4.25,1.45-9.03-.91-12.59-2.55-3.86-6.23-7.39-10.19-9.79-4.8-2.91-10.33-4.72-15.69-6.59-9.57-3.33-19.42-2.53-29.23-1.26-3.96,.51-7.86,1.43-11.78,2.2-1.88,.37-3.42,.19-3.78-2.1-1.03-6.6-4.98-11.8-8.35-17.27-5.17-8.38-10.47-16.64-17.33-23.83-9.15-9.6-19.11-17.89-32.23-21.38-2.45-.65-5.32-1.32-7.63-.69-11.58,3.2-21.49,9.06-28.09,19.53-5.84,9.26-11.02,18.87-14.76,29.18-1.83,5.04-3.44,10.18-4.79,15.37-.91,3.5-.64,3.58-4.53,3.35-3.68-.22-7.36-.59-11.05-.67-14.03-.32-27.6,2.64-40.64,7.34-5.28,1.9-10.19,5.83-14.25,9.86-4.42,4.39-7.78,9.89-11.39,15.06-2.3,3.29-4.11,6.97-4.12,11.08-.03,11.01,1.97,21.4,9.63,30.02,2.55,2.87,4.7,6.08,7,9.16,2.75,3.69,2.74,3.72-1.7,5.53-1.56,.64-3.14,1.27-4.74,1.82-6.54,2.23-12.08,6.01-16.91,10.9-2.44,2.47-4.34,5.3-4.69,8.79C.23,180.85,.03,185.15,0,189.44c-.01,1.78,.32,3.74,1.12,5.31,5.78,11.41,13.52,21.24,23.98,28.77,1.5,1.08,7.74,5.88,9.7,6.08,11.93,1.19,23.87,2.31,35.82,3.2,3.81,.28,7.71,.11,11.5-.41,8.68-1.17,17.32-2.64,25.96-4.08,3.99-.66,4.05-.68,5.72,3.3,2.08,4.96,4.09,9.96,6.37,14.82,2.67,5.69,6.77,10.28,12.01,13.72,4.5,2.95,9.02,5.94,13.81,8.35,9.25,4.64,19.14,7.42,29.4,4.69,7.06-1.88,13.82-5.06,20.51-8.11,7.06-3.22,10.47-9.79,13.18-16.54,3-7.49,3.89-15.44,4.06-23.49,.05-2.47-1.09-20.99-1.09-20.99,0,0,1.8-.23,2.77-.25,5.53-.08,11.22,.31,16.54-.88,10.33-2.3,20.45-5.52,30.66-8.38,8.33-2.33,13.04-8.66,17.54-15.46,3.16-4.77,2.09-9.77,1.8-14.74-.29-4.89-2.54-9.23-5.27-13.13-4.57-6.55-9.4-12.93-14.33-19.21-3.46-4.41-3.26-5.3,1.36-8.32Zm-83.57,21.8c-.68,.82-1.11,1.86-1.81,2.67l-9.28,9.23-13.45,5.74c-6.77,1.3-27.66,2.45-31.15,2.08-3.65-.38-7.24-1.35-10.85-2.12-9.81-2.09-14.51-11.85-9.21-20.41,6.33-10.23,14.3-18.71,26.72-21.89,11.03-2.83,21.95-6.05,33.47-5.89,5.3,.07,10.35,1.36,14.94,4.13,2.78,1.68,4.29,4.08,4.91,7.38,1.31,7.05,.39,13.45-4.3,19.09Z"/></g></g></svg>