<?xml version="1.0" encoding="UTF-8"?><svg xmlns="http://www.w3.org/2000/svg" viewBox="0 0 184.66 99.55"><defs><style>.d{fill:#a4a4a4;}</style></defs><g id="a"/><g id="b"><g id="c"><path class="d" d="M4.08,97.73c1.13-2.36,52.39-17.85,52.39-17.85l.28,.23s.13-.39,.13-.39c1.22-.38,2.44-.76,3.66-1.14l.41,.22s.27-.43,.27-.43c17.16-2.77,34.19,13.4,44.51,21.17,2.04-15.1,.19-41.25,17.08-48.01,17.23-8.61,35.09-16.06,52.64-24.07,5.31-2.36,5.97-2.69,9.21-7.15-38.85,4.17-82.96,12.09-114.74-16.83-8.28-6.51-6.89-3.34-7.09,4.72-.72,10.41,.2,21.44-3.88,31.25C48.29,65.04,23.55,80.88,.82,94.83c-2.64,1.54,1.83,5.68,3.26,2.9Z"/></g></g></svg>