<?xml version="1.0" encoding="UTF-8"?><svg xmlns="http://www.w3.org/2000/svg" viewBox="0 0 209.03 117.73"><defs><style>.d{fill:#a4a4a4;}</style></defs><g id="a"/><g id="b"><g id="c"><path class="d" d="M3.06,113.45c-14.25,2.04,25.98-35.31,25.55-37.25C46.08,53.99,63.78,31.95,81.42,9.86c1.3-1.63,2.65-3.05,4.62-3.91,19.47-9.12,42.84-7.19,61.81,1.92,13.6,6.3,27.6,7,42.08,5.43,4.55,.1,18.86-5.4,19.1,1.36-18.58,31.83-38.6,62.94-61.09,92.17-2.23,3.41-6.25,4.42-9.66,6.27-9.76,4.96-20.02,5.72-30.52,3.31-45.21-11.78-58.93-15.03-104.7-2.97Z"/></g></g></svg>