<?xml version="1.0" encoding="UTF-8"?><svg xmlns="http://www.w3.org/2000/svg" viewBox="0 0 244.06 62.84"><defs><style>.d{fill:#a4a4a4;}</style></defs><g id="a"/><g id="b"><g id="c"><path class="d" d="M72.53,.16c5.87-1,9.65,2.97,13.71,6.31,14.62,12.6,24.24,24.88,45.42,19.51,21.08-5.4,47.56-16.37,66.2,.6,8.73,8.35,19.38,13.68,30.81,17.41,3.96,2.52,15.7,1.7,15.39,7.25-1.35,3.84-2.8,7.66-4.19,11.49-4.12,.67-7.34-1.98-10.97-3.05-9.12-2.93-18.53-5.46-27.15-9.69-10.91-5.71-20.63-13.57-32.73-16.71-3.4-1.06-6.76-1.55-10.28-.73-4.59,1.07-9.29,1.77-13.78,3.15-7.96,2.45-16.15,2.52-24.33,3.03-25.45,2.05-39.19-31.81-67-14.68-15.1,10.28-33.72,11.65-51.41,9.75-1.87-.22-2.46-1-2.11-2.95,1.37-7.73-.19-6.69,7.41-7.87,7.09-1.1,14.16-2.33,21.24-3.44,6.83-.95,12.69-4.56,18.26-8.39C54.65,5.73,63.74,2.85,72.53,.16Z"/></g></g></svg>