<?xml version="1.0" encoding="UTF-8"?>
<svg id="_レイヤー_2" data-name="レイヤー 2" xmlns="http://www.w3.org/2000/svg" viewBox="0 0 195.98 286.11">
  <defs>
    <style>
      .cls-1 {
        fill: #a4a4a4;
      }
    </style>
  </defs>
  <g id="parts">
    <path class="cls-1" d="M184.29,66.31c.67,18.3,1.15,10.11-19.49,18.63-22.27,6.78-45.53,12.59-63.72,27.95-8.91,6.52-15.14,14.93-17.42,25.83-3.91,19.78-2.39,41.74,8.49,59.13,25.66,24.59,64.44,26.4,98.09,28.51,2.21,.09,2.68,.53,2.83,2.85,.89,12.89,1.59,25.78,1.88,38.69,.2,3.82,.82,7.62,.96,11.45,.25,6.67,.13,7.07-6.49,6.64-15.13-.55-30.25-1.52-45.32-3.01-24.26-2.01-48.81-6.2-70.28-18.27-21.92-12.63-42.54-30.49-53.52-53.63-7.93-20.38-16.17-41.01-19.61-62.73-2.29-22.35,1.31-45.09,8.34-66.34C24.11,39.1,75.2,18.79,116.44,10.33,136.21,6.21,155.88,1.46,176.06,.05c4.34-.24,4.81,.3,5.01,4.6,.95,20.56,1.74,41.13,3.31,61.66-.03,0-.06,0-.09,.01Z"/>
  </g>
</svg>