<?xml version="1.0" encoding="UTF-8"?><svg xmlns="http://www.w3.org/2000/svg" viewBox="0 0 195.3 64.41"><defs><style>.d{fill:#a4a4a4;}</style></defs><g id="a"/><g id="b"><g id="c"><path class="d" d="M44.21,13.05c8.92-3.43,17.83-7.07,26.89-10.25C87.13-1.24,104.2-.1,120.56,1.24c11.19,1.19,22.43,2.12,33.43,4.67,5.91,1.73,12.88,2,18.1,5.33,7.74,6.08,14.8,12.93,21.58,20.04,2.2,2.3,2.19,3.49-.15,5.7-4.16,3.94-8.47,7.71-12.72,11.55-1.41,1.27-2.77,1.17-4.45,.24-29.15-15.19-63.49-21.34-95.87-14.75-15.4,3.29-30.14,9.23-44.32,15.96-7.84,3.55-15.43,7.51-22.26,12.82-.64,.5-1.42,.81-2.15,1.19-1.2,.62-2.37,.59-3.42-.32-2.63-2.28-5.28-4.54-7.81-6.93-.94-1.21-.49-3.25,.37-4.49,4.42-7.13,8.81-14.29,13.39-21.32,.96-1.47,2.47-2.78,4.02-3.65,8.55-4.82,17.19-9.47,25.9-14.24Z"/></g></g></svg>