<?xml version="1.0" encoding="UTF-8"?>
<svg id="_レイヤー_2" data-name="レイヤー 2" xmlns="http://www.w3.org/2000/svg" viewBox="0 0 140.86 180.56">
  <defs>
    <style>
      .cls-1 {
        fill: #a4a4a4;
      }
    </style>
  </defs>
  <g id="parts">
    <path class="cls-1" d="M52.74,7.44c8.91,.57,18.15,1.31,27.4,1.66,15.98-.42,31.6-5.06,47.11-8.6,4.2-1.02,4.83-.79,7.13,3.34,2.31,4.14,4.33,8.43,6.48,12.66-1.05,4.55-4.3,7.84-6.7,11.6-17.34,27.01-38.18,51.46-57.37,77.13-2.05,2.79-3.74,5.95-5.05,9.16-8.74,21.9-19.37,42.9-29.93,63.96-1.14,2.23-2.41,2.79-4.15,1.57-5.53-3.88-11.05-7.81-16.35-11.99-1.2-.95-1.87-2.94-2.21-4.57C13.02,127.6,7.26,91.76,3.07,55.72c-.76-5.7-1.77-11.37-2.88-17.02-.61-3.11,.22-5.16,2.92-6.96,8.34-5.56,16.53-11.33,24.77-17.03,3.7-2.36,7.08-6.11,11.13-7.39,4.33-1.16,9.06,.42,13.73,.12Z"/>
  </g>
</svg>