<?xml version="1.0" encoding="UTF-8"?>
<svg id="_レイヤー_2" data-name="レイヤー 2" xmlns="http://www.w3.org/2000/svg" viewBox="0 0 262.36 143.81">
  <defs>
    <style>
      .cls-1 {
        fill: #a4a4a4;
      }
    </style>
  </defs>
  <g id="parts">
    <path class="cls-1" d="M228.22,100.81c-4.51,4.51-8.9,8.99-14.87,11.63-5.65,2.75-11.11,5.94-16.48,9.22-17.35,10.11-53.13,23.13-73.02,22.09-10.01-.72-19.98-1.73-29.92-3.1-4.31-.6-8.43-1.72-12.4-3.41-14.15-6-28.06-12.44-40.79-21.2C20.95,103.37,11.54,80.86,4.02,59.55-1.64,44.6,.71,28.35,.02,12.7-.22,6.68,1.49,7.29,6.76,6.86,89.9,4.37,173.06,2.35,256.27,.02c4.8-.16,4.79,.68,5.19,4.59,.56,5.53,.41,11.05,.49,16.58,.04,2.85-.42,5.71,.25,8.57,.23,.96,.22,2.14-.14,3.04-2.01,4.96-2.11,10.38-4.05,15.39-2.64,6.85-4.59,13.92-8.26,20.41-1.87,3.3-2.83,7.16-4.58,10.63-4.09,8.41-10.07,15.36-16.93,21.62l-.02-.02Z"/>
  </g>
</svg>