<?xml version="1.0" encoding="UTF-8"?><svg xmlns="http://www.w3.org/2000/svg" viewBox="0 0 235.01 73.65"><defs><style>.d{fill:#a4a4a4;}</style></defs><g id="a"/><g id="b"><g id="c"><path class="d" d="M234.73,73.65c-21.71-8.35-43.05-21.43-66.97-21.65-8.78-.37-17.68-1.38-26.3,1.07-22.81,6.02-46.18,6.95-69.57,7.11-23.41-.1-44.9-12.16-63.5-25.4-2.81-1.98-6.8-3.18-7.88-6.51-.96-2.95-.26-6.47-.14-9.74C.82,12.25,.41,6.21,1.88,0,12.29,6.19,20.14,14.68,29.9,21.55c12.7,7.29,26.11,12.65,40.16,16.73,2.94,1,5.92,1.39,9.04,1.4,8.42,.03,16.72-.7,25.08-1.87,32.38-3.34,65.39-21.93,97.59-8.87,8.39,3.83,16.82,7.57,25.23,11.35q7.73,3.48,7.83,11.62c-.06,7.32,.53,14.38-.09,21.72Z"/></g></g></svg>