<?xml version="1.0" encoding="UTF-8"?><svg xmlns="http://www.w3.org/2000/svg" viewBox="0 0 181.44 14.34"><defs><style>.d{fill:#a4a4a4;}</style></defs><g id="a"/><g id="b"><g id="c"><path class="d" d="M2.03,14.3c-.95-.17-1.49-.68-1.58-1.82-.18-2.18-.27-4.38-.37-6.57C.1,3.8-.67,.53,2.21,.14,6.77,.06,11.37,.68,15.97,.4c4.91,.32,9.83,.73,14.76,.23,6.99-.52,14.01-.18,21.02-.43,7.22-.04,14.45,.26,21.67,0,5.58-.28,11.16-.26,16.75-.02,12.47,.19,24.96-.04,37.42,.66,13.14,.41,26.26,.42,39.38,1.27,2.93,.71,13.81-1.22,14.21,2.1,.1,1.75,.21,3.5,.27,5.25,.03,1.03-.58,1.68-1.61,1.69-5.91,.07-11.83,.09-17.74,.19-38.78,.97-77.57,1.98-116.37,2.64-6.35,.11-12.7,.32-19.06-.19-3.58-.29-7.22,.1-10.84,.2-4.59,.04-9.22,.47-13.79,.32Z"/></g></g></svg>