<?xml version="1.0" encoding="UTF-8"?>
<svg id="_レイヤー_2" data-name="レイヤー 2" xmlns="http://www.w3.org/2000/svg" viewBox="0 0 174.03 209.12">
  <defs>
    <style>
      .cls-1 {
        fill: #a4a4a4;
      }
    </style>
  </defs>
  <g id="parts">
    <path class="cls-1" d="M173.73,54.14c-.69-.35-1.58,.15-2.13,.64-5.72,4.61-28.5,24.32-28.92,24.67-9.63,8.02-35.22,34.38-38.04,35.46-.1-1.43-.32-2.4-.22-3.33,.84-7.94,1.28-15.96,2.72-23.8,4.8-28.42,13.21-59.24,19.54-87.34,0-.12-1.14-.56-1.31-.4-.51,.5-.81,1.22-1.19,1.85-9.63,10.81-17.66,22.93-23.95,35.99-11.27,21.05-16.25,44.57-24.57,66.83-.34,.97-.4,2.45-2.44,2.41-1.67-10.24-1.96-20.7-2.93-31.04-2.19-16.9-.88-61.61-.85-70.67-.04-.99-.13-2.24-1.46-2.21-1.28,.2-2.35,1.64-2.71,2.91-3,7.21-6.6,25.66-6.87,27.28-1.88,11.33-4.7,22.45-7.64,33.55-4.78,15.08-5.91,31.58-12.57,45.91-3.98-1.84-4.61-5.99-6.17-9.36C22.14,83.67,12.06,34.16,5.9,19.55c0,0-.11-.38-.1-.38-.85-.52-1.7-1.05-2.55-1.57-.64,1.05-1.29,2.11-1.93,3.16-.14,.04-.28,.08-.41,.11,.1,.23,.19,.46,.29,.69C.86,25.3,0,36.38,0,36.38c0,2.07,1.91,31.02,3.59,39.68l-.29,.4s.4,.36,.4,.36c.41,2.83,.73,5.69,1.26,8.5,6,35.58,15.97,70.29,23.19,105.62,.62,2.98,2.05,4.6,4.99,5.42,14.57,4.16,29.07,8.59,43.7,12.55,1.61,.46,2.73,.19,3.5-1.44,2.73-5.73,8.83-18.01,9.1-18.45,.28-.29,1.04-1.98,1.31-2.45,.48-.88,7.39-13.21,7.62-13.66,.77-2.36,32.42-53.61,34.37-56.9,.18-.27,2.79-4.26,2.96-4.51,.28-.46,3.11-4.2,3.17-4.53,0,0,3.27-4.92,3.56-5.35,0,0,2.64-3.9,2.64-3.9,1.56-.65,23.92-36.47,28.73-42.01,.39-.39,.22-1.27-.07-1.57Z"/>
  </g>
</svg>