<?xml version="1.0" encoding="UTF-8"?>
<svg id="_レイヤー_2" data-name="レイヤー 2" xmlns="http://www.w3.org/2000/svg" viewBox="0 0 74.56 177.99">
  <defs>
    <style>
      .cls-1 {
        fill: #a4a4a4;
      }
    </style>
  </defs>
  <g id="parts">
    <path class="cls-1" d="M12.63,72.38C20.59,53.72,47.53,7.58,51.26,2.27c.93-1.32,2-2.63,3.94-2.19,1.51,.34,2.26,2.01,1.98,4.78-1.26,12.69,2.21,58.97,3.42,69.42,1.56,13.4,3.33,26.77,8.06,39.57,1.96,5.31,3.19,10.9,4.6,16.4,2.29,8.9,1.3,17.71-1.2,26.4-2.39,8.33-8.4,13.6-15.62,17.67-5.07,2.85-10.66,3.87-16.42,3.64-9.97-.39-19.14-3.49-27.23-9.27-5.19-3.71-8.6-8.69-9.8-15.29-2.38-13.04-4.31-26.06-1.88-40.77,0,0,11.16-39.42,11.51-40.25Z"/>
  </g>
</svg>