<?xml version="1.0" encoding="UTF-8"?>
<svg id="_レイヤー_2" data-name="レイヤー 2" xmlns="http://www.w3.org/2000/svg" viewBox="0 0 181.98 105.12">
  <defs>
    <style>
      .cls-1 {
        fill: #a4a4a4;
      }
    </style>
  </defs>
  <g id="parts">
    <path class="cls-1" d="M181.98,102.45c-.46,.35-.94,1.01-1.47,1.05-2.86,.21-122.73,1.79-139.96,1.61-11.73-.13-23.45-.76-35.18-1.17-.71-.03-1.42-.18-2.13-.28-1.9-.27-3.1-1.31-3.24-3.25C-.1,98.98,10.51,15.31,11.98,4.87c.1-.71,.09-1.45,.28-2.13C12.87,.41,15.12-.68,17.33,.45c4.47,2.3,162.1,99.31,163.87,100.55,.33,.23,.44,.79,.78,1.45Z"/>
  </g>
</svg>