<?xml version="1.0" encoding="UTF-8"?>
<svg id="_レイヤー_2" data-name="レイヤー 2" xmlns="http://www.w3.org/2000/svg" viewBox="0 0 167.05 193.6">
  <defs>
    <style>
      .cls-1 {
        fill: #a4a4a4;
      }
    </style>
  </defs>
  <g id="parts">
    <path class="cls-1" d="M4.18,42.35c.1-5.09,1.42-8.96,5.62-12.02C22.72,20.9,35.57,11.37,48.34,1.71c2.81-2.13,5.2-2.22,8.2-.57,20.71,11.45,89.39,51.09,102.95,59.57,3.39,2.33,8.38,4.62,7.45,9.54-2.6,14.42-6.73,28.55-9.6,42.93-1.01,4.75-3.51,7.6-7.83,9.5-47.37,20.74-93.29,44.49-139.34,67.93C-.27,195.93,.03,194.33,0,184.26c-.02-8.34,3.98-102.92,4.18-141.91Z"/>
  </g>
</svg>