<?xml version="1.0" encoding="UTF-8"?>
<svg id="_レイヤー_2" data-name="レイヤー 2" xmlns="http://www.w3.org/2000/svg" viewBox="0 0 145.88 191.21">
  <defs>
    <style>
      .cls-1 {
        fill: #a4a4a4;
      }
    </style>
  </defs>
  <g id="parts">
    <path class="cls-1" d="M74.34,.14c21.89,0,68.3-.02,69.6,.07,1.75,.13,2.46,1.63,1.54,3.17-.25,.42-.56,.8-.88,1.17-10.38,11.96-39.83,51.4-45.3,58.29-7.5,9.44-15.06,18.83-22.6,28.24-1.73,2.16-3.47,4.32-5.25,6.45-.89,1.06-.78,1.97-.03,3.07,2.39,3.5,49.69,74.85,57.37,86.98,.35,.55,.64,1.14,.92,1.73,.52,1.09,.02,1.91-1.28,1.91-4.08,0-29.01-.8-31.7-1.7-.45-.15-.97-.11-1.46-.14-6.83-.38-13.67-.65-20.5-1.16-5.84-.43-11.65-1.13-17.48-1.7-.81-.08-1.63-.1-2.45-.12-6.03-.15-12-.9-17.96-1.8-.48-.07-.98-.08-1.46-.11-6.18-.37-27.28-1.99-31.67-2.21-2.59-.13-4.16-1.79-3.65-4.16,.62-2.94,.61-13.25,.62-15.52,.09-35.29,.15-70.58,.21-105.87,0-2.78-.21-5.58,.06-8.33C2.42,33.73,1.75,3.69,1.76,3.37,1.89,.31,2.07,.05,5.23,.04,15.68,0,61.76,0,74.34,0c0,.04,0,.09,0,.13Z"/>
  </g>
</svg>