<?xml version="1.0" encoding="UTF-8"?>
<svg id="_レイヤー_2" data-name="レイヤー 2" xmlns="http://www.w3.org/2000/svg" viewBox="0 0 14.34 181.44">
  <defs>
    <style>
      .cls-1 {
        fill: #a4a4a4;
      }
    </style>
  </defs>
  <g id="parts">
    <path class="cls-1" d="M14.3,179.41c-.17,.95-.68,1.49-1.82,1.58-2.18,.18-4.38,.27-6.57,.37-2.11-.02-5.38,.75-5.77-2.13-.08-4.55,.55-9.16,.26-13.76,.32-4.91,.73-9.83,.23-14.76-.52-6.99-.18-14.01-.43-21.02-.04-7.22,.26-14.45,0-21.67-.28-5.58-.26-11.16-.02-16.75,.19-12.47-.04-24.96,.66-37.42,.41-13.14,.42-26.26,1.27-39.38C2.82,11.54,.89,.67,4.2,.27,5.95,.17,7.71,.06,9.46,0c1.03-.03,1.68,.58,1.69,1.61,.07,5.91,.09,11.83,.19,17.74,.97,38.78,1.98,77.57,2.64,116.37,.11,6.35,.32,12.7-.19,19.06-.29,3.58,.1,7.22,.2,10.84,.04,4.59,.47,9.22,.32,13.79Z"/>
  </g>
</svg>