<?xml version="1.0" encoding="UTF-8"?>
<svg id="_レイヤー_2" data-name="レイヤー 2" xmlns="http://www.w3.org/2000/svg" viewBox="0 0 140.88 296.96">
  <defs>
    <style>
      .cls-1 {
        fill: #a4a4a4;
      }
    </style>
  </defs>
  <g id="parts">
    <g>
      <path class="cls-1" d="M14.1,114.23c1.06,5.35,.52,10.98,.52,16.43,0,3.11,.12,6.22,.14,9.32-.35,14.55-.2,29.11-.63,43.66-.04,2.82,.01,5.63,.01,8.45,0,.97-.23,1.33-1.12,1.34-2.33,.04-4.66,0-6.99-.05-.57-.01-.81-.48-.8-1.03,.14-4.95,.31-9.89,.44-14.84,.24-10.96,.27-21.93,.78-32.88,.35-6,.67-12.01,.89-18.02,.11-2.91,.03-5.83,.3-8.72,.35-3.69-.36-3.71,3.75-3.88,.96,.03,1.8-.27,2.71,.21Z"/>
      <path class="cls-1" d="M61.01,.91c.08,.38,.17,.66,.19,.94,.09,1.46,4.06,78.34,4.06,78.63,.01,1.58-.11,1.73-1.72,1.8-2.33,.1-4.66,.18-6.99,.26-.29,.01-.58,0-.87-.02-.66-.06-.86-.3-.86-1,0-2.48-.02-4.96,0-7.44,.02-4.81,.09-9.62,.06-14.43-.03-4.37-.13-8.75-.26-13.12-.16-5.1-.32-10.21-.6-15.3-.36-6.55-.82-13.1-1.25-19.64-.19-2.91-.4-5.82-.57-8.73-.06-.99,.07-1.15,1.04-1.29,2.24-.31,7.41-.73,7.78-.66Z"/>
      <path class="cls-1" d="M125.9,188.24c-.89,.38-1.86,.26-2.8,.35-3.85,.14-7.7,.28-11.55,.41-.65,.02-1.71,.23-1.84-.65-.59-5.05-.33-10.16-.59-15.23-.64-20.12-1.57-40.23-2.14-60.36-.03-1.05,.17-1.25,1.27-1.29,3.2-.11,6.39-.21,9.59-.29,.96-.03,1.08,.08,1.16,1.13,.39,5.51,.79,11.02,1.2,16.53,1.22,19.84,4.08,39.71,5.71,59.41Z"/>
      <path class="cls-1" d="M15.89,296.66c-.34,.12-.61,.29-.88,.29-1.8,0-3.59-.01-5.39-.07-2.69-.08-5.38-.16-8.07-.3-1.4-.07-1.56-.24-1.55-1.6,.03-4.49,0-8.99,.19-13.47,1.09-20.82,2.04-41.66,3.05-62.48,.12-1-.1-2.41,1.07-2.81,3.75-.18,7.59,.17,11.36,.22,2.3,.09,2.45,.26,2.4,2.72-.75,25.83-1.22,51.68-2.18,77.5Z"/>
      <path class="cls-1" d="M67.85,294.19c-2.9,0-23.49-.17-24.27-.32-.29-.06-.68-.48-.72-.78-.09-.68,2.69-66,2.71-66.19,.13-1.33,.34-1.56,1.63-1.62,1.59-.08,17.57-.48,18.26-.41,.58,.06,.88,.44,.92,1,.06,1,2.58,66.73,2.55,67.13-.05,.65-.25,1.2-1.07,1.2Z"/>
      <path class="cls-1" d="M122.9,79.28c.1,1.77-.01,1.92-1.91,2.11-4.61,.48-18.92,1.89-21.46,2.05-1.54,.1-1.88-.23-2.04-1.69-.29-2.65-6.25-74.34-6.43-77-.11-1.58,.14-1.81,1.67-2,3.22-.41,17.26-2.19,21.05-2.69,1.49-.19,1.89,.06,2.06,1.57,.29,2.54,6.99,76.15,7.07,77.65Z"/>
      <path class="cls-1" d="M64.28,193.82c-.97,.02-2.17,.08-3.38,.08-3.47,.01-6.94,.01-10.41,.01-.3,0-.6,0-.9-.03-.77-.09-.95-.35-.9-1.22,.6-10.71,1.09-21.42,1.84-32.12,.67-9.65,1.65-38.03,1.79-42.55,.03-1.13,.02-2.26,.09-3.39,.05-.76,.43-1.09,1.18-1.09,3.62-.02,7.24-.02,10.86-.01,.86,0,1.2,.38,1.2,1.28,0,5.96,.06,45.65,.04,51.61-.02,5.73,.23,22.93,.21,25.8,0,1.27-.17,1.4-1.61,1.64Z"/>
      <path class="cls-1" d="M5.08,90c-1.68-.38-2.04-.82-1.93-2.18,.48-6.03,2.13-28.1,2.54-33.1,.3-3.78,.74-7.55,1.07-11.32,.3-3.47,2.79-34.63,3.01-35.84,.19-1.04,.73-1.45,1.7-1.4,1.43,.07,13.28,1.06,13.48,1.09,.99,.15,1.48,.68,1.46,1.64,0,.41-2.29,29.94-2.58,34.65-.3,4.91-.42,9.83-.68,14.75-.26,4.91-2.25,31.35-2.28,31.56-.16,.97-.71,1.47-1.69,1.39-3.37-.28-12.96-1.13-14.1-1.22Z"/>
      <path class="cls-1" d="M134.18,216.74c.16,2.16,6.58,74.64,6.68,75.56,.13,1.17-.42,1.64-1.57,1.74-7.9,.74-15.8,1.47-23.69,2.31-2.14,.23-2.35-.8-2.41-2.52-.25-7.93-2.82-69.48-2.81-69.74,.2-4.49-.83-4,4.23-4.7,6.41-.88,12.82-1.74,19.56-2.66Z"/>
    </g>
  </g>
</svg>