<?xml version="1.0" encoding="UTF-8"?>
<svg id="_レイヤー_2" data-name="レイヤー 2" xmlns="http://www.w3.org/2000/svg" viewBox="0 0 34.12 180.48">
  <defs>
    <style>
      .cls-1 {
        fill: #a4a4a4;
      }
    </style>
  </defs>
  <g id="parts">
    <path class="cls-1" d="M29.62,70.98c.28,29.43,2.09,71.47,4.25,103.43-.17,1.95,1.36,5.8-1.57,6.07-8.11-.09-16.21-.89-24.31-1.29-3.38-.21-3.85-.58-3.97-3.8-.19-4.94-.26-9.88-.35-14.82-.63-42.52-1.63-85.03-2.78-127.53C.63,24.14,.29,15.24,0,6.34,.07,3.35-.5-.68,3.79,.1c7.7,.51,15.4,1.17,23.09,1.85,1.85,.16,2.48,.85,2.53,2.65,.45,22.88,.12,38.95,.21,66.38Z"/>
  </g>
</svg>