<?xml version="1.0" encoding="UTF-8"?>
<svg id="_レイヤー_2" data-name="レイヤー 2" xmlns="http://www.w3.org/2000/svg" viewBox="0 0 197.3 232.57">
  <g id="parts">
    <path class="cls-1" d="M140.02,78.72c0,5.31,.3,10.65-.09,15.93-.34,4.71,1.08,7.47,5.58,9.53,7.6,3.48,15.04,7.41,22.19,11.73,17.99,10.87,26.09,28.13,29.38,47.98,.71,4.27-.51,8.95-1.32,13.35-1.26,6.83-2.58,13.68-4.54,20.33-2.2,7.43-6.33,13.44-13.91,16.82-11.37,5.08-22.56,10.58-33.77,16.03-3.6,1.75-7.16,2.4-11.2,2.07-16.16-1.32-32.21-3.59-47.21-9.83-17.8-7.41-31.37-21.56-29.97-42.39,.91-13.44,1.94-26.87,3.09-40.29,.53-6.22,.67-6.23-5.35-8.03-12.87-3.86-24.97-9.11-34.08-19.52-1.47-1.68-2.96-3.43-4-5.38-3.47-6.47-7.09-12.89-9.95-19.62-1.89-4.44-3.16-9.33-3.65-14.13C.41,65.18,.61,56.97,.05,48.82c-.39-5.73,1.55-10.5,5.29-14.49C17.3,21.6,30.58,10.5,46.23,2.49,49.91,.6,53.85-.24,58.07,.06c6.11,.44,12.23,.73,18.35,.91,13.04,.39,23.4,6.63,32.59,15.1,8.32,7.67,14.51,17.11,20.76,26.46,.68,1.02,1.18,2.21,2.01,3.07,7.13,7.43,9.16,16.42,8.28,26.37-.2,2.23-.03,4.49-.03,6.74,0,0-.02,0-.02,0Z"/>
  </g>
</svg>