<?xml version="1.0" encoding="UTF-8"?>
<svg id="_レイヤー_2" data-name="レイヤー 2" xmlns="http://www.w3.org/2000/svg" viewBox="0 0 96.16 139.97">
  <defs>
    <style>
      .cls-1 {
        fill: #a4a4a4;
      }
    </style>
  </defs>
  <g id="parts">
    <path class="cls-1" d="M42.58,0c5.7,13.54,11.66,26.97,17.47,40.46,2.08,4.8,5.33,8.52,9.83,11.21,8.21,5.27,16.8,10.06,26.21,12.87,.34,1.89-.77,2.44-1.66,3.13-5.27,4.09-10.57,8.14-15.81,12.26-18.73,14.08-21.68,38.96-27.83,60.03-1.62-.07-1.69-1.37-2.08-2.38-5.51-14.14-11.13-28.25-16.49-42.45-4.97-15.36-19.98-20.15-32.22-28.7,.89-2,2.89-2.09,4.48-2.56,9.03-2.66,15.49-8.91,21.48-15.6,3.73-4.16,5.28-9.62,6.86-14.94,3.27-11,6.76-21.94,9.76-33.34Z"/>
  </g>
</svg>