<?xml version="1.0" encoding="UTF-8"?>
<svg id="_レイヤー_2" data-name="レイヤー 2" xmlns="http://www.w3.org/2000/svg" viewBox="0 0 245.02 281.63">
  <defs>
    <style>
      .cls-1 {
        fill: #a4a4a4;
      }
    </style>
  </defs>
  <g id="parts">
    <path class="cls-1" d="M245.02,6.74c-1.77,10.01-3.48,19.71-5.21,29.4-.5,2.26-3.34,.97-4.94,1-15.27-1.5-30.55-2.97-45.81-4.52-7.91-.51-15.03,4.43-21.33,8.63-5.54,4.09-10.99,8.31-16.43,12.54-2.66,2.06-4.55,4.75-5.66,7.92-4.15,12.43-8.67,24.94-10.52,37.95-.85,23.82,1.84,47.54,2.93,71.31,.06,19.84-5.05,39.23-13.12,57.25-11.28,18.71-33.46,25.31-52.44,33.44-4.95,2.01-9.84,4.05-14.31,6.99-1.49,.98-3.11,1.41-4.8,1.79-14.64,3.82-29.97,5.59-44.15,10.94-1.32,.63-2.01,.15-2.22-1.37-1.41-12.92-6.57-40.31-6.74-41.23-.53-2.91-.53-2.92,2.4-3.97,7.37-2.63,14.83-5.02,22.09-7.92,18.03-7.32,68.17-23.99,75.38-41.96,.6-1.38,1.05-20.84,1.13-28.98,.29-15.04,.2-30.06-.68-45.07-.91-24.15-1.01-22.02,5.03-49.73,.78-5.45,2.57-10.19,6.44-14.22,5.85-6.73,11.35-13.76,17.28-20.42,6.6-7.34,14.4-13.48,22.17-19.52,24.7-12.23,67-5.78,93.5-.24Z"/>
  </g>
</svg>