<?xml version="1.0" encoding="UTF-8"?>
<svg id="_レイヤー_2" data-name="レイヤー 2" xmlns="http://www.w3.org/2000/svg" viewBox="0 0 226.64 266.28">
  <defs>
    <style>
      .cls-1 {
        fill: #a4a4a4;
      }
    </style>
  </defs>
  <g id="parts">
    <path class="cls-1" d="M76.89,266.28c-1.15,0-19.65-1.88-27.3-4.97-3.5-1.41-12.27-5.12-13.09-5.65-10.03-6.45-18.64-14.49-25.94-23.87-1.98-2.54-3.3-5.7-4.45-8.75-2.03-5.36-4.21-10.75-4.81-16.5-.77-7.47-1.94-14.88-.84-22.52,.74-5.18,1.11-10.4,2.33-15.52,1.84-7.71,4.55-15.09,8.46-21.97,1.77-3.12,9.71-13.6,11.45-15.98,4.4-6.01,9.76-11.12,15.75-15.4,5.05-3.61,10.51-6.75,16.1-9.47,4.54-2.21,9.52-3.56,14.36-5.09,1.36-.43,10.66-.16,13.78-.23,1.84-.04,2.69-.95,2.73-2.77-.9-21.7-.03-41.26,2.43-49.59,1.76-5.94,4.17-11.8,7.09-17.27,4.2-7.87,10.02-14.55,17.35-19.82,4.36-3.13,9.32-4.81,14.4-6.15,4.75-1.25,9.56-2.27,14.37-3.27,2.07-.43,16.11-1.61,18.07-1.52,3.11,.15,6.2,.58,9.3,.69,7.88,.28,15.1,2.73,21.94,6.48,1.87,1.03,12.97,8.03,15.96,11.36,2.74,3.05,5.45,6.13,8.1,9.25,3.66,4.31,5.85,9.47,8.21,14.52,2.04,4.36,3.92,18.32,3.98,20.6,.32,12.32-2,24.19-7.06,35.38-1.79,3.97-4.71,7.49-7.41,10.98-2.61,3.36-5.6,6.43-8.42,9.62-2.96,3.34-6.46,6.03-10.18,8.48-5.62,3.69-21.45,12.25-23.52,13.25-2.35,1.13-2.35,1.28-1.83,3.75,1.53,7.21,3.2,14.39,4.53,21.64,1.31,7.15,1.56,14.37-.33,21.47-2.67,9.99-5.97,19.75-10.16,29.25-2.81,6.38-6.42,12.21-10.54,17.71-3.83,5.12-8.29,9.8-13.79,13.21-7.67,4.75-15.42,9.42-23.9,12.63-6.28,2.38-12.76,4.07-19.45,5.09-5.89,.89-11.77,.82-17.67,.92Z"/>
  </g>
</svg>