<?xml version="1.0" encoding="UTF-8"?>
<svg id="_レイヤー_2" data-name="レイヤー 2" xmlns="http://www.w3.org/2000/svg" viewBox="0 0 143.78 344.56">
  <defs>
    <style>
      .cls-1 {
        fill: #a4a4a4;
      }
    </style>
  </defs>
  <g id="parts">
    <path class="cls-1" d="M57.19,258.43c10.64,18.76,21.34,38.13,37.38,52.88,3.5,3.46,6.4,4.22,2.31,9.38-4.88,7.08-9.76,14.16-14.65,21.23-.99,1.45-2.27,3.54-4.27,2.23-10.2-7.19-19.99-14.99-30.08-22.35-2.19-1.62-3.7-3.74-5.32-5.87-4.11-5.4-7.18-11.48-11.15-16.9-4.26-5.81-7.46-12.22-11.56-18.1-1.48-2.13-2.42-4.74-3.19-7.25-3.45-11.34-6.72-22.74-10.11-34.11-2.95-9.89-3.8-20.1-4.58-30.3-1.47-22.03-3.78-44.27,.3-66.16,1.66-10.54,4.36-20.84,7.34-31.06,1.72-5.9,4.12-11.62,5.45-17.59,5.12-24.4,36.42-64.26,58.54-75.46,7.7-4.29,15.41-8.56,23.16-12.77,5.82-3.16,12.12-4.89,18.63-5.87,3.72-.27,8.25-1.33,10.82,2.2,4.88,6.3,9.87,12.52,14.82,18.76,2,2.33,4.83,4.79,.27,6.24-25.63,9.53-50.45,22.34-69.78,42.08-4.26,4.31-7.02,9.56-9.86,14.76-8.59,15.74-14.79,32.41-18.81,49.87-1.56,6.78-2.82,13.63-4.04,20.48-.46,2.6-.64,5.31-.56,7.95,.27,7.99,.55,15.98,1.17,23.95,.69,8.98,1.68,17.94,2.67,26.89,1.55,11.91,2.86,24.24,9.36,34.69,2.07,3.3,3.81,6.79,5.7,10.2Z"/>
  </g>
</svg>