<?xml version="1.0" encoding="UTF-8"?>
<svg id="_レイヤー_2" data-name="レイヤー 2" xmlns="http://www.w3.org/2000/svg" viewBox="0 0 122.18 105.3">
  <defs>
    <style>
      .cls-1 {
        fill: #a4a4a4;
      }
    </style>
  </defs>
  <g id="parts">
    <path class="cls-1" d="M13.81,49.27C12.61,47.46,1.99,31.91,.22,21.36c-.58-1.98,.01-3.67,1.45-5.03,2.63-2.49,5.98-5.17,9.73-3.23,5.45,2.51,10.34,5.83,14.77,9.85,3.19,2.89,6.24,5.92,9.41,8.83,1.86,1.71,3.97,1.07,4.53-1.37,1.01-10.98,3.9-18.27,11.85-26.01,5.33-5.19,13.26-6.09,17.5-1.07,5.77,4.86,10.17,10.14,9.57,18.19-.1,2.02,.36,4.07,.66,6.09,.18,1.46,1.18,1.99,2.35,1.05,5.47-5.25,10.36-11.1,16.79-15.24,4.83-3.37,9.98-3.22,15.32-1.91,2.14,.53,3.61,1.93,4.32,4.01,1.12,3.29,2.18,6.61,3.2,9.93,.95,3.09,.47,6.24-.68,9.05-4.58,11.19-9.8,22.08-16.91,31.94-12.8,12.92-26.39,25.16-39.52,37.77-1.79,1.44-2.65,1.49-4.24-.07-2.48-2.44-4.89-4.95-7.3-7.46-10.92-11.6-22.04-23.03-31.3-36.09-1.8-2.54-6.72-9.49-7.92-11.31Z"/>
  </g>
</svg>