<?xml version="1.0" encoding="UTF-8"?>
<svg id="_レイヤー_2" data-name="レイヤー 2" xmlns="http://www.w3.org/2000/svg" viewBox="0 0 119.24 195.92">
  <defs>
    <style>
      .cls-1 {
        fill: #a4a4a4;
      }
    </style>
  </defs>
  <g id="parts">
    <path class="cls-1" d="M53.39,76.75s.2,.31,.19,.3c1.66,3.7,4.15,6.66,7.7,8.74,11.61,6.66,22.95,13.86,34.67,20.31,10.4,5.03,15.8,14.06,19.31,24.39,7.73,21.97,3.44,44.49-6.28,65.43-7.27-9.11-11.37-19.51-18.17-28.8-14.39-21.56-34.25-26.7-57.39-34.59C14.36,125.95,.77,107.04,0,86.83-.4,59.64,11.81,34.52,25.02,11.46c.88-1.6,1.72-3.33,2.99-4.57,2.45-2.4,3.47-6.44,7.66-6.89,3.5,25.95,.07,55.17,17.72,76.75Z"/>
  </g>
</svg>