<?xml version="1.0" encoding="UTF-8"?>
<svg id="_レイヤー_2" data-name="レイヤー 2" xmlns="http://www.w3.org/2000/svg" viewBox="0 0 64.41 195.3">
  <defs>
    <style>
      .cls-1 {
        fill: #a4a4a4;
      }
    </style>
  </defs>
  <g id="parts">
    <path class="cls-1" d="M13.05,151.1c-3.43-8.92-7.07-17.83-10.25-26.89C-1.24,108.17-.1,91.11,1.24,74.75c1.19-11.19,2.12-22.43,4.67-33.43,1.73-5.91,2-12.88,5.33-18.1C17.32,15.47,24.16,8.42,31.28,1.63c2.3-2.2,3.49-2.19,5.7,.15,3.94,4.16,7.71,8.47,11.55,12.72,1.27,1.41,1.17,2.77,.24,4.45-15.19,29.15-21.34,63.49-14.75,95.87,3.29,15.4,9.23,30.14,15.96,44.32,3.55,7.84,7.51,15.43,12.82,22.26,.5,.64,.81,1.42,1.19,2.15,.62,1.2,.59,2.37-.32,3.42-2.28,2.63-4.54,5.28-6.93,7.81-1.21,.94-3.25,.49-4.49-.37-7.13-4.42-14.29-8.81-21.32-13.39-1.47-.96-2.78-2.47-3.65-4.02-4.82-8.55-9.47-17.19-14.24-25.9Z"/>
  </g>
</svg>