<?xml version="1.0" encoding="UTF-8"?>
<svg id="_レイヤー_2" data-name="レイヤー 2" xmlns="http://www.w3.org/2000/svg" viewBox="0 0 186.44 227.26">
  <defs>
    <style>
      .cls-1 {
        fill: #a4a4a4;
      }
    </style>
  </defs>
  <g id="parts">
    <path class="cls-1" d="M83.73,.29c1.23,0,2.48,.13,3.69-.02,6.08-.79,11.83,.19,17.26,3.02,6.35,3.32,12.75,6.57,19.02,10.03,4.23,2.33,7.29,5.77,9.36,10.26,6.38,12.76,10.81,26.98,8.48,41.4,.02,4.34-3.11,12.29,3.18,13.13,6.3,.86,11.28,4.3,16.34,7.85,8.75,5.58,13.94,14.21,18.76,23.1,.4,.7,.73,1.49,.9,2.28,1.62,7.8,3.45,15.58,4.71,23.44,.78,4.82,.67,9.79,.97,14.69,.15,2.5-.13,4.87-1.3,7.16-4.85,9.48-9.64,19-14.46,28.5-7.63,9.57-15.89,18.79-25.97,25.98-18.98,12.9-50.52,19.56-72.98,14.39-6.03-1.65-11.5-4.58-14.57-10.44-3.51-6.71-7.02-13.44-10.1-20.36-3.03-6.82-3.79-14.24-4.04-21.62-.56-7.4,.25-14.72,1.13-22.07,.23-2.37-.29-3.59-3.18-4.29-2.77-.68-5.41-1.89-8.15-2.75-3.96-1.25-7.43-3.03-10.29-6.3-2.81-3.21-6.45-5.69-9.45-8.76-2.71-2.77-5.15-5.83-7.53-8.89-.98-1.26-1.86-2.8-2.17-4.34-1.25-6.01-2.29-12.06-3.31-18.11-.25-9.78,1.77-19.59,4.53-28.99,5.84-18.52,14.37-37.51,29.49-50.23C47.87,6.53,65.26-.57,83.73,.38c0-.03,0-.06,0-.09Z"/>
  </g>
</svg>