<?xml version="1.0" encoding="UTF-8"?>
<svg id="_レイヤー_2" data-name="レイヤー 2" xmlns="http://www.w3.org/2000/svg" viewBox="0 0 118.79 169.12">
  <defs>
    <style>
      .cls-1 {
        fill: #a4a4a4;
      }
    </style>
  </defs>
  <g id="parts">
    <path class="cls-1" d="M2.44,112.78c0-4.91-.07-9.83,.02-14.74,.11-6.08-.39-12.12-.74-18.17-.12-2.06-.01-4.14-.08-6.2-.22-6.44-.79-12.87-.96-19.32-.07-2.8-.39-5.64-.63-8.47-.21-2.52,.53-4.34,2.39-6.15,6.77-6.57,13.54-13.16,19.97-20.07,5.28-5.68,10.66-11.25,16.15-16.72,3.49-3.47,2.97-3.95,7.67-1.1,5.08,3.07,10.36,5.81,15.55,8.68,7.12,3.93,14.23,7.87,21.36,11.78,3.62,1.99,7.28,3.91,10.92,5.87,7.28,3.91,14.56,7.83,21.83,11.75,.57,.31,1.13,.62,1.66,1,.78,.55,1.27,1.28,1.25,2.28-.05,2.58-.06,5.17-.19,7.75-.1,1.92-.22,3.87-.6,5.75-1.01,5.09-.3,10.31-1.37,15.39-.05,.25-.06,.51-.08,.77-.29,4.5-.51,9.01-.89,13.5-.39,4.61-.93,9.21-1.39,13.82-.09,.9-.06,1.81-.13,2.71-.26,3.47-.56,6.93-.8,10.4-.09,1.32-.99,2.08-1.88,2.8-2.51,2.02-5.06,4-7.61,5.98-7.85,6.08-15.7,12.15-23.56,18.22-5.1,3.94-10.26,7.82-15.31,11.82-5.97,4.72-11.88,9.51-17.76,14.33-4.07,3.34-4.28,3.5-8.63,.81-8.01-4.94-16.13-9.72-23.49-15.65-3.51-2.83-7.08-5.6-10.64-8.37-.76-.59-1.29-1.27-1.43-2.21-.2-1.4-.5-2.8-.51-4.2-.05-8.02-.02-16.03-.02-24.05h-.07Z"/>
  </g>
</svg>