<?xml version="1.0" encoding="UTF-8"?>
<svg id="_レイヤー_2" data-name="レイヤー 2" xmlns="http://www.w3.org/2000/svg" viewBox="0 0 150.79 279.68">
  <defs>
    <style>
      .cls-1 {
        fill: #a4a4a4;
      }
    </style>
  </defs>
  <g id="parts">
    <path class="cls-1" d="M101.81,270.65c-18.37-1.71-37.8-15.08-54.15-22.48-6.47-2.93-11.44-8-15.33-13.71C15.09,208.41-1.84,179.03,.16,146.58c1.69-7.64,4.35-15.08,5.74-22.76,6.47-31.44,25.84-60.52,51.7-79.37,14.88-10.09,28.71-21.72,45.47-28.88,14.83-6.34,30.11-11.19,45.71-15.56,3.3,7.72,1.53,15.19,1.59,22.4,.16,18.91-.81,37.83-.59,56.74,.09,7.96-2.75,13.06-9.54,16.77-20.1,12.04-43.1,32.87-38.69,58.71,3.57,15.85,6.16,19.65,21.5,29.07,5.49,3.37,10.53,7.48,15.85,11.14,14.9,2.8,7.84,34.11,8.85,46.52,1.66,55.98,5.43,36.11-45.92,29.3Z"/>
  </g>
</svg>