<?xml version="1.0" encoding="UTF-8"?>
<svg id="_レイヤー_2" data-name="レイヤー 2" xmlns="http://www.w3.org/2000/svg" viewBox="0 0 131.03 139.44">
  <defs>
    <style>
      .cls-1 {
        fill: #a4a4a4;
      }
    </style>
  </defs>
  <g id="parts">
    <path class="cls-1" d="M2.44,88.48c3.29-18.43,8.89-51.56,9.33-60C12.99,13.58,17.74-4.31,32.86,.93c3.12,3.34,8.69,6.22,8.04,11.47-1.43,12.61-4.28,25-6.6,37.47-1.36,7.03-2.74,14.05-4.08,21.08-.72,3.77-1.67,11.97,1.56,13.97,4.6,2.65,11.3-.59,16.21-4.3,3.53-2.43,7.36-4.43,11.03-6.67,14.68-8.96,29.27-18.09,43.45-27.81,7.07-4.91,14.49-5.09,22.28-2.72,4.49,1.37,5.99,5.25,6.18,9.95,.3,6.37,.45,10.85-5.56,14.59-30.06,24.06-57.66,44.23-94.03,65.04C-5.04,153.82-1.65,120.17,2.44,88.48Z"/>
  </g>
</svg>