<?xml version="1.0" encoding="UTF-8"?>
<svg id="_レイヤー_2" data-name="レイヤー 2" xmlns="http://www.w3.org/2000/svg" viewBox="0 0 60 181.74">
  <defs>
    <style>
      .cls-1 {
        fill: #a4a4a4;
      }
    </style>
  </defs>
  <g id="parts">
    <path class="cls-1" d="M47.11,25.12c-3.59,4.48-7.21,8.94-10.75,13.46-3.87,3.67-7.76,8.29-7.47,14.06,.32,28.23,.66,56.46,1.3,84.68,.27,13.09,.58,26.18,.88,39.27,.25,2.28-.28,5-3.1,4.84-5.32,.11-10.64,.21-15.96,.29-3.19,.31-3.04-3.22-3.24-5.51C6.07,130.21,3.14,84.21,.07,38.24c-.45-3.36,1.48-5.36,4.14-6.76C19.79,22.32,33.53,10.56,48.49,.55c1.56-1.16,3.11-.3,4.35,.85,9.48,8.24,9.03,5.37,1.69,14.68-2.41,3.06-4.87,6.09-7.3,9.13-.04-.03-.08-.06-.12-.09Z"/>
  </g>
</svg>