<?xml version="1.0" encoding="UTF-8"?>
<svg id="_レイヤー_2" data-name="レイヤー 2" xmlns="http://www.w3.org/2000/svg" viewBox="0 0 206.07 238.1">
  <defs>
    <style>
      .cls-1 {
        fill: #a4a4a4;
      }
    </style>
  </defs>
  <g id="parts">
    <path class="cls-1" d="M0,112.8c1.19-10.46,2.78-21.28,5.9-31.43,2.84-9.81,3.12-19.77,1.73-29.85-.71-8.17-.37-16.49-.08-24.68,.3-4.84,.74-9.75,3.38-14.06C15.2,6.22,23.73,1.66,31.44,.37c12.86-1.63,25.65,2.55,38.18,4.84,23.99,4.38,45.34,16.77,67.01,27.33,10.67,6.6,19.09,16.37,24.01,27.96,2.26,5.5,4.67,10.91,6.2,16.69,.45,1.71,1.54,3.31,2.59,4.78,4.39,6.08,9.54,11.52,15.35,16.23,6.74,5.46,12.11,12.02,16.54,19.34,3.2,5.28,4.88,11.1,4.74,17.4-.69,10.42-7.51,20.79-14.21,28.53-7.06,7.78-13.75,15.88-20.61,23.84-7.74,7.65-14.69,15.87-19.83,25.51-7.68,14.23-15.38,22.54-31.9,25.13-2.19,.37-4.49-.56-6.74,.14-.23,.07-.61-.12-.83-.3-1.9-1.52-3.99-2.87-5.62-4.64-6.48-6.87-12.57-14.19-16.26-22.98-2.83-6.23-5.3-12.63-7.89-18.97-1.52-3.71-3.65-7.06-6.31-10-3.88-4.12-9.51-6.03-14.61-8.2-11.78-1.84-25.08,.34-35.02-7.87-1.54-1.25-3.03-2.61-4.73-3.58-2.78-1.58-4.51-4.09-6.19-6.6-4.52-6.71-8.37-13.82-11.67-21.2-1.11-2.48-1.9-5.17-2.33-7.85-.66-4.2-.88-8.46-1.32-13.09Z"/>
  </g>
</svg>