<?xml version="1.0" encoding="UTF-8"?>
<svg id="_レイヤー_2" data-name="レイヤー 2" xmlns="http://www.w3.org/2000/svg" viewBox="0 0 73.48 116.69">
  <defs>
    <style>
      .cls-1 {
        fill: #a4a4a4;
      }
    </style>
  </defs>
  <g id="parts">
    <path class="cls-1" d="M41.28,15.09c.31-4.09,.63-8.18,.94-12.26,.19-2.46,.33-2.74,2.94-2.79,8.4-.07,16.81-.03,25.2,.21,2.65,.11,3.29,.8,3.08,3.42-1.39,17.16-3.21,34.29-4.24,51.48-.4,14.12-.3,28.27-.99,42.39-.13,3.89-.23,7.78-.4,11.67-.39,2.62,.51,7.54-3.3,7.49-8.81,0-17.62-.1-26.43-.15-1.45,0-2.29-.79-2.63-2.1-1.68-9.68-3.09-19.43-4.34-29.18-.56-4.68-2.29-8.47-5.36-12.05-7.96-9.12-16.63-17.55-24.8-26.47-.89-.96-1.39-2.07-.43-3.29,3.44-4.34,6.86-8.69,10.36-12.97,1.1-1.35,2.39-1.35,3.71-.05,5.11,5.03,10.17,10.12,15.25,15.18,1.55,1.33,3.06,4.35,5.15,3.92,2.42-.62,1.52-3.44,1.9-5.31,1.76-9.69,4.2-19.22,4.39-29.13Z"/>
  </g>
</svg>