<?xml version="1.0" encoding="UTF-8"?>
<svg id="_レイヤー_2" data-name="レイヤー 2" xmlns="http://www.w3.org/2000/svg" viewBox="0 0 212.37 200.48">
  <defs>
    <style>
      .cls-1 {
        fill: #a4a4a4;
      }
    </style>
  </defs>
  <g id="parts">
    <g>
      <path class="cls-1" d="M194.62,45.28c-.04,.32-.09,.74-.14,1.17-.02,.19-.02,.38-.04,.57-.12,1.81-.47,3.57-1.18,5.26-.5,1.2-1.16,2.31-1.88,3.39-.27,.41-.6,.76-1.01,1.03-.87,.58-1.75,1.15-2.7,1.62-1.05,.52-2.12,.93-3.25,1.19-.97,.22-1.94,.44-2.95,.44-.19,0-.37,.06-.56,.08-.32,.02-.65,.07-.97,.04-.53-.06-1.07-.16-1.59-.3-1.41-.38-2.8-.79-4.1-1.48-.53-.28-1-.62-1.43-1.04-.95-.93-1.8-1.94-2.6-2.99-.79-1.04-1.36-2.21-1.87-3.4-.56-1.29-.89-2.66-1.17-4.03-.03-.16-.08-.31-.14-.46-.32-.75-.48-1.54-.51-2.36,0-.03,0-.06,0-.08-.24-1.04,.07-2.02,.27-3.02,.05-.24,.14-.47,.17-.71,.1-.8,.54-1.39,1.07-1.95,1.15-1.22,2.36-2.37,3.75-3.33,.09-.06,.17-.13,.25-.2,.53-.48,1.11-.82,1.82-1,1.07-.26,2.13-.6,3.19-.88,.65-.17,1.33-.22,1.99-.33,1.16-.19,2.32-.11,3.47-.15,1.01-.03,1.98,.18,2.94,.46,.36,.11,.72,.24,1.08,.35,1.29,.39,2.39,1.11,3.43,1.94,.27,.22,.56,.43,.81,.66,.93,.84,1.64,1.86,2.29,2.92,.56,.94,.88,1.95,1.08,3.02,.22,1.14,.38,2.28,.46,3.55Z"/>
      <path class="cls-1" d="M143.72,174.49c3.1-6.16,10.93-9.44,18.1-6.82,1.06,.39,1.96,1,2.61,1.96,1.4,2.08,2.45,4.3,3.32,6.66,1.37,3.68,1.44,7.41,.99,11.18-.31,2.56-1.01,5.07-2.28,7.35-1.52,2.72-3.79,4.5-6.87,5.15-1.08,.23-2.18,.34-3.28,.46-3.1,.33-5.55-.97-7.64-3.13-2.96-3.05-5.09-6.55-5.95-10.76-.11-.54-.23-1.09-.42-1.61-1.37-3.87-.76-7.45,1.41-10.43Z"/>
      <path class="cls-1" d="M62.77,182.89c.05,1.3-.06,2.6-.2,3.89-.46,1.71-1.35,3.28-2.14,4.85-.47,.85-.88,1.76-1.58,2.47-1.51,1.63-3.16,3.16-5.12,4.22-2.3,1.53-7.57,1.1-10.07,.12-2.18-.78-4.03-2.21-5.83-3.62-1.2-1.03-2.14-2.33-3.1-3.58-1.05-1.44-1.8-3.05-2.52-4.67-.45-1.13-.61-2.37-.71-3.58-.1-1.18-.18-2.37-.21-3.55-.01-.86,.15-1.69,.63-2.42,1.23-2.41,3.38-4.09,5.5-5.67,1.89-1.55,4.28-2.2,6.52-3.06,.42-.16,.86-.23,1.32-.28,1.43-.18,2.86-.02,4.28,.11,1.02,.14,2.09,.09,3.08,.4,2.06,.6,4.06,1.49,5.7,2.91,.53,.44,.93,.99,1.25,1.59,.89,1.69,1.79,3.37,2.55,5.11,.68,1.49,.67,3.17,.66,4.77Z"/>
      <path class="cls-1" d="M128.52,33.68c-6.15,.59-10.77-4.73-14.27-9.24-3.97-5.47-1.26-13.37,1.69-18.79C118.58,.79,124.69,1.23,129.38,0c2.09-.24,9.43,7.25,10.77,9.2,3.38,4.44,0,15.02-2.45,19.59-1.92,3.53-4.85,5.23-9.19,4.88Z"/>
      <path class="cls-1" d="M78.1,69.65c.3-2.03,1.08-3.99,2.15-5.74,.3-.48,.64-.95,1.17-1.26,.39-.23,.74-.56,1.11-.84,1.48-1.09,3.18-1.94,5.02-2.15,1.02-.14,2.04-.27,3.06-.44,.96-.15,.96-.18,1.92-.02,3.61,.48,4.75,1.65,7.67,3.55,.57,.39,.84,1.08,1.28,1.6,.87,1.28,1.12,2.86,1.61,4.3,.19,.65,.19,1.33,.1,1.99-.37,3.55-2.38,6.46-4.67,9.08-1.28,1.53-3.21,2.23-5.01,2.95-2.3,.78-4.79,.5-7.17,.43-.57-.06-1.07-.38-1.58-.6-1.12-.57-2.22-1.18-3.24-1.91-.24-.17-.44-.36-.58-.61-.77-1.38-1.59-2.73-2.17-4.2-.62-1.6-1.12-3.3-.85-5.02,.03-.3,0-.61,.15-.89,.1-.06,.15-.13,.02-.21Z"/>
      <path class="cls-1" d="M0,112.12c.01-1.99-.11-2.47,.68-4.26,.44-1.1,.91-2.19,1.43-3.26,1.63-2.91,3.86-5.52,6.45-7.62,2.85-1.64,6.16-2.34,9.35-3.04,2.3-.33,6.26,1.92,8.32,3.03,2.9,1.79,4.69,4.82,5.71,7.99,.25,.95,.82,1.87,.72,2.88-.14,2.48-.62,4.93-1.48,7.27-.31,.89-.7,1.75-1.06,2.63-.53,1-1.48,1.72-2.22,2.56-1.48,1.48-3.29,2.54-5.06,3.61-2.67,1.59-5.44,3.3-8.63,3.4-.72,.22-1.38,.02-2.06-.19-4.1-1.18-7.68-3.6-10.23-7.02-.44-.47-.7-1.02-.91-1.61C.31,116.51-.05,114.13,0,112.12Z"/>
      <path class="cls-1" d="M212.32,126.31c-.07,4.61-.87,9.46-5.58,11.55-3.81,1.91-9.14,4.76-14.17,2.05-2.38-1.28-9.06-8.62-10.41-11-3.32-4.81-.87-10.13,1.44-14.78,2.77-5.45,8.96-8.12,14.79-6.22,2.41,.78,4.7,1.99,6.97,3.13,2.18,1.49,3.28,4.24,4.74,6.38,2.31,3.92,2.38,4.3,2.23,8.87Z"/>
      <path class="cls-1" d="M26.73,37.6c-.35-.06-2.62-.47-3.43-.7-.46-.13-.88-.4-1.31-.63-.78-.41-1.46-.94-2.1-1.53-.3-.27-.58-.57-.83-.89-.59-.74-1.16-1.51-1.73-2.26-.24-.31-.38-.66-.47-1.04-.3-1.34-.55-2.69-.52-4.08,.02-.65-.02-1.3,.02-1.94,.04-.62,.13-1.24,.22-1.86,.03-.18,.1-.35,.17-.51,.26-.53,.51-1.06,.79-1.57,.43-.81,.97-1.54,1.55-2.24,1.08-1.29,2.23-2.51,3.42-3.7,.91-.91,1.98-1.52,3.14-2.02,.46-.2,.92-.27,1.41-.25,.47,.02,.93,0,1.4,.01,1.18,.02,2.33,.2,3.45,.6,.63,.23,1.28,.39,1.87,.7,.27,.14,.55,.26,.8,.42,.53,.33,1.05,.68,1.59,1.01,.3,.18,.54,.42,.75,.7,.97,1.26,1.69,2.66,2.21,4.16,.17,.5,.31,1,.47,1.5,.02,.08,.09,2.04-.14,3.56s-.53,2.83-.95,4.11c-.32,.98-.78,1.91-1.27,2.82-.23,.43-.48,.84-.75,1.24-.61,.65-2.07,1.87-2.89,2.39-.99,.63-2,1.23-3,1.84-.27,.16-.56,.23-.87,.23-.65,0-1.3,0-1.94,0-.09,0-1.07-.07-1.07-.07Z"/>
      <path class="cls-1" d="M110,126.69c.86,.07,1.52,.13,2.19,.19,1.03,.09,2.06,.17,3.09,.26,1.41,.12,2.72,.6,4.02,1.14,1.65,.68,2.95,1.83,4.21,3.03,.65,.62,1.14,1.36,1.45,2.22,.36,1.01,.71,2.02,.84,3.1,.16,1.37-.09,2.7-.32,4.04-.34,1.96-.89,3.87-1.56,5.74-.38,1.06-.94,2.02-1.61,2.92-.28,.37-.53,.77-.83,1.12-.18,.21-.4,.41-.65,.54-.55,.29-1.12,.57-1.7,.81-1.5,.6-3,1.21-4.58,1.6-1.32,.33-2.64,.41-3.98,.31-.12,0-.24-.03-.36-.07-.97-.35-1.95-.68-2.91-1.06-.43-.17-.84-.4-1.23-.66-.81-.54-1.6-1.1-2.38-1.68-.72-.54-1.32-1.2-1.83-1.94-.5-.71-1-1.42-1.49-2.14-.09-.13-.14-.29-.2-.44-.46-1.1-.92-2.21-1.37-3.31-.05-.13-.11-.27-.11-.41,0-.91,0-1.82,.05-2.73,.06-.88,.13-1.76,.3-2.62,.15-.78,.25-1.58,.65-2.31,.23-.42,.28-.93,.43-1.39,.11-.32,.22-.66,.4-.94,.53-.87,1.08-1.71,1.63-2.57,.25-.39,.54-.76,1.01-.93,.02,0,.04-.02,.05-.03,.92-.72,2-1.05,3.13-1.23,1.28-.2,2.56-.39,3.66-.56Z"/>
    </g>
  </g>
</svg>