<?xml version="1.0" encoding="UTF-8"?>
<svg id="_レイヤー_2" data-name="レイヤー 2" xmlns="http://www.w3.org/2000/svg" viewBox="0 0 155.29 237.02">
  <defs>
    <style>
      .cls-1 {
        fill: #a4a4a4;
      }
    </style>
  </defs>
  <g id="parts">
    <path class="cls-1" d="M46.6,196.18c-7.75-5.34-14.67-12.03-21.54-18.7-3.02-2.93-5.22-6.82-7.36-10.52-5.13-8.86-9.82-17.96-13.52-27.55C-2.19,120.71,.03,99.69,2.31,80.38c.97-7.74,7.55-12.84,10.55-19.82,2-3.97,4.74-7.61,8.13-10.7C44.36,23.88,65.18,12.01,97.86,.44c2.49-.92,3.35-.45,4.02,2.08,1.05,3.95,1.93,7.94,2.86,11.92,.65,2.79,1.21,5.6,1.91,8.37,.75,2.97,.52,4.17-2.12,5.64-14.36,8.15-29.91,14.57-42.29,25.79-2.07,1.93-4.52,3.5-6.92,5.03-8.73,5.52-9.12,5.92-13.07,15.43-6.51,16.59-11.7,35.01-5.95,52.58,.61,1.94,1.01,3.99,1.19,6.02,1,11.51,6.76,20.79,13.52,29.69,10.69,13.93,26.59,22.76,43.22,27.58,16.04,4.07,31.94,9.14,48.38,11.33,9.23,1.56,7.05,13.79,9.83,20.58,.79,3.38,1.66,6.74,2.45,10.13,.99,4.27,.41,4.97-3.67,4.09-17.87-3.59-35.23-9.14-52.71-14.23-18.78-5.61-36.06-14.81-51.89-26.28Z"/>
  </g>
</svg>