<?xml version="1.0" encoding="UTF-8"?>
<svg id="_レイヤー_2" data-name="レイヤー 2" xmlns="http://www.w3.org/2000/svg" viewBox="0 0 293.02 60.81">
  <defs>
    <style>
      .cls-1 {
        fill: #a4a4a4;
      }
    </style>
  </defs>
  <g id="parts">
    <path class="cls-1" d="M234.43,7.65c-3.15-3.11-6.76-5.34-11.27-5.86,0,0-.33-.09-.33-.09-.77-.87-1.67-1.12-2.73-.54,0,0-8.23-1.28-8.71-1.15-.49,.03-8.75,.93-9.19,1.03-25.98,8.07-49.15,37.98-78.15,22.02-12.45-6.26-25.01-12.45-37.89-17.73-10.77-4.24-21.73-4.56-31.96,2.16C33.59,20.08,15.88,36.87,.16,55.12c-1.62,3.87,9.29,1.61,11.58,2.32,47.3-.22,231.78,4.01,273.68,2.9,1.67,.16,3.35,.31,5.02,.47,.85,0,1.7-.02,2.54-.02-.04-.61,.17-1.49-.16-1.8-4.01-3.76-8.09-7.43-12.16-11.13q.49,.85,0,0c-.72-.67-42.51-37.24-46.25-40.2Z"/>
  </g>
</svg>