<?xml version="1.0" encoding="UTF-8"?>
<svg id="_レイヤー_2" data-name="レイヤー 2" xmlns="http://www.w3.org/2000/svg" viewBox="0 0 159.57 166.75">
  <defs>
    <style>
      .cls-1 {
        fill: #a4a4a4;
      }
    </style>
  </defs>
  <g id="parts">
    <path class="cls-1" d="M.27,58.48c-1.17-6.49,1.57-10.43,6.58-14.26C20.36,33.92,54.1,1.53,55.83,.54c1.64-.94,3.2-.61,4.53,.69,1.66,1.63,3.29,3.31,4.93,4.97,19.9,20.17,81.33,83.19,92.09,94.59,2.86,3.03,2.92,3.62,.2,6.72-16.5,18.78-33.1,37.48-49.59,56.27-2.23,2.54-4.73,3.25-7.97,2.89-8.94-.98-86.16-9.01-87.48-9.2-7.11-1.01-7.18-1.01-7.27-7.83-.07-6-4.29-87.25-4.99-91.16Z"/>
  </g>
</svg>