<?xml version="1.0" encoding="UTF-8"?>
<svg id="_レイヤー_2" data-name="レイヤー 2" xmlns="http://www.w3.org/2000/svg" viewBox="0 0 484.65 84.77">
  <defs>
    <style>
      .cls-1 {
        fill: #a4a4a4;
      }
    </style>
  </defs>
  <g id="parts">
    <path class="cls-1" d="M211.21,50.43c3.62-3.85,28.04-29.26,37.01-38.55,1.01-1.05,2.01-1.33,3.14-.23,1.32,1.29,28.83,30.02,41.27,43.1,3.9,4.09,3.83,4.04,6.99-.41,12-16.88,36.98-52.02,37.64-52.43,.59-.36,1.62-.6,2.17-.32,1.26,.64,52.07,42.5,59.8,48.68,.92-.97,1.81-1.77,2.54-2.69,7.81-9.77,29.5-37.06,32.6-40.88,2.05-2.52,2.52-2.49,4.3,.5,3.56,5.99,41.61,68.77,44.27,73.15,.71,1.16,1.15,2.48,1.7,3.69-.7,.4-1.02,.75-1.35,.74-160.38-.71-320.77-1.44-481.15-2.18-.55,0-1.1-.26-2.15-.52,.48-.88,.75-1.59,1.2-2.17C13.03,64.68,56.37,8.26,60.63,3.01c1.8-2.22,2.27-2.24,4.53-.5,11.22,8.62,56.06,44.15,56.57,44.5,1.33,.93,2.19,.83,3.17-.39,.51-.64,25.52-38.32,28.41-43.03,.92-1.5,2.05-2.47,3.58-3.17,1.23-.57,2.34-.61,3.43,.28,.95,.78,49.9,48.87,50.9,49.73Z"/>
  </g>
</svg>