<?xml version="1.0" encoding="UTF-8"?>
<svg id="_レイヤー_2" data-name="レイヤー 2" xmlns="http://www.w3.org/2000/svg" viewBox="0 0 116.61 240.68">
  <defs>
    <style>
      .cls-1 {
        fill: #a4a4a4;
      }
    </style>
  </defs>
  <g id="parts">
    <path class="cls-1" d="M109.58,240.68c-30.97-39.11-62.73-77.83-89.12-120.24-5.63-8.76-10.09-18.17-14.93-27.37-1.38-2.58-2.28-5.21-2.53-8.14-.91-11.03-1.82-22.06-2.91-33.07C-1.17,34.14,9.69,18.61,16.36,2.91c1.61-3.38,1.82-3.38,5.11-2.17,2.88,1.06,5.76,2.15,8.6,3.31,2.7,1.1,2.99,1.8,1.74,4.73-3.19,7.71-7.4,15.19-9.14,23.41-3.55,19.04-8.45,38.7-1.61,57.6,2.84,9.36,5.36,18.89,10.9,27.02,13.9,27.28,36.28,49.02,54.49,73.4,9.41,11.63,19,23.12,28.52,34.66,2.03,2.46,2.1,2.46,.5,5.36-1.86,3.38-3.79,6.73-5.9,10.45Z"/>
  </g>
</svg>