<?xml version="1.0" encoding="UTF-8"?>
<svg id="_レイヤー_2" data-name="レイヤー 2" xmlns="http://www.w3.org/2000/svg" viewBox="0 0 207.18 67.73">
  <defs>
    <style>
      .cls-1 {
        fill: #a4a4a4;
      }
    </style>
  </defs>
  <g id="parts">
    <path class="cls-1" d="M207.18,67.43c-65.58,.62-130.51,.12-196.01,.05-2.66,0-5.33-.08-7.99-.16-3.7,.48-3.96-1.42-1.85-4.25,8.02-10.63,15.88-21.38,23.53-32.28,1.83-1.72,3.25-6.97,6.38-5.35,2.52,1.36,5.07,2.71,7.47,4.27,7.53,4.88,6.19,3.97,11.6-1.26,8.68-8.68,17.24-17.52,26.38-25.74,3.98-3.61,4.16-3.59,8.07-.15,15.91,13.52,30.41,28.86,47.99,40.27,2.47,1.65,4.71,1.88,7.4,.5,4.93-2.51,10.09-4.58,14.98-7.17,3.17-1.68,5.75-1.21,8.51,.72,4.03,2.82,8.19,5.46,12.26,8.21,10.82,7.56,21.11,13.47,31.29,22.32Z"/>
  </g>
</svg>