<?xml version="1.0" encoding="UTF-8"?>
<svg id="_レイヤー_2" data-name="レイヤー 2" xmlns="http://www.w3.org/2000/svg" viewBox="0 0 170.12 186.73">
  <defs>
    <style>
      .cls-1 {
        fill: #a4a4a4;
      }
    </style>
  </defs>
  <g id="parts">
    <path class="cls-1" d="M1.3,93.22c.24-16.22,.48-32.44,.72-48.67,.19-12.29,.39-24.57,.6-36.86,.04-2.21,.15-4.41,.24-6.62C2.89,.41,3.22,.01,3.92,0c.67-.01,43.87,.46,64.8,.68,18.82,.2,37.63,.36,56.45,.56,10.08,.11,35.03,.66,37.42,.84,.97,.07,1.18,.29,1.18,1.25,.04,4.61,.06,9.22,.06,13.82-.01,15.84-.1,31.68-.02,47.52,.03,4.99,.46,9.97,.75,14.95,.49,8.72,2.55,42.25,3.03,50.3,.29,4.79,1.86,37.96,2.39,49.76,.23,5.17,.86,4.42-4.15,4.55-9.4,.25-33.39,.74-35.99,.75-7.68,.03-15.36,.05-23.04,.12-15.84,.15-31.68,.27-47.52,.52-7.1,.11-14.19,.59-21.29,.78-8.16,.21-36,.35-36.57,.31-1.14-.07-1.36-.28-1.41-1.35-.03-.77,1.32-92.15,1.3-92.15Z"/>
  </g>
</svg>