<?xml version="1.0" encoding="UTF-8"?>
<svg id="_レイヤー_2" data-name="レイヤー 2" xmlns="http://www.w3.org/2000/svg" viewBox="0 0 99.77 252.36">
  <defs>
    <style>
      .cls-1 {
        fill: #a4a4a4;
      }
    </style>
  </defs>
  <g id="parts">
    <path class="cls-1" d="M76.58,.05c-1.64-.53-4.82,3.13-5.52,3.84-3.47,3.54-3.66,7.47-1.87,11.89,1.46,3.6,2.52,7.35,3.84,11.01,2.25,6.22,3.05,13.15,.87,22.09-3.83,15.74-16.22,26.05-18.03,28.25-6.26,7.59-12.59,15.11-18.94,22.62-8.08,9.55-15.28,19.75-22.46,29.97-2.47,3.52-9.55,21.37-11.35,26.36-2.05,5.66-2.02,11.65-2.66,17.54-1.22,11.32,.19,23.42,2.02,33.6,1.83,10.18,9.2,29.21,13.26,36.93,4.06,7.73,10.16,9.22,12.48,7.65,2.89-1.96,5.35-4.33,5.33-8.4-.05-10.72-1.52-21.18-4.69-31.46-3.52-11.36-6.14-22.93-7.04-34.84-.11-1.42-.43-2.92-.13-4.27,1.51-6.79,3.04-13.71,5.35-20.15,2.31-6.44,4.5-10.96,7.14-16.24,1.54-3.07,3.58-6.01,5.9-8.54,9.55-10.4,19.13-20.49,28.65-30.92,4.82-5.29,20.44-25.04,23.54-29.36,3.36-4.68,6.17-9.68,7.17-15.45,.31-1.78,.49-3.68,.22-5.44-.99-6.47-2.95-12.09-5.17-19.69-2.21-7.59-9.41-20.51-10.85-22.49-1.78-2.45-4.21-3.82-7.05-4.48Z"/>
  </g>
</svg>