<?xml version="1.0" encoding="UTF-8"?>
<svg id="_レイヤー_2" data-name="レイヤー 2" xmlns="http://www.w3.org/2000/svg" viewBox="0 0 147.38 307.63">
  <defs>
    <style>
      .cls-1 {
        fill: #a4a4a4;
      }
    </style>
  </defs>
  <g id="parts">
    <path class="cls-1" d="M145.62,13.81c-6.94,9.69-25.26,35.02-27.23,38.13-8.81,13.94-16.69,28.42-23.29,43.53-6.16,16.68-8.74,34.85-8.6,52.62-.17,21.35,3.39,43.09-2.35,64-3,11.86-5.68,24.25-14.87,33.1-17.86,20.64-35.84,41.31-55.77,60.04-3.34,3.18-3.11,3.01-7.08,.51-1.66-1.5-8.05-3.7-6.06-6.41,12.84-18.68,26.53-36.78,38.27-56.22,6.33-9.92,12.38-20.4,13.78-32.32,5.76-34.18-1.97-69.09,4.96-103.18,1.87-13.68,5.32-26.02,14.06-36.99,8.5-12.11,20.24-21.4,30.29-32.17,11.9-12.05,25.15-22.74,35.81-35.98,3.21-4.41,3.85-2.26,6.86,1.22-.03,.02,5.8,4.62,1.21,10.11Z"/>
  </g>
</svg>