<?xml version="1.0" encoding="UTF-8"?>
<svg id="_レイヤー_2" data-name="レイヤー 2" xmlns="http://www.w3.org/2000/svg" viewBox="0 0 166.05 197.28">
  <defs>
    <style>
      .cls-1 {
        fill: #a4a4a4;
      }
    </style>
  </defs>
  <g id="parts">
    <path class="cls-1" d="M0,0C3.53,.73,5.8,2.06,8.03,3.44c3.83,2.37,7.78,4.6,11.36,7.31,3.4,2.58,6.42,5.66,9.51,8.62,1.18,1.12,2.12,2.5,3.16,3.77,6.36,7.77,32.24,33.96,37.63,40.38,5.66,6.73,22.39,32.43,25.37,38.27,.85,1.68,1.84,1.88,4.22,1.22,5.13-1.43,35.57-7.64,45.83-7.74,6.54-.07,13.08,.12,19.62,.27,1.22,.03,1.69,1.25,1.01,2.19-.12,.16-.24,.34-.41,.46-2.16,1.55-2.84,3.95-3.55,6.3-3.48,11.58-6.42,23.27-8.47,35.21-1.24,7.24-2.2,14.56-4.66,21.58-1.92,5.49-4.76,10.29-8.42,14.83-4.97,6.17-11.29,10.68-17.44,15.42-6.74,3.64-24.74,6.34-34.04,5.66-3.8-.28-7.18-1.5-10.44-3.29-9.18-5.05-17.38-11.4-25.32-18.23-4.21-3.62-14.76-18.98-18.71-33.3-3.44-8.36-5.59-17.06-6.33-26.16-1-12.24-2.32-24.47-3.88-36.65-1.29-10.15-2.92-20.27-4.77-30.33-1.82-9.9-5.18-19.35-9.57-28.43C6.53,14.16,3.49,7.47,0,0Z"/>
  </g>
</svg>