<?xml version="1.0" encoding="UTF-8"?>
<svg id="_レイヤー_2" data-name="レイヤー 2" xmlns="http://www.w3.org/2000/svg" viewBox="0 0 68.56 159.68">
  <defs>
    <style>
      .cls-1 {
        fill: #a4a4a4;
      }
    </style>
  </defs>
  <g id="parts">
    <path class="cls-1" d="M39.09,159.68c-.6-.84-1.16-1.43-1.51-2.13-1.81-3.67-3.62-7.35-5.35-11.07-3.71-8.01-11.94-23.6-16.64-30.64-4.7-7.04-10.18-21.21-12.17-30.04C1.42,76.97-.54,62.47,.13,51.29,.8,40.11,2.99,3.77,2.98,2.95,2.94,1.05,4.07-.08,6.08,0c2.65,.11,27.87,2.36,37.82,3.32,1.93,.19,2.59,.81,2.5,2.7-.21,4.07-.61,8.13-.97,12.2-1.08,12.21-2.1,24.42-1.12,36.71,.63,7.95,1.43,15.86,2.42,23.77,1.48,11.83,4.07,23.41,8.27,34.5,3.39,8.97,7.5,17.72,12.73,25.85,1.25,1.94,1.22,2.81-.71,4.1-4.91,3.3-26.83,16.15-27.91,16.52Z"/>
  </g>
</svg>