<?xml version="1.0" encoding="UTF-8"?>
<svg id="_レイヤー_2" data-name="レイヤー 2" xmlns="http://www.w3.org/2000/svg" viewBox="0 0 24.36 182.55">
  <defs>
    <style>
      .cls-1 {
        fill: #a4a4a4;
      }
    </style>
  </defs>
  <g id="parts">
    <path class="cls-1" d="M19.24,181.7c-.35,.23-.77,.54-1.22,.79-.14,.08-.36,.06-.54,.05-5.3-.4-10.6-.8-15.9-1.21-1.07-.08-1.6-.59-1.57-1.75,.23-11.18,.72-46.03,.85-52.26,.26-12.28,1.01-50.05,1.17-56.66,.24-10.08,1.21-56.83,1.38-67.09,0-.18,0-.37,0-.55C3.57,.8,4.38-.07,6.45,0c5.13,.17,10.26,.39,15.39,.62,1.71,.08,2.43,.66,2.5,2.26,.13,3.12-.25,26.59-.39,35.21-.18,11.92-.73,23.81-1.56,35.7-.4,5.66-1.28,49.67-1.66,65.98-.21,8.98-.41,17.97-.63,26.95-.09,3.67-.68,13.54-.86,14.97Z"/>
  </g>
</svg>