<?xml version="1.0" encoding="UTF-8"?>
<svg id="_レイヤー_2" data-name="レイヤー 2" xmlns="http://www.w3.org/2000/svg" viewBox="0 0 155.1 194.29">
  <g id="parts">
    <path class="cls-1" d="M80.1,10.94c10.08-2.74,20.07-5.9,30.26-8.12C123.64-.06,137.2-.32,150.75,.24c4.33,.18,4.35,.32,4.36,4.48,0,5.38-.01,10.76-.1,16.13-.05,3.1-.12,3.11-3.39,3.12-8.45,.03-16.9,.08-25.35,.06-14.85-.04-29.56,1.75-43.77,5.71-20.52,5.72-38.77,15.69-52.02,33.01-3.91,5.1-7.25,10.71-10.28,16.38-2.63,4.92-3.6,10.34-2.67,16.08,2.24,13.78,8.1,25.69,18.04,35.48,10.01,9.88,21.34,18.05,33.51,25.07,1.59,.91,3.3,1.7,5.05,2.24,13.71,4.25,27.66,7.35,42.08,7.37,10.6,.01,21.19-.47,31.79-.73q5.66-.14,5.55,5.62c-.12,6.76-.19,13.52-.32,20.28-.07,3.8-.11,3.85-3.85,3.73-26.82-.89-53.3-4.04-79.19-11.53-11.26-3.26-22.4-6.64-32.46-12.85-8.73-5.38-16.22-12.16-22.35-20.37-5.35-7.16-10.34-14.55-12.23-23.54C1.16,116.56-.54,101.49,.16,91.95c.82-11.22,1.41-14.27,4.58-25.08,.64-2.18,4.05-6.93,5.32-8.77,3.76-5.43,7.69-10.76,11.76-15.96,8.8-11.25,20.59-18.35,33.7-23.32,8.04-3.05,24.56-7.98,24.58-7.88Z"/>
  </g>
</svg>