<?xml version="1.0" encoding="UTF-8"?>
<svg id="_レイヤー_2" data-name="レイヤー 2" xmlns="http://www.w3.org/2000/svg" viewBox="0 0 163.16 202.16">
  <defs>
    <style>
      .cls-1 {
        fill: #a4a4a4;
      }
    </style>
  </defs>
  <g id="parts">
    <path class="cls-1" d="M41.47,30.25c.19,21.77-4.31,38.78-3.46,59.7,.35,5.62,.84,6.09,5.54,7.2,1.59,.37,3.14,.96,4.72,1.38,5.16,1.34,6.21,.97,8.88-3.87,1.68-3.04,3.22-6.2,4.47-9.44,8.42-21.79,16.42-43.74,25-65.47,2.46-7.21,13.16-20.55,20.05-10.76,1.37,2.97,2.36,6.11,3.38,9.23,.47,7.86-1.62,15.89-2.21,23.78-1.53,11.41-5.72,22.2-9,33.17-1.81,5.92-2.05,12.09-2.87,18.17-.45,2.29,.91,5.97,3.72,4.52,3.74-2.12,7.38-4.36,9.78-8.19,15.24-23.87,28.45-48.91,40.8-74.35,1.96-3.36,4.04-7.71,8-8.8,2.28,.08,5.34,4.42,4.86,6.86-4.32,19.39-9.47,38.59-13.78,57.98-5.03,21.42-16.25,40.86-29.92,57.91-8.37,9.45-14.3,21.4-25.02,28.5-8.92,6.19-17.87,12.35-26.87,18.43-1.91,1.29-3.37,2.86-4.73,4.71-3.76,5.11-7.66,10.12-11.64,15.07-3.07,4.49-12.59,10.39-14.5,1.79-.88-7.32,.31-14.72,.65-22.06,.41-4.36-3.67-7.21-7.07-9.06-12.02-5.25-29.14-21.5-30.22-34.9,.18-24.89,3.87-49.5,11.96-73.07,4.09-15.05,8.63-29.94,14.74-44.3,1.58-4,2.9-8.1,4.39-12.13,.93-2.53,2.09-2.83,4.08-1.35,3.56,2.64,5.2,6.27,5.43,10.56,.38,6.95,.64,13.92,.86,18.8Z"/>
  </g>
</svg>