<?xml version="1.0" encoding="UTF-8"?>
<svg id="_レイヤー_2" data-name="レイヤー 2" xmlns="http://www.w3.org/2000/svg" viewBox="0 0 37.42 209.01">
  <g id="parts">
    <path class="cls-1" d="M25.16,209c-3.23,0-6.46-.03-9.68,0-2.29,.03-3.35-1.05-3.43-3.33C11.98,203.68,.75,16.51,.13,6.25c-.06-.92,0-1.85-.1-2.77C-.15,1.72,.57,1.02,2.36,.95,7.43,.74,12.51,.55,17.55,.04c2.6-.26,3.18,.9,3.38,3.05,.59,6.43,1.35,12.85,1.89,19.28,3.13,36.92,6.33,73.84,9.29,110.78,1.93,24.06,3.48,48.15,5.21,72.23,.25,3.45,.26,3.48-3.4,3.55-2.92,.06-5.84,.01-8.77,.01,0,.02,0,.04,0,.06Z"/>
  </g>
</svg>