<?xml version="1.0" encoding="UTF-8"?>
<svg id="_レイヤー_2" data-name="レイヤー 2" xmlns="http://www.w3.org/2000/svg" viewBox="0 0 214.05 300.14">
  <defs>
    <style>
      .cls-1 {
        fill: #a4a4a4;
      }
    </style>
  </defs>
  <g id="parts">
    <path class="cls-1" d="M214.05,.37c-2.12,5.76-6.1,9.97-9.59,14.49-.73,.95-1.7,1.8-2.71,2.45-9.14,5.84-18.39,11.51-27.44,17.48-7.1,4.68-14.93,7.63-22.83,10.5-7.31,2.66-14.7,5.11-21.97,7.86-2.66,1-5.2,2.42-7.6,3.94-5.01,3.17-9.86,6.61-14.09,10.78-1.86,1.84-3.5,4.03-4.72,6.34-4.6,8.76-7.15,18.27-9.59,27.8-1.52,5.95-3.11,11.89-4.56,17.85-1.58,6.46-5.52,11.34-10.24,15.72-7.81,7.25-15.44,14.68-21.55,23.45-8.72,12.51-15.13,26.11-19.39,40.8-3.37,11.62-6.16,23.37-8.93,35.13-2.2,9.36-5.04,18.58-7.26,27.94-1.6,6.77-2.66,13.67-3.95,20.51-.11,.6-.32,1.24-.23,1.82,1.01,6.34-3.15,10.28-6.72,14.49-.69,.81-2.03,.38-2.37-.76-.53-1.76-1.15-3.53-1.4-5.34-1.33-9.74-2.75-19.48-3.78-29.25-1.01-9.57-1.83-19.18-2.28-28.79-.53-11.24-1.16-22.52-.67-33.74,.52-11.91,3.21-23.56,9.07-34.14,2.56-4.63,5.72-8.95,8.78-13.29,4.59-6.52,9.68-12.73,13.86-19.5,2.31-3.74,3.72-8.25,4.63-12.6,1.77-8.41,3.09-16.92,4.23-25.44,.98-7.34,2.57-14.54,4.82-21.54,2.13-6.6,5-12.96,8.99-18.73,1.51-2.18,2.7-4.58,4.25-6.74,4.22-5.9,9.46-10.71,15.75-14.38,2.47-1.45,5.03-2.84,7.24-4.62,5.29-4.25,11.86-5.38,17.93-7.72,.38-.15,.8-.22,1.2-.24,14.11-.88,27.88-4.26,41.94-5.62,9.15-.88,18.21-2.78,27.28-4.38,2.6-.46,5.11-1.45,7.65-2.22C189.55,7.11,201.29,3.55,213.05,0c.15-.04,.36,.12,1,.37Z"/>
  </g>
</svg>