<?xml version="1.0" encoding="UTF-8"?>
<svg id="_レイヤー_2" data-name="レイヤー 2" xmlns="http://www.w3.org/2000/svg" viewBox="0 0 208.07 156.76">
  <defs>
    <style>
      .cls-1 {
        fill: #a4a4a4;
      }
    </style>
  </defs>
  <g id="parts">
    <g>
      <path class="cls-1" d="M162.81,51.33c-1.12-2.05-3.92-8.5-3.98-8.98-.38-3.34-1.15-10.51-1.14-10.75,.04-.66,.41-1.03,1.11-1.06,.74-.03,48.16,.53,48.4,.55,.62,.04,.96,.37,.84,.94-.43,2-.75,4.05-1.39,5.98-1.55,4.68-3.62,9.13-6.09,13.4-.66,1.13-2.15,4.29-2.45,4.53-1.77,1.44-3.35,3.14-5.38,4.22-2.28,1.22-4.78,1.5-7.35,1.62-4.93,.22-9.38-1.2-13.62-3.52-1.58-.87-3.14-1.78-4.7-2.69-2-1.16-2.57-1.71-4.26-4.24Z"/>
      <path class="cls-1" d="M113.6,96.89c-3.03,.47-12.83-1.11-18.12-7.34-2.25-3.22-5.88-9.43-7.47-13-1.71-3.83-2.7-7.98-3.92-12.01-.39-1.3,.28-2.28,1.69-2.54,3-.55,6.02-1,9.04-1.49,7.89-1.28,15.79-2.49,23.67-3.85,5.74-.99,11.45-2.16,17.18-3.23,.57-.11,1.16-.15,1.74-.16,.94-.03,1.68,.69,1.6,1.66-.14,1.74-.35,3.47-.55,5.21-.75,6.54-2.41,12.89-4.13,19.22-.57,2.1-1.43,4.12-2.1,6.2-.12,.37-3.07,4.5-7.13,6.94-4.06,2.44-8.45,3.92-11.48,4.39Z"/>
      <path class="cls-1" d="M72.5,24.27c-6.27,11.71-14.96,21.81-27.93,26.02-5.72,2.65-18.27,6.03-24.08,3.32-2.05-1.06-4.75-1.06-6.17-3.08-3.79-4.7-7.41-9.51-9.76-15.12-1.55-3.99-3.37-7.98-4.57-12.07,.41-.62,.95-.45,1.41-.44,7.61,.14,15.22,.29,22.83,.44,16.03,.31,32.27,.65,48.27,.93Z"/>
      <path class="cls-1" d="M118.85,36.13c-10.8,.55-20.64-4.86-27.3-13.16-5.48-6.47-10.17-13.88-12.17-22.21-.42-1.6,2.94-.17,3.73-.25,14.88,2.44,29.83,4.3,44.83,5.87,6.44,.75,12.88,1.47,19.32,2.21,.74,.09,.89,.32,.69,1.04-1.34,5.71-3.86,10.98-6.63,16.12-4.29,8.22-13.98,10.16-22.45,10.37Z"/>
      <path class="cls-1" d="M98.38,151.81c-4.7-8.4-13.11-21.43-7.37-30.86,.29-.51,.67-.69,1.21-.61,6.8,.91,13.57,2,20.35,3.02,8.11,1.24,16.21,2.51,24.31,3.77,1.07,.09,1.6,.29,1.35,1.56-1.54,8.88-5.55,17.3-11.89,23.73-6.77,7.22-22.4,3.58-24.56,2.36-1.65-.93-3.39-2.95-3.39-2.95Z"/>
      <path class="cls-1" d="M153.85,104.05c-1-3.06-2.02-6.12-3-9.19-.28-.88,0-1.26,1.01-1.34,2.1-.16,38.74-1.6,54.96-2.01,1.14-.02,1.48,.46,1.09,1.52-3.61,9.42-8.67,20.55-19.61,22.76-8.48,1.65-17.42,2.29-25.7-.48-3.54-1.42-7.36-7.71-8.74-11.25Z"/>
      <path class="cls-1" d="M66.08,113.4c-1.28,1.37-2.96,2.36-4.66,3.31-1.85,1.03-3.13,1.87-5.69,2.85-2.55,.97-6.36,1.47-8.09,1.71s-3.58-.07-4.93-.37c-2.41-.54-4.79-1.18-7.14-1.96-1.99-.66-4.59-1.79-7.02-3.35-2.43-1.56-4.43-3.02-6.24-5-.69-.75-1.22-1.68-1.72-2.59-1.29-2.36-2.33-4.84-3.09-7.43-.35-1.21-.58-2.44-.6-3.71,0-.61-.08-1.21-.12-1.81,.11-1.09,.56-1.84,1.39-2.62,.59-.55,1.22-.83,2.06-.83,12.1,.04,24.2,.07,36.3,.08,4.68,0,9.36-.06,14.04-.08,1.78,0,1.78-.17,1.78,1.77,0,1.17,.06,2.34,.12,3.5,.16,2.87-.47,5.6-1.52,8.24-.46,1.16-.95,2.32-1.47,3.46-.86,1.91-1.89,3.34-3.41,4.82Z"/>
    </g>
  </g>
</svg>