<?xml version="1.0" encoding="UTF-8"?>
<svg id="_レイヤー_2" data-name="レイヤー 2" xmlns="http://www.w3.org/2000/svg" viewBox="0 0 119.57 164.11">
  <defs>
    <style>
      .cls-1 {
        fill: #a4a4a4;
      }
    </style>
  </defs>
  <g id="parts">
    <path class="cls-1" d="M87.82,105.35c4.84,4.91,9.03,9.16,13.23,13.43,3.31,3.36,6.65,6.68,9.88,10.1,1.32,1.4,2.07,3.07,.76,4.96-4.45,6.4-8.61,13.02-13.44,19.12-4.53,5.71-11.17,8.48-17.91,10.88-1.93,.69-2.86,.07-3.47-1.7-.96-2.76-1.94-5.51-3.01-8.23-4.76-12.17-9.55-24.33-14.35-36.48-.26-.67-.72-1.26-1.4-2.43-.87,1.81-1.57,3.11-2.14,4.46-5.62,13.32-11.22,26.65-16.83,39.97-.36,.85-.62,1.8-1.19,2.48-.38,.46-1.38,.91-1.83,.72-3.18-1.37-6.84-1.8-9.07-5.05-1.47-2.14-3.26-4.11-5.12-5.92-6.36-6.2-9.61-14.15-12.89-22.14-.93-2.26-.73-3.91,.73-5.89,4.27-5.82,8.35-11.8,12.43-17.76,1.6-2.34,1.53-2.56-1.05-3.56-5.59-2.17-11.19-4.35-16.86-6.27-3.03-1.03-4.57-2.59-4.25-5.97,.65-6.72,1.14-13.46,1.59-20.2,.19-2.83,1.61-4.22,4.24-5.24,9.89-3.85,19.68-7.94,29.5-11.96,.69-.28,1.35-.67,2.51-1.26-3.26-3.97-6.37-7.69-9.42-11.47-2.31-2.87-4.49-5.86-6.83-8.71-.98-1.19-1.03-2.1,.08-3.16C32.18,17.92,41.96,6.95,55.67,.8c2.55-1.14,4.52-1.16,6.72,.59,8.78,6.99,17.76,13.73,26.37,20.92,2.9,2.42,4.88,5.9,7.36,8.84,1.39,1.65,.34,2.83-.59,4.05-3.54,4.65-7.12,9.26-10.66,13.92-3.01,3.95-2.58,5.31,2.13,6.79,7.48,2.35,14.95,4.74,22.48,6.95,2.31,.68,3.54,1.88,4.36,4.16,3,8.31,4.38,16.96,5.53,25.64,.65,4.93-.12,5.7-5.15,6.78-7.52,1.61-15.03,3.21-22.55,4.84-1.02,.22-2.02,.56-3.85,1.08Z"/>
  </g>
</svg>