<?xml version="1.0" encoding="UTF-8"?>
<svg id="_レイヤー_2" data-name="レイヤー 2" xmlns="http://www.w3.org/2000/svg" viewBox="0 0 248.05 161.33">
  <defs>
    <style>
      .cls-1 {
        fill: #a4a4a4;
      }
    </style>
  </defs>
  <g id="parts">
    <path class="cls-1" d="M0,72.14c-.19-12.38,2.9-37.75,13.87-47.92,13.69-12.69,34.46-12.29,47.09-10.65,7.26,.94,14.35,2.73,21.56,3.91,3.2,.52,6.44,.99,9.67,1.16,9.9,.52,19.42-1.47,28.54-5.18,10.55-4.28,21.17-8.28,32.19-11.19,7.96-2.1,15.96-2.88,24.13-1.73,2.41,.34,4.85,.48,7.27,.78,7.9,.96,15.23,3.73,22.31,7.2,10.41,5.1,18.91,12.52,26,21.65,2.41,3.1,5.98,6.48,10.97,13.74,7.27,10.57,4.22,40.44,.55,49.99-5.17,13.44-20.37,31.94-30.12,39.47-13.54,11.59-36.77,24.81-45.56,26.15-8.79,1.34-28.2,2.7-41.22,1.09-6.24-.77-12.2-2.35-18.22-3.93-6.03-1.58-12.1-3.03-18.38-3.05-3.52-.02-7.05,.06-10.54,.44-10.45,1.12-20.82,.75-31.11-1.42-.66-.14-1.31-.38-1.98-.45-5.26-.53-9.86-2.67-14.22-5.55-1.82-1.2-3.45-2.52-4.95-4.12-11.97-12.75-20.78-30.56-23.42-39.81C1.8,93.46-.15,77.14,0,72.14Z"/>
  </g>
</svg>