<?xml version="1.0" encoding="UTF-8"?>
<svg id="_レイヤー_2" data-name="レイヤー 2" xmlns="http://www.w3.org/2000/svg" viewBox="0 0 239.34 219.32">
  <defs>
    <style>
      .cls-1 {
        fill: #a4a4a4;
      }
    </style>
  </defs>
  <g id="parts">
    <path class="cls-1" d="M239.24,86.52c1.2,14.63-9.29,26-15.58,38.22-2.29,4.01-5.74,6.43-10.04,8.14-11.64,4.63-23.34,8.94-35.74,11.12-3.61,.64-7.17,1.63-10.7,2.65-3.16,.91-4.28,2.53-3.7,5.73,3.32,18.59,13.77,41.27-3.58,56.05-9.1,9.45-14.68,11.46-27.49,10.76-1.9-.06-4.26-1.59-5.49-3.17-7.89-9.01-12.2-19.91-16.02-31.09-1.9-4.78-3.73-9.6-6.01-14.2-1.74-3.51-4.83-4.41-8.36-2.96-11.93,6.49-23.11,14.38-35.36,20.34-14.28,7.79-29.73,7.57-45.22,6.21-2.67-.23-5.6-1.94-7.66-3.81-10.31-9.32-10.85-26.22-2.44-34.82,5.65-5.78,11.14-11.82,17.41-16.87,15.48-12.48,31.48-24.27,49.49-33,12.14-4.89,5.51-11.03,2.79-19.93-3.03-9.05-6.06-18.11-8.84-27.24-2.72-8.95-2.17-18.2-1.95-27.4,.08-3.39,.77-6.66,3.04-9.26C76.27,13.5,82.94-.01,96.55,0c4.63,.03,8.8,1.05,12.13,4.32,13.93,13.19,24.1,29.65,33.62,46.21,5.61,10.19,3.88,11.61,17.83,7.37,9.84-2.99,19.95-5.08,29.83-7.93,14.37-4.14,26.82,.59,38.68,7.98,5.2,3.24,8.63,7.77,8.91,14.36,.21,4.75,1.09,9.48,1.68,14.21Z"/>
  </g>
</svg>