<?xml version="1.0" encoding="UTF-8"?>
<svg id="_レイヤー_2" data-name="レイヤー 2" xmlns="http://www.w3.org/2000/svg" viewBox="0 0 224.62 188.76">
  <defs>
    <style>
      .cls-1 {
        fill: #a4a4a4;
      }
    </style>
  </defs>
  <g id="parts">
    <path class="cls-1" d="M74.22,86.48c5.3-14.06,15.62-52.2,22.7-60.36,8.67-10,23.63-18.98,32.11-21.98C135.88,.98,143.23,.45,150.6,.02c2.61-.15,3.49,.43,3.85,2.87,3.41,16.45-.27,31.2-7.87,46.06-4.38,8.04-7.63,16.87-13.66,23.89-8.52,9.98-17.18,19.84-27.11,28.48-.71,.62-1.2,1.5-2.23,2.84,14.36-2.45,27.74-4.33,42.19-4.55,5.37-.21,10.48,.62,15.62,2.37,13.85,4.72,27.6,9.71,40.54,16.57,7.38,3.91,14.35,8.62,21.46,13.03,1.5,.93,1.64,1.88,.44,2.76-8.18,6.62-18.21,10.08-27.59,14.62-12.04,3.64-25.06,4.11-37.64,2.03-7.07-1.42-13.9-3.47-20.73-5.6-22.31-6.72-44.27-15.27-67.3-19.15-2.21-.22-2.82,.19-3.27,2.59-4.08,18.71-5.72,37.64-4.17,56.81,.51,3.11-3.25,2.98-5.46,3.11-2.13-.56-1.84-4.03-2.36-5.79-1.84-18.79-5.38-38.07-2.84-56.89,.87-3.7,.17-6.71-2.45-9.59-6.06-6.68-11.88-13.57-17.85-20.34-9.14-9.51-17.93-19.53-22.07-32.33C6.37,53.54-.42,43.89,.02,32.57,.08,27.11,6.41,8.58,8.52,4.69c.71-1.93,2.19-2.3,3.93-2.13,21.57,2.67,32.94,24.21,44.1,40.39,8.12,13.57,13.82,28.13,17.67,43.53Z"/>
  </g>
</svg>