<?xml version="1.0" encoding="UTF-8"?>
<svg id="_レイヤー_2" data-name="レイヤー 2" xmlns="http://www.w3.org/2000/svg" viewBox="0 0 406.3 164.76">
  <defs>
    <style>
      .cls-1 {
        fill: #a4a4a4;
      }
    </style>
  </defs>
  <g id="parts">
    <path class="cls-1" d="M7.62,164.65c-2.8-.31-8.03,1.13-7.59-1.59,5.13-15.14,10.06-30.39,15.42-45.46,3.85-10.8,8.74-21.19,14.36-31.19,2.78-4.95,6.86-8.97,11-12.8,12.49-11.78,27.67-20.96,45.09-22.21,10.11-1.28,18.89,2.63,27.64,6.76,6.81,5.9,12.85,12.9,19.23,19.31,5.03,5.33,10.7,9.83,16.79,13.87,4,2.73,8.25-1.65,11.16-4.21,21.28-21.88,36.3-49.42,58.16-70.62C233.63,7.17,250.15,3.04,267.09,.11c15.67-1.64,35.89,14.75,47.48,24.29,2.06,2.04,10.04,9.89,11.56,12.04,5.65,6.13,10.52,12.64,14.65,19.89,19.76,32.97,43.06,63.57,63.42,96.14,1.87,2.35,3.98,9.13-.89,9.09-3.27,.08-6.55,.12-9.82,.15-31.29,.18-288.54,2.45-385.87,2.99,0-.01,0-.03,0-.04Z"/>
  </g>
</svg>