<?xml version="1.0" encoding="UTF-8"?>
<svg id="_レイヤー_2" data-name="レイヤー 2" xmlns="http://www.w3.org/2000/svg" viewBox="0 0 64.95 126.06">
  <defs>
    <style>
      .cls-1 {
        fill: #a4a4a4;
      }
    </style>
  </defs>
  <g id="parts">
    <path class="cls-1" d="M51.23,121.8c-1.44,1.72-4.77,2.96-8.18,3.57-7.55,1.33-21.2,.97-25.57-3.16-4.36-4.13-10.55-11.99-14.06-19.3-1.71-3.56-2.85-7.21-3.3-11.12C-.93,82.57,5.34,6.1,5.39,5.48c.24-3,.3-3.16,3.05-3.67C12.07,1.16,15.72,.63,19.36,.06c1.6-.25,2.74,.32,3.52,1.79,1.25,2.35,36.26,68.98,40.67,83.08,2.32,7.41,1.81,14.45-2.11,21.34-2.84,4.98-5.43,10.1-10.22,15.54Z"/>
  </g>
</svg>