<?xml version="1.0" encoding="UTF-8"?>
<svg id="_レイヤー_2" data-name="レイヤー 2" xmlns="http://www.w3.org/2000/svg" viewBox="0 0 300.49 189.63">
  <defs>
    <style>
      .cls-1 {
        fill: #a4a4a4;
      }
    </style>
  </defs>
  <g id="parts">
    <path class="cls-1" d="M300.49,3.59c-20.84,6.79-39.93,14.65-58.89,25.31-15.05,8.07-26.23,20.7-37.33,33.3-7.1,8.07-12.2,17.47-17.32,26.81-5.42,9.89-10.89,19.77-15.75,29.93-11.64,22.86-27.92,43.05-46.22,60.89-8.39,7.77-18.22,10.9-29.4,9.46-36.29-3.74-64.24-29.82-93.12-49.7-4.14-2.09-2.74-4.55,1.78-4,6.69,.31,13.37,.85,20.06,1.14,17.86,.75,35.13-2.93,52.3-7.19,10.17-2.53,18.94-8.29,28.23-12.84,2.58-1.26,4.15-3.45,5.44-5.96,7.5-14.63,15.71-28.9,21.55-44.36,4.34-11.5,11.32-21.55,18.83-31.14,2.95-3.77,6.79-7.01,10.69-9.85,7.13-5.21,14.77-9.72,21.9-14.93,7.68-5.61,16.29-8.18,25.55-8.73,29.49-2.99,59.03-1.54,88.54,.32,.52,.03,1.01,.47,3.17,1.55Z"/>
  </g>
</svg>