<?xml version="1.0" encoding="UTF-8"?>
<svg id="_レイヤー_2" data-name="レイヤー 2" xmlns="http://www.w3.org/2000/svg" viewBox="0 0 217.72 271.89">
  <defs>
    <style>
      .cls-1 {
        fill: #a4a4a4;
      }
    </style>
  </defs>
  <g id="parts">
    <path class="cls-1" d="M217.69,124.44c-.67,26.08-2.44,55.18-16.3,77.93-6.28,10.6-12.61,21.1-19.14,31.54-1.98,3.6-4.79,6.86-7.68,9.84-8.05,8.29-16.32,16.35-24.51,24.5-2.23,2.53-4.65,4.84-8.11,2.95-30.01-11.74-58.84-26.62-85.42-44.87-16.29-12.78-28.64-29.31-39.48-46.74-3.89-6.25-7.5-12.68-11.22-19.03-1.74-2.96-2.72-6.12-3.14-9.56C1.67,142.7-.11,134.49,0,126.09c.07-5.57,.1-11.16,.52-16.71,.56-7.41,2.79-14.46,5.64-21.27C15.74,64.17,29.24,42.24,44.18,21.31c4.8-6.81,9.07-14.09,14.16-20.66,1.63-1.39,3.81-.24,5.56,.36,27.14,10.27,55.19,18.69,80.41,33.32,9.55,5.32,18.93,10.95,28.53,16.2,3.91,2.14,7.35,4.82,10.41,7.92,13.34,14.56,35.13,33.56,34.46,54.63-.11,3.78-.02,7.57-.02,11.35Z"/>
  </g>
</svg>