<?xml version="1.0" encoding="UTF-8"?>
<svg id="_レイヤー_2" data-name="レイヤー 2" xmlns="http://www.w3.org/2000/svg" viewBox="0 0 189.78 195.35">
  <defs>
    <style>
      .cls-1 {
        fill: #a4a4a4;
      }
    </style>
  </defs>
  <g id="parts">
    <path class="cls-1" d="M127.68,95.72c-1.82-8.1-3.34-14.86-4.85-21.61-.9-3-.78-6.48-2.77-8.99-3.44,2.37-4.25,6.9-6.45,10.3-3.08,5.55-10.33,.26-15-.2-3-.3-9.71-4.07-10.11,.99,.14,2.97,.13,6.02,.86,8.86,4.16,13.36-9.91,16.75-16.39,25.53,3.98,2.29,27,3.49,36.23,5.17,4.54,1.62-3.51,8.29-4.67,10.67-15.94,20.29-31.8,40.64-47.9,60.81-9.18,11.51-6.91,9.69-17.2,1.19-12.82-10.59-21.65-24.38-30.41-38.29C-.76,133.88-2.43,108.19,3.25,90.27c4.47-14.84,24.28-47.13,44.52-63.44C65.05,12.9,83.31,5.71,105.7,3.07c13.43-2.15,27.06-4.86,40.56-1.44,13.06,3.12,25.84,7.07,38.24,12.23,7.73,2.82,5.78,4.39,1.68,9.94-19.71,23.99-37.19,49.27-58.5,71.92Z"/>
  </g>
</svg>