<?xml version="1.0" encoding="UTF-8"?>
<svg id="_レイヤー_2" data-name="レイヤー 2" xmlns="http://www.w3.org/2000/svg" viewBox="0 0 138 308.97">
  <defs>
    <style>
      .cls-1 {
        fill: #a4a4a4;
      }
    </style>
  </defs>
  <g id="parts">
    <path class="cls-1" d="M138,251.99c-4.6,4.52-62.62,51.81-67.63,55.79-2.1,1.66-3.38,1.61-5.37-.27-7.83-7.4-15.19-15.27-21.32-24.12-7.28-10.5-14.41-21.13-20.99-32.07-10.61-17.67-16.75-36.84-19.27-57.42-1.49-12.14-3.17-24.24-3.33-36.44-.19-13.92-.17-27.9,.95-41.75,.65-8.04,1.98-16.09,2.83-24.17,.39-3.71,1.6-7.43,2.99-10.92,5.11-12.93,10.14-25.9,15.95-38.54,6.19-13.45,13.37-26.38,21.15-38.97,2.06-3.34,2.93-3.67,6.44-2.38,6.8,2.49,13.55,5.15,20.26,7.87,7.25,2.94,37.12,15.61,44.91,18.74,3.5,1.41,7.2,2.33,10.71,3.72,3.44,1.36,4.07,3.91,1.8,6.91-5.09,6.71-10.34,13.24-14.55,20.62-10.12,21.19-15.33,56.44-15.33,91.45,1.23,15.96,4.33,31.66,9.45,46.93,2.05,6.1,4.36,12.02,7.54,17.6,6.91,12.12,13.07,24.71,22.23,35.42,.33,.38,.32,1.05,.59,2.03Z"/>
  </g>
</svg>