<?xml version="1.0" encoding="UTF-8"?>
<svg id="_レイヤー_2" data-name="レイヤー 2" xmlns="http://www.w3.org/2000/svg" viewBox="0 0 255.41 170.43">
  <defs>
    <style>
      .cls-1 {
        fill: #a4a4a4;
      }
    </style>
  </defs>
  <g id="parts">
    <path class="cls-1" d="M255.38,126.24c.1,5.17-1.77,10.17-3.87,14.94-4.76,10.83-3.89,11.43-16.35,17.22-8.76,4.07-9.33,6.42-22.68,.72-7.38-3.15-15.09-5.39-22.78-7.62-12.1-4.16-19.86,3.16-29.44,9.22-15.8,9.35-37.85,14.63-53.94,3.28-6.63-4.08-12.54-9.53-14.45-17.45-1.67-6.88-2.49-13.84-2.11-20.86,.28-5.18-1.46-9.23-4.97-12.83-13.98-15.23-17.38-15.1-22.37-36.23-2.05-8.66-8.93-7.77-16.2-8.99-10.77-1.07-21.29-3.12-31.2-7.7-1.57-.73-3.11-1.48-4.95-1.59C-.72,56.9-.47,40.47,.35,32.22c1.52-6.55,11.87-15.03,18.21-17.36,4.16-1.51,8.02-3.84,12.11-5.57C41.65,5.04,53.5,3.16,64.99,.65c7.72-1.98,15.2,1.11,22.91,1.76,14.84,3,26.66,13.65,39.75,20.63,25.51,17.39,38.35,1.61,63.31,.24,19.86,.39,35.43,21.99,39.31,40.02,1.75,13.47,6.93,25.5,14.08,36.86,4.47,8.42,11.58,15.87,11.03,26.07Z"/>
  </g>
</svg>