<?xml version="1.0" encoding="UTF-8"?>
<svg id="_レイヤー_2" data-name="レイヤー 2" xmlns="http://www.w3.org/2000/svg" viewBox="0 0 76.32 95.1">
  <defs>
    <style>
      .cls-1 {
        fill: #a4a4a4;
      }
    </style>
  </defs>
  <g id="parts">
    <path class="cls-1" d="M24.44,4.46C28.87,2.35,34.11,.14,39.91,.06c4.95-.07,9.93-.14,14.86,.27,7.5,.63,12.34,4.6,15.23,11.8,6.93,17.26,7.94,34.87,4.13,52.87-1.4,6.59-3.81,12.69-10.09,16.38-.98,.57-1.77,1.56-2.48,2.48-6.28,8.09-14.54,11.59-24.72,11.21-4.73-.18-9.46,.12-13.98-1.65-1.32-.51-2.82-.84-3.87-1.7-6-4.96-12.21-9.83-14.55-17.77-1.4-4.75-2.83-9.52-3.85-14.36-1.66-7.92,.51-15.49,2.8-22.96,3.25-10.57,9.58-19.44,16.03-28.21,.55-.75,1.22-1.45,1.95-2.04,.73-.59,1.59-1.01,3.08-1.92Z"/>
  </g>
</svg>