<?xml version="1.0" encoding="UTF-8"?>
<svg id="_レイヤー_2" data-name="レイヤー 2" xmlns="http://www.w3.org/2000/svg" viewBox="0 0 193.26 442.3">
  <defs>
    <style>
      .cls-1 {
        fill: #a4a4a4;
      }
    </style>
  </defs>
  <g id="parts">
    <path class="cls-1" d="M13.5,440.88c14.98-6.16,29.44-13.36,42.99-22.26,17.41-10.03,29.75-26.05,44.86-38.92,16.27-15.41,34.42-29.23,47.6-47.57,14.69-19.77,28.87-39.88,39.32-62.28,4.18-8.29,4.69-17.28,4.99-26.3,.15-4.32-.95-8.75-4.26-11.74-5.1-4.79-7.09-7.1-14.47-6.04-11.64-.51-22.81,2.02-33.85,5.27-7.7,2.27-15.51,3.7-23.53,4.25-4.44,.31-8.07-1.3-11.32-3.9-6.33-4.66-3.6-12.47-.35-18.19,5.77-10.43,12.48-20.29,20.2-29.33,13.42-16.47,27.37-32.9,38.64-50.87,3.78-8.41,7.12-17.02,10.59-25.57,2.59-6-3.88-12.79-9.95-11.59-13.19,1.98-42.16,9.56-43.41,10.96,0,0-8.69,2.56-13.04,3.84-3.43-.14-4.01-3.3-5.32-5.83-.06-.53-.11-1.06-.17-1.58,.67-.74,1.05-7.89,2.43-10.57,1.38-2.69,3.2-8.51,5.94-12.05,2.74-3.54,44.74-57.74,46.57-59.78,1.83-2.04,6.58-7.47,8.31-10.24,2.83-3.88-.47-11.49-5.42-10.46-7.45,1.57-15.74,5.36-18.57,6.67-2.83,1.3-7.58,3.32-10.67,5.39-3.08,2.06-30.51,20.39-37.09,25.3-28.48,21.81-50.4,50.55-69.51,80.6-4.09,6.17-7.24,12.84-10.12,19.66-3.55,8.41-2.6,16.93-.57,25.35,.9,3.74,3.88,6.28,7.79,7.14,5.67,1.24,11.35,1.61,16.97-.47,9.34-3.63,19.27-5.95,28.09-10.81,10.04-5.07,20.55-9.49,31.31-12.63,11.38-1.52,10.27,12.71,5.43,19.08-18.58,28.14-43.46,51.38-61.57,79.76-5.64,9.77-11.31,19.5-15.93,29.82-2.03,4.53-1.72,8.72,.44,12.98,2.31,4.55,4.91,5.97,9.98,5,18.9-3.73,37.4-9.26,56.63-11.29,15.92-1.28,16.44,5.65,8.4,17.39-19.33,24.19-41.66,45.76-62.65,68.49-11.17,11.81-21.28,24.4-29.33,38.58-4.09,8.48-13.4,20.98-8.47,30.14,1.34,2.76,3.64,4.38,6.25,5.66,2.15,1.05,4.03-.26,5.84-1.04Z"/>
  </g>
</svg>