<?xml version="1.0" encoding="UTF-8"?>
<svg id="_レイヤー_2" data-name="レイヤー 2" xmlns="http://www.w3.org/2000/svg" viewBox="0 0 86.25 190.07">
  <defs>
    <style>
      .cls-1 {
        fill: #a4a4a4;
      }
    </style>
  </defs>
  <g id="parts">
    <path class="cls-1" d="M61.14,189c-5.11-3.36-29.64-20.42-35.97-24.56-6.76-4.41-11.48-10.53-15.02-17.48C3.55,134.01-.07,120.18,0,105.58c.03-6.95,.56-13.9,1.06-20.84,.54-7.48,2.97-14.3,6.98-20.72C14.98,52.92,40.33,11.33,46.34,1.82c1.27-2,2.27-2.34,3.94-1.05,4.22,3.24,8.4,6.53,12.52,9.89,1.73,1.41,1.84,2.16,.55,4.22-2.28,3.64-22.83,35.24-27.14,49.31-4.36,14.24-6.86,28.67-4,43.57,.39,2.01,.87,4.01,1.44,5.97,1.05,3.61,2.92,6.66,5.81,9.2,12.31,10.83,43.58,32.44,45.84,33.84,1.02,.62,1.19,1.61,.6,2.64-.51,.89-19.76,29.11-20.02,29.44-1.22,1.55-1.85,1.68-4.76,.17Z"/>
  </g>
</svg>