<?xml version="1.0" encoding="UTF-8"?>
<svg id="_レイヤー_2" data-name="レイヤー 2" xmlns="http://www.w3.org/2000/svg" viewBox="0 0 141.62 158.64">
  <defs>
    <style>
      .cls-1 {
        fill: #a4a4a4;
      }
    </style>
  </defs>
  <g id="parts">
    <path class="cls-1" d="M79.72,158.62c-20.84-1.03-37.4-3.44-51.95-17.44-4.61-4.7-9.37-9.26-13.97-13.97-1.51-1.55-1.42-2.89,.28-4.39,5.86-5.15,11.77-10.25,17.73-15.29,1.75-1.48,2.54-1.16,4.3,.54,4.01,3.9,8.05,7.79,12.2,11.53,4.52,4.07,10.26,5.29,15.98,6.72,17.07,5.11,40.07-10.45,47.61-25.62,9.67-18.61,1.73-40.41-9.92-55.92-1.89-2.72-4.86-4.78-7.57-6.81-6.24-4.67-12.71-9.05-18.95-13.72-7.56-5.66-15.26-5.27-23.19-.99-11.91,6.35-19.76,8.33-21.5,23.3-.93,8.67-2.57,17.44-.37,26.21,.39,2.18,.73,5.78-2.39,5.77-8.05,.47-16.08-.22-24.1-.9-2.1-.17-3.02-.97-2.44-2.65,4.15-14.64-7.22-29.6,2.74-43.45C11.3,23.49,13.96,9.62,24.55,5.75,41.92,1.47,51.49-2.74,69.74,2.29c18.39,4.49,42.11,17.32,53.13,32.85,7.73,11.4,13.03,23.98,17.67,36.84,.8,2.22,1.27,4.81,1.01,7.13-.8,7.26-1.9,14.5-3.11,21.71-1.16,8.58-6.04,15.89-9.84,23.49-2.86,5.73-6.25,10.91-11.72,14.66-2.98,2.04-5.29,5.03-7.97,7.52-9.01,8.37-19.64,12.47-29.19,12.11Z"/>
  </g>
</svg>