<?xml version="1.0" encoding="UTF-8"?>
<svg id="_レイヤー_2" data-name="レイヤー 2" xmlns="http://www.w3.org/2000/svg" viewBox="0 0 64.29 94.26">
  <defs>
    <style>
      .cls-1 {
        fill: #a4a4a4;
      }
    </style>
  </defs>
  <g id="parts">
    <path class="cls-1" d="M52.91,78.42c-3.43,6.85-8.82,11.26-15.84,13.68-14.49,5.01-25.47,1.15-32.5-10.12C.92,76.14-.66,69.24,.25,62.26c.85-6.52,2.12-13.02,3.8-19.37,1.35-5.1,3.08-10.22,5.52-14.88,5.18-9.87,12.67-17.59,23.12-22.12,3.26-1.41,6.37-3.14,9.65-4.49,4.43-1.81,8.97-2.25,13.01,.89,1.75,1.36,3.4,3.12,4.44,5.06,2.29,4.24,3.86,8.69,4.17,13.68,.83,13.27,.2,26.39-3.8,39.11-1.96,6.24-4.81,12.19-7.26,18.28Z"/>
  </g>
</svg>