<?xml version="1.0" encoding="UTF-8"?>
<svg id="_レイヤー_2" data-name="レイヤー 2" xmlns="http://www.w3.org/2000/svg" viewBox="0 0 63.22 154.95">
  <defs>
    <style>
      .cls-1 {
        fill: #a4a4a4;
      }
    </style>
  </defs>
  <g id="parts">
    <path class="cls-1" d="M0,112.92C1.15,76.68,16.93,46.72,34.19,16.31c2.52-4.19,4.49-8.73,6.46-13.23,1.09-2.5,2.69-3.35,5.27-3.01,3.04,.4,6.1,.66,9.15,.96,4.46,1.09,3.02,10.53,4.5,14.36,2.61,14.3,3.91,28.81,3.59,43.36-.28,11.46-.82,22.91-1.33,34.36-.27,6.17-1.51,12.17-3.63,17.98-4.31,10.53-6.44,22.3-13.53,31.45-4.33,5.15-10.02,8.48-16.01,11.09-4.19,1.83-8.82,1.72-13.17-.13-2.71-1.15-4.99-2.85-6.14-5.69C4.69,137.27,.06,124.24,0,112.92Z"/>
  </g>
</svg>