<?xml version="1.0" encoding="UTF-8"?>
<svg id="_レイヤー_2" data-name="レイヤー 2" xmlns="http://www.w3.org/2000/svg" viewBox="0 0 179.62 226.84">
  <defs>
    <style>
      .cls-1 {
        fill: #a4a4a4;
      }
    </style>
  </defs>
  <g id="parts">
    <path class="cls-1" d="M58.52,205.62c-6.86-6.91-11.74-20.62-13.86-24.82-.54-1.06-2.25-13.23-3.05-18.08-2.06-12.57-5.28-24.9-10.06-36.66-4.16-10.24-10.79-18.79-21.55-23.24C7.93,101.97-.04,98.97,0,96.65c.04-1.87,2.33-2.07,3.66-2.88,5.14-3.14,22.9-5.74,25.96-5.82,9.88-.28,19.58,.82,29.18,3.32,8.36,2.17,16.44,5.05,24.36,8.44,.38,.16,.72,.41,1.1,.56,2.11,.8,3.08,.37,3.66-1.73,.65-2.37,5.93-23.01,8.84-30.69,4.45-11.75,10.33-22.79,18.09-32.61,5.05-6.39,10.77-12.39,17.92-16.65,9.65-5.75,19.32-11.49,29.01-17.19,1.03-.61,2.22-.98,3.38-1.35,.74-.24,1.77,.7,1.53,1.41-.7,2.13-1.38,4.27-2.29,6.31-1.99,4.49-4.17,8.9-6.17,13.38-3.88,8.7-5.8,17.92-6.5,27.36-.24,3.22,.2,6.58,.89,9.76,3.19,14.81,6.69,29.49,11.78,43.85,4.91,13.86,12.55,43.66,12.76,44.23,3.17,8.53,2.96,17.29,1.3,26-2.32,12.22-15.31,28.35-20.35,34.5-2.27,2.77-5.75,4.52-8.61,6.82-8.42,6.77-18.57,9.18-28.76,11.58-18.14,4.57-35.62-1.48-45.8-8.03-5.49-3.53-10.68-7.53-16.4-11.6Z"/>
  </g>
</svg>