<?xml version="1.0" encoding="UTF-8"?>
<svg id="_レイヤー_2" data-name="レイヤー 2" xmlns="http://www.w3.org/2000/svg" viewBox="0 0 242.6 351.85">
  <defs>
    <style>
      .cls-1 {
        fill: #a4a4a4;
      }
    </style>
  </defs>
  <g id="parts">
    <path class="cls-1" d="M15.81,98.24c.96-2.48,1.83-5,2.73-7.51,2.01-5.6,4.32-11.04,7.01-16.36,4.9-9.69,10.11-19.2,16.22-28.16,4.72-6.93,9.85-13.57,15.85-19.48,1.43-1.41,8.6-10.17,12.05-11.83,3.12-1.5,13.45-7.4,15.8-7.89,9-1.89,18.06-3.54,27.09-5.28,14.74-2.84,29.32-2.16,43.73,2.04,1.18,.34,27.89,8.11,39.23,13.88,4.17,2.12,7.83,5.1,11.1,8.6,4.61,4.93,9.63,9.47,14.36,14.29,8.71,8.89,15.69,18.83,18.63,31.19,.43,1.79,.97,3.56,1.62,5.27,2.4,6.24,1.05,12.54,.31,18.81-.58,4.88-2.23,15.83-2.4,16.41-2.9,9.6-5.52,19.3-8.82,28.77-2.42,6.94-5.65,13.61-8.65,20.34-2.75,6.17-5.67,12.26-8.55,18.37-1.75,3.7-3.48,7.42-5.36,11.04-4.39,8.44-7.3,17.4-8.74,26.74-1.34,8.7-1.66,17.51-.83,26.32,1.12,11.88,.21,23.74-.3,35.61-.67,15.54-7.12,28.82-15.84,41.23-2,2.85-4.08,5.64-6.16,8.43-2.22,2.98-4.85,5.5-7.99,7.55-1.86,1.22-3.69,2.69-5.05,4.43-1.99,2.54-4.6,3.91-7.37,5.31-10.85,5.48-22.35,6.28-34.13,4.86-6.71-.81-13.32-2.21-19.75-4.4-2.9-.99-6.01-1.41-8.85-2.52-12.7-4.98-24.42-11.53-33.91-21.58-3.37-3.57-6.79-7.1-10.34-10.5-4.35-4.16-7.15-9.42-10.54-14.26-8.19-11.7-12.86-25.14-18.46-38.09-3.31-7.67-5.71-15.74-8.22-23.73-3.18-10.12-6.34-20.26-8.75-30.61-2.98-12.75-3.23-25.53-1.29-38.42,1.61-10.73,3.11-21.48,4.62-32.22,.14-.99,.83-5.27,1.23-6.41,0,0,8.51-29.68,8.73-30.24Z"/>
  </g>
</svg>