<?xml version="1.0" encoding="UTF-8"?>
<svg id="_レイヤー_2" data-name="レイヤー 2" xmlns="http://www.w3.org/2000/svg" viewBox="0 0 173.81 275.22">
  <defs>
    <style>
      .cls-1 {
        fill: #a4a4a4;
      }
    </style>
  </defs>
  <g id="parts">
    <path class="cls-1" d="M55.69,67.33c10.66-12.09,22.62-22.23,34.88-32.57,7.81-7.04,16.34-12.92,25.28-18.29,11.69-7.02,24.26-11.69,37.74-14.07C159.45,1.36,165.29,.35,171.22,0c.77-.04,1.58,.19,2.32,.44,.61,.57,.09,1.53-.68,1.82-3.1,1.97-6.14,4.05-9.33,5.85-6.28,3.54-11.75,8.15-17.25,12.71-6,4.97-11.68,10.36-16.02,16.84-4.42,6.59-8.99,13.19-11.98,20.61-4.16,10.05-5.63,20.92-6.95,31.65-.99,8.32-2.23,16.64-2.76,24.99-.51,21.63,.85,43.4-2.34,64.92-1,7.29-2.19,14.56-3.45,21.82-1.89,7.49-5.1,14.68-7.81,21.92-2.9,7.16-7.53,13.03-13.52,17.91-2.21,1.8-4.06,4.02-6.15,5.98-5.14,4.82-11.38,7.95-17.49,11.24-13.67,7.97-28.44,13.64-44.05,16.35-3.14,.51-3.96-.05-4.85-3.19-1.11-3.93-2.18-7.88-3.12-11.86-1.88-7.95-3.84-15.89-5.38-23.91-.61-3.15-.38-6.51-.2-9.75,.68-12.46,1.8-24.88,3.19-37.29,1.72-16.33,8.35-31.6,13.03-47.22,3.82-11.23,8.12-22.29,14.41-32.39,8.09-14.16,14.97-29.07,24.86-42.1Z"/>
  </g>
</svg>