<?xml version="1.0" encoding="UTF-8"?>
<svg id="_レイヤー_2" data-name="レイヤー 2" xmlns="http://www.w3.org/2000/svg" viewBox="0 0 185.61 197.59">
  <defs>
    <style>
      .cls-1 {
        fill: #a4a4a4;
      }
    </style>
  </defs>
  <g id="parts">
    <path class="cls-1" d="M120.65,.23c8.23-.28,16.02,1.41,23.74,3.49,9.47,2.55,18.97,5.04,27.75,9.63,3.15,1.65,5.77,3.72,7.52,6.8,1.82,3.2,3.43,6.52,5.33,9.67,1.01,1.68,.76,2.72-.51,4.15-5.77,6.47-11.52,12.98-17.05,19.66-5.17,6.24-10.01,12.74-15.07,19.06-2.68,3.35-5.56,6.54-8.29,9.85-1.31,1.6-4.82,6.27-5.46,6.81-1.79,1.5-3.64,2.92-5.44,4.41-2.58,2.13-5.37,3.84-8.6,4.82-4.76,1.44-8.48,4.17-11.07,8.56-1.8,3.05-2.59,6.04-1.37,9.44,.42,1.15,.65,2.4,1.24,3.46,1.49,2.69,.84,4.91-.61,7.49-3.26,5.76-6.2,11.7-9.13,17.64-6.13,12.42-12.11,24.92-18.28,37.31-1.75,3.5-3.99,6.76-5.96,10.16-1.01,1.74-2.41,2.63-4.44,2.75-11.51,.7-23.02,1.43-34.52,2.17-2.83,.18-5.27-.63-7.5-2.42-9.32-7.5-17.71-15.9-24.73-25.61-.64-.88-1.16-1.9-1.47-2.94-2.13-7.04-4.4-14.05-6.17-21.19-.69-2.77-.71-5.93-.15-8.73,4.86-24.39,12.5-47.91,22.38-70.72,1.41-3.26,2.95-6.47,4.52-9.66,.53-1.08,1.21-2.15,2.04-3.03,12.8-13.64,26.44-26.33,42.09-36.69,10.3-6.82,21.3-12.17,33.43-14.95,2.6-.6,5.21-1.31,7.86-1.54,2.67-.23,5.39,.08,7.94,.15Z"/>
  </g>
</svg>