<?xml version="1.0" encoding="UTF-8"?>
<svg id="_レイヤー_2" data-name="レイヤー 2" xmlns="http://www.w3.org/2000/svg" viewBox="0 0 138.05 192.65">
  <defs>
    <style>
      .cls-1 {
        fill: #a4a4a4;
      }
    </style>
  </defs>
  <g id="parts">
    <path class="cls-1" d="M137.83,116.44c.95,4.89-1.14,7.61-5.47,10.12-12.97,7.53-99.38,60.85-104.83,64.38-2.02,1.31-4.01,2.08-6.34,1.52-6.31-1.52-12.62-3.07-18.91-4.7-2.09-.54-2.77-2.05-1.93-4.03,3.24-7.59,35.93-70.63,43.9-83.99,1.26-2.12,2.2-4.54,2.78-6.94,2.78-11.4,11.38-81.54,12.6-85.87,.51-1.82,1.45-3.23,3.36-3.65,5.11-1.11,10.23-2.21,15.37-3.2,1.93-.37,3.39,.52,4.25,2.32,.54,1.13,1.12,2.24,1.7,3.35,4.67,11.56,8.34,28.67,15.67,43.52,7.58,8.32,23.34,17.42,30.57,21.83,2.89,3.28,4.7,1.52,4.89,6.11,.37,8.71,2.33,38.98,2.37,39.22Z"/>
  </g>
</svg>