<?xml version="1.0" encoding="UTF-8"?>
<svg id="_レイヤー_2" data-name="レイヤー 2" xmlns="http://www.w3.org/2000/svg" viewBox="0 0 221.24 196.91">
  <defs>
    <style>
      .cls-1 {
        fill: #a4a4a4;
      }
    </style>
  </defs>
  <g id="parts">
    <path class="cls-1" d="M159.42,13.28c1.88,2.83,4.53,5.17,4.53,8.87,1.23,12.23,.84,47.34,.5,52.61,.12,5.57-2.2,12.43,2.38,16.8,3.16,2.84,8.9,2.06,11.49-1.11q4.43-6.18,4.7-13.78c1.07-12.56-.88-25.84,4.56-37.6,4.29-9.61,8.06-17.23,18.33-21.56,3.83-1.16,9.38,5.96,11.13,8.86,2.36,3.82,4.03,7.79,3.82,12.49-.17,3.84,.45,7.71,.39,11.56-.48,16.12-.36,32.34-2.48,48.35-4.09,23.66-5.2,47.71-9.45,71.34-.87,4.78-2.66,9.34-4.68,13.78-1.12,2.62-3.52,4.08-5.99,5.23-1.93,.96-3.95,2.17-6.09,1.06-2.55-1.32-4.69-3.03-5.51-6.17-1.44-5.54-2.5-11.13-3.28-16.8-.91-6.65-2.06-13.26-3.68-19.79-1.86-7.51-7.09-11.44-13.93-13.82-1.87-.65-3.67-.07-5.36,.76-1.06,.52-1.81,1.37-2.06,2.6-.53,2.66-1.11,5.31-1.61,7.97-2,10.52-3.95,21.05-5.99,31.56-1.65,7.83-6.25,15.7-13.69,19.18-5.49,2.97-9.91-2.19-13.26-5.93-1.54-1.74-2.18-3.8-2.34-6.25-.28-4.41-1-8.79-1.76-13.15-.84-4.83-.53-9.7-.86-14.54-.48-6.84-1.14-13.66-1.77-20.48-.21-2.28-1.51-4.01-3.27-5.34-6.3-4.74-15.03,6.45-16.26,12.11-4.43,15.09-6.58,30.72-11.26,45.75-1,2.98-2.56,5.87-5.64,7.15-5.87,2.74-6.36,2.74-11.35-1.4-8.61-8.27-10.85-31.98-12.45-43.84-.89-7.04-.8-14.4-3.5-21.04-1.12-3.44-4.02-4.01-7.09-4.59-4.23-1.97-6.18,4.53-6.47,7.78-.4,6.98-1.25,13.93-2.72,20.79-1.65,9.88-4.29,19.72-10.32,27.88-2.47,3.59-5.82,6.2-10.58,6.46-2.03,.11-3.33-.51-4.14-2.25-5.38-10.6-9.88-21.65-10.76-33.65C.52,140.32-.02,129.49,0,118.61c1.72-28.22,6.55-56.17,8.87-84.35,.79-6.59,4.44-12.33,7.71-17.96,3.59-5.74,13.57-11.86,18.13-3.99,2.31,3.92,4.08,8.09,3.99,12.91,.18,14.63,.55,29.67,5.44,43.6,1.13,3.27,3.65,5.76,6.93,7.24,2,.9,4.03,1.66,5.6-.77,3.12-1.48,4.5-4.19,5.32-7.36,1.51-5.81,2.97-11.62,3.36-17.65,.81-12.78,3.43-25.17,7.93-37.17,1.17-3.84,4.55-6.14,6.97-9.11,6.27-6.95,18.59-4.71,21,5.73,2.9,19.21,.35,39.14,3.24,58.58,.31,4.24,3.25,7.22,6.18,9.92,6.36,5.52,13.97-3.34,15.76-9.47,3.49-10.88,5.12-22.33,8.91-33.09,1.8-4.63,4.17-9.08,6.65-13.41,3.21-6.03,8.83-8.48,15.41-9.81l2.04,.84Z"/>
  </g>
</svg>