<?xml version="1.0" encoding="UTF-8"?>
<svg id="_レイヤー_2" data-name="レイヤー 2" xmlns="http://www.w3.org/2000/svg" viewBox="0 0 127.95 153.36">
  <defs>
    <style>
      .cls-1 {
        fill: #a4a4a4;
      }
    </style>
  </defs>
  <g id="parts">
    <path class="cls-1" d="M0,153.32c.45-1.59,.77-2.78,1.12-3.96C8.04,126.07,40.76,15.95,43.63,6.52c1.38-4.52,.86-3.8,4.99-3.95C71.41,1.71,94.2,.88,116.99,.06c5.56-.2,5.53-.18,5.73,5.43,1.32,35.5,4.8,128.04,5.19,138.81,.02,.57-.03,1.14,.02,1.7,.12,1.19-.51,1.63-1.59,1.67-1.47,.06-2.95,.16-4.42,.23-28.67,1.43-108.24,5.07-119.36,5.45-.67,.02-1.35-.02-2.58-.04Z"/>
  </g>
</svg>