<?xml version="1.0" encoding="UTF-8"?>
<svg id="_レイヤー_2" data-name="レイヤー 2" xmlns="http://www.w3.org/2000/svg" viewBox="0 0 187.67 135.39">
  <defs>
    <style>
      .cls-1 {
        fill: #a4a4a4;
      }
    </style>
  </defs>
  <g id="parts">
    <path class="cls-1" d="M95.71,135.39c-13.2-1.21-24.41-2.33-35.63-3.24-6.82-.55-51.08-22.71-58.33-31.33-2.28-2.71-2.49-4.52,.32-7.17,10.28-9.66,20.29-19.61,30.43-29.43,13.64-13.2,27.33-26.34,40.94-39.57,7.57-7.36,15-14.85,22.5-22.27,3.21-3.18,3.32-3.25,6.81,.28,7.61,7.7,15.18,15.45,22.68,23.25,19.91,20.7,39.72,41.48,59.71,62.1,2.52,2.6,3.42,4.64,1.5,8.01-2.39,4.18-3.3,9.68-6.59,12.74-3.11,2.88-8.46,3.36-12.85,4.85-18.18,6.18-36.3,12.55-54.58,18.41-6.03,1.93-12.48,2.53-16.91,3.38Z"/>
  </g>
</svg>