<?xml version="1.0" encoding="UTF-8"?>
<svg id="_レイヤー_2" data-name="レイヤー 2" xmlns="http://www.w3.org/2000/svg" viewBox="0 0 215.91 145.58">
  <defs>
    <style>
      .cls-1 {
        fill: #a4a4a4;
      }
    </style>
  </defs>
  <g id="parts">
    <path class="cls-1" d="M215.91,145.41c-2.64,.71-4.37-1.07-6.28-2.32-39.72-26.5-80.55-51.37-118.95-79.77C64.35,45.13,37.68,27.45,11.13,9.59,6.96,6.4,3.12,4.68,0,0,8.44,1.08,12.99,5.17,20.32,7.14c6.6,1.4,12.97,3.47,19.09,6.24,24.98,11.78,50.13,23.19,75.23,34.72,7.73,3.58,15.3,7.49,22.97,11.22,7.76,3.77,7.82,3.77,11.59-3.78,9.64-20.18,7.13-26.33,19.02-2.17,3.06,6.26,5.98,12.59,8.81,18.96,1.09,2.45,2.76,3.57,5.37,3.57,5.94,0,11.88-.02,17.82,.08,2.48,.04,3.23,1.1,2.49,3.52-1.87,6.17-3.59,12.41-5.87,18.44-1.82,4.83-.96,8.79,1.51,13.16,5.69,10.11,10.93,20.49,16.29,30.79,.58,1.11,.78,2.42,1.16,3.64l.12-.1Z"/>
  </g>
</svg>