<?xml version="1.0" encoding="UTF-8"?>
<svg id="_レイヤー_2" data-name="レイヤー 2" xmlns="http://www.w3.org/2000/svg" viewBox="0 0 172.45 176.77">
  <defs>
    <style>
      .cls-1 {
        fill: #a4a4a4;
      }
    </style>
  </defs>
  <g id="parts">
    <path class="cls-1" d="M9.02,92.22c7.08-16.39,17.56-30.03,32.38-40.23,7.51-5.17,15.27-9.9,23.37-14.06,2.44-1.25,3.4-2.85,3.25-5.62-.4-7.45-.78-14.92-.73-22.37,.05-7.26-.92-7.25,6.8-8.06,4.89-.51,9.75-1.28,14.63-1.83,2.06-.23,2.54,.2,2.9,2.32,.94,5.56,3.25,18.85,3.31,19.93,.2,3.31,1.79,5.27,5.01,6.31,5.18,1.68,20.57,7.29,28.72,10.43,6.63,2.58,26.34,14.15,29.69,16.93,3.02,2.51,4.36,6.3,5.99,9.7,3.88,8.07,6.2,16.71,7.93,25.49,.31,1.57,.13,3.27-.06,4.89-1.37,12.18-4.13,24.02-9.33,35.17-2.22,4.77-4.76,9.41-8.06,13.56-3.68,4.62-8.19,8.19-13.36,11.08-8.47,4.73-17.41,8.38-26.43,11.8-9.55,3.62-19.6,5.44-29.51,7.8-7.85,1.87-13.32,1.72-23.17-.26-14.93-3-30.77-7.34-38.09-11.12-3.38-1.75-6.64-3.75-9.79-5.88-6.77-4.58-10.79-11.26-13.42-18.79-.82-2.34-1.15-5.01-1.03-7.5,.45-9.1,1.78-18.08,4.68-26.77,.74-2.23,3.49-10.88,4.31-12.91Z"/>
  </g>
</svg>