<?xml version="1.0" encoding="UTF-8"?>
<svg id="_レイヤー_2" data-name="レイヤー 2" xmlns="http://www.w3.org/2000/svg" viewBox="0 0 197.87 194.43">
  <defs>
    <style>
      .cls-1 {
        fill: #a4a4a4;
      }
    </style>
  </defs>
  <g id="parts">
    <path class="cls-1" d="M91.66,.02c10.91-.32,18.94,3.19,25.88,9.97,11.79,11.32,20.29,25.46,27.15,40.23,8.56,17.96,23.55,31.95,35.8,47.37,10.16,11.62,16.46,26.31,17.37,41.88,.61,20.72-17.98,37.87-34.89,47.16-3.98,2.07-8.03,3.71-12.63,4.1-4.64,.39-9.21,1.53-13.82,2.25-4.43,.24-8.86,.97-13.29,1.25-17.17,1.41-33.67-5.58-46.85-16.27-4.07-3.36-6.51-7.98-8.22-12.83-2.38-6.71-4.82-13.42-5.74-20.58-1.2-9.41-6.62-15.76-15.01-19.93-6.81-3.38-13.68-6.56-20.79-9.27-8.5-3.25-15.67-8.55-21.66-15.35-2.52-2.86-4.27-6.27-4.28-10.31,0-1.34-.05-2.7-.3-4-1.25-6.53,.54-12.39,4.3-17.6,3.25-4.5,6.67-8.79,11.55-11.93,5.8-3.72,11.01-8.33,16.64-12.33,5.88-4.18,10.78-9.38,15.74-14.51,6.05-6.25,12.1-12.52,17.71-19.15C72.82,2.39,82.57,.26,91.66,.02Z"/>
  </g>
</svg>