<?xml version="1.0" encoding="UTF-8"?>
<svg id="_レイヤー_2" data-name="レイヤー 2" xmlns="http://www.w3.org/2000/svg" viewBox="0 0 62.84 244.06">
  <defs>
    <style>
      .cls-1 {
        fill: #a4a4a4;
      }
    </style>
  </defs>
  <g id="parts">
    <path class="cls-1" d="M.16,171.53c-1-5.87,2.97-9.65,6.31-13.71,12.6-14.62,24.88-24.24,19.51-45.42-5.4-21.08-16.37-47.56,.6-66.2,8.35-8.73,13.68-19.38,17.41-30.81C46.51,11.43,45.69-.31,51.24,0c3.84,1.35,7.66,2.8,11.49,4.19,.67,4.12-1.98,7.34-3.05,10.97-2.93,9.12-5.46,18.53-9.69,27.15-5.71,10.91-13.57,20.63-16.71,32.73-1.06,3.4-1.55,6.76-.73,10.28,1.07,4.59,1.77,9.29,3.15,13.78,2.45,7.96,2.52,16.15,3.03,24.33,2.05,25.45-31.81,39.19-14.68,67,10.28,15.1,11.65,33.72,9.75,51.41-.22,1.87-1,2.46-2.95,2.11-7.73-1.37-6.69,.19-7.87-7.41-1.1-7.09-2.33-14.16-3.44-21.24-.95-6.83-4.56-12.69-8.39-18.26-5.43-7.64-8.32-16.73-11.01-25.53Z"/>
  </g>
</svg>