<?xml version="1.0" encoding="UTF-8"?>
<svg id="_レイヤー_2" data-name="レイヤー 2" xmlns="http://www.w3.org/2000/svg" viewBox="0 0 222.23 232.07">
  <defs>
    <style>
      .cls-1 {
        fill: #a4a4a4;
      }
    </style>
  </defs>
  <g id="parts">
    <path class="cls-1" d="M222.1,136.02c.57,9.21-1.2,18.08-3.98,26.8-3.58,11.96-6.61,22.69-14.95,32.36-12.47,15.76-28.91,28.72-48.06,35.23-3.93,1.26-8.17,1.09-12.23,1.66-6.45-.5-13.03-.69-18.94-3.6-8.71-4.78-17.65-10.05-24.71-17.12-9.27-11.76-22.52-19.57-35.75-26.16-12.37-5.85-23.34-14.15-34.26-22.27-2.48-1.9-5.17-3.79-6.85-6.48-4.74-8.45-10.69-16.8-12.08-26.56-.71-4.4-1.92-8.97-.39-13.5,.74-10.85,.26-21.49-4.68-31.52-1.7-3.45-2.91-7.14-4.37-10.71-1.44-3.65-.58-7.66-.82-11.49,0-8.63,10.16-20.11,15.75-26.54C36.98,14.32,66-1.91,97.12,.18c17.11,4.4,29.89,18.54,39.81,32.46,1.83,2.49,2.64,5.43,3.68,8.27,1.86,5.07,4.2,9.93,7.16,14.43,8.83,13.73,23.28,22.44,38.04,28.7,10.5,4.91,21.06,10.89,29.02,19.44,.91,.99,1.71,2.2,2.19,3.45,3.39,9.32,5.82,19.12,5.09,29.09Z"/>
  </g>
</svg>