<?xml version="1.0" encoding="UTF-8"?>
<svg id="_レイヤー_2" data-name="レイヤー 2" xmlns="http://www.w3.org/2000/svg" viewBox="0 0 151.52 136.11">
  <defs>
    <style>
      .cls-1 {
        fill: #a4a4a4;
      }
    </style>
  </defs>
  <g id="parts">
    <path class="cls-1" d="M61.3,123.39c-.89,.16-1.13,.14-1.27,.24-8.63,6.14-17.54,3.85-26.43,.81-4.19-1.7-6.89-5.77-10.04-8.85-6.56-7.69-6.2-19.88-3.67-29.23,.7-1.84-.2-3.13-1.81-4.06C11.99,78.8,.4,74.24,.35,68.02c-1.85-15.34,3.61-20.13,16.23-25.37,3.89-.76,7.16-1.11,10.92-2.87-.97-1.92-1.82-3.52-2.58-5.15-2-5.15-6.42-10.39-4.23-16.14C26.45-.17,51.45-6.49,65,7.87c2.41,2.48,4.69,3.11,8.05,1.07,14.04-8.55,32.7-4.2,44.09,6.79,8.37,7.35,11.8,25.83,7.85,36.06-.52,2-2.56,5.6,.53,6.32,5.44,1.63,11.73,1.43,15.58,6.24,8.82,9.32,15.06,19.22,5.93,30.67-2.93,3.62-7.29,6-11.28,8.33-1.4,.85-1.97,1.98-1.35,3.62,.58,1.53,.95,3.15,1.61,4.64,5.06,11.71-8.77,22.42-19.1,24.19-8.3,1.59-15.33-3.79-21.91-8.01-1.34-.87-2.59-1.38-3.79,.04-3.53,4.2-8.17,4.99-13.33,4.7-6.85-.25-12.72-3.5-16.58-9.16Z"/>
  </g>
</svg>