<?xml version="1.0" encoding="UTF-8"?>
<svg id="_レイヤー_2" data-name="レイヤー 2" xmlns="http://www.w3.org/2000/svg" viewBox="0 0 181.37 180.15">
  <defs>
    <style>
      .cls-1 {
        fill: #a4a4a4;
      }
    </style>
  </defs>
  <g id="parts">
    <path class="cls-1" d="M64.89,4.13c1.06,.31,1.45,.42,1.84,.54,2.57,.82,3.09,1.5,2.92,4.55-.32,5.71-1.82,28.15-2.05,33.67-.12,2.7,.51,3.57,3.37,4.3,3.96,1.01,7.98,1.76,11.98,2.6,.8,.17,1.64,.19,2.42,.41,7.31,2.05,14.8,3.09,22.28,4.19,1.97,.29,2.9,1.23,3.1,3.21,.12,1.21,.14,2.47-.04,3.66-1.45,9.7-2.97,19.39-4.46,29.09-.09,.61-.23,1.21-.27,1.82-.19,3.03,.53,4.26,3.56,4.69,5.05,.73,10.15,1.1,15.23,1.67,6.5,.72,13,1.51,19.32,3.3,3.3,.93,3.84,1.92,3.18,5.4-.87,4.62-1.82,9.23-2.67,13.85-1.65,9.04-.52,8.32,6.54,9.68,7.81,1.5,15.74,2.37,23.62,3.53,.81,.12,1.61,.33,2.4,.53,3.96,.99,4.42,1.42,4.13,5.42-.45,6.11-2.65,29.7-3.15,35.4-.07,.81-.18,1.63-.37,2.42-.33,1.33-1.11,2.19-2.6,2.05-6.31-.55-57.11-5.77-67.68-6.83-6.71-.67-46.14-4.54-59.15-5.81-6.92-.68-35.42-3.18-42.74-3.91-1.21-.12-2.41-.5-3.57-.88-1.76-.57-2.19-1.26-1.99-3.25C.5,154.78,16.37,4.05,16.63,2.86,17.19,.32,17.73-.15,20.41,.04c5.91,.42,32.36,2.79,39.68,3.47,1.83,.17,3.64,.47,4.79,.62Z"/>
  </g>
</svg>