<?xml version="1.0" encoding="UTF-8"?>
<svg id="_レイヤー_2" data-name="レイヤー 2" xmlns="http://www.w3.org/2000/svg" viewBox="0 0 226.8 250.56">
  <defs>
    <style>
      .cls-1 {
        fill: #a4a4a4;
      }
    </style>
  </defs>
  <g id="parts">
    <path class="cls-1" d="M126.39,1.69c10.46,1.67,20.46,19.67,26.19,34.36,.62,2.16,1.42,4.28,2.25,6.37,.79,2.01,1.88,2.3,3.81,1.1,2.26-1.4,17.13-9.96,22.92-11.47,1.19-.31,15.98-1.45,21.43,2.13,3.43,2.25,6.3,5.22,8.64,8.62,1.87,2.72,3.08,21.16,1.6,27.06-1.94,7.75-11.06,27.39-12.38,29.93-1.29,2.48-.93,3.65,1.43,5.08,2.45,1.48,11.34,7.48,12.58,9.49,3.78,6.08,7.54,12.22,10.66,18.65,2.87,5.92,.29,16.45-1.67,22.35-3,9-11,19-30.26,21.81-4.71,.85-16.77-1.11-18.19-1.16-4.44-.16-5.63-.89-6.17,4.86-.66,7.11-5.69,40.86-9.04,46.68s-4.35,12.81-16.35,18.81c-4,2-14,5-21,4-7.96-1.14-18-7.59-19.44-9.91-2.38-3.83-4.77-7.65-6.98-11.57-.89-1.58-3.75-11-4.77-13.9-.75-2.13-2.09-2.48-3.68-.95-3.4,3.27-6.84,6.51-10.01,9.99-4.73,5.19-19.19,10.88-20.2,10.98-5.17,.53-22.04-5.15-27.98-14.4s-9.28-16.89-11.94-28.25-1.23-21.25-1.12-34.16c.02-2.9,.43-5.66,1.29-8.45,2.05-6.65,3.88-13.37,7-19.64,.88-1.78,.53-2.5-1.17-3.53-.7-.42-1.42-.85-2.17-1.14-9.07-5.11-17.84-11.6-19.82-20.07-.82-3.51-2.54-13.09-1.55-15.7,1.01-2.68,1.81-11.5,8.18-16.9s15.96-8.39,17.73-8.88c3.88-1.07,4.29-1.54,4.33-5.45,.05-4.72-.22-9.45,.09-14.15,.62-9.55,3.04-18.61,8.87-26.4,4.7-6.29,10.95-9.65,19.03-9.29,2.8,.12,14.08,8.65,17.35,11.74,1.33,1.25,2.34,2.83,4.03,4.93,3.9-4.77,19.28-21.75,25.92-23.45,3.16-.8,6.42-1.2,9.63-1.81,.37-.07,10.45,1.57,10.93,1.69Z"/>
  </g>
</svg>