<?xml version="1.0" encoding="UTF-8"?>
<svg id="_レイヤー_2" data-name="レイヤー 2" xmlns="http://www.w3.org/2000/svg" viewBox="0 0 152.2 369.98">
  <defs>
    <style>
      .cls-1 {
        fill: #a4a4a4;
      }
    </style>
  </defs>
  <g id="parts">
    <path class="cls-1" d="M14.55,70.8c5.59-14.54,11.46-28.89,19.18-42.48,1.86-3.61,13.08-23.92,14.49-26.42,.58-1.3,4.11-2.75,5.67-1.3,7.51,7,29.87,34.11,34.84,42.17,2.69,4.36,5.45,8.68,8.16,13.03,1.77,2.83,1.82,2.9-.3,5.3-7.1,8.04-10.65,17.86-14,27.78-.7,2.07,.16,2.86,2.62,2.65,8.57-.76,17.16-1.57,25.73-2.13,3.03-.45,4.85,.44,6.19,3.45,5.17,11.61,10.73,23.05,15.92,34.65,6.35,16.2,10.71,33.16,16.1,49.71,1.83,5.91,2.49,12.02,3.03,18.16,.16,1.85-.41,3.11-1.79,4.26-8.25,7.07-18.44,11.42-27.49,17.37-2.31,1.4-2.42,2.3-.47,4.3,6.83,6.77,13.49,13.81,20.73,20.13,6.97,5.86-1.77,14.5-4.13,20.75-10.69,18.22-23.16,35.38-38.3,50.17-2.17,2.04-2.78,4.31-2.11,7.21,3.31,14.17,6.14,28.46,9.92,42.51,0,0,.75,3.92-3.42,4.24-4.17,.32-17.15,2.83-21.1,3.54-2.48,.44-3.32-.3-3.46-2.91-.38-13.94-2.03-27.79-2.99-41.7-.26-3.59-1.99-5.55-5.34-6.59-17.26-5.69-34.38-13.31-47.3-26.41-5.49-6.06-8.76-13.84-13.24-20.65-1.32-2.2-1.07-4.13,.5-6.22,5.91-7.86,11.71-15.81,17.53-23.73,3.56-4.84,3.27-6.52-2.1-9.6-6.74-3.88-13.57-7.61-20.42-11.3C.12,216.95,.51,217.36,0,209.44c-.01-14.92,1.41-29.88,1.87-44.81,.54-15.46,5.2-30.23,8.81-45.14,4.08-8.5,17.68-6.81,25.52-10.75,1.52-.3,7.41-3.1,7.22-4.99-2.23-4.58-7.46-7.15-11.69-10.54-5.58-4.49-13.59-12.03-19.13-16.59l1.94-5.81Z"/>
  </g>
</svg>