<?xml version="1.0" encoding="UTF-8"?>
<svg id="_レイヤー_2" data-name="レイヤー 2" xmlns="http://www.w3.org/2000/svg" viewBox="0 0 222.02 198.79">
  <defs>
    <style>
      .cls-1 {
        fill: #a4a4a4;
      }
    </style>
  </defs>
  <g id="parts">
    <path class="cls-1" d="M95.91,2.23C112.02,2.23,154.88,.08,156.83,.07c15.32-.11,39.08-.06,54.4,.03,7.68,.05,8.4,.93,8.47,9.22,.12,14.93-.71,29.91,.29,44.78,1.68,25.09,1.61,50.19,1.86,75.29,.16,15.32,.27,50.69,.05,53.03-.2,2.11-1.37,3.62-3.6,4.03-.77,.14-83.01,3.97-99.78,5.54-18.33,1.72-76.86,6.53-87.83,6.76-2.36,.05-4.71,.07-7.07,.05-2.64-.02-4.47-1.31-5.4-3.75-.55-1.46-1.14-2.96-1.34-4.49-.89-6.6-1.48-13.23-2.48-19.81-1-6.56-5.61-47.7-6.86-58.87C7.37,110.31,.64,29.93,.17,18.19-.41,4.01-.24,5.05,13.65,4.73c7.01-.16,28.06-1.84,31.58-1.85,16.89-.05,50.68-.44,50.68-.65Z"/>
  </g>
</svg>