<?xml version="1.0" encoding="UTF-8"?>
<svg id="_レイヤー_2" data-name="レイヤー 2" xmlns="http://www.w3.org/2000/svg" viewBox="0 0 153.12 155.05">
  <defs>
    <style>
      .cls-1 {
        fill: #a4a4a4;
      }
    </style>
  </defs>
  <g id="parts">
    <path class="cls-1" d="M45.84,125.8c.36-7.59,.77-15.85,1.14-24.12,.22-4.93-.04-5.3-4.9-5.06-9.53,.47-19.05,1.15-28.58,1.62-3.65,.18-7.32,.11-10.98,.03-1.57-.03-2.27-.88-2.45-2.39-.28-2.22,.3-3.74,2.4-5.14,13.99-9.5,28.96-17.28,43.59-25.69,1.71-1.02,1.98-1.74,1.33-3.57-1.07-3-2.21-5.97-3.45-8.9-3.92-9.23-7.92-18.42-11.85-27.64-3.21-7.28-5.83-14.83-9.6-21.84-1.31-3.45,3.92-3.87,5.83-2.06,5.64,4.41,10.91,9.27,16.15,14.15,6.17,5.76,12.28,11.57,18.42,17.36,1.28,1.11,2.95,3.57,4.68,1.82,7.39-8.29,13.56-17.67,20.43-26.41,.85-1.13,1.48-2.44,2.11-3.72,.55-1.11,1.47-1.65,2.6-1.89,1.71-.36,2.29,1.58,2.18,2.93-.12,12.58-1.96,25.07-1.83,37.64-.47,4.93,2.94,4.42,6.35,2.89,11.8-4.82,23.04-10.82,34.48-16.4,5.65-2.11,10.97-6.8,17.18-6.57,3.49,.66,1.85,4.17,.27,5.98-9.14,11.84-18.21,23.73-27.19,35.7-1.37,1.79-1.67,3.48-1.04,5.74,1.61,5.82,3.05,11.7,4.21,17.63,1.41,7.17,2.19,14.47,3.75,21.61,1.33,6.39,.42,12.69,.04,19-.24,1.27-1.63,1.91-2.5,1.03-2.13-2.09-3.97-4.54-5.5-7.04-2.3-2.06-3.39-4.93-5.17-7.33-1.98-2.65-4.14-5.18-5.98-7.92-2.11-3.16-3.94-6.49-5.9-9.75-1.44-2.94-4.45-5.51-7.6-3.41-1.59,.96-3.05,2.29-4.26,3.72-13.31,18.43-26.7,36.88-39.65,55.56-3.64,4.78-8.26-1.88-7.9-5.91-.21-7-.5-13.99-.78-21.68Z"/>
  </g>
</svg>