<?xml version="1.0" encoding="UTF-8"?>
<svg id="_レイヤー_2" data-name="レイヤー 2" xmlns="http://www.w3.org/2000/svg" viewBox="0 0 364.24 219.19">
  <defs>
    <style>
      .cls-1 {
        fill: #a4a4a4;
      }
    </style>
  </defs>
  <g id="parts">
    <path class="cls-1" d="M0,215.8c6.22-32.45,15.44-70.62,22.84-102.7,3.63-8.34,9.91-68.71,18.75-77.25,8.14-7.07,17.47-12.15,26.89-17.2,7.01-4.34,14.73-6.62,22.58-8.7,21.93-6.92,45.5-8.63,67.59-1.15,3.81,1.61,20.68,8.18,25.23,10.44,21.97,11.39,44.94,21.34,69.76,24.2,35.26-3.21,67.67-19.83,97.85-37.48,3.34-2,6.83-3.74,10.26-5.59,1.48-.8,2.55-.31,2.47,1.24-1.14,14.25-27.76,110.32-35.39,144.93-2.41,10.37-4.73,20.76-7.01,31.16-.56,2.54-1.67,4.38-4.01,5.79-11.41,6.88-22.82,13.76-34.79,19.66-29.36,23.54-121.49,19.01-153.82,.26-33.2-15.28-61.36-19.74-94.71-1.54-5.84,3.05-26.69,16.41-34.52,13.92Z"/>
  </g>
</svg>