<?xml version="1.0" encoding="UTF-8"?>
<svg id="_レイヤー_2" data-name="レイヤー 2" xmlns="http://www.w3.org/2000/svg" viewBox="0 0 253.87 288.56">
  <defs>
    <style>
      .cls-1 {
        fill: #a4a4a4;
      }
    </style>
  </defs>
  <g id="parts">
    <path class="cls-1" d="M34.43,234.55c-9.81-13.75-18.92-27.83-25.57-43.46C5.51,183.23,.15,157.06,0,137.67c-.15-19.39,5.54-34.65,7.2-41.01,3.31-12.62,8.73-24.27,16.43-34.78,5.13-7.01,10.43-13.91,16.03-20.56,10.8-12.83,23.99-22.77,38.82-30.49,3.4-1.77,7.27-2.62,11.82-4.21C90.31,6.62,124.79-.01,126.11,0c25.83,.2,51.61,1.07,77.1,5.69,8.03,1.45,41.57,11.87,49.86,16.47,.6,.33,.9,1.78,.79,2.63-.13,.98-15.65,28.61-22.86,41.47-2.82,5.04-2.9,5.03-8.6,2.82-10.06-3.9-20.02-8.07-30.55-10.59-12.82-3.07-25.69-5.6-38.99-5.39-13.17,.2-25.59,3.27-37.09,9.55-10.41,5.69-20.21,12.35-29.42,19.87-3.11,2.54-13.47,20.19-15.78,26.05-2.73,6.92-2.7,14.45-3.58,21.76-1.1,9.11,.87,17.8,3.85,26.33,5.07,14.49,11.89,28.13,20.26,40.96,1.98,3.04,4.62,5.74,7.31,8.21,10.29,9.43,33.54,30.05,34.69,31.13,1.06,.99,1.36,2.14,.54,3.5-.81,1.35-25.68,46-26.84,47.39-.5,.59-1.78,.54-2.72,.72-.21,.04-.49-.18-.71-.31-35.44-22.27-53.42-36.39-68.94-53.7Z"/>
  </g>
</svg>