<?xml version="1.0" encoding="UTF-8"?>
<svg id="_レイヤー_2" data-name="レイヤー 2" xmlns="http://www.w3.org/2000/svg" viewBox="0 0 174.98 185.4">
  <defs>
    <style>
      .cls-1 {
        fill: #a4a4a4;
      }
    </style>
  </defs>
  <g id="parts">
    <path class="cls-1" d="M174.98,185.36c-32-.1-63.36,.22-95.28-.12-1.45-.1-2.13-.98-1.87-2.51,2.35-11.24,3.53-22.63,4.47-34.06,1.01-11.22-5.99-21.11-8.15-31.86-3.17-12.21-15.9-28.2-25.99-35.69-11.62-8.64-20.82-19.66-29.45-31.16C9.36,37.06,5.97,21.18,.88,6.35,.23,4.08-1.42-.93,2.68,.15c14.25,2.83,28.51,5.67,42.75,8.55,24.08,4.84,48.14,9.86,72.23,14.63,3.18,.82,3.39,1.29,3.3,4.66-.78,22.46-3.02,45.08-.18,67.5,2.78,15.49,7.1,30.8,14.2,44.93,1.86,3.68,3.85,7.19,6.52,10.36,10.6,12.91,19.91,23.97,33.48,34.57Z"/>
  </g>
</svg>