<?xml version="1.0" encoding="UTF-8"?>
<svg id="_レイヤー_2" data-name="レイヤー 2" xmlns="http://www.w3.org/2000/svg" viewBox="0 0 119.04 289.48">
  <defs>
    <style>
      .cls-1 {
        fill: #a4a4a4;
      }
    </style>
  </defs>
  <g id="parts">
    <path class="cls-1" d="M118.96,81.44c0,1.6-.08,2.72,.01,3.82,.76,10.31-5.37,19.24-8.12,28.83-1.17,3.59-3.02,6.68-5.28,9.62-3.82,4.96-7.48,10.03-11.42,14.89-3.07,3.65-6.8,6.77-10.39,9.9-5.02,4.71-10.08,9.38-14.97,14.22-6.21,6.28-11.59,13.34-17.2,20.15-2.58,2.95-4.61,6.37-7.23,9.29-4.48,5.1-8.07,10.82-11.84,16.42-.75,1.12-1.48,2.31-1.9,3.57-1.72,5.12-3.42,10.25-4.92,15.44-1.05,4-1.34,8.22-2.22,12.28-1.29,5.73-.44,11.47,.04,17.21-.1,5.93,1.01,11.71,2.05,17.5,.3,1.69,.53,3.39,.64,5.1,.03,.52-.3,1.25-.71,1.56-3.94,2.7-8.25,4.87-12.36,7.3-1.07,.56-2.8,1.71-3.55,.24-4.47-10.16-6.85-20.99-8.17-31.97-.96-6.27-2.02-12.68-1-19,.64-4.61,1.47-9.18,1.89-13.83,.4-4.4,1.66-8.64,3.55-12.7,4.53-9.73,10.24-18.75,16.19-27.65,2.95-4.43,6.18-8.55,10.06-12.18,10.46-10.55,22.25-19.71,32.53-30.44,5.22-5.83,11.01-11.35,14.67-18.36,6.77-11.55,13.26-23.39,16.22-36.57,.74-2.99,.53-6.1,.56-9.15,.04-1.74-.32-3.36-.91-5.02-1.07-3-1.97-6.07-2.66-9.18-3.24-12.24-12.4-22.1-19.9-31.97-2.62-3.25-5.06-6.64-8.14-9.5-1.7-1.59-3.62-2.95-5.26-4.6-1.16-1.22-1.11-2.11,.18-3.05,6.75-4.48,13.8-8.5,20.66-12.8,.92-.78,2.43-1.27,3.24-.1,5.72,8.29,10.74,17.04,16.16,25.52,3.66,5.97,7.87,11.63,10.23,18.28,6.21,14.63,9.54,20.63,9.27,36.94Z"/>
  </g>
</svg>