<?xml version="1.0" encoding="UTF-8"?>
<svg id="_レイヤー_2" data-name="レイヤー 2" xmlns="http://www.w3.org/2000/svg" viewBox="0 0 217.38 157.98">
  <defs>
    <style>
      .cls-1 {
        fill: #a4a4a4;
      }
    </style>
  </defs>
  <g id="parts">
    <path class="cls-1" d="M213.02,106.35c-4.1-.66-7.65-1.39-11.22-1.79-9.79-1.09-49.86-5.52-60.2-5.93-7.08-.28-14.12-1.47-21.19-2.2-2.06-.21-31.13-.48-33.63-.56-3.15-.1-5.08,1.43-6.94,3.69-4.37,5.32-25.85,30.45-32,37.88-4.98,6.01-9.83,12.11-14.78,18.14-.72,.87-1.59,1.68-2.54,2.27-.43,.27-1.28,.01-1.87-.2-.38-.14-.69-.6-.93-.98-1.1-1.75-2.25-3.48-3.23-5.3-4.9-9.11-19.88-37.06-22.49-41.91-.65-1.21-1.27-2.45-1.79-3.73-.54-1.3-.05-2.22,1.33-2.55,3.57-.85,7.11-1.86,10.72-2.46,15.66-2.59,30.8-7.24,45.96-11.75,6.59-1.96,13.05-4.38,19.6-6.49,2.93-.95,5.37-2.47,7.4-4.81,6.18-7.1,63.9-70.69,69.4-76.55,1.55-1.65,2.45-1.49,3.82,.46,1.06,1.5,17.96,30.99,25.37,44.22,3.66,6.53,28.57,51.07,33.48,59.74,.34,.6-.15,1.33-.84,1.24l-3.41-.44Z"/>
  </g>
</svg>