<?xml version="1.0" encoding="UTF-8"?>
<svg id="_レイヤー_2" data-name="レイヤー 2" xmlns="http://www.w3.org/2000/svg" viewBox="0 0 121.86 198.69">
  <defs>
    <style>
      .cls-1 {
        fill: #a4a4a4;
      }
    </style>
  </defs>
  <g id="parts">
    <path class="cls-1" d="M13.3,56.99c7.64-13.13,16.25-26.06,28.89-34.89,5.98-4.11,12.05-8.15,18.95-10.48,4.62-1.7,9.19-3.63,13.93-4.88,4.75-1.25,9.68-1.79,14.53-2.66C98.82,2.12,108.08,.29,117.55,.09c1.71-.11,5.38-.52,4.01,2.26-.9,1.65-1.9,3.21-3.4,4.47-11.48,10.49-22.8,21.73-30.77,35.17-1.18,1.99-2.86,3.71-3.83,5.79-1.89,4.04-4.68,7.62-5.68,12.13-1.6,7.18-2,14.3-.66,21.57,1.5,8.56,2.27,17.24,3.98,25.78,2.39,12.67,5.01,25.37,5.4,38.29,.02,5.01-1.08,10.12-1.8,15.11-.42,2.3-1.08,4.48-2.32,6.52-1.38,2.18-2.04,4.82-3.48,6.97-9.72,12.34-22.48,25.25-39.41,24.52-.82,.04-1.78-.22-2.47-.66-3.17-2.02-6.3-4.15-9.26-6.45-4.14-2.52-7.39-6.02-10.69-9.49-2.88-3.03-4.29-6.91-5.79-10.65-5.31-12.31-7.81-25.5-9.82-38.69-1.17-6.86-1.96-13.81-1.32-20.77,.61-11.32,1.63-22.59,3.4-33.79,.65-8.03,5.76-14.42,9.65-21.18h.02Z"/>
  </g>
</svg>