<?xml version="1.0" encoding="UTF-8"?>
<svg id="_レイヤー_2" data-name="レイヤー 2" xmlns="http://www.w3.org/2000/svg" viewBox="0 0 136.73 255.7">
  <defs>
    <style>
      .cls-1 {
        fill: #a4a4a4;
      }
    </style>
  </defs>
  <g id="parts">
    <path class="cls-1" d="M.08,137.39c5.91-23.29,16.2-45.33,24-68.06,6.24-13.07,23.61-52.74,24.5-59.64,2.14-3.28,1.41-9.02,6.42-9.65,3.82-.48,5.4,3.85,7.45,6.44,13.06,16.47,27.49,31.97,38.91,49.62,14.37,22.2,39.53,75.39,34.78,94.94-7.18,30.98-21.36,58.86-38.22,85.46-3.98,6.28-9.22,11.77-12.7,18.48-2.24,1.72-4.95,.1-6.57-2.21-16.15-16.98-32.14-34.12-48.5-50.9C21.08,192.56-1.48,163.58,.08,137.39Z"/>
  </g>
</svg>