<?xml version="1.0" encoding="UTF-8"?>
<svg id="_レイヤー_2" data-name="レイヤー 2" xmlns="http://www.w3.org/2000/svg" viewBox="0 0 78.04 188.42">
  <defs>
    <style>
      .cls-1 {
        fill: #a4a4a4;
      }
    </style>
  </defs>
  <g id="parts">
    <path class="cls-1" d="M0,.25C8.13,.16,15.82,.05,23.52,0c3.56-.02,7.13,.12,10.69,.13,10.26,.03,20.51,.01,30.77,.06,4.03,.02,4.09,.08,4.3,4.21,1.43,28.54,6.47,126.44,7.46,146.86,.23,4.78-.27,9.6-.06,14.39,.19,4.47,.98,8.9,1.27,13.37,.28,4.27,.16,4.43-3.79,4.78-18.03,1.57-36.07,2.98-54.1,4.6-2.89,.26-3.37-1.12-3.57-3.38-.77-9.01-1.6-18.02-2.42-27.02C11,123.94,.25,5.11,0,.25Z"/>
  </g>
</svg>