<?xml version="1.0" encoding="UTF-8"?>
<svg id="_レイヤー_2" data-name="レイヤー 2" xmlns="http://www.w3.org/2000/svg" viewBox="0 0 109.34 361.15">
  <defs>
    <style>
      .cls-1 {
        fill: #a4a4a4;
      }
    </style>
  </defs>
  <g id="parts">
    <path class="cls-1" d="M107.24,0c1.43,9.09,1.37,17.7,2.08,26.77,.1,1.61-.41,2.73-1.88,3.51-19.92,10.51-39.85,24.03-49.85,44.89-8.13,14.4-12.13,30.4-16.16,46.3-3.4,13.12-2.81,26.87-4.12,40.3-2.83,30.82-8.83,61.26-11.69,92.08-.98,9.69-7.24,90.16-8.73,105.25-.26,1.66-.9,2.25-2.43,2.02-4.65-.72-9.3-1.51-13.94-2.35-3.05-.73,8.03-197.81,9.17-228.43,1.53-15.28,4.95-30.36,6.36-45.65,.88-8.74,4.4-16.13,8.92-23.21,6.41-10.01,13.14-19.82,19.76-29.69,2.17-3.23,4.26-6.53,6.67-9.57,1.08-1.36,2.76-2.43,4.37-3.16,7.09-3.22,14.15-6.58,21.43-9.31,10.04-3.49,19.63-7.11,30.02-9.72Z"/>
  </g>
</svg>