<?xml version="1.0" encoding="UTF-8"?>
<svg id="_レイヤー_2" data-name="レイヤー 2" xmlns="http://www.w3.org/2000/svg" viewBox="0 0 217.51 284.33">
  <defs>
    <style>
      .cls-1 {
        fill: #a4a4a4;
      }
    </style>
  </defs>
  <g id="parts">
    <path class="cls-1" d="M207.7,104.18c2.37,8.41,9,32.97,9.53,36.89,1.02,7.49-.79,14.64-3.46,21.55-1.94,5-8.26,31.46-11.12,37.14-3.58,7.09-11.43,16.86-16.95,22.31-14.16,13.98-24.93,23.02-45.7,34.31s-36.62,21.92-46.81,26.55c-2.89,1.91-3.3,1.89-5.69-.25-12.28-11.03-24.75-21.87-36.75-33.2-7.22-6.81-13.9-14.22-20.44-21.71-6.27-7.18-12.21-14.63-17.28-22.78-4.8-7.71-7.83-15.92-9.93-24.72-2.27-9.53-4.43-32.29-2.06-45.32,4.98-27.31,20.25-53.86,27.56-64.37,3.19-4.59,6.78-8.8,10.54-12.92,11.71-12.8,24.81-24.11,37.86-35.48C85.27,14.98,104.76,1.26,105.62,.76c1.68-.96,3.38-1.05,5.1-.07,2.07,1.18,4.19,2.3,6.23,3.54,6.63,4.01,32.3,19.88,37.51,25.21,7.38,7.54,15.07,14.77,22.47,22.29,4.04,4.11,7.89,8.42,11.54,12.87,1.73,2.11,9.38,16.98,11.87,21.94,2.89,5.74,4.8,11.77,7.35,17.64Z"/>
  </g>
</svg>