<?xml version="1.0" encoding="UTF-8"?>
<svg id="_レイヤー_2" data-name="レイヤー 2" xmlns="http://www.w3.org/2000/svg" viewBox="0 0 400.93 96.2">
  <defs>
    <style>
      .cls-1 {
        fill: #a4a4a4;
      }
    </style>
  </defs>
  <g id="parts">
    <path class="cls-1" d="M278.53,87.88c-5.03-3.96-9.81-7.77-14.65-11.52-6.8-5.28-13.6-10.56-20.47-15.74-2.39-1.8-2.44-1.62-4.8,.01-12.82,8.86-25.65,17.71-38.5,26.51-3.79,2.6-3.89,2.58-7.55-.04-9.01-6.44-31.97-22.96-34.54-24.64-2.46-1.61-3-1.61-5.39,.44-5.14,4.4-28.74,25.38-35.52,31.34-2.87,2.52-3.22,2.55-6.42,.51-11.4-7.28-35.27-24.17-37.33-25.51-1.14-.74-2.3-.74-3.42,.11-.98,.74-33.44,22.76-34.79,23.69-1.74,1.21-2.24,1.18-3.73-.22-1.64-1.54-20.83-21.78-28.82-30.31-.84-.9-1.77-1.76-2.37-2.8-.33-.57-.28-1.58,0-2.22,.31-.7,35.8-33.71,36.25-34.13,1.01-.95,2.05-1.25,3.26-.3,.8,.63,20.34,14.18,29.16,20.53,2.33,1.68,4.15,1.92,6.6,.2,8.88-6.27,33.58-23.19,36.9-25.6,1.53-1.11,2.98-1.18,4.52-.12,1.01,.7,33.24,21.06,34.3,21.69,1.59,.95,3.05,.8,4.57-.26,2.52-1.75,38.76-27.58,39.6-28.17,1.16-.83,2.25-.68,3.37,.15,1.81,1.34,3.65,2.65,5.51,3.93,10.8,7.45,21.62,14.86,32.39,22.35,2.14,1.49,4.03,1.53,6.19,.05,8.97-6.13,25.02-18.42,31.4-22.93,3.46-2.45,2.48-2.62,8.05,.37,11.99,6.42,19.57,10.84,32.05,18.38,3.02-2.11,31.52-30.46,33.92-32.7,1.31-1.23,2.3-1.18,3.84-.1,8,4.43,47.62,28.87,48.55,29.93,.38,.44,.35,1.55,.07,2.17-.31,.7-43.29,40.42-44.04,41.12-1.24,1.16-2.57,1.14-3.91,.24-6.63-4.46-28.75-20.02-33.23-23.26-2.08-1.51-2.41-1.48-4.17,.25-6.29,6.17-35.12,34.98-36.84,36.61Z"/>
  </g>
</svg>