<?xml version="1.0" encoding="UTF-8"?>
<svg id="_レイヤー_2" data-name="レイヤー 2" xmlns="http://www.w3.org/2000/svg" viewBox="0 0 114.67 142.22">
  <defs>
    <style>
      .cls-1 {
        fill: #a4a4a4;
      }
    </style>
  </defs>
  <g id="parts">
    <path class="cls-1" d="M1.32,141.47c-1.08-1.22-1.42-2.53-1.3-4.1,.31-8.05,.36-16.09,.18-24.14,.57-20.79,.12-41.59,.34-62.38-.16-15.72,.55-31.45,.49-47.17C1.17,.85,1.14-.09,4.77,0c14.79,.32,29.59,.4,44.38,.86,2.88-.14,4.64,.98,5.79,3.85,7.73,19.06,15.84,37.96,23.61,57,10.64,26.17,24.33,50.98,35.61,76.88,1.77,3.68-1.51,3.7-4.29,3.59-36.19,.09-72.37-.45-108.56-.72Z"/>
  </g>
</svg>