<?xml version="1.0" encoding="UTF-8"?>
<svg id="_レイヤー_2" data-name="レイヤー 2" xmlns="http://www.w3.org/2000/svg" viewBox="0 0 192.97 397.52">
  <defs>
    <style>
      .cls-1 {
        fill: #a4a4a4;
      }
    </style>
  </defs>
  <g id="parts">
    <path class="cls-1" d="M75.03,320.51c-8.51-3.18-17-8.81-22.22-16.77-1.28-1.51-1.37-3.47-1.08-5.29,1.99-19.35,7.72-24.72,19.36-39.11,5.6-7.06,11.55-13.81,18.03-20.09,1.63-1.84,4.43-3.98,2.98-6.73-9.15-17.41-32.17-16.25-47.63-25.13-8.58-5.01-28.75-13.44-24.09-25.91,3.42-7.84,6.66-16.02,12.97-22.05,7.41-7.35,15.18-14.33,22.77-21.5,3.13-4.35,17.87-12.64,12.25-18-2.54-3.45-6-5.35-10.35-5.87-12.94-5.12-26.35-8.86-39.18-14.25-26.18-12.36-22.6-29.08-4.36-47.43C31.22,35.1,53.63,25,73.8,12.33,98.42,6.14,124.26,3.71,149.51,.52c8.47-.18,18.32-2.28,25.52,3.43,3.74,2.35,8.73,3.16,10.37,7.99,3.17,7.08,5.78,16.06,.76,22.87-4.84,6.21-8.78,13.54-14.99,18.47-14.9,11.55-33.48,19.46-44.26,35.38-2.17,5.31,.61,11.82,5.3,15.04,12.17,8.13,33.92,18.6,18.54,35.02-7.05,7.43-14.2,14.73-22.22,21.14-7.59,6.13-15.19,13.94-7.42,24.16,8.37,12.49,24.92,14.59,35.59,24.32,20.35,18.29-2.64,38.37-14.66,53.5-2.62,4.12-8.01,8.21-4.62,13.33,2.81,6.96,7.36,12.83,13.81,16.73,17.77,11.47,41.14,15.28,41.75,41.38-1.81,23.12-22.63,37.81-41.95,47.18-11.96,5.82-23.86,11.85-36.89,15.06-16.13,1.98-35.06,4.53-49.9-3.62-6.87-4.64-13.15-11.09-11.96-19.92,3-11.35,14.04-18.75,23.86-24.13,4.56-2.31,9.01-4.84,13.46-7.34,2.39-1.34,3.28-3.58,2.73-6.24-1.61-8.74-10.13-10.44-17.29-13.77Z"/>
  </g>
</svg>