<?xml version="1.0" encoding="UTF-8"?>
<svg id="_レイヤー_2" data-name="レイヤー 2" xmlns="http://www.w3.org/2000/svg" viewBox="0 0 205.78 223.91">
  <defs>
    <style>
      .cls-1 {
        fill: #a4a4a4;
      }
    </style>
  </defs>
  <g id="parts">
    <path class="cls-1" d="M121.1,89.12c23.02-8.17,44.78-19.03,69.08-22.88,2.13-.41,4.02,.05,5.62,1.64,2.61,2.6,5.29,5.13,7.93,7.7,1.94,1.89,2.52,4.06,1.66,6.71-2.39,7.43-4.62,14.9-10.01,20.91-1.77,1.97-19.28,24.1-27.7,31.9-13.07,12.13-26.16,24.25-39.18,36.41-3.67,2.66-4.71,6.33-4.71,10.73,0,12.5-.27,25-.45,37.5-.04,2.98-.15,3.25-2.98,3.47-10.13,.8-8.39,2.82-9.7-7.66-.81-6.5-1.46-30.81-7.31-32.17-22.56-5.42-43.7-15.34-64.64-25.11-12.82-6.75-25.87-13.54-36.98-22.97-3.24-3-1.29-8.6,.54-11.97,5.17-8.09,11.77-14.04,21.73-15.58,12.55-1.93,25.04-4.29,37.58-6.32,3.27-.73,1.32-4.72,.84-6.9-3.44-11.38-14.97-48.13-13.83-55.63,.25-1.79,.3-4.97,2.86-4.5,3.49,.78,6.4,2.17,8.18,5.73,4.02,8.07,14.35,29,16.52,29.86,1.26,.12,1.49-1.14,1.79-2.09,4.33-13.9,8.73-27.77,13.32-41.58,2.43-7.25,6.22-13.8,10.94-19.81,3.66-4.56,13.56-10.97,15.74-2.02,3.01,9.81,4.93,19.93,3.8,30.24-2.36,18.24-2.57,36-.64,54.38Z"/>
  </g>
</svg>