<?xml version="1.0" encoding="UTF-8"?>
<svg id="_レイヤー_2" data-name="レイヤー 2" xmlns="http://www.w3.org/2000/svg" viewBox="0 0 69.74 253.56">
  <defs>
    <style>
      .cls-1 {
        fill: #a4a4a4;
      }
    </style>
  </defs>
  <g id="parts">
    <path class="cls-1" d="M27.72,242.73c-4.93,2.92-9.83,5.91-14.85,8.67-1.75,.96-3.78,1.65-5.76,1.92-5.57,.75-5.67,.07-6.75-5.51-1.16-5.98,.5-10.26,5.08-14.04,3.14-2.6,5.81-5.76,8.65-8.71,7.05-8.53,6.76-20.67,6.4-31.14-.36-6.95-.65-13.95-2.57-20.68-5.46-20.82-10.91-41.64-14.42-62.92-1.44-9.27-.78-18.41,.61-27.52,1.26-15.54,8.29-29.03,16.29-41.95C28.66,25.25,43.75,15.23,56.04,3.04c5.29-4.67,8.56-3.96,12.27,2.08,1.79,2.91,1.88,5.82,.43,8.78-8.12,18.94-24.58,32.01-35.51,49.13-3.64,5.24-6.46,10.73-7.45,17.28-1.6,11-2.65,21.97-1.95,33.07,2.77,13.17,7.83,25.87,11.49,38.84,4.37,14.11,8.31,28.32,10.9,42.88,.93,5.26,1.66,10.52,1.11,15.89-.45,4.37-1.68,8.34-4.43,11.9-3.38,4.37-6.48,8.96-9.66,13.49l-5.51,6.35Z"/>
  </g>
</svg>