<?xml version="1.0" encoding="UTF-8"?>
<svg id="_レイヤー_2" data-name="レイヤー 2" xmlns="http://www.w3.org/2000/svg" viewBox="0 0 89.21 180.24">
  <defs>
    <style>
      .cls-1 {
        fill: #a4a4a4;
      }
    </style>
  </defs>
  <g id="parts">
    <path class="cls-1" d="M8.27,162.79c-3.59-4.22-5.92-8.92-6.77-14.25-4.28-16.6,1.48-33.2,6.48-48.99,2.73-7.42,4.14-15.31,8.11-22.3,1.08-1.9,1.44-4.21,2.15-6.33,4.23-10.47,10.95-19.67,16.63-29.37C43.32,27.34,53.03,13.99,63.21,1.12c1.91-4.19,21.14,4.57,24.01,6.77,2.3,1.33,2.6,2.55,.94,4.27-1.85,1.9-3.61,3.84-5.26,5.94-6.67,7.38-13.85,14.46-20.53,21.84-11.08,15.89-19.38,34.23-24.99,52.81-3.14,12.04-7.76,24.48-5.79,37.12,1.47,5.32-.64,12.12,4.55,15.77,6.17,4.69,12.9,8.48,19.3,12.79,1.44,.63,3.18,1.66,2.27,3.55-1.91,4.28-3.83,8.59-5.76,12.85-.64,1.91-.65,4.46-2.6,5.27-12.17,1.02-23.69-4.51-34.22-9.85-3.26-1.59-5.03-4.73-6.85-7.48Z"/>
  </g>
</svg>