<?xml version="1.0" encoding="UTF-8"?>
<svg id="_レイヤー_2" data-name="レイヤー 2" xmlns="http://www.w3.org/2000/svg" viewBox="0 0 104.9 71.02">
  <defs>
    <style>
      .cls-1 {
        fill: #a4a4a4;
      }
    </style>
  </defs>
  <g id="parts">
    <path class="cls-1" d="M60.46,55.24c6.03,.57,12.08,.93,18.09,1.62,3.89,.45,7.73,1.38,11.61,2.03,1.7,.28,3.34,.65,4.78,1.67,.94,.66,1.64,1.48,2.08,2.54,.38,.92,.05,1.57-.95,1.77-2.57,.51-5.17,.95-7.73,1.53-7.61,1.74-15.34,2.58-23.09,3.34-2.31,.22-4.61,.54-6.91,.83-4.94,.6-9.88,.59-14.82,.15-4.12-.37-8.22-.91-12.34-1.32-.93-.09-1.76-.28-2.53-.85-4.63-3.42-8.44-7.53-10.83-12.83-.41-.92-1.74-4.52-2.18-5.32-.88-1.61-2.17-2.52-4.11-2.64-2.71-.17-9.13-1-9.61-1.13-1.73-.47-2.32-1.52-1.68-3.2,.82-2.11,2.44-3.43,4.55-4.14,2.11-.7,4.21-1.44,6.35-2.01,2.02-.54,3.65-1.49,5.04-3.11,2.9-3.37,5.96-6.59,8.96-9.87,2.61-2.85,5.51-5.28,9.03-7.03,3.88-1.93,7.58-4.22,11.37-6.35,4.07-2.28,8.48-3.79,12.8-5.49,6.22-2.44,12.82-2.73,19.33-3.47,2.71-.31,18.02-1.46,22.95-1.92,1.06-.1,2.04-.02,2.84,.7,1.93,1.73,1.87,2.52-.22,3.64-2.03,1.08-4.26,1.85-6.47,2.55-5.29,1.68-10.69,3.06-15.93,4.9-5.24,1.83-10.59,3.38-15.65,5.71-1.74,.8-3.57,1.41-5.33,2.16-1.92,.82-3.21,2.4-4.5,3.95-.31,.38-.13,1.14,.32,1.29,1.05,.34,2.11,.8,3.18,.86,2.92,.14,5.85,.32,8.77-.22,1.49-.28,3.01-.39,4.51-.59,4.71-.64,9.4-1.26,14.18-.54,1.78,.27,3.63,.19,5.45,.17,2.93-.04,5.27,1.25,7.34,3.13,1.58,1.42,1.5,3.59,0,5.07-2.25,2.23-5.06,3.3-8.07,3.88-8.24,1.57-16.5,3.03-24.73,4.65-4.16,.82-8.37,1.44-12.38,2.89-.57,.21-1.15,.39-1.7,.64-1.48,.68-1.6,.89-1.52,2.55,.06,1.21,.13,2.42,.22,3.63,.12,1.47,.86,2.45,2.35,2.77,.29,.06,5.01,1.21,7.11,1.41Z"/>
  </g>
</svg>