<?xml version="1.0" encoding="UTF-8"?>
<svg id="_レイヤー_2" data-name="レイヤー 2" xmlns="http://www.w3.org/2000/svg" viewBox="0 0 190.54 60.93">
  <defs>
    <style>
      .cls-1 {
        fill: #a4a4a4;
      }
    </style>
  </defs>
  <g id="parts">
    <path class="cls-1" d="M135.64,60.23c-34,.2-68,.32-101.99,.7-5.13,.06-9.63-.97-13.83-3.77-3.05-2.03-6.23-3.89-9.21-6.02C-4.07,40.73-2.07,21.69,7.85,12.83c3.1-2.76,6.12-5.67,9.52-8.01C23.75,.16,31.31-.75,39.05,.52c35.42,1.18,70.84,2.68,106.24,4.28,8.83,1.01,18.65-1.77,26.55,3.24,9.42,5.1,15.04,9.04,18.12,19.85,1.08,3.61,.67,6.76-1.25,9.78-16.45,24.58-26.27,22.23-53.07,22.09,0,.15,0,.3,0,.46Z"/>
  </g>
</svg>