<?xml version="1.0" encoding="UTF-8"?>
<svg id="_レイヤー_2" data-name="レイヤー 2" xmlns="http://www.w3.org/2000/svg" viewBox="0 0 66 201.9">
  <defs>
    <style>
      .cls-1 {
        fill: #a4a4a4;
      }
    </style>
  </defs>
  <g id="parts">
    <path class="cls-1" d="M65.96,41.51c-.76,5.45-1.52,10.9-2.29,16.35-.81,5.68-2.15,11.22-3.82,16.71-.82,2.71-1.12,5.6-1.48,8.43-.77,6.08-1.77,12.15-2.03,18.26-.17,4.02,.62,8.12,1.31,12.12,.59,3.41,1.67,6.74,2.5,10.11,2.73,11.01,4.02,22.23,2.66,33.47-1.2,9.92-3.03,19.83-8.29,28.68-2.19,3.69-4.16,7.52-6.16,11.32-1.27,2.42-3.23,3.48-5.92,3.69-3.86,.3-7.69,.97-11.55,1.21-5.65,.36-10.35-2.11-14.48-5.67-2.48-2.14-4.75-4.53-6.97-6.94-2.23-2.42-3.94-5.09-4.62-8.48-1.19-6.01-3.13-11.88-4.06-17.91-1.49-9.61-.91-19.18,2.52-28.42,2.71-7.29,5.5-14.55,9.35-21.35,2.78-4.91,3.64-10.43,4.63-15.82,.65-3.56,.32-7.2-1.32-10.79-2.89-6.32-5.29-12.86-7.81-19.34-1.78-4.6-2.96-9.35-2.95-14.34,.01-5.53-.22-11.07,.03-16.59,.21-4.68,.35-9.5,1.56-13.98C9.13,13.53,13.63,6.11,21.89,1.49,25-.24,28.2-.11,31.45,.16c8.66,.73,16.1,4.3,22.64,9.93,3.34,2.88,5.8,6.47,7.34,10.46,2.57,6.68,4.89,13.51,4.53,20.95Z"/>
  </g>
</svg>