<?xml version="1.0" encoding="UTF-8"?>
<svg id="_レイヤー_2" data-name="レイヤー 2" xmlns="http://www.w3.org/2000/svg" viewBox="0 0 107.99 180.06">
  <defs>
    <style>
      .cls-1 {
        fill: #a4a4a4;
      }
    </style>
  </defs>
  <g id="parts">
    <path class="cls-1" d="M28.7,180.06C16.97,136.79,9.72,92.85,1.22,48.92c-1.72-10.94-1.53-22.92,.03-33.1C1.99,10.96,3.47,7.59,7.04,4.95,12.39,1.01,18.61-.19,25.11,.19c10.87-.49,16.94,27.78,27.4,18.94,4.65-6.01,9.91-11.64,16.76-15.11,7.12-3.74,14.62-5.49,22.51-2.5,9,3.41,14.2,10.14,16.14,19.39,.3,1.43-.34,3.23-1.01,4.65-25.95,51.78-51.63,102.93-78.2,154.5Z"/>
  </g>
</svg>