<?xml version="1.0" encoding="UTF-8"?>
<svg id="_レイヤー_2" data-name="レイヤー 2" xmlns="http://www.w3.org/2000/svg" viewBox="0 0 80.9 177.23">
  <defs>
    <style>
      .cls-1 {
        fill: #a4a4a4;
      }
    </style>
  </defs>
  <g id="parts">
    <path class="cls-1" d="M33.66,.29c-1.17,25.44-6.78,50.66-9.2,76.05-1.56,15.58,2.58,40.71,15.46,51.02,12.85,10.45,23.8,23.22,37.37,32.83,3,2.15,4.5,4.36,3.06,8.24-1.04,2.81-1.2,5.94-3.21,8.81-17.48-9.01-35.25-18.3-47.95-33.72-7.21-8.65-14.29-17.45-20.97-26.53C1.27,107.37-.89,96.49,.32,84.92,3.31,59.07,5.32,33.07,9.95,7.44c.57-3.32,1.15-3.88,4.18-4.39C20.37,2,26.62,1.01,32.87,0c.18-.03,.38,.13,.79,.28Z"/>
  </g>
</svg>