<?xml version="1.0" encoding="UTF-8"?>
<svg id="_レイヤー_2" data-name="レイヤー 2" xmlns="http://www.w3.org/2000/svg" viewBox="0 0 274.31 282.66">
  <defs>
    <style>
      .cls-1 {
        fill: #a4a4a4;
      }
    </style>
  </defs>
  <g id="parts">
    <path class="cls-1" d="M.08,132.33c.11-11.06-.81-22.24,2.6-32.92,5.21-19.93,13.27-39.6,27.23-55.08,6.23-6.48,11.33-14.18,19.27-18.75C81.61,5.44,127.61-5.59,165.16,2.88c13.18,2.59,25.46,7.76,37.48,13.48,7.75,3.69,15.29,7.97,21.82,13.67,6.42,5.71,12.66,11.66,18.05,18.37,3.74,4.19,6.03,9.28,8.48,14.19,8.32,17.73,17.39,35.53,20.73,55,1.28,8.25,1.72,16.67,2.52,25,.62,14.3-3.32,28.45-6.56,42.26-3.28,12.72-7.73,25.02-13.1,37-2.82,6.59-5.35,13.34-9.61,19.18-3.74,5.13-7.48,10.26-11.02,15.53-2.4,3.58-5.7,5.89-9.53,7.46-14.79,6.06-29.85,11.34-45.37,15.26-25.12,5.45-51.74,4.2-76.43-3.06-4.48-1.43-9.05-2.59-13.59-3.81-9.26-2.47-17.42-7.12-25.06-12.74-17.94-12.57-31.21-30.02-45.29-46.52-4.11-4.79-6.46-10.51-8.28-16.36C5.24,179.68-.09,162.07,0,144.02c.1-3.89,.02-7.79,.02-11.69H.08Z"/>
  </g>
</svg>