<?xml version="1.0" encoding="UTF-8"?>
<svg id="_レイヤー_2" data-name="レイヤー 2" xmlns="http://www.w3.org/2000/svg" viewBox="0 0 226.78 308.47">
  <defs>
    <style>
      .cls-1 {
        fill: #a4a4a4;
      }
    </style>
  </defs>
  <g id="parts">
    <path class="cls-1" d="M29.47,247.94c3-6.47,7.67-11.59,12.52-16.63,4.95-5.16,9.66-10.55,14.43-15.89,.67-.75,1.18-1.68,1.54-2.62,.11-.28-.53-1.24-.81-1.24-2.65,.09-5.34,.1-7.95,.54-8.95,1.48-17.93,1.65-26.96,1.01-3.92-.28-7.72-.86-11.26-2.7-6.3-2.27-9.42-2.73-10.95-10.03-.32-3.73,2.52-6.98,5.48-8.96,8.6-5.56,17.18-11.17,25.77-16.75,10.63-6.57,20.91-13.7,31.39-20.51,1.19-.79,2.35-1.64,3.42-2.58,2.22-2.41-5.13-4.57-6.43-5.99-6.45-4.87-14.09-7.27-21.3-10.61-7.43-3.43-14.58-7.51-21.67-11.62-3.86-2.23-5.17-6.25-5.27-10.54-.06-2.78,1.75-4.51,4.08-5.66,5.33-2.62,10.68-5.21,16.05-7.74,4.84-2.28,10-3.51,15.2-4.78,10.15-2.47,20.2-5.41,30.27-8.2,1.33-.39,1.61-1.69,.38-2.47-10.24-6.82-19.63-14.72-28.68-23.01-2.52-2.31-4.58-5.22-6.46-8.11-1.82-2.8-1.49-4.03,.66-6.59,2.21-2.79,3.72-4.7,7.63-3.84,10.84,2.13,21.67,4.39,32.59,6.06,2.62,.39,3.05-.13,3.76-2.86,3.35-13.51,6.08-27.32,13.81-39.16,12.34-16.17,28.32,1.4,30.69,15.79,4.39,11.72,6.87,24.05,8.38,36.45,.21,1.09,.99,1.87,2.16,1.79,1.83-.13,3.68-.28,5.46-.69,6.39-1.5,12.85-2.45,19.41-2.93,11.21-.7,22.57,1.23,33.29,4.43,4.37,1.93,12.85,3.99,10.32,10.33-.45,1.33-1.17,2.67-2.1,3.7-8.36,9.32-17.32,17.98-27.99,24.68-5.21,3.52-11.15,6.24-16.05,10.12-1.18,2.26,1.6,3.15,3.21,3.88,5.28,2.21,10.72,4.08,15.82,6.63,4.25,2.13,8.66,3.7,13.12,5.16,2.02,.66,3.64,1.59,5.21,2.99,6.23,5.99,15.01,10.35,17.34,19.3,.84,2.77-2.77,3-4.57,3.75-11.16,3.62-22.46,6.11-34.34,5.93-7.55-.03-15.15,.8-22.68,1.49-1.38,.33-3.15,.45-3.27,2.2-.05,2.93,2.9,4.9,5.29,6.02,7.66,3.42,15.22,7.04,23.21,9.68,6.59,2.18,13.2,4.44,19.5,7.33,7.87,3.62,14.52,9.13,20.54,15.36,2.38,2.47,3.39,5.59,4.02,8.83,1.07,5.85-6.24,5.33-10.13,5.11-13.9-.89-27.8-1.86-41.7-2.8-3.85-.11-7.82-.87-11.62-.1-1.26,.4-2.38,1.87-.94,2.96,3.12,2.31,6.14,4.82,9.5,6.74,10.07,6.05,18.39,14.31,26.03,23.12,5.39,6,7.71,13.45,9.62,21.03,2.35,6.98-9.3,7.78-13.83,6.88-14.13-2.38-27.26-8.62-40.9-12.88-8.8-4.28-18.43-5.48-28.1-5.33-2.63-.04-3.72,1.26-3.31,3.96,.87,5.66,1.83,11.32,2.94,16.94,1.74,8.84,3.8,17.62,5.41,26.48,1.44,7.93,2.19,7.87-6.42,7.55-3.69-.14-7.38-.29-11.06-.54-2.02-.13-2.45-.59-2.71-2.61-.86-6.7-1.63-13.42-2.54-20.12-.55-4.06-1.4-8.07-1.87-12.14-.35-3.01,.23-6.1-.82-9.06-.55-2.39-1.36-5.51-4.47-4.06-12.65,4.8-25.12,10.14-38.55,12.33-4.02,.78-8.06,1.41-12.09,2.15-5.98,1.1-11.86-.16-17.71-1-1.92-.28-3.89-1.46-5.44-2.72-2.93-2.37-3.01-5.75-1.88-8.99,1.61-4.62,3.57-9.12,5.38-13.68Z"/>
  </g>
</svg>