<?xml version="1.0" encoding="UTF-8"?>
<svg id="_レイヤー_2" data-name="レイヤー 2" xmlns="http://www.w3.org/2000/svg" viewBox="0 0 315.78 137.87">
  <defs>
    <style>
      .cls-1 {
        fill: #a4a4a4;
      }
    </style>
  </defs>
  <g id="parts">
    <path class="cls-1" d="M0,.88C.61,.08,1.26-.01,2.16,0,41.29,1.56,248.29,9.86,312.65,12.64c1.45-.09,3.88,0,2.9,2.16-.2,.43-.43,.84-.68,1.25-4.98,8.41-9.95,16.82-14.26,25.61-6.36,11.76-13.65,23.08-20.39,34.65-2.86,4.77-6.57,8.87-10.35,12.9-10.63,10.99-20.46,23.02-33.47,31.33-6.3,6.07-14.37,8.31-22.49,10.43-16.15,4.74-32.83,6.51-49.61,6.88-2.7,.13-5.29-.39-7.93-1.09-7.61-2.04-15.38-3.42-23-5.45-2.59-.68-5.15-1.53-7.77-2.05-3.51-.7-6.41-2.67-9.43-4.33-9.12-5.02-18.15-10.23-26.62-16.28-12.19-9-22.81-19.96-33.86-30.28-8.65-10.44-16.85-21.33-25.18-32.04C22.61,35.67,15.17,24.66,7.72,13.69,5.18,9.89,2.78,5.98,.35,2.1c-.23-.36-.25-.85-.35-1.22Z"/>
  </g>
</svg>