<?xml version="1.0" encoding="UTF-8"?>
<svg id="_レイヤー_2" data-name="レイヤー 2" xmlns="http://www.w3.org/2000/svg" viewBox="0 0 250.26 220.54">
  <defs>
    <style>
      .cls-1 {
        fill: #a4a4a4;
      }
    </style>
  </defs>
  <g id="parts">
    <path class="cls-1" d="M43.47,72.38c-3.23-6.26-7.25-10.98-11.13-16.68-4.64-7.01-7.8-16.85-5.24-25.07,3.47-12.21,2.17-10.37,12.13-16.37,3.86-2.32,7.85-4.43,11.84-6.52,3.51-1.84,7.33-2.6,11.26-2.76,11.48-.46,22.95-.88,34.38,.86,5.62,1,11.7-.41,16.84,2.6,6.37,3.29,12.79,6.49,19.16,9.79,3.4,1.91,6.91-1.78,9.24-4.06,1.27-1.56,2.87-3.04,4.63-3.98,5.41-2.91,10.9-5.69,16.5-8.21,2.19-.99,4.73-1.35,7.15-1.66,2.81-.37,5.79-.94,7.94,1.81,3.34,.47,5.97,2.55,8.9,3.96,6.64,3.78,13.01,11.45,12.73,19.46-.07,2.22,.63,4.45,.91,6.68,.42,3.38,.38,3.44,4.06,4.12,11.61,1.75,23.25,3.56,33.13,10.31,4.19,2.46,7.08,6.22,9.62,10.2,3.44,5.39,3.23,11.34,1.67,17.24-3.14,5.72-9.17,10.08-14.57,13.74-2.92,1.98-4.46,3.07-1.58,5.97,9.4,11.62,17.2,16.66,16.31,32.94-.03,1.02-.5,2.04-.42,3.04,.43,5.1-1.93,9.18-4.82,12.96-4.16,5.44-9.06,9.96-15.74,12.34-7.71,2.8-15.35,5.75-23.65,6.32-5.84,1.48-6.67,1.36-3.64,7.07,4.31,8.14,6.09,16.85,7.08,25.9,1.67,16.11-19.03,30.24-33.66,25.1-14.45-4.43-27.67-11.3-39.06-21.38-2.61-1.67-4.2,2.81-5.75,4.28-3.08,3.92-6.58,7.3-11.35,9.15-5.73,2.23-11.36,4.72-17.15,6.77-12.03,4.47-26.1-7.95-32.6-17.28-5.38-8.08-6.99-16.92-6.45-26.33,1.02-4.95,3.19-9.74,4.32-14.69,.73-2.92,.23-3.74-2.55-4.56-14.57-4.83-30.23-6.44-43.57-14.53-5.6-3.4-10.03-7.72-12.81-13.7-1.47-3.16-2.78-6.45-4.67-9.35C-.69,112.41-.06,106.49,.26,100.58c.06-1.18,.65-2.36,1.14-3.47,3.58-8.28,8.1-15.68,17.27-18.72,8.25-3.25,16.04-4.28,24.8-6Z"/>
  </g>
</svg>