<?xml version="1.0" encoding="UTF-8"?>
<svg id="_レイヤー_2" data-name="レイヤー 2" xmlns="http://www.w3.org/2000/svg" viewBox="0 0 138.56 322.59">
  <defs>
    <style>
      .cls-1 {
        fill: #a4a4a4;
      }
    </style>
  </defs>
  <g id="parts">
    <path class="cls-1" d="M4.68,181.49c4.02-6.56,10.86-10.52,18.42-13.27,8.5-3.09,17.2-5.66,25.72-8.69,11.21-3.99,22.37-8.2,32.22-15.05,5.32-3.7,10.47-7.68,15.48-11.8,5.11-4.2,6.55-9.14,4.28-15.03-5.03-13.04-11.69-25.07-22.22-34.65-7.72-7.03-15.27-14.25-22.82-21.46-6.12-5.85-12.2-11.75-18.15-17.77-1.55-1.57-2.82-3.55-3.73-5.56-.5-1.12-.45-2.95,.14-4.03,2.34-4.27,5.23-8.12,10.1-9.85,6.14-2.17,45.38-15.13,58.35-20.86,1.54-.68,3.08-1.39,4.59-2.14,4.31-2.13,5.51-1.84,8.5,2.11,.17,.23,3.73,6.55,5.37,9.46-2.23,4.3-4.94,8.12-9.13,10.85-4.01,2.61-17.73,13.48-20.66,16.13-3.11,2.81-4.43,6.13-3.96,10.59,.98,9.4,4.25,17.64,11.1,24.15,9.88,9.38,18.31,19.96,26.26,30.96,.99,1.36,2.23,2.54,3.36,3.8,11.31,12.65,12.9,27.14,8.14,42.85-.68,2.24-2.43,2.9-4.37,3.55-12.33,4.16-24.62,8.47-36.98,12.54-12.63,4.16-25.34,8.07-38,12.13-5.39,1.73-10.75,3.55-16.09,5.39-1.59,.55-3.17,1.19-4.63,2.02-1.53,.87-2.09,3.05-1.16,4.45,1.25,1.88,2.57,3.75,4.1,5.4,10.57,11.36,74.04,76.73,81.81,84.52,1.99,2,2.82,4.28,2.25,6.94-2.26,10.51-4.61,21-6.98,31.49-.17,.75-.86,1.96-1.29,1.95-1-.02-2.26-.38-2.96-1.06-21.76-21.43-42.08-44.18-60.79-68.31-6.57-8.47-36.19-45.5-45.22-54.84-.2-.2-.45-.35-.63-.57-6.48-7.9-6.92-7.5-.4-16.32Z"/>
  </g>
</svg>