<?xml version="1.0" encoding="UTF-8"?>
<svg id="_レイヤー_2" data-name="レイヤー 2" xmlns="http://www.w3.org/2000/svg" viewBox="0 0 250.15 235.05">
  <defs>
    <style>
      .cls-1 {
        fill: #a4a4a4;
      }
    </style>
  </defs>
  <g id="parts">
    <path class="cls-1" d="M71.84,89.85c-2.93-6.91-5.74-12.27-7.49-17.95-3.17-10.28-4.54-20.94-3.58-31.7,1.23-13.74,9.08-23.36,20.45-30.23,7.28-4.4,14.98-7.6,23.82-8.38,13.31-1.17,26.72-2.8,39.8-.21,11.82,2.34,23.92,4.74,34.05,12.42,11.12,8.43,22.76,16.17,33.74,24.77,6.15,4.82,11.42,10.76,17.07,16.22,.78,.76,1.86,1.5,2.13,2.45,1.71,6.03,6.8,9.65,10.08,14.54,.72,1.08,1.39,2.24,1.85,3.45,8.43,22.3,9.72,44.24-3.54,65.35-4.13,6.58-7.24,13.75-13.79,18.8-9.5,7.33-19.83,11.72-31.72,13.5-12.78,1.91-25.01,.94-37.11-3.43-3.54-1.28-4.37-.6-4.04,3.23,.35,4.12,1.26,8.19,1.73,12.31,.47,4.11,.78,8.24,1.01,12.37,1.02,18.03-10.35,29.64-26,34.95-9.02,3.07-18.34,3.54-27.77,1.53-9-1.92-17.71-4.63-26.05-8.54-5.93-2.78-11.99-5.28-17.84-8.21-3.49-1.74-6.77-3.95-9.99-6.17-4.13-2.84-8.27-5.69-12.09-8.92-3.3-2.78-6.44-5.86-9.13-9.22-3.95-4.94-7.44-10.24-11.12-15.39C1.41,156.48-2.75,133.29,1.67,108.29c.26-1.48,.68-3.07,1.51-4.28,8.56-12.53,19.51-21.56,35.58-20.52,8.41,.54,16.7,2.97,25.03,4.58,2.27,.44,4.52,1,8.04,1.78Z"/>
  </g>
</svg>