<?xml version="1.0" encoding="UTF-8"?>
<svg id="_レイヤー_2" data-name="レイヤー 2" xmlns="http://www.w3.org/2000/svg" viewBox="0 0 167.51 184.95">
  <defs>
    <style>
      .cls-1 {
        fill: #a4a4a4;
      }
    </style>
  </defs>
  <g id="parts">
    <path class="cls-1" d="M167.38,181.22c-2.81,.17-5.63,.36-8.44,.52-10.64,.6-21.27,1.36-31.92,1.75-17.4,.64-34.81,1.38-52.22,1.45-16.79,.07-33.59-.47-50.36-1.12-6.94-.27-13.84-1.5-20.75-2.35-1.17-.14-2.32-.54-3.32-.78-.67-.36-.34-.96,.19-1.37,.64-.5,1.5-.97,3.07-1.83,31.96-24.49,42.73-49.2,45-53.79,5.36-10.85,10.42-25.07,13.79-33.51s6.21-27.09,6.96-41.05c.72-13.4-.5-26.61-3.5-39.67-.6-2.59-.98-5.23-1.37-7.87-.14-.93,.48-1.6,1.4-1.61,2.87-.04,25.8,.34,34.4,.52,3.07,.07,3.33,.41,2.77,3.12-1.17,5.61-2.5,11.2-3.52,16.84-.73,4.02-1.3,8.1-1.55,12.18-.46,7.36-1.59,13.64-.92,22.1s5.07,34.98,10.62,50.37c2.52,7.01,3.84,11.62,6.83,17.05,5.06,9.19,10.58,18.13,17.42,26,7.37,8.48,15.25,16.62,24.33,23.41,3.75,2.8,7.49,5.63,11.24,8.45-.04,.4-.09,.79-.13,1.19Z"/>
  </g>
</svg>