<?xml version="1.0" encoding="UTF-8"?>
<svg id="_レイヤー_2" data-name="レイヤー 2" xmlns="http://www.w3.org/2000/svg" viewBox="0 0 79.79 112.48">
  <defs>
    <style>
      .cls-1 {
        fill: #a4a4a4;
      }
    </style>
  </defs>
  <g id="parts">
    <g>
      <path class="cls-1" d="M9.16,105c-1.43-1.01-2.83-2.06-4.3-3.01-1.3-.84-1.8-1.97-1.62-3.47,.04-.39,.03-.78,.04-1.17,.06-1.26,.85-2.15,1.64-3,.59-.65,1.44-.41,2.21-.39,4.47,.11,8.89,.54,13.3,1.43,5.43,1.09,10.92,1.9,16.46,2.23,4.94,.29,9.88,.46,14.84,.12,3.87-.26,7.78-.17,11.65,.09,2.5,.16,4.96,.9,7.44,1.39,.86,.17,1.71,.37,2.55,.6,1.27,.35,2.25,1.07,2.89,2.27,.71,1.33,.85,2.59-.23,3.77-.71,.78-1.38,1.65-2.23,2.26-1.65,1.19-3.38,2.28-5.14,3.31-.64,.37-1.46,.6-2.21,.61-8.44,.09-16.88,.72-25.32,.31-5.81-.29-11.65-.28-17.43-1.11-2.71-.39-5.34-1.05-7.84-2.16-1.15-.51-2.28-1.07-3.35-1.73-1.16-.71-2.24-1.55-3.35-2.34h0Z"/>
      <path class="cls-1" d="M78.32,64.77c-1.31,1.22-2.6,1.85-4.09,2.03-7.81,1.1-15.66,1.49-23.54,1.41-10.19,.2-20.39,.83-30.59,.75-4.35-.15-8.69-.98-13.03-1.45-2.71-.14-3.98-2.41-5.31-4.47-3.07-3.75-1.98-9.27,2.23-11.75,6.06-3.55,13.25-5.39,20.26-5.81,2.22-.05,4.42-.66,6.65-.8,2.61-.16,5.24-.09,7.86-.09,8.16-.07,16.34,.15,24.41,1.49,.85,.14,1.76,.31,2.51,.71,3.57,1.96,7.2,3.8,10.45,6.33,2.44,1.83,2.8,4.73,3.49,7.45,.49,1.8,.04,3.27-1.28,4.18Z"/>
      <path class="cls-1" d="M71.09,20.8c-1.27,.5-2.41,1-3.58,1.39-1.1,.36-21.29,1.21-23.42,1.27-4.85,.16-25.02,.68-30.26,.75-.57,0-1.19-.03-1.7-.26-2.87-1.25-5.61-2.77-7.86-4.96-2.42-2.35-3.04-5.34-2.23-8.57,.55-2.19,1.5-4.15,3.28-5.72,1.83-1.61,3.54-3.38,5.98-4C12.8,.33,14.36-.03,15.89,0c4.07,.07,8.13,.4,12.19,.55,2.03,.08,22.2-.01,24.72,.03,4.17,.07,8.33,.12,12.5,.23,.67,.02,1.39,.13,1.98,.42,2.17,1.08,4.47,2.01,6.4,3.44,2.26,1.68,3.34,4.25,3.54,7.09,.08,1.11-1.12,4.48-1.88,6.01-.77,1.53-4.24,3.03-4.24,3.03Z"/>
    </g>
  </g>
</svg>