<?xml version="1.0" encoding="UTF-8"?>
<svg id="_レイヤー_2" data-name="レイヤー 2" xmlns="http://www.w3.org/2000/svg" viewBox="0 0 207.07 280.21">
  <defs>
    <style>
      .cls-1 {
        fill: #a4a4a4;
      }
    </style>
  </defs>
  <g id="parts">
    <path class="cls-1" d="M139.46,4.15c-9,4.17-32.72,19.31-34.37,22.17-7.19,12.41-14.49,24.75-21.09,37.49-3.01,5.8-4.16,11.97-5.09,18.23-1.33,8.92-4.5,44.02-3.97,52.65,.32,5.17,4.56,31.71,9.22,41.78,6.76,14.62,17.04,28.48,26.87,41.15,1.94,2.49,8.6,7.84,11.41,9.24,22.62,11.85,54.45,29.94,77.04,36.86,2.47,.97,5.06,1.61,7.59,2.4l-.07-.12c.2,1.07-.6,1.47-1.34,1.65-11.77,2.87-23.01,7.42-34.6,10.81-4.63,1.35-9.73,1.33-14.63,1.43-18.66,.41-37.31,.58-55.97-.43-5.08-.27-9.58-1.58-13.92-4.08-17.83-10.24-50.66-28.5-61.54-46.27-2.52-5.15-4.87-10.39-7.09-15.68-5.15-12.29-9.05-25.05-13.63-37.55C1.12,167.21-.12,158.46,0,149.41c.12-8.4,.48-16.81,.88-25.2,.62-12.96,3.63-25.55,6.13-38.21,.47-2.36,1.54-4.69,2.73-6.81,8.47-15.12,18.79-28.77,31.41-40.76,6.05-5.75,12.86-10.07,20.08-13.99,9.78-5.31,20.06-9.22,30.79-12.2C104.86,8.68,137.87,.53,141.52,.01c2.04-.29-1.38,3.83-2.05,4.14Z"/>
  </g>
</svg>