<?xml version="1.0" encoding="UTF-8"?>
<svg id="Layer_2" data-name="Layer 2" xmlns="http://www.w3.org/2000/svg" viewBox="0 0 85.5 18.35">
  <defs>
    <style>
      .cls-1 {
        fill: #5c5d5d;
      }
    </style>
  </defs>
  <g id="design">
    <g>
      <path class="cls-1" d="M.6,11.28h.35v2.43h.01c.24-.49,.71-.93,1.3-.93,.36,0,.93,.29,.93,1.15v2.85h-.35v-2.46c0-.5-.07-1.24-.64-1.24-.66,0-1.26,.82-1.26,1.73v1.97h-.35v-5.49Z"/>
      <path class="cls-1" d="M7.45,13.16h-1.44v2.67c0,.38,.14,.73,.62,.73,.44,0,.74-.33,.91-.7l.33,.08c-.24,.5-.67,.91-1.26,.91-.5,0-.96-.24-.96-1.24v-2.46h-.88v-.3h.88v-1.26h.35v1.26h1.44v.3Z"/>
      <path class="cls-1" d="M11.78,13.16h-1.44v2.67c0,.38,.14,.73,.62,.73,.44,0,.74-.33,.91-.7l.33,.08c-.24,.5-.67,.91-1.26,.91-.5,0-.96-.24-.96-1.24v-2.46h-.88v-.3h.88v-1.26h.35v1.26h1.44v.3Z"/>
      <path class="cls-1" d="M14,14.23c0-.47-.04-.95-.18-1.41l.33-.04,.13,.64h.01c.2-.41,.58-.64,1.04-.64,.65,0,1.52,.53,1.52,2.06s-1.01,2.01-1.54,2.01c-.35,0-.7-.12-.96-.33v1.82h-.35v-4.12Zm.35,1.95c.24,.21,.54,.38,.87,.38,.44,0,1.28-.31,1.28-1.74s-.73-1.75-1.18-1.75c-.52,0-.78,.36-.98,.78v2.32Z"/>
      <path class="cls-1" d="M20.86,13.48c-.31-.22-.66-.41-1.05-.41s-.78,.3-.78,.71c0,.46,.51,.67,.87,.81,.6,.23,1.23,.47,1.23,1.23,0,.65-.58,1.04-1.18,1.04-.49,0-1.12-.3-1.47-.63l.19-.28c.32,.32,.84,.61,1.29,.61s.81-.24,.81-.72c0-.58-.45-.75-.92-.93-.54-.21-1.18-.46-1.18-1.15,0-.55,.56-.98,1.15-.98,.45,0,.82,.16,1.18,.41l-.15,.29Z"/>
      <path class="cls-1" d="M23.42,13.4c0-.2,.16-.36,.36-.36s.35,.16,.35,.35c0,.21-.16,.36-.35,.36s-.36-.16-.36-.35Zm0,2.29c0-.2,.16-.35,.36-.35s.35,.16,.35,.35-.16,.36-.36,.36-.35-.16-.35-.36Z"/>
      <path class="cls-1" d="M26.21,16.98l2.19-5.73h.34l-2.19,5.73h-.34Z"/>
      <path class="cls-1" d="M28.47,16.98l2.19-5.73h.34l-2.19,5.73h-.34Z"/>
      <path class="cls-1" d="M35.79,16.48v.3h-2.83c0-1.16,.19-1.6,1.3-2.57,.47-.41,1.16-.95,1.16-1.64,0-.56-.36-.92-.92-.92-.67,0-1.03,.52-1.07,1.14h-.35c.07-.83,.56-1.44,1.43-1.44,.77,0,1.26,.47,1.26,1.24s-.64,1.29-1.17,1.76c-1.11,.99-1.28,1.38-1.29,2.13h2.49Z"/>
      <path class="cls-1" d="M39.94,11.74h-1.92l-.18,2.31c.25-.34,.61-.55,1.04-.55,.74,0,1.4,.57,1.4,1.66,0,.88-.53,1.7-1.49,1.7-.58,0-1.01-.35-1.32-.8l.26-.2c.22,.39,.64,.7,1.1,.7,.66,0,1.09-.64,1.09-1.38,0-1.07-.65-1.39-1.04-1.39-.44,0-.75,.26-.97,.61l-.41-.08,.21-2.87h2.23v.3Z"/>
      <path class="cls-1" d="M44.93,16.5c-.45,.2-.9,.35-1.4,.35-1.15,0-1.57-1.03-1.57-2.02s.44-2.06,1.59-2.06c.66,0,1.44,.47,1.44,2.09h-2.68c.07,1.38,.64,1.69,1.24,1.69,.44,0,.87-.16,1.24-.38l.15,.33Zm-.29-1.92c.04-.67-.36-1.5-1.13-1.5s-1.22,.81-1.2,1.5h2.33Z"/>
      <path class="cls-1" d="M48.27,14.66l1.52,2.12h-.47l-1.25-1.86-1.24,1.86h-.47l1.52-2.1-1.22-1.81h.41l1.01,1.54,.98-1.54h.38l-1.18,1.8Z"/>
      <path class="cls-1" d="M51.4,16.49c0-.2,.16-.35,.35-.35,.21,0,.36,.16,.36,.35s-.16,.36-.35,.36c-.2,0-.36-.16-.36-.36Z"/>
      <path class="cls-1" d="M53.42,12.86h.38l.54,3.38h.01l.69-2.38h.38l.69,2.38h.01l.54-3.38h.38l-.7,3.97h-.38l-.74-2.53-.74,2.53h-.38l-.7-3.97Z"/>
      <path class="cls-1" d="M58.4,14.81c0-1.52,.78-2.04,1.49-2.04,.65,0,1.5,.44,1.5,2.04s-.84,2.04-1.5,2.04-1.49-.44-1.49-2.04Zm2.65,0c0-.76-.19-1.74-1.16-1.74s-1.15,.98-1.15,1.74,.19,1.75,1.15,1.75,1.16-.98,1.16-1.75Z"/>
      <path class="cls-1" d="M62.67,12.86h.38l.54,3.38h.01l.69-2.38h.38l.69,2.38h.01l.54-3.38h.38l-.7,3.97h-.38l-.74-2.53-.74,2.53h-.38l-.7-3.97Z"/>
      <path class="cls-1" d="M67.97,16.49c0-.2,.16-.35,.35-.35,.21,0,.36,.16,.36,.35s-.16,.36-.35,.36c-.2,0-.36-.16-.36-.36Z"/>
      <path class="cls-1" d="M71.17,13.16h-1.14v-.3h1.49v3.92h-.35v-3.62Zm.55-1.43c0,.21-.18,.39-.39,.39s-.38-.17-.38-.39,.17-.38,.38-.38,.39,.17,.39,.38Z"/>
      <path class="cls-1" d="M74.31,16.78h-.35v-1.96c0-.67-.02-1.33-.16-2h.33l.14,1.12h.01c.15-.58,.77-1.16,1.39-1.16,.71,0,.91,.61,.91,1.21v2.79h-.35v-2.63c0-.45,0-1.07-.61-1.07-.56,0-1.33,.56-1.33,2.09v1.61Z"/>
      <path class="cls-1" d="M81.14,16.2c-.36,.39-.74,.66-1.3,.66-.69,0-1.63-.43-1.63-2s.87-2.08,1.61-2.08c.59,0,1.03,.31,1.35,.79l-.31,.21c-.21-.41-.55-.7-1.04-.7s-1.26,.3-1.26,1.72c0,1.35,.71,1.76,1.28,1.76,.43,0,.8-.3,1.07-.61l.24,.25Z"/>
      <path class="cls-1" d="M82.97,16.98l2.19-5.73h.34l-2.19,5.73h-.34Z"/>
    </g>
    <g>
      <path class="cls-1" d="M.76,3.74H0v-.35H.82l.17-1.33H.23v-.35h.82L1.28,.03h.36l-.24,1.68h1.11L2.75,.03h.36l-.24,1.68h.75v.35h-.81l-.18,1.33h.76v.35h-.82l-.24,1.69h-.36l.24-1.69H1.11l-.24,1.69h-.36l.24-1.69Zm1.53-.35l.18-1.33H1.35l-.17,1.33h1.11Z"/>
      <path class="cls-1" d="M8.61,4.86h.02L8.94,.1h.41l-.42,5.38h-.47l-.78-2.68-.77,2.68h-.47L6.04,.1h.41l.31,4.76h.01l.92-2.96,.92,2.96Z"/>
      <path class="cls-1" d="M11.14,2.77c0-1.21,.15-2.77,1.58-2.77,1.57,0,1.56,1.87,1.56,2.77,0,2.26-.71,2.77-1.56,2.77s-1.58-.49-1.58-2.77Zm1.58,2.47c.71,0,1.19-.56,1.19-2.47s-.51-2.47-1.19-2.47c-.77,0-1.21,.64-1.21,2.47,0,1.99,.55,2.47,1.21,2.47Z"/>
      <path class="cls-1" d="M18.6,4.86h.02L18.93,.1h.41l-.42,5.38h-.47l-.78-2.68-.77,2.68h-.47L16.03,.1h.41l.31,4.76h.01l.92-2.96,.92,2.96Z"/>
      <path class="cls-1" d="M24.13,5.14v.3h-2.83c0-1.16,.19-1.6,1.3-2.57,.47-.41,1.16-.95,1.16-1.64,0-.56-.36-.92-.92-.92-.67,0-1.03,.52-1.07,1.14h-.35c.07-.83,.56-1.44,1.43-1.44,.77,0,1.26,.47,1.26,1.24s-.64,1.29-1.17,1.76c-1.11,.99-1.28,1.38-1.29,2.13h2.49Z"/>
      <path class="cls-1" d="M28.21,.4h-1.92l-.18,2.31c.25-.34,.61-.55,1.04-.55,.74,0,1.4,.57,1.4,1.66,0,.88-.53,1.7-1.49,1.7-.58,0-1.01-.35-1.32-.8l.26-.2c.22,.39,.64,.7,1.1,.7,.66,0,1.09-.64,1.09-1.38,0-1.07-.65-1.39-1.04-1.39-.44,0-.75,.26-.97,.61l-.41-.08,.21-2.87h2.23V.4Z"/>
      <path class="cls-1" d="M33.27,5.16c-.45,.2-.9,.35-1.4,.35-1.15,0-1.57-1.03-1.57-2.02s.44-2.06,1.59-2.06c.66,0,1.44,.47,1.44,2.09h-2.68c.07,1.38,.64,1.69,1.24,1.69,.44,0,.87-.16,1.24-.38l.15,.33Zm-.29-1.92c.04-.67-.36-1.5-1.13-1.5s-1.22,.81-1.2,1.5h2.33Z"/>
      <path class="cls-1" d="M36.69,3.32l1.52,2.12h-.47l-1.25-1.86-1.24,1.86h-.47l1.52-2.1-1.22-1.81h.41l1.01,1.54,.98-1.54h.38l-1.18,1.8Z"/>
    </g>
  </g>
</svg>