<?xml version="1.0" encoding="UTF-8"?>
<svg id="Layer_2" data-name="Layer 2" xmlns="http://www.w3.org/2000/svg" viewBox="0 0 80.17 27.18">
  <defs>
    <style>
      .cls-1 {
        fill: none;
        stroke: #757575;
        stroke-miterlimit: 10;
        stroke-width: .43px;
      }

      .cls-2 {
        fill: #5c5d5d;
      }
    </style>
  </defs>
  <g id="design">
    <g>
      <g>
        <path class="cls-2" d="M5.38,0V7.61c0,2.02-1.54,2.83-2.68,2.83C1.29,10.44,0,9.28,0,7.77V0H.67V7.27c0,1.95,.93,2.6,2.03,2.6,1.17,0,2.01-.71,2.01-2.38V0h.67Z"/>
        <path class="cls-2" d="M13.43,.93l-.03,.03V10.25h-.67V0h.97l3.49,8.78,.03-.03V0h.67V10.34h-.7L13.43,.93Z"/>
        <path class="cls-2" d="M26.54,9.68h4.5v.57h-5.17V0h.67V9.68Z"/>
        <path class="cls-2" d="M42.57,.57h-4.34V4.7h3.12v.57h-3.12v4.41h4.44v.57h-5.11V0h5.01V.57Z"/>
        <path class="cls-2" d="M62.49,0h2.43c1.72,0,2.72,1.15,2.72,2.82,0,1.29-.73,2.45-1.98,2.85l2.76,4.58h-.84l-2.55-4.43h-1.88v4.43h-.67V0Zm.67,5.25h1.66c.91,0,2.11-.7,2.11-2.49,0-1.2-.57-2.19-2.01-2.19h-1.76V5.25Z"/>
        <path class="cls-2" d="M75.71,.93l-.03,.03V10.25h-.67V0h.97l3.49,8.78,.03-.03V0h.67V10.34h-.7l-3.76-9.42Z"/>
        <path class="cls-2" d="M52.36,0l-3.28,10.25h.74l.94-3.12h3.49l.93,3.12h.75L52.62,0h-.26Zm-1.46,6.56l1.59-5.15,1.61,5.15h-3.2Z"/>
      </g>
      <g>
        <g>
          <path class="cls-2" d="M2.88,26.43h.02l.35-5.32h.46l-.46,6.02h-.52l-.87-3-.86,3H.46l-.46-6.02H.46l.35,5.32h.02l1.03-3.31,1.03,3.31Z"/>
          <path class="cls-2" d="M6.75,24.08c0-1.36,.17-3.1,1.77-3.1,1.76,0,1.75,2.09,1.75,3.1,0,2.53-.79,3.1-1.75,3.1s-1.77-.55-1.77-3.1Zm1.77,2.77c.79,0,1.33-.62,1.33-2.77s-.57-2.77-1.33-2.77c-.86,0-1.36,.71-1.36,2.77,0,2.23,.61,2.77,1.36,2.77Z"/>
          <path class="cls-2" d="M16.12,26.43h.02l.35-5.32h.46l-.46,6.02h-.52l-.87-3-.86,3h-.52l-.46-6.02h.46l.35,5.32h.02l1.03-3.31,1.04,3.31Z"/>
        </g>
        <g>
          <path class="cls-2" d="M39.73,21.02h.45l-1.3,6.03h-.63l-1.35-6.03h.46l1.2,5.7h.02l1.16-5.7Z"/>
          <path class="cls-2" d="M46.89,21.35h-2.53v2.41h1.82v.33h-1.82v2.57h2.59v.33h-2.98v-5.98h2.92v.33Z"/>
          <path class="cls-2" d="M50.55,21.02h1.42c1,0,1.59,.67,1.59,1.64,0,.76-.42,1.43-1.15,1.66l1.61,2.67h-.49l-1.49-2.58h-1.1v2.58h-.39v-5.98Zm.39,3.06h.97c.53,0,1.23-.41,1.23-1.45,0-.7-.33-1.28-1.17-1.28h-1.03v2.73Z"/>
          <path class="cls-2" d="M60.41,21.35h-1.73v5.64h-.39v-5.64h-1.72v-.33h3.83v.33Z"/>
          <path class="cls-2" d="M66.82,21.35h-2.53v2.41h1.82v.33h-1.82v2.57h2.59v.33h-2.98v-5.98h2.92v.33Z"/>
          <path class="cls-2" d="M70.49,21.02h1.42c1,0,1.59,.67,1.59,1.64,0,.76-.42,1.43-1.15,1.66l1.61,2.67h-.49l-1.49-2.58h-1.1v2.58h-.39v-5.98Zm.39,3.06h.97c.53,0,1.23-.41,1.23-1.45,0-.7-.33-1.28-1.17-1.28h-1.03v2.73Z"/>
          <path class="cls-2" d="M80.11,21.35h-2.53v2.41h1.82v.33h-1.82v2.57h2.59v.33h-2.98v-5.98h2.92v.33Z"/>
        </g>
        <g>
          <line class="cls-1" x1="25.22" y1="21.98" x2="29.43" y2="26.19"/>
          <line class="cls-1" x1="25.22" y1="26.19" x2="29.43" y2="21.98"/>
        </g>
      </g>
    </g>
  </g>
</svg>