<svg width="100" height="100" viewBox="0 0 100 100" fill="none" xmlns="http://www.w3.org/2000/svg">
<circle cx="50" cy="50" r="48.5" fill="black" stroke="white" strokkWidth="3"/>
<path d="M50.1192 55.072C51.5592 55.072 52.7592 54.112 52.7592 52.432V52.144C52.7592 51.04 53.0472 50.416 54.0072 49.264L56.8872 45.856C58.7592 43.648 59.5272 41.728 59.5272 39.232C59.5272 34.432 55.9752 30.832 50.5032 30.832C45.7032 30.832 42.5352 33.328 41.4312 36.88C41.2872 37.312 41.2392 37.792 41.2392 38.128C41.2392 39.52 42.2952 40.48 43.7352 40.48C44.7912 40.48 45.7032 39.904 46.2312 38.608C46.9032 36.736 48.2472 35.632 50.3592 35.632C52.7112 35.632 54.0552 37.312 54.0552 39.28C54.0552 40.768 53.7192 41.824 52.0392 43.84L49.3992 47.008C47.8632 48.784 47.4792 50.08 47.4792 52.096V52.432C47.4792 54.112 48.6312 55.072 50.1192 55.072ZM46.9032 61.12C46.9032 62.944 48.3912 64.432 50.2152 64.432C51.9912 64.432 53.5272 62.944 53.5272 61.12C53.5272 59.296 51.9912 57.808 50.2152 57.808C48.3912 57.808 46.9032 59.296 46.9032 61.12Z" fill="white"/>
</svg>
