<svg width="76" height="75" viewBox="0 0 76 75" fill="none" xmlns="http://www.w3.org/2000/svg">
<circle cx="38" cy="37.5" r="35.3656" fill="black" stroke="white" stroke-width="4.26875"/>
<mask id="mask0_317_842" style="mask-type:alpha" maskUnits="userSpaceOnUse" x="0" y="0" width="76" height="75">
<circle cx="38" cy="37.5" r="35.3656" fill="black" stroke="white" stroke-width="4.26875"/>
</mask>
<g mask="url(#mask0_317_842)">
<rect x="3.80603" y="3" width="4.26875" height="4.26875" rx="2.13438" fill="white"/>
<rect x="16.6123" y="3" width="4.26875" height="4.26875" rx="2.13438" fill="white"/>
<rect x="29.4186" y="3" width="4.26875" height="4.26875" rx="2.13438" fill="white"/>
<rect x="42.2249" y="3" width="4.26875" height="4.26875" rx="2.13438" fill="white"/>
<rect x="55.031" y="3" width="4.26875" height="4.26875" rx="2.13438" fill="white"/>
<rect x="67.8373" y="3" width="4.26875" height="4.26875" rx="2.13438" fill="white"/>
<rect x="-2.59705" y="15.8062" width="4.26875" height="4.26875" rx="2.13438" fill="white"/>
<rect x="10.2094" y="15.8062" width="4.26875" height="4.26875" rx="2.13438" fill="white"/>
<rect x="23.0155" y="15.8062" width="4.26875" height="4.26875" rx="2.13438" fill="white"/>
<rect x="35.8218" y="15.8062" width="4.26875" height="4.26875" rx="2.13438" fill="white"/>
<rect x="48.6281" y="15.8062" width="4.26875" height="4.26875" rx="2.13438" fill="white"/>
<rect x="61.4343" y="15.8062" width="4.26875" height="4.26875" rx="2.13438" fill="white"/>
<rect x="74.2406" y="15.8062" width="4.26875" height="4.26875" rx="2.13438" fill="white"/>
<rect x="3.80579" y="28.6123" width="4.26875" height="4.26875" rx="2.13438" fill="white"/>
<rect x="16.6121" y="28.6123" width="4.26875" height="4.26875" rx="2.13438" fill="white"/>
<rect x="29.4183" y="28.6123" width="4.26875" height="4.26875" rx="2.13438" fill="white"/>
<rect x="42.2246" y="28.6123" width="4.26875" height="4.26875" rx="2.13438" fill="white"/>
<rect x="55.0308" y="28.6123" width="4.26875" height="4.26875" rx="2.13438" fill="white"/>
<rect x="67.837" y="28.6123" width="4.26875" height="4.26875" rx="2.13438" fill="white"/>
<rect x="-2.59705" y="41.4189" width="4.26875" height="4.26875" rx="2.13438" fill="white"/>
<rect x="10.2094" y="41.4189" width="4.26875" height="4.26875" rx="2.13438" fill="white"/>
<rect x="23.0155" y="41.4189" width="4.26875" height="4.26875" rx="2.13438" fill="white"/>
<rect x="35.8218" y="41.4189" width="4.26875" height="4.26875" rx="2.13438" fill="white"/>
<rect x="48.6281" y="41.4189" width="4.26875" height="4.26875" rx="2.13438" fill="white"/>
<rect x="61.4343" y="41.4189" width="4.26875" height="4.26875" rx="2.13438" fill="white"/>
<rect x="74.2406" y="41.4189" width="4.26875" height="4.26875" rx="2.13438" fill="white"/>
<rect x="3.80579" y="54.2251" width="4.26875" height="4.26875" rx="2.13438" fill="white"/>
<rect x="16.6121" y="54.2251" width="4.26875" height="4.26875" rx="2.13438" fill="white"/>
<rect x="29.4183" y="54.2251" width="4.26875" height="4.26875" rx="2.13438" fill="white"/>
<rect x="42.2246" y="54.2251" width="4.26875" height="4.26875" rx="2.13438" fill="white"/>
<rect x="55.0308" y="54.2251" width="4.26875" height="4.26875" rx="2.13438" fill="white"/>
<rect x="67.837" y="54.2251" width="4.26875" height="4.26875" rx="2.13438" fill="white"/>
<rect x="-2.59705" y="67.0312" width="4.26875" height="4.26875" rx="2.13438" fill="white"/>
<rect x="10.2094" y="67.0312" width="4.26875" height="4.26875" rx="2.13438" fill="white"/>
<rect x="23.0155" y="67.0312" width="4.26875" height="4.26875" rx="2.13438" fill="white"/>
<rect x="35.8218" y="67.0312" width="4.26875" height="4.26875" rx="2.13438" fill="white"/>
<rect x="48.6281" y="67.0312" width="4.26875" height="4.26875" rx="2.13438" fill="white"/>
<rect x="61.4343" y="67.0312" width="4.26875" height="4.26875" rx="2.13438" fill="white"/>
<rect x="74.2406" y="67.0312" width="4.26875" height="4.26875" rx="2.13438" fill="white"/>
</g>
</svg>
