<svg width="573" height="210" viewBox="0 0 573 210" fill="none" xmlns="http://www.w3.org/2000/svg">
<path fill-rule="evenodd" clip-rule="evenodd" d="M38.4375 54.216V0H33.641V53.4302C33.641 65.2818 27.6618 70.3236 19.3173 70.3236C11.4327 70.3236 4.79647 65.6747 4.79647 51.7933V0H0V55.3291C0 66.0675 9.26442 74.3833 19.3173 74.3833C27.4647 74.3833 38.4375 68.6212 38.4375 54.216ZM140.272 172.688V205.491H155.997C162.141 205.491 170.68 201.013 170.68 190.079C170.68 181.019 164.328 172.688 153.185 172.688H140.272ZM175.574 189.871C175.574 200.597 168.701 209.657 156.83 209.657H135.378V134.678H153.706C164.64 134.678 172.242 141.551 172.242 153.006C172.242 161.233 167.556 166.752 160.266 169.981C169.951 172.792 175.574 179.77 175.574 189.871ZM140.272 138.844V168.523H147.874C160.683 168.523 167.347 162.275 167.347 152.694C167.347 144.676 163.911 138.844 151.415 138.844H140.272ZM224.21 134.678H260.866V138.844H229.104V169.043H251.91V173.209H229.104V205.491H261.595V209.657H224.21V134.678ZM346.366 134.678H309.71V209.657H347.095V205.491H314.605V173.209H337.41V169.043H314.605V138.844H346.366V134.678ZM399.376 209.657H394.481V134.678H412.289C424.889 134.678 432.179 143.113 432.179 155.297C432.179 164.774 426.868 173.209 417.704 176.125L437.906 209.657H431.762L413.122 177.27H399.376V209.657ZM412.289 138.844H399.376V173.105H411.56C418.224 173.105 426.972 168.002 426.972 154.881C426.972 146.133 422.806 138.844 412.289 138.844ZM95.9294 6.61345L95.7323 6.80989V72.9429H90.9358V0.000148594H97.8349L122.737 62.5319L122.934 62.3354V0.000148594H127.731V73.6632H122.737L95.9294 6.61345ZM221.689 68.8833H189.559V0.000148594H184.763V72.9429H221.689V68.8833ZM304.083 4.0598H273.07V33.4595H295.344V37.5192H273.07V68.9487H304.806V73.0084H268.34V0.000148594H304.149V4.0598H304.083ZM463.812 0.000148594H446.4V72.8774H451.197V41.3824H464.601L482.801 72.8774H488.78L469.069 40.2693C478.004 37.4537 483.195 29.2689 483.195 20.0365C483.195 8.18493 476.099 0.000148594 463.812 0.000148594ZM463.089 37.3882H451.197V4.0598H463.812C474.062 4.0598 478.136 11.1314 478.136 19.6436C478.136 32.4119 469.594 37.3882 463.089 37.3882ZM540.885 6.61345L540.687 6.80989V72.9429H535.891V0.000148594H542.79L567.692 62.5319L567.889 62.3354V0.000148594H572.686V73.6632H567.692L540.885 6.61345ZM350.602 72.9429L374.059 0.000148594H375.965L399.487 72.9429H394.099L387.463 50.7458H362.561L355.859 72.9429H350.602ZM374.979 10.0183L363.612 46.6861H386.477L374.979 10.0183Z" fill="black"/>
</svg>
